<?xml version="1.0" standalone="no"?>
 <!DOCTYPE svg PUBLIC "-//W3C//DTD SVG 1.1//EN" 
 "http://www.w3.org/Graphics/SVG/1.1/DTD/svg11.dtd"> 
<svg
  xmlns:svg="http://www.w3.org/2000/svg"
  xmlns="http://www.w3.org/2000/svg"
  xmlns:xlink="http://www.w3.org/1999/xlink"
  version="1.1"
  width="115.3922mm" height="171.5262mm" viewBox="0.0000 0.0000 115.3922 171.5262">
<title>SVG Image created as Schematic-B_Silkscreen.svg date 2023/10/12 12:03:12 </title>
  <desc>Image generated by PCBNEW </desc>
<g style="fill:#000000; fill-opacity:1.0000;stroke:#000000; stroke-opacity:1.0000;
stroke-linecap:round; stroke-linejoin:round;"
 transform="translate(0 0) scale(1 1)">
</g>
<g style="fill:#000000; fill-opacity:0.0; 
stroke:#000000; stroke-width:0.0000; stroke-opacity:1; 
stroke-linecap:round; stroke-linejoin:round;">
</g>
<g style="fill:#E8B2A7; fill-opacity:0.0; 
stroke:#E8B2A7; stroke-width:0.0000; stroke-opacity:1; 
stroke-linecap:round; stroke-linejoin:round;">
</g>
<g style="fill:#E8B2A7; fill-opacity:0.0; 
stroke:#E8B2A7; stroke-width:0.1500; stroke-opacity:1; 
stroke-linecap:round; stroke-linejoin:round;">
<g transform="rotate(-90.000000 37.8110 11.0990)">
<text x="37.8110" y="11.5990"
transform="scale(-1 1) translate(-75.622000 0)"
textLength="3.0798" font-size="1.3333" lengthAdjust="spacingAndGlyphs"
text-anchor="middle" opacity="0">R49</text>
</g>
<g class="stroked-text"><desc>R49</desc>
<path d="M38.2736 10.4561
L37.7974 10.1228
" />
<path d="M38.2736 9.8847
L37.2736 9.8847
" />
<path d="M37.2736 9.8847
L37.2736 10.2657
" />
<path d="M37.2736 10.2657
L37.3212 10.3609
" />
<path d="M37.3212 10.3609
L37.3689 10.4085
" />
<path d="M37.3689 10.4085
L37.4641 10.4561
" />
<path d="M37.4641 10.4561
L37.6070 10.4561
" />
<path d="M37.6070 10.4561
L37.7022 10.4085
" />
<path d="M37.7022 10.4085
L37.7498 10.3609
" />
<path d="M37.7498 10.3609
L37.7974 10.2657
" />
<path d="M37.7974 10.2657
L37.7974 9.8847
" />
<path d="M37.6070 11.3133
L38.2736 11.3133
" />
<path d="M37.2260 11.0752
L37.9403 10.8371
" />
<path d="M37.9403 10.8371
L37.9403 11.4561
" />
<path d="M38.2736 11.8847
L38.2736 12.0752
" />
<path d="M38.2736 12.0752
L38.2260 12.1704
" />
<path d="M38.2260 12.1704
L38.1784 12.2180
" />
<path d="M38.1784 12.2180
L38.0355 12.3133
" />
<path d="M38.0355 12.3133
L37.8450 12.3609
" />
<path d="M37.8450 12.3609
L37.4641 12.3609
" />
<path d="M37.4641 12.3609
L37.3689 12.3133
" />
<path d="M37.3689 12.3133
L37.3212 12.2657
" />
<path d="M37.3212 12.2657
L37.2736 12.1704
" />
<path d="M37.2736 12.1704
L37.2736 11.9800
" />
<path d="M37.2736 11.9800
L37.3212 11.8847
" />
<path d="M37.3212 11.8847
L37.3689 11.8371
" />
<path d="M37.3689 11.8371
L37.4641 11.7895
" />
<path d="M37.4641 11.7895
L37.7022 11.7895
" />
<path d="M37.7022 11.7895
L37.7974 11.8371
" />
<path d="M37.7974 11.8371
L37.8450 11.8847
" />
<path d="M37.8450 11.8847
L37.8927 11.9800
" />
<path d="M37.8927 11.9800
L37.8927 12.1704
" />
<path d="M37.8927 12.1704
L37.8450 12.2657
" />
<path d="M37.8450 12.2657
L37.7974 12.3133
" />
<path d="M37.7974 12.3133
L37.7022 12.3609
" />
</g><text x="49.9610" y="120.4380"
transform="scale(-1 1) translate(-99.922000 0)"
textLength="2.1274" font-size="1.3333" lengthAdjust="spacingAndGlyphs"
text-anchor="middle" opacity="0">C3</text>
<g class="stroked-text"><desc>C3</desc>
<path d="M50.1277 120.3054
L50.1753 120.3530
" />
<path d="M50.1753 120.3530
L50.3181 120.4006
" />
<path d="M50.3181 120.4006
L50.4134 120.4006
" />
<path d="M50.4134 120.4006
L50.5562 120.3530
" />
<path d="M50.5562 120.3530
L50.6515 120.2578
" />
<path d="M50.6515 120.2578
L50.6991 120.1625
" />
<path d="M50.6991 120.1625
L50.7467 119.9720
" />
<path d="M50.7467 119.9720
L50.7467 119.8292
" />
<path d="M50.7467 119.8292
L50.6991 119.6387
" />
<path d="M50.6991 119.6387
L50.6515 119.5435
" />
<path d="M50.6515 119.5435
L50.5562 119.4482
" />
<path d="M50.5562 119.4482
L50.4134 119.4006
" />
<path d="M50.4134 119.4006
L50.3181 119.4006
" />
<path d="M50.3181 119.4006
L50.1753 119.4482
" />
<path d="M50.1753 119.4482
L50.1277 119.4959
" />
<path d="M49.7943 119.4006
L49.1753 119.4006
" />
<path d="M49.1753 119.4006
L49.5086 119.7816
" />
<path d="M49.5086 119.7816
L49.3658 119.7816
" />
<path d="M49.3658 119.7816
L49.2705 119.8292
" />
<path d="M49.2705 119.8292
L49.2229 119.8768
" />
<path d="M49.2229 119.8768
L49.1753 119.9720
" />
<path d="M49.1753 119.9720
L49.1753 120.2101
" />
<path d="M49.1753 120.2101
L49.2229 120.3054
" />
<path d="M49.2229 120.3054
L49.2705 120.3530
" />
<path d="M49.2705 120.3530
L49.3658 120.4006
" />
<path d="M49.3658 120.4006
L49.6515 120.4006
" />
<path d="M49.6515 120.4006
L49.7467 120.3530
" />
<path d="M49.7467 120.3530
L49.7943 120.3054
" />
</g><g transform="rotate(-90.000000 81.9230 68.7570)">
<text x="81.9230" y="69.2570"
transform="scale(-1 1) translate(-163.846000 0)"
textLength="3.0798" font-size="1.3333" lengthAdjust="spacingAndGlyphs"
text-anchor="middle" opacity="0">R41</text>
</g>
<g class="stroked-text"><desc>R41</desc>
<path d="M82.3856 68.1141
L81.9094 67.7808
" />
<path d="M82.3856 67.5427
L81.3856 67.5427
" />
<path d="M81.3856 67.5427
L81.3856 67.9237
" />
<path d="M81.3856 67.9237
L81.4332 68.0189
" />
<path d="M81.4332 68.0189
L81.4809 68.0665
" />
<path d="M81.4809 68.0665
L81.5761 68.1141
" />
<path d="M81.5761 68.1141
L81.7190 68.1141
" />
<path d="M81.7190 68.1141
L81.8142 68.0665
" />
<path d="M81.8142 68.0665
L81.8618 68.0189
" />
<path d="M81.8618 68.0189
L81.9094 67.9237
" />
<path d="M81.9094 67.9237
L81.9094 67.5427
" />
<path d="M81.7190 68.9713
L82.3856 68.9713
" />
<path d="M81.3380 68.7332
L82.0523 68.4951
" />
<path d="M82.0523 68.4951
L82.0523 69.1141
" />
<path d="M82.3856 70.0189
L82.3856 69.4475
" />
<path d="M82.3856 69.7332
L81.3856 69.7332
" />
<path d="M81.3856 69.7332
L81.5285 69.6380
" />
<path d="M81.5285 69.6380
L81.6237 69.5427
" />
<path d="M81.6237 69.5427
L81.6713 69.4475
" />
</g><g transform="rotate(45.000000 58.3430 109.3970)">
<text x="58.3430" y="109.8970"
transform="scale(-1 1) translate(-116.686000 0)"
textLength="2.1274" font-size="1.3333" lengthAdjust="spacingAndGlyphs"
text-anchor="middle" opacity="0">C4</text>
</g>
<g class="stroked-text"><desc>C4</desc>
<path d="M58.2011 109.7746
L58.2011 109.8420
" />
<path d="M58.2011 109.8420
L58.2684 109.9767
" />
<path d="M58.2684 109.9767
L58.3358 110.0440
" />
<path d="M58.3358 110.0440
L58.4704 110.1113
" />
<path d="M58.4704 110.1113
L58.6051 110.1113
" />
<path d="M58.6051 110.1113
L58.7061 110.0777
" />
<path d="M58.7061 110.0777
L58.8745 109.9767
" />
<path d="M58.8745 109.9767
L58.9755 109.8756
" />
<path d="M58.9755 109.8756
L59.0765 109.7073
" />
<path d="M59.0765 109.7073
L59.1102 109.6063
" />
<path d="M59.1102 109.6063
L59.1102 109.4716
" />
<path d="M59.1102 109.4716
L59.0429 109.3369
" />
<path d="M59.0429 109.3369
L58.9755 109.2696
" />
<path d="M58.9755 109.2696
L58.8408 109.2022
" />
<path d="M58.8408 109.2022
L58.7735 109.2022
" />
<path d="M57.9990 108.7645
L57.5276 109.2359
" />
<path d="M58.4368 108.6635
L58.1001 109.3369
" />
<path d="M58.1001 109.3369
L57.6623 108.8992
" />
</g><g transform="rotate(-90.000000 33.8740 23.1640)">
<text x="33.8740" y="23.6640"
transform="scale(-1 1) translate(-67.748000 0)"
textLength="3.0798" font-size="1.3333" lengthAdjust="spacingAndGlyphs"
text-anchor="middle" opacity="0">R39</text>
</g>
<g class="stroked-text"><desc>R39</desc>
<path d="M34.3366 22.5211
L33.8604 22.1878
" />
<path d="M34.3366 21.9497
L33.3366 21.9497
" />
<path d="M33.3366 21.9497
L33.3366 22.3307
" />
<path d="M33.3366 22.3307
L33.3842 22.4259
" />
<path d="M33.3842 22.4259
L33.4319 22.4735
" />
<path d="M33.4319 22.4735
L33.5271 22.5211
" />
<path d="M33.5271 22.5211
L33.6700 22.5211
" />
<path d="M33.6700 22.5211
L33.7652 22.4735
" />
<path d="M33.7652 22.4735
L33.8128 22.4259
" />
<path d="M33.8128 22.4259
L33.8604 22.3307
" />
<path d="M33.8604 22.3307
L33.8604 21.9497
" />
<path d="M33.3366 22.8545
L33.3366 23.4735
" />
<path d="M33.3366 23.4735
L33.7176 23.1402
" />
<path d="M33.7176 23.1402
L33.7176 23.2830
" />
<path d="M33.7176 23.2830
L33.7652 23.3783
" />
<path d="M33.7652 23.3783
L33.8128 23.4259
" />
<path d="M33.8128 23.4259
L33.9080 23.4735
" />
<path d="M33.9080 23.4735
L34.1461 23.4735
" />
<path d="M34.1461 23.4735
L34.2414 23.4259
" />
<path d="M34.2414 23.4259
L34.2890 23.3783
" />
<path d="M34.2890 23.3783
L34.3366 23.2830
" />
<path d="M34.3366 23.2830
L34.3366 22.9973
" />
<path d="M34.3366 22.9973
L34.2890 22.9021
" />
<path d="M34.2890 22.9021
L34.2414 22.8545
" />
<path d="M34.3366 23.9497
L34.3366 24.1402
" />
<path d="M34.3366 24.1402
L34.2890 24.2354
" />
<path d="M34.2890 24.2354
L34.2414 24.2830
" />
<path d="M34.2414 24.2830
L34.0985 24.3783
" />
<path d="M34.0985 24.3783
L33.9080 24.4259
" />
<path d="M33.9080 24.4259
L33.5271 24.4259
" />
<path d="M33.5271 24.4259
L33.4319 24.3783
" />
<path d="M33.4319 24.3783
L33.3842 24.3307
" />
<path d="M33.3842 24.3307
L33.3366 24.2354
" />
<path d="M33.3366 24.2354
L33.3366 24.0450
" />
<path d="M33.3366 24.0450
L33.3842 23.9497
" />
<path d="M33.3842 23.9497
L33.4319 23.9021
" />
<path d="M33.4319 23.9021
L33.5271 23.8545
" />
<path d="M33.5271 23.8545
L33.7652 23.8545
" />
<path d="M33.7652 23.8545
L33.8604 23.9021
" />
<path d="M33.8604 23.9021
L33.9080 23.9497
" />
<path d="M33.9080 23.9497
L33.9557 24.0450
" />
<path d="M33.9557 24.0450
L33.9557 24.2354
" />
<path d="M33.9557 24.2354
L33.9080 24.3307
" />
<path d="M33.9080 24.3307
L33.8604 24.3783
" />
<path d="M33.8604 24.3783
L33.7652 24.4259
" />
</g><g transform="rotate(-90.000000 34.0010 35.4830)">
<text x="34.0010" y="35.9830"
transform="scale(-1 1) translate(-68.002000 0)"
textLength="3.0798" font-size="1.3333" lengthAdjust="spacingAndGlyphs"
text-anchor="middle" opacity="0">R45</text>
</g>
<g class="stroked-text"><desc>R45</desc>
<path d="M34.4636 34.8401
L33.9874 34.5068
" />
<path d="M34.4636 34.2687
L33.4636 34.2687
" />
<path d="M33.4636 34.2687
L33.4636 34.6497
" />
<path d="M33.4636 34.6497
L33.5112 34.7449
" />
<path d="M33.5112 34.7449
L33.5589 34.7925
" />
<path d="M33.5589 34.7925
L33.6541 34.8401
" />
<path d="M33.6541 34.8401
L33.7970 34.8401
" />
<path d="M33.7970 34.8401
L33.8922 34.7925
" />
<path d="M33.8922 34.7925
L33.9398 34.7449
" />
<path d="M33.9398 34.7449
L33.9874 34.6497
" />
<path d="M33.9874 34.6497
L33.9874 34.2687
" />
<path d="M33.7970 35.6973
L34.4636 35.6973
" />
<path d="M33.4160 35.4592
L34.1303 35.2211
" />
<path d="M34.1303 35.2211
L34.1303 35.8401
" />
<path d="M33.4636 36.6973
L33.4636 36.2211
" />
<path d="M33.4636 36.2211
L33.9398 36.1735
" />
<path d="M33.9398 36.1735
L33.8922 36.2211
" />
<path d="M33.8922 36.2211
L33.8446 36.3163
" />
<path d="M33.8446 36.3163
L33.8446 36.5544
" />
<path d="M33.8446 36.5544
L33.8922 36.6497
" />
<path d="M33.8922 36.6497
L33.9398 36.6973
" />
<path d="M33.9398 36.6973
L34.0350 36.7449
" />
<path d="M34.0350 36.7449
L34.2731 36.7449
" />
<path d="M34.2731 36.7449
L34.3684 36.6973
" />
<path d="M34.3684 36.6973
L34.4160 36.6497
" />
<path d="M34.4160 36.6497
L34.4636 36.5544
" />
<path d="M34.4636 36.5544
L34.4636 36.3163
" />
<path d="M34.4636 36.3163
L34.4160 36.2211
" />
<path d="M34.4160 36.2211
L34.3684 36.1735
" />
</g><g transform="rotate(-90.000000 38.0650 23.2910)">
<text x="38.0650" y="23.7910"
transform="scale(-1 1) translate(-76.130000 0)"
textLength="3.0798" font-size="1.3333" lengthAdjust="spacingAndGlyphs"
text-anchor="middle" opacity="0">R50</text>
</g>
<g class="stroked-text"><desc>R50</desc>
<path d="M38.5276 22.6481
L38.0514 22.3148
" />
<path d="M38.5276 22.0767
L37.5276 22.0767
" />
<path d="M37.5276 22.0767
L37.5276 22.4577
" />
<path d="M37.5276 22.4577
L37.5752 22.5529
" />
<path d="M37.5752 22.5529
L37.6229 22.6005
" />
<path d="M37.6229 22.6005
L37.7181 22.6481
" />
<path d="M37.7181 22.6481
L37.8610 22.6481
" />
<path d="M37.8610 22.6481
L37.9562 22.6005
" />
<path d="M37.9562 22.6005
L38.0038 22.5529
" />
<path d="M38.0038 22.5529
L38.0514 22.4577
" />
<path d="M38.0514 22.4577
L38.0514 22.0767
" />
<path d="M37.5276 23.5529
L37.5276 23.0767
" />
<path d="M37.5276 23.0767
L38.0038 23.0291
" />
<path d="M38.0038 23.0291
L37.9562 23.0767
" />
<path d="M37.9562 23.0767
L37.9086 23.1720
" />
<path d="M37.9086 23.1720
L37.9086 23.4100
" />
<path d="M37.9086 23.4100
L37.9562 23.5053
" />
<path d="M37.9562 23.5053
L38.0038 23.5529
" />
<path d="M38.0038 23.5529
L38.0990 23.6005
" />
<path d="M38.0990 23.6005
L38.3371 23.6005
" />
<path d="M38.3371 23.6005
L38.4324 23.5529
" />
<path d="M38.4324 23.5529
L38.4800 23.5053
" />
<path d="M38.4800 23.5053
L38.5276 23.4100
" />
<path d="M38.5276 23.4100
L38.5276 23.1720
" />
<path d="M38.5276 23.1720
L38.4800 23.0767
" />
<path d="M38.4800 23.0767
L38.4324 23.0291
" />
<path d="M37.5276 24.2196
L37.5276 24.3148
" />
<path d="M37.5276 24.3148
L37.5752 24.4100
" />
<path d="M37.5752 24.4100
L37.6229 24.4577
" />
<path d="M37.6229 24.4577
L37.7181 24.5053
" />
<path d="M37.7181 24.5053
L37.9086 24.5529
" />
<path d="M37.9086 24.5529
L38.1467 24.5529
" />
<path d="M38.1467 24.5529
L38.3371 24.5053
" />
<path d="M38.3371 24.5053
L38.4324 24.4577
" />
<path d="M38.4324 24.4577
L38.4800 24.4100
" />
<path d="M38.4800 24.4100
L38.5276 24.3148
" />
<path d="M38.5276 24.3148
L38.5276 24.2196
" />
<path d="M38.5276 24.2196
L38.4800 24.1243
" />
<path d="M38.4800 24.1243
L38.4324 24.0767
" />
<path d="M38.4324 24.0767
L38.3371 24.0291
" />
<path d="M38.3371 24.0291
L38.1467 23.9815
" />
<path d="M38.1467 23.9815
L37.9086 23.9815
" />
<path d="M37.9086 23.9815
L37.7181 24.0291
" />
<path d="M37.7181 24.0291
L37.6229 24.0767
" />
<path d="M37.6229 24.0767
L37.5752 24.1243
" />
<path d="M37.5752 24.1243
L37.5276 24.2196
" />
</g><g transform="rotate(-45.000000 43.6110 109.9050)">
<text x="43.6110" y="110.4050"
transform="scale(-1 1) translate(-87.222000 0)"
textLength="2.1274" font-size="1.3333" lengthAdjust="spacingAndGlyphs"
text-anchor="middle" opacity="0">C2</text>
</g>
<g class="stroked-text"><desc>C2</desc>
<path d="M43.9886 110.0469
L44.0560 110.0469
" />
<path d="M44.0560 110.0469
L44.1907 109.9796
" />
<path d="M44.1907 109.9796
L44.2580 109.9122
" />
<path d="M44.2580 109.9122
L44.3253 109.7776
" />
<path d="M44.3253 109.7776
L44.3253 109.6429
" />
<path d="M44.3253 109.6429
L44.2917 109.5418
" />
<path d="M44.2917 109.5418
L44.1907 109.3735
" />
<path d="M44.1907 109.3735
L44.0896 109.2725
" />
<path d="M44.0896 109.2725
L43.9213 109.1715
" />
<path d="M43.9213 109.1715
L43.8203 109.1378
" />
<path d="M43.8203 109.1378
L43.6856 109.1378
" />
<path d="M43.6856 109.1378
L43.5509 109.2051
" />
<path d="M43.5509 109.2051
L43.4836 109.2725
" />
<path d="M43.4836 109.2725
L43.4162 109.4072
" />
<path d="M43.4162 109.4072
L43.4162 109.4745
" />
<path d="M43.1468 109.7439
L43.0795 109.7439
" />
<path d="M43.0795 109.7439
L42.9785 109.7776
" />
<path d="M42.9785 109.7776
L42.8101 109.9459
" />
<path d="M42.8101 109.9459
L42.7764 110.0469
" />
<path d="M42.7764 110.0469
L42.7764 110.1143
" />
<path d="M42.7764 110.1143
L42.8101 110.2153
" />
<path d="M42.8101 110.2153
L42.8775 110.2826
" />
<path d="M42.8775 110.2826
L43.0121 110.3500
" />
<path d="M43.0121 110.3500
L43.8203 110.3500
" />
<path d="M43.8203 110.3500
L43.3825 110.7877
" />
</g><g transform="rotate(-90.000000 33.8740 11.4800)">
<text x="33.8740" y="11.9800"
transform="scale(-1 1) translate(-67.748000 0)"
textLength="3.0798" font-size="1.3333" lengthAdjust="spacingAndGlyphs"
text-anchor="middle" opacity="0">R38</text>
</g>
<g class="stroked-text"><desc>R38</desc>
<path d="M34.3366 10.8371
L33.8604 10.5038
" />
<path d="M34.3366 10.2657
L33.3366 10.2657
" />
<path d="M33.3366 10.2657
L33.3366 10.6467
" />
<path d="M33.3366 10.6467
L33.3842 10.7419
" />
<path d="M33.3842 10.7419
L33.4319 10.7895
" />
<path d="M33.4319 10.7895
L33.5271 10.8371
" />
<path d="M33.5271 10.8371
L33.6700 10.8371
" />
<path d="M33.6700 10.8371
L33.7652 10.7895
" />
<path d="M33.7652 10.7895
L33.8128 10.7419
" />
<path d="M33.8128 10.7419
L33.8604 10.6467
" />
<path d="M33.8604 10.6467
L33.8604 10.2657
" />
<path d="M33.3366 11.1705
L33.3366 11.7895
" />
<path d="M33.3366 11.7895
L33.7176 11.4562
" />
<path d="M33.7176 11.4562
L33.7176 11.5990
" />
<path d="M33.7176 11.5990
L33.7652 11.6943
" />
<path d="M33.7652 11.6943
L33.8128 11.7419
" />
<path d="M33.8128 11.7419
L33.9080 11.7895
" />
<path d="M33.9080 11.7895
L34.1461 11.7895
" />
<path d="M34.1461 11.7895
L34.2414 11.7419
" />
<path d="M34.2414 11.7419
L34.2890 11.6943
" />
<path d="M34.2890 11.6943
L34.3366 11.5990
" />
<path d="M34.3366 11.5990
L34.3366 11.3133
" />
<path d="M34.3366 11.3133
L34.2890 11.2181
" />
<path d="M34.2890 11.2181
L34.2414 11.1705
" />
<path d="M33.7652 12.3610
L33.7176 12.2657
" />
<path d="M33.7176 12.2657
L33.6700 12.2181
" />
<path d="M33.6700 12.2181
L33.5747 12.1705
" />
<path d="M33.5747 12.1705
L33.5271 12.1705
" />
<path d="M33.5271 12.1705
L33.4319 12.2181
" />
<path d="M33.4319 12.2181
L33.3842 12.2657
" />
<path d="M33.3842 12.2657
L33.3366 12.3610
" />
<path d="M33.3366 12.3610
L33.3366 12.5514
" />
<path d="M33.3366 12.5514
L33.3842 12.6467
" />
<path d="M33.3842 12.6467
L33.4319 12.6943
" />
<path d="M33.4319 12.6943
L33.5271 12.7419
" />
<path d="M33.5271 12.7419
L33.5747 12.7419
" />
<path d="M33.5747 12.7419
L33.6700 12.6943
" />
<path d="M33.6700 12.6943
L33.7176 12.6467
" />
<path d="M33.7176 12.6467
L33.7652 12.5514
" />
<path d="M33.7652 12.5514
L33.7652 12.3610
" />
<path d="M33.7652 12.3610
L33.8128 12.2657
" />
<path d="M33.8128 12.2657
L33.8604 12.2181
" />
<path d="M33.8604 12.2181
L33.9557 12.1705
" />
<path d="M33.9557 12.1705
L34.1461 12.1705
" />
<path d="M34.1461 12.1705
L34.2414 12.2181
" />
<path d="M34.2414 12.2181
L34.2890 12.2657
" />
<path d="M34.2890 12.2657
L34.3366 12.3610
" />
<path d="M34.3366 12.3610
L34.3366 12.5514
" />
<path d="M34.3366 12.5514
L34.2890 12.6467
" />
<path d="M34.2890 12.6467
L34.2414 12.6943
" />
<path d="M34.2414 12.6943
L34.1461 12.7419
" />
<path d="M34.1461 12.7419
L33.9557 12.7419
" />
<path d="M33.9557 12.7419
L33.8604 12.6943
" />
<path d="M33.8604 12.6943
L33.8128 12.6467
" />
<path d="M33.8128 12.6467
L33.7652 12.5514
" />
</g><g transform="rotate(-90.000000 18.5070 10.8710)">
<text x="18.5070" y="11.3710"
transform="scale(-1 1) translate(-37.014000 0)"
textLength="3.0798" font-size="1.3333" lengthAdjust="spacingAndGlyphs"
text-anchor="middle" opacity="0">R48</text>
</g>
<g class="stroked-text"><desc>R48</desc>
<path d="M18.9696 10.2281
L18.4934 9.8948
" />
<path d="M18.9696 9.6567
L17.9696 9.6567
" />
<path d="M17.9696 9.6567
L17.9696 10.0377
" />
<path d="M17.9696 10.0377
L18.0172 10.1329
" />
<path d="M18.0172 10.1329
L18.0649 10.1805
" />
<path d="M18.0649 10.1805
L18.1601 10.2281
" />
<path d="M18.1601 10.2281
L18.3030 10.2281
" />
<path d="M18.3030 10.2281
L18.3982 10.1805
" />
<path d="M18.3982 10.1805
L18.4458 10.1329
" />
<path d="M18.4458 10.1329
L18.4934 10.0377
" />
<path d="M18.4934 10.0377
L18.4934 9.6567
" />
<path d="M18.3030 11.0853
L18.9696 11.0853
" />
<path d="M17.9220 10.8472
L18.6363 10.6091
" />
<path d="M18.6363 10.6091
L18.6363 11.2281
" />
<path d="M18.3982 11.7520
L18.3506 11.6567
" />
<path d="M18.3506 11.6567
L18.3030 11.6091
" />
<path d="M18.3030 11.6091
L18.2077 11.5615
" />
<path d="M18.2077 11.5615
L18.1601 11.5615
" />
<path d="M18.1601 11.5615
L18.0649 11.6091
" />
<path d="M18.0649 11.6091
L18.0172 11.6567
" />
<path d="M18.0172 11.6567
L17.9696 11.7520
" />
<path d="M17.9696 11.7520
L17.9696 11.9424
" />
<path d="M17.9696 11.9424
L18.0172 12.0377
" />
<path d="M18.0172 12.0377
L18.0649 12.0853
" />
<path d="M18.0649 12.0853
L18.1601 12.1329
" />
<path d="M18.1601 12.1329
L18.2077 12.1329
" />
<path d="M18.2077 12.1329
L18.3030 12.0853
" />
<path d="M18.3030 12.0853
L18.3506 12.0377
" />
<path d="M18.3506 12.0377
L18.3982 11.9424
" />
<path d="M18.3982 11.9424
L18.3982 11.7520
" />
<path d="M18.3982 11.7520
L18.4458 11.6567
" />
<path d="M18.4458 11.6567
L18.4934 11.6091
" />
<path d="M18.4934 11.6091
L18.5887 11.5615
" />
<path d="M18.5887 11.5615
L18.7791 11.5615
" />
<path d="M18.7791 11.5615
L18.8744 11.6091
" />
<path d="M18.8744 11.6091
L18.9220 11.6567
" />
<path d="M18.9220 11.6567
L18.9696 11.7520
" />
<path d="M18.9696 11.7520
L18.9696 11.9424
" />
<path d="M18.9696 11.9424
L18.9220 12.0377
" />
<path d="M18.9220 12.0377
L18.8744 12.0853
" />
<path d="M18.8744 12.0853
L18.7791 12.1329
" />
<path d="M18.7791 12.1329
L18.5887 12.1329
" />
<path d="M18.5887 12.1329
L18.4934 12.0853
" />
<path d="M18.4934 12.0853
L18.4458 12.0377
" />
<path d="M18.4458 12.0377
L18.3982 11.9424
" />
</g><g transform="rotate(-90.000000 34.0010 60.4010)">
<text x="34.0010" y="60.9010"
transform="scale(-1 1) translate(-68.002000 0)"
textLength="3.0798" font-size="1.3333" lengthAdjust="spacingAndGlyphs"
text-anchor="middle" opacity="0">R47</text>
</g>
<g class="stroked-text"><desc>R47</desc>
<path d="M34.4636 59.7581
L33.9874 59.4248
" />
<path d="M34.4636 59.1867
L33.4636 59.1867
" />
<path d="M33.4636 59.1867
L33.4636 59.5677
" />
<path d="M33.4636 59.5677
L33.5112 59.6629
" />
<path d="M33.5112 59.6629
L33.5589 59.7105
" />
<path d="M33.5589 59.7105
L33.6541 59.7581
" />
<path d="M33.6541 59.7581
L33.7970 59.7581
" />
<path d="M33.7970 59.7581
L33.8922 59.7105
" />
<path d="M33.8922 59.7105
L33.9398 59.6629
" />
<path d="M33.9398 59.6629
L33.9874 59.5677
" />
<path d="M33.9874 59.5677
L33.9874 59.1867
" />
<path d="M33.7970 60.6153
L34.4636 60.6153
" />
<path d="M33.4160 60.3772
L34.1303 60.1391
" />
<path d="M34.1303 60.1391
L34.1303 60.7581
" />
<path d="M33.4636 61.0439
L33.4636 61.7105
" />
<path d="M33.4636 61.7105
L34.4636 61.2820
" />
</g><g transform="rotate(45.000000 50.2971 103.9809)">
<text x="50.2971" y="104.4809"
transform="scale(-1 1) translate(-100.594122 0)"
textLength="2.1274" font-size="1.3333" lengthAdjust="spacingAndGlyphs"
text-anchor="middle" opacity="0">C5</text>
</g>
<g class="stroked-text"><desc>C5</desc>
<path d="M50.1551 104.3586
L50.1551 104.4259
" />
<path d="M50.1551 104.4259
L50.2225 104.5606
" />
<path d="M50.2225 104.5606
L50.2898 104.6279
" />
<path d="M50.2898 104.6279
L50.4245 104.6953
" />
<path d="M50.4245 104.6953
L50.5592 104.6953
" />
<path d="M50.5592 104.6953
L50.6602 104.6616
" />
<path d="M50.6602 104.6616
L50.8286 104.5606
" />
<path d="M50.8286 104.5606
L50.9296 104.4596
" />
<path d="M50.9296 104.4596
L51.0306 104.2912
" />
<path d="M51.0306 104.2912
L51.0643 104.1902
" />
<path d="M51.0643 104.1902
L51.0643 104.0555
" />
<path d="M51.0643 104.0555
L50.9969 103.9208
" />
<path d="M50.9969 103.9208
L50.9296 103.8535
" />
<path d="M50.9296 103.8535
L50.7949 103.7861
" />
<path d="M50.7949 103.7861
L50.7276 103.7861
" />
<path d="M50.1551 103.0790
L50.4919 103.4158
" />
<path d="M50.4919 103.4158
L50.1888 103.7861
" />
<path d="M50.1888 103.7861
L50.1888 103.7188
" />
<path d="M50.1888 103.7188
L50.1551 103.6178
" />
<path d="M50.1551 103.6178
L49.9868 103.4494
" />
<path d="M49.9868 103.4494
L49.8858 103.4158
" />
<path d="M49.8858 103.4158
L49.8184 103.4158
" />
<path d="M49.8184 103.4158
L49.7174 103.4494
" />
<path d="M49.7174 103.4494
L49.5490 103.6178
" />
<path d="M49.5490 103.6178
L49.5154 103.7188
" />
<path d="M49.5154 103.7188
L49.5154 103.7861
" />
<path d="M49.5154 103.7861
L49.5490 103.8872
" />
<path d="M49.5490 103.8872
L49.7174 104.0555
" />
<path d="M49.7174 104.0555
L49.8184 104.0892
" />
<path d="M49.8184 104.0892
L49.8858 104.0892
" />
</g><g transform="rotate(-90.000000 34.1280 47.8020)">
<text x="34.1280" y="48.3020"
transform="scale(-1 1) translate(-68.256000 0)"
textLength="3.0798" font-size="1.3333" lengthAdjust="spacingAndGlyphs"
text-anchor="middle" opacity="0">R46</text>
</g>
<g class="stroked-text"><desc>R46</desc>
<path d="M34.5906 47.1591
L34.1144 46.8258
" />
<path d="M34.5906 46.5877
L33.5906 46.5877
" />
<path d="M33.5906 46.5877
L33.5906 46.9687
" />
<path d="M33.5906 46.9687
L33.6382 47.0639
" />
<path d="M33.6382 47.0639
L33.6859 47.1115
" />
<path d="M33.6859 47.1115
L33.7811 47.1591
" />
<path d="M33.7811 47.1591
L33.9240 47.1591
" />
<path d="M33.9240 47.1591
L34.0192 47.1115
" />
<path d="M34.0192 47.1115
L34.0668 47.0639
" />
<path d="M34.0668 47.0639
L34.1144 46.9687
" />
<path d="M34.1144 46.9687
L34.1144 46.5877
" />
<path d="M33.9240 48.0163
L34.5906 48.0163
" />
<path d="M33.5430 47.7782
L34.2573 47.5401
" />
<path d="M34.2573 47.5401
L34.2573 48.1591
" />
<path d="M33.5906 48.9687
L33.5906 48.7782
" />
<path d="M33.5906 48.7782
L33.6382 48.6830
" />
<path d="M33.6382 48.6830
L33.6859 48.6353
" />
<path d="M33.6859 48.6353
L33.8287 48.5401
" />
<path d="M33.8287 48.5401
L34.0192 48.4925
" />
<path d="M34.0192 48.4925
L34.4001 48.4925
" />
<path d="M34.4001 48.4925
L34.4954 48.5401
" />
<path d="M34.4954 48.5401
L34.5430 48.5877
" />
<path d="M34.5430 48.5877
L34.5906 48.6830
" />
<path d="M34.5906 48.6830
L34.5906 48.8734
" />
<path d="M34.5906 48.8734
L34.5430 48.9687
" />
<path d="M34.5430 48.9687
L34.4954 49.0163
" />
<path d="M34.4954 49.0163
L34.4001 49.0639
" />
<path d="M34.4001 49.0639
L34.1620 49.0639
" />
<path d="M34.1620 49.0639
L34.0668 49.0163
" />
<path d="M34.0668 49.0163
L34.0192 48.9687
" />
<path d="M34.0192 48.9687
L33.9716 48.8734
" />
<path d="M33.9716 48.8734
L33.9716 48.6830
" />
<path d="M33.9716 48.6830
L34.0192 48.5877
" />
<path d="M34.0192 48.5877
L34.0668 48.5401
" />
<path d="M34.0668 48.5401
L34.1620 48.4925
" />
</g><g transform="rotate(-45.000000 57.5810 112.5720)">
<text x="57.5810" y="113.0720"
transform="scale(-1 1) translate(-115.162002 0)"
textLength="2.1274" font-size="1.3333" lengthAdjust="spacingAndGlyphs"
text-anchor="middle" opacity="0">C6</text>
</g>
<g class="stroked-text"><desc>C6</desc>
<path d="M57.9586 112.7139
L58.0260 112.7139
" />
<path d="M58.0260 112.7139
L58.1607 112.6466
" />
<path d="M58.1607 112.6466
L58.2280 112.5792
" />
<path d="M58.2280 112.5792
L58.2953 112.4446
" />
<path d="M58.2953 112.4446
L58.2953 112.3099
" />
<path d="M58.2953 112.3099
L58.2617 112.2088
" />
<path d="M58.2617 112.2088
L58.1607 112.0405
" />
<path d="M58.1607 112.0405
L58.0596 111.9395
" />
<path d="M58.0596 111.9395
L57.8913 111.8385
" />
<path d="M57.8913 111.8385
L57.7903 111.8048
" />
<path d="M57.7903 111.8048
L57.6556 111.8048
" />
<path d="M57.6556 111.8048
L57.5209 111.8721
" />
<path d="M57.5209 111.8721
L57.4536 111.9395
" />
<path d="M57.4536 111.9395
L57.3862 112.0742
" />
<path d="M57.3862 112.0742
L57.3862 112.1415
" />
<path d="M56.7128 112.6803
L56.8475 112.5456
" />
<path d="M56.8475 112.5456
L56.9485 112.5119
" />
<path d="M56.9485 112.5119
L57.0158 112.5119
" />
<path d="M57.0158 112.5119
L57.1842 112.5456
" />
<path d="M57.1842 112.5456
L57.3525 112.6466
" />
<path d="M57.3525 112.6466
L57.6219 112.9160
" />
<path d="M57.6219 112.9160
L57.6556 113.0170
" />
<path d="M57.6556 113.0170
L57.6556 113.0843
" />
<path d="M57.6556 113.0843
L57.6219 113.1853
" />
<path d="M57.6219 113.1853
L57.4872 113.3200
" />
<path d="M57.4872 113.3200
L57.3862 113.3537
" />
<path d="M57.3862 113.3537
L57.3189 113.3537
" />
<path d="M57.3189 113.3537
L57.2178 113.3200
" />
<path d="M57.2178 113.3200
L57.0495 113.1517
" />
<path d="M57.0495 113.1517
L57.0158 113.0506
" />
<path d="M57.0158 113.0506
L57.0158 112.9833
" />
<path d="M57.0158 112.9833
L57.0495 112.8823
" />
<path d="M57.0495 112.8823
L57.1842 112.7476
" />
<path d="M57.1842 112.7476
L57.2852 112.7139
" />
<path d="M57.2852 112.7139
L57.3525 112.7139
" />
<path d="M57.3525 112.7139
L57.4536 112.7476
" />
</g><g transform="rotate(-90.000000 38.3190 60.3750)">
<text x="38.3190" y="60.8750"
transform="scale(-1 1) translate(-76.638000 0)"
textLength="3.0798" font-size="1.3333" lengthAdjust="spacingAndGlyphs"
text-anchor="middle" opacity="0">R55</text>
</g>
<g class="stroked-text"><desc>R55</desc>
<path d="M38.7816 59.7321
L38.3054 59.3988
" />
<path d="M38.7816 59.1607
L37.7816 59.1607
" />
<path d="M37.7816 59.1607
L37.7816 59.5417
" />
<path d="M37.7816 59.5417
L37.8292 59.6369
" />
<path d="M37.8292 59.6369
L37.8769 59.6845
" />
<path d="M37.8769 59.6845
L37.9721 59.7321
" />
<path d="M37.9721 59.7321
L38.1150 59.7321
" />
<path d="M38.1150 59.7321
L38.2102 59.6845
" />
<path d="M38.2102 59.6845
L38.2578 59.6369
" />
<path d="M38.2578 59.6369
L38.3054 59.5417
" />
<path d="M38.3054 59.5417
L38.3054 59.1607
" />
<path d="M37.7816 60.6369
L37.7816 60.1607
" />
<path d="M37.7816 60.1607
L38.2578 60.1131
" />
<path d="M38.2578 60.1131
L38.2102 60.1607
" />
<path d="M38.2102 60.1607
L38.1626 60.2560
" />
<path d="M38.1626 60.2560
L38.1626 60.4940
" />
<path d="M38.1626 60.4940
L38.2102 60.5893
" />
<path d="M38.2102 60.5893
L38.2578 60.6369
" />
<path d="M38.2578 60.6369
L38.3530 60.6845
" />
<path d="M38.3530 60.6845
L38.5911 60.6845
" />
<path d="M38.5911 60.6845
L38.6864 60.6369
" />
<path d="M38.6864 60.6369
L38.7340 60.5893
" />
<path d="M38.7340 60.5893
L38.7816 60.4940
" />
<path d="M38.7816 60.4940
L38.7816 60.2560
" />
<path d="M38.7816 60.2560
L38.7340 60.1607
" />
<path d="M38.7340 60.1607
L38.6864 60.1131
" />
<path d="M37.7816 61.5893
L37.7816 61.1131
" />
<path d="M37.7816 61.1131
L38.2578 61.0655
" />
<path d="M38.2578 61.0655
L38.2102 61.1131
" />
<path d="M38.2102 61.1131
L38.1626 61.2083
" />
<path d="M38.1626 61.2083
L38.1626 61.4464
" />
<path d="M38.1626 61.4464
L38.2102 61.5417
" />
<path d="M38.2102 61.5417
L38.2578 61.5893
" />
<path d="M38.2578 61.5893
L38.3530 61.6369
" />
<path d="M38.3530 61.6369
L38.5911 61.6369
" />
<path d="M38.5911 61.6369
L38.6864 61.5893
" />
<path d="M38.6864 61.5893
L38.7340 61.5417
" />
<path d="M38.7340 61.5417
L38.7816 61.4464
" />
<path d="M38.7816 61.4464
L38.7816 61.2083
" />
<path d="M38.7816 61.2083
L38.7340 61.1131
" />
<path d="M38.7340 61.1131
L38.6864 61.0655
" />
</g><text x="32.4350" y="161.6710"
transform="scale(-1 1) translate(-64.870000 0)"
textLength="3.0798" font-size="1.3333" lengthAdjust="spacingAndGlyphs"
text-anchor="middle" opacity="0">R32</text>
<g class="stroked-text"><desc>R32</desc>
<path d="M33.0779 161.6336
L33.4112 161.1574
" />
<path d="M33.6493 161.6336
L33.6493 160.6336
" />
<path d="M33.6493 160.6336
L33.2683 160.6336
" />
<path d="M33.2683 160.6336
L33.1731 160.6812
" />
<path d="M33.1731 160.6812
L33.1255 160.7289
" />
<path d="M33.1255 160.7289
L33.0779 160.8241
" />
<path d="M33.0779 160.8241
L33.0779 160.9670
" />
<path d="M33.0779 160.9670
L33.1255 161.0622
" />
<path d="M33.1255 161.0622
L33.1731 161.1098
" />
<path d="M33.1731 161.1098
L33.2683 161.1574
" />
<path d="M33.2683 161.1574
L33.6493 161.1574
" />
<path d="M32.7445 160.6336
L32.1255 160.6336
" />
<path d="M32.1255 160.6336
L32.4588 161.0146
" />
<path d="M32.4588 161.0146
L32.3160 161.0146
" />
<path d="M32.3160 161.0146
L32.2207 161.0622
" />
<path d="M32.2207 161.0622
L32.1731 161.1098
" />
<path d="M32.1731 161.1098
L32.1255 161.2050
" />
<path d="M32.1255 161.2050
L32.1255 161.4431
" />
<path d="M32.1255 161.4431
L32.1731 161.5384
" />
<path d="M32.1731 161.5384
L32.2207 161.5860
" />
<path d="M32.2207 161.5860
L32.3160 161.6336
" />
<path d="M32.3160 161.6336
L32.6017 161.6336
" />
<path d="M32.6017 161.6336
L32.6969 161.5860
" />
<path d="M32.6969 161.5860
L32.7445 161.5384
" />
<path d="M31.7445 160.7289
L31.6969 160.6812
" />
<path d="M31.6969 160.6812
L31.6017 160.6336
" />
<path d="M31.6017 160.6336
L31.3636 160.6336
" />
<path d="M31.3636 160.6336
L31.2683 160.6812
" />
<path d="M31.2683 160.6812
L31.2207 160.7289
" />
<path d="M31.2207 160.7289
L31.1731 160.8241
" />
<path d="M31.1731 160.8241
L31.1731 160.9193
" />
<path d="M31.1731 160.9193
L31.2207 161.0622
" />
<path d="M31.2207 161.0622
L31.7921 161.6336
" />
<path d="M31.7921 161.6336
L31.1731 161.6336
" />
</g><text x="60.3750" y="72.0930"
transform="scale(-1 1) translate(-120.750000 0)"
textLength="3.0798" font-size="1.3333" lengthAdjust="spacingAndGlyphs"
text-anchor="middle" opacity="0">R43</text>
<g class="stroked-text"><desc>R43</desc>
<path d="M61.0179 72.0556
L61.3512 71.5794
" />
<path d="M61.5893 72.0556
L61.5893 71.0556
" />
<path d="M61.5893 71.0556
L61.2083 71.0556
" />
<path d="M61.2083 71.0556
L61.1131 71.1032
" />
<path d="M61.1131 71.1032
L61.0655 71.1509
" />
<path d="M61.0655 71.1509
L61.0179 71.2461
" />
<path d="M61.0179 71.2461
L61.0179 71.3890
" />
<path d="M61.0179 71.3890
L61.0655 71.4842
" />
<path d="M61.0655 71.4842
L61.1131 71.5318
" />
<path d="M61.1131 71.5318
L61.2083 71.5794
" />
<path d="M61.2083 71.5794
L61.5893 71.5794
" />
<path d="M60.1607 71.3890
L60.1607 72.0556
" />
<path d="M60.3988 71.0080
L60.6369 71.7223
" />
<path d="M60.6369 71.7223
L60.0179 71.7223
" />
<path d="M59.7321 71.0556
L59.1131 71.0556
" />
<path d="M59.1131 71.0556
L59.4464 71.4366
" />
<path d="M59.4464 71.4366
L59.3036 71.4366
" />
<path d="M59.3036 71.4366
L59.2083 71.4842
" />
<path d="M59.2083 71.4842
L59.1607 71.5318
" />
<path d="M59.1607 71.5318
L59.1131 71.6270
" />
<path d="M59.1131 71.6270
L59.1131 71.8651
" />
<path d="M59.1131 71.8651
L59.1607 71.9604
" />
<path d="M59.1607 71.9604
L59.2083 72.0080
" />
<path d="M59.2083 72.0080
L59.3036 72.0556
" />
<path d="M59.3036 72.0556
L59.5893 72.0556
" />
<path d="M59.5893 72.0556
L59.6845 72.0080
" />
<path d="M59.6845 72.0080
L59.7321 71.9604
" />
</g><g transform="rotate(-90.000000 51.5400 69.9000)">
<text x="51.5400" y="70.4000"
transform="scale(-1 1) translate(-103.080000 0)"
textLength="3.0798" font-size="1.3333" lengthAdjust="spacingAndGlyphs"
text-anchor="middle" opacity="0">C14</text>
</g>
<g class="stroked-text"><desc>C14</desc>
<path d="M51.9074 69.2571
L51.9550 69.2095
" />
<path d="M51.9550 69.2095
L52.0026 69.0667
" />
<path d="M52.0026 69.0667
L52.0026 68.9714
" />
<path d="M52.0026 68.9714
L51.9550 68.8286
" />
<path d="M51.9550 68.8286
L51.8598 68.7333
" />
<path d="M51.8598 68.7333
L51.7645 68.6857
" />
<path d="M51.7645 68.6857
L51.5740 68.6381
" />
<path d="M51.5740 68.6381
L51.4312 68.6381
" />
<path d="M51.4312 68.6381
L51.2407 68.6857
" />
<path d="M51.2407 68.6857
L51.1455 68.7333
" />
<path d="M51.1455 68.7333
L51.0502 68.8286
" />
<path d="M51.0502 68.8286
L51.0026 68.9714
" />
<path d="M51.0026 68.9714
L51.0026 69.0667
" />
<path d="M51.0026 69.0667
L51.0502 69.2095
" />
<path d="M51.0502 69.2095
L51.0979 69.2571
" />
<path d="M52.0026 70.2095
L52.0026 69.6381
" />
<path d="M52.0026 69.9238
L51.0026 69.9238
" />
<path d="M51.0026 69.9238
L51.1455 69.8286
" />
<path d="M51.1455 69.8286
L51.2407 69.7333
" />
<path d="M51.2407 69.7333
L51.2883 69.6381
" />
<path d="M51.3360 71.0667
L52.0026 71.0667
" />
<path d="M50.9550 70.8286
L51.6693 70.5905
" />
<path d="M51.6693 70.5905
L51.6693 71.2095
" />
</g><g transform="rotate(-90.000000 22.4440 10.8450)">
<text x="22.4440" y="11.3450"
transform="scale(-1 1) translate(-44.888000 0)"
textLength="3.0798" font-size="1.3333" lengthAdjust="spacingAndGlyphs"
text-anchor="middle" opacity="0">R58</text>
</g>
<g class="stroked-text"><desc>R58</desc>
<path d="M22.9066 10.2021
L22.4304 9.8688
" />
<path d="M22.9066 9.6307
L21.9066 9.6307
" />
<path d="M21.9066 9.6307
L21.9066 10.0117
" />
<path d="M21.9066 10.0117
L21.9542 10.1069
" />
<path d="M21.9542 10.1069
L22.0019 10.1545
" />
<path d="M22.0019 10.1545
L22.0971 10.2021
" />
<path d="M22.0971 10.2021
L22.2400 10.2021
" />
<path d="M22.2400 10.2021
L22.3352 10.1545
" />
<path d="M22.3352 10.1545
L22.3828 10.1069
" />
<path d="M22.3828 10.1069
L22.4304 10.0117
" />
<path d="M22.4304 10.0117
L22.4304 9.6307
" />
<path d="M21.9066 11.1069
L21.9066 10.6307
" />
<path d="M21.9066 10.6307
L22.3828 10.5831
" />
<path d="M22.3828 10.5831
L22.3352 10.6307
" />
<path d="M22.3352 10.6307
L22.2876 10.7260
" />
<path d="M22.2876 10.7260
L22.2876 10.9640
" />
<path d="M22.2876 10.9640
L22.3352 11.0593
" />
<path d="M22.3352 11.0593
L22.3828 11.1069
" />
<path d="M22.3828 11.1069
L22.4780 11.1545
" />
<path d="M22.4780 11.1545
L22.7161 11.1545
" />
<path d="M22.7161 11.1545
L22.8114 11.1069
" />
<path d="M22.8114 11.1069
L22.8590 11.0593
" />
<path d="M22.8590 11.0593
L22.9066 10.9640
" />
<path d="M22.9066 10.9640
L22.9066 10.7260
" />
<path d="M22.9066 10.7260
L22.8590 10.6307
" />
<path d="M22.8590 10.6307
L22.8114 10.5831
" />
<path d="M22.3352 11.7260
L22.2876 11.6307
" />
<path d="M22.2876 11.6307
L22.2400 11.5831
" />
<path d="M22.2400 11.5831
L22.1447 11.5355
" />
<path d="M22.1447 11.5355
L22.0971 11.5355
" />
<path d="M22.0971 11.5355
L22.0019 11.5831
" />
<path d="M22.0019 11.5831
L21.9542 11.6307
" />
<path d="M21.9542 11.6307
L21.9066 11.7260
" />
<path d="M21.9066 11.7260
L21.9066 11.9164
" />
<path d="M21.9066 11.9164
L21.9542 12.0117
" />
<path d="M21.9542 12.0117
L22.0019 12.0593
" />
<path d="M22.0019 12.0593
L22.0971 12.1069
" />
<path d="M22.0971 12.1069
L22.1447 12.1069
" />
<path d="M22.1447 12.1069
L22.2400 12.0593
" />
<path d="M22.2400 12.0593
L22.2876 12.0117
" />
<path d="M22.2876 12.0117
L22.3352 11.9164
" />
<path d="M22.3352 11.9164
L22.3352 11.7260
" />
<path d="M22.3352 11.7260
L22.3828 11.6307
" />
<path d="M22.3828 11.6307
L22.4304 11.5831
" />
<path d="M22.4304 11.5831
L22.5257 11.5355
" />
<path d="M22.5257 11.5355
L22.7161 11.5355
" />
<path d="M22.7161 11.5355
L22.8114 11.5831
" />
<path d="M22.8114 11.5831
L22.8590 11.6307
" />
<path d="M22.8590 11.6307
L22.9066 11.7260
" />
<path d="M22.9066 11.7260
L22.9066 11.9164
" />
<path d="M22.9066 11.9164
L22.8590 12.0117
" />
<path d="M22.8590 12.0117
L22.8114 12.0593
" />
<path d="M22.8114 12.0593
L22.7161 12.1069
" />
<path d="M22.7161 12.1069
L22.5257 12.1069
" />
<path d="M22.5257 12.1069
L22.4304 12.0593
" />
<path d="M22.4304 12.0593
L22.3828 12.0117
" />
<path d="M22.3828 12.0117
L22.3352 11.9164
" />
</g><g transform="rotate(-90.000000 37.9380 35.4830)">
<text x="37.9380" y="35.9830"
transform="scale(-1 1) translate(-75.876000 0)"
textLength="3.0798" font-size="1.3333" lengthAdjust="spacingAndGlyphs"
text-anchor="middle" opacity="0">R51</text>
</g>
<g class="stroked-text"><desc>R51</desc>
<path d="M38.4006 34.8401
L37.9244 34.5068
" />
<path d="M38.4006 34.2687
L37.4006 34.2687
" />
<path d="M37.4006 34.2687
L37.4006 34.6497
" />
<path d="M37.4006 34.6497
L37.4482 34.7449
" />
<path d="M37.4482 34.7449
L37.4959 34.7925
" />
<path d="M37.4959 34.7925
L37.5911 34.8401
" />
<path d="M37.5911 34.8401
L37.7340 34.8401
" />
<path d="M37.7340 34.8401
L37.8292 34.7925
" />
<path d="M37.8292 34.7925
L37.8768 34.7449
" />
<path d="M37.8768 34.7449
L37.9244 34.6497
" />
<path d="M37.9244 34.6497
L37.9244 34.2687
" />
<path d="M37.4006 35.7449
L37.4006 35.2687
" />
<path d="M37.4006 35.2687
L37.8768 35.2211
" />
<path d="M37.8768 35.2211
L37.8292 35.2687
" />
<path d="M37.8292 35.2687
L37.7816 35.3640
" />
<path d="M37.7816 35.3640
L37.7816 35.6020
" />
<path d="M37.7816 35.6020
L37.8292 35.6973
" />
<path d="M37.8292 35.6973
L37.8768 35.7449
" />
<path d="M37.8768 35.7449
L37.9720 35.7925
" />
<path d="M37.9720 35.7925
L38.2101 35.7925
" />
<path d="M38.2101 35.7925
L38.3054 35.7449
" />
<path d="M38.3054 35.7449
L38.3530 35.6973
" />
<path d="M38.3530 35.6973
L38.4006 35.6020
" />
<path d="M38.4006 35.6020
L38.4006 35.3640
" />
<path d="M38.4006 35.3640
L38.3530 35.2687
" />
<path d="M38.3530 35.2687
L38.3054 35.2211
" />
<path d="M38.4006 36.7449
L38.4006 36.1735
" />
<path d="M38.4006 36.4592
L37.4006 36.4592
" />
<path d="M37.4006 36.4592
L37.5435 36.3640
" />
<path d="M37.5435 36.3640
L37.6387 36.2687
" />
<path d="M37.6387 36.2687
L37.6863 36.1735
" />
</g><g transform="rotate(-90.000000 37.9380 47.7760)">
<text x="37.9380" y="48.2760"
transform="scale(-1 1) translate(-75.876000 0)"
textLength="3.0798" font-size="1.3333" lengthAdjust="spacingAndGlyphs"
text-anchor="middle" opacity="0">R52</text>
</g>
<g class="stroked-text"><desc>R52</desc>
<path d="M38.4006 47.1331
L37.9244 46.7998
" />
<path d="M38.4006 46.5617
L37.4006 46.5617
" />
<path d="M37.4006 46.5617
L37.4006 46.9427
" />
<path d="M37.4006 46.9427
L37.4482 47.0379
" />
<path d="M37.4482 47.0379
L37.4959 47.0855
" />
<path d="M37.4959 47.0855
L37.5911 47.1331
" />
<path d="M37.5911 47.1331
L37.7340 47.1331
" />
<path d="M37.7340 47.1331
L37.8292 47.0855
" />
<path d="M37.8292 47.0855
L37.8768 47.0379
" />
<path d="M37.8768 47.0379
L37.9244 46.9427
" />
<path d="M37.9244 46.9427
L37.9244 46.5617
" />
<path d="M37.4006 48.0379
L37.4006 47.5617
" />
<path d="M37.4006 47.5617
L37.8768 47.5141
" />
<path d="M37.8768 47.5141
L37.8292 47.5617
" />
<path d="M37.8292 47.5617
L37.7816 47.6570
" />
<path d="M37.7816 47.6570
L37.7816 47.8950
" />
<path d="M37.7816 47.8950
L37.8292 47.9903
" />
<path d="M37.8292 47.9903
L37.8768 48.0379
" />
<path d="M37.8768 48.0379
L37.9720 48.0855
" />
<path d="M37.9720 48.0855
L38.2101 48.0855
" />
<path d="M38.2101 48.0855
L38.3054 48.0379
" />
<path d="M38.3054 48.0379
L38.3530 47.9903
" />
<path d="M38.3530 47.9903
L38.4006 47.8950
" />
<path d="M38.4006 47.8950
L38.4006 47.6570
" />
<path d="M38.4006 47.6570
L38.3530 47.5617
" />
<path d="M38.3530 47.5617
L38.3054 47.5141
" />
<path d="M37.4959 48.4665
L37.4482 48.5141
" />
<path d="M37.4482 48.5141
L37.4006 48.6093
" />
<path d="M37.4006 48.6093
L37.4006 48.8474
" />
<path d="M37.4006 48.8474
L37.4482 48.9427
" />
<path d="M37.4482 48.9427
L37.4959 48.9903
" />
<path d="M37.4959 48.9903
L37.5911 49.0379
" />
<path d="M37.5911 49.0379
L37.6863 49.0379
" />
<path d="M37.6863 49.0379
L37.8292 48.9903
" />
<path d="M37.8292 48.9903
L38.4006 48.4189
" />
<path d="M38.4006 48.4189
L38.4006 49.0379
" />
</g><g transform="rotate(45.000000 44.2011 119.9829)">
<text x="44.2011" y="120.4829"
transform="scale(-1 1) translate(-88.402122 0)"
textLength="2.1274" font-size="1.3333" lengthAdjust="spacingAndGlyphs"
text-anchor="middle" opacity="0">R2</text>
</g>
<g class="stroked-text"><desc>R2</desc>
<path d="M43.9918 120.4279
L44.5642 120.3269
" />
<path d="M44.3959 120.8320
L45.1030 120.1249
" />
<path d="M45.1030 120.1249
L44.8336 119.8555
" />
<path d="M44.8336 119.8555
L44.7326 119.8218
" />
<path d="M44.7326 119.8218
L44.6652 119.8218
" />
<path d="M44.6652 119.8218
L44.5642 119.8555
" />
<path d="M44.5642 119.8555
L44.4632 119.9565
" />
<path d="M44.4632 119.9565
L44.4295 120.0575
" />
<path d="M44.4295 120.0575
L44.4295 120.1249
" />
<path d="M44.4295 120.1249
L44.4632 120.2259
" />
<path d="M44.4632 120.2259
L44.7326 120.4953
" />
<path d="M44.3622 119.5188
L44.3622 119.4514
" />
<path d="M44.3622 119.4514
L44.3285 119.3504
" />
<path d="M44.3285 119.3504
L44.1601 119.1821
" />
<path d="M44.1601 119.1821
L44.0591 119.1484
" />
<path d="M44.0591 119.1484
L43.9918 119.1484
" />
<path d="M43.9918 119.1484
L43.8908 119.1821
" />
<path d="M43.8908 119.1821
L43.8234 119.2494
" />
<path d="M43.8234 119.2494
L43.7561 119.3841
" />
<path d="M43.7561 119.3841
L43.7561 120.1922
" />
<path d="M43.7561 120.1922
L43.3184 119.7545
" />
</g><g transform="rotate(-45.000000 60.5248 123.1756)">
<text x="60.5248" y="123.6756"
transform="scale(-1 1) translate(-121.049610 0)"
textLength="2.1274" font-size="1.3333" lengthAdjust="spacingAndGlyphs"
text-anchor="middle" opacity="0">R1</text>
</g>
<g class="stroked-text"><desc>R1</desc>
<path d="M60.9698 123.3849
L60.8688 122.8125
" />
<path d="M61.3738 122.9808
L60.6667 122.2737
" />
<path d="M60.6667 122.2737
L60.3974 122.5431
" />
<path d="M60.3974 122.5431
L60.3637 122.6441
" />
<path d="M60.3637 122.6441
L60.3637 122.7115
" />
<path d="M60.3637 122.7115
L60.3974 122.8125
" />
<path d="M60.3974 122.8125
L60.4984 122.9135
" />
<path d="M60.4984 122.9135
L60.5994 122.9472
" />
<path d="M60.5994 122.9472
L60.6667 122.9472
" />
<path d="M60.6667 122.9472
L60.7677 122.9135
" />
<path d="M60.7677 122.9135
L61.0371 122.6441
" />
<path d="M60.2963 124.0583
L60.7004 123.6543
" />
<path d="M60.4984 123.8563
L59.7913 123.1492
" />
<path d="M59.7913 123.1492
L59.9596 123.1829
" />
<path d="M59.9596 123.1829
L60.0943 123.1829
" />
<path d="M60.0943 123.1829
L60.1953 123.1492
" />
</g><text x="32.4090" y="156.5910"
transform="scale(-1 1) translate(-64.818000 0)"
textLength="3.0798" font-size="1.3333" lengthAdjust="spacingAndGlyphs"
text-anchor="middle" opacity="0">R33</text>
<g class="stroked-text"><desc>R33</desc>
<path d="M33.0519 156.5536
L33.3852 156.0774
" />
<path d="M33.6233 156.5536
L33.6233 155.5536
" />
<path d="M33.6233 155.5536
L33.2423 155.5536
" />
<path d="M33.2423 155.5536
L33.1471 155.6012
" />
<path d="M33.1471 155.6012
L33.0995 155.6489
" />
<path d="M33.0995 155.6489
L33.0519 155.7441
" />
<path d="M33.0519 155.7441
L33.0519 155.8870
" />
<path d="M33.0519 155.8870
L33.0995 155.9822
" />
<path d="M33.0995 155.9822
L33.1471 156.0298
" />
<path d="M33.1471 156.0298
L33.2423 156.0774
" />
<path d="M33.2423 156.0774
L33.6233 156.0774
" />
<path d="M32.7185 155.5536
L32.0995 155.5536
" />
<path d="M32.0995 155.5536
L32.4328 155.9346
" />
<path d="M32.4328 155.9346
L32.2900 155.9346
" />
<path d="M32.2900 155.9346
L32.1947 155.9822
" />
<path d="M32.1947 155.9822
L32.1471 156.0298
" />
<path d="M32.1471 156.0298
L32.0995 156.1250
" />
<path d="M32.0995 156.1250
L32.0995 156.3631
" />
<path d="M32.0995 156.3631
L32.1471 156.4584
" />
<path d="M32.1471 156.4584
L32.1947 156.5060
" />
<path d="M32.1947 156.5060
L32.2900 156.5536
" />
<path d="M32.2900 156.5536
L32.5757 156.5536
" />
<path d="M32.5757 156.5536
L32.6709 156.5060
" />
<path d="M32.6709 156.5060
L32.7185 156.4584
" />
<path d="M31.7661 155.5536
L31.1471 155.5536
" />
<path d="M31.1471 155.5536
L31.4804 155.9346
" />
<path d="M31.4804 155.9346
L31.3376 155.9346
" />
<path d="M31.3376 155.9346
L31.2423 155.9822
" />
<path d="M31.2423 155.9822
L31.1947 156.0298
" />
<path d="M31.1947 156.0298
L31.1471 156.1250
" />
<path d="M31.1471 156.1250
L31.1471 156.3631
" />
<path d="M31.1471 156.3631
L31.1947 156.4584
" />
<path d="M31.1947 156.4584
L31.2423 156.5060
" />
<path d="M31.2423 156.5060
L31.3376 156.5536
" />
<path d="M31.3376 156.5536
L31.6233 156.5536
" />
<path d="M31.6233 156.5536
L31.7185 156.5060
" />
<path d="M31.7185 156.5060
L31.7661 156.4584
" />
</g><g transform="rotate(-45.000000 56.4096 119.0774)">
<text x="56.4096" y="119.5774"
transform="scale(-1 1) translate(-112.819248 0)"
textLength="2.1274" font-size="1.3333" lengthAdjust="spacingAndGlyphs"
text-anchor="middle" opacity="0">C1</text>
</g>
<g class="stroked-text"><desc>C1</desc>
<path d="M56.7873 119.2193
L56.8546 119.2193
" />
<path d="M56.8546 119.2193
L56.9893 119.1520
" />
<path d="M56.9893 119.1520
L57.0566 119.0846
" />
<path d="M57.0566 119.0846
L57.1240 118.9499
" />
<path d="M57.1240 118.9499
L57.1240 118.8152
" />
<path d="M57.1240 118.8152
L57.0903 118.7142
" />
<path d="M57.0903 118.7142
L56.9893 118.5459
" />
<path d="M56.9893 118.5459
L56.8883 118.4449
" />
<path d="M56.8883 118.4449
L56.7199 118.3438
" />
<path d="M56.7199 118.3438
L56.6189 118.3102
" />
<path d="M56.6189 118.3102
L56.4842 118.3102
" />
<path d="M56.4842 118.3102
L56.3495 118.3775
" />
<path d="M56.3495 118.3775
L56.2822 118.4449
" />
<path d="M56.2822 118.4449
L56.2148 118.5795
" />
<path d="M56.2148 118.5795
L56.2148 118.6469
" />
<path d="M56.1812 119.9601
L56.5852 119.5560
" />
<path d="M56.3832 119.7581
L55.6761 119.0509
" />
<path d="M55.6761 119.0509
L55.8444 119.0846
" />
<path d="M55.8444 119.0846
L55.9791 119.0846
" />
<path d="M55.9791 119.0846
L56.0801 119.0509
" />
</g><g transform="rotate(-45.000000 52.6043 108.3810)">
<text x="52.6043" y="108.8810"
transform="scale(-1 1) translate(-105.208550 0)"
textLength="2.9845" font-size="1.3333" lengthAdjust="spacingAndGlyphs"
text-anchor="middle" opacity="0">FB1</text>
</g>
<g class="stroked-text"><desc>FB1</desc>
<path d="M53.1503 107.7485
L53.3860 107.5128
" />
<path d="M53.7564 107.8832
L53.0492 107.1761
" />
<path d="M53.0492 107.1761
L52.7125 107.5128
" />
<path d="M52.5442 108.3546
L52.4768 108.4893
" />
<path d="M52.4768 108.4893
L52.4768 108.5566
" />
<path d="M52.4768 108.5566
L52.5105 108.6576
" />
<path d="M52.5105 108.6576
L52.6115 108.7586
" />
<path d="M52.6115 108.7586
L52.7125 108.7923
" />
<path d="M52.7125 108.7923
L52.7799 108.7923
" />
<path d="M52.7799 108.7923
L52.8809 108.7586
" />
<path d="M52.8809 108.7586
L53.1503 108.4893
" />
<path d="M53.1503 108.4893
L52.4432 107.7821
" />
<path d="M52.4432 107.7821
L52.2075 108.0178
" />
<path d="M52.2075 108.0178
L52.1738 108.1189
" />
<path d="M52.1738 108.1189
L52.1738 108.1862
" />
<path d="M52.1738 108.1862
L52.2075 108.2872
" />
<path d="M52.2075 108.2872
L52.2748 108.3546
" />
<path d="M52.2748 108.3546
L52.3758 108.3882
" />
<path d="M52.3758 108.3882
L52.4432 108.3882
" />
<path d="M52.4432 108.3882
L52.5442 108.3546
" />
<path d="M52.5442 108.3546
L52.7799 108.1189
" />
<path d="M52.0728 109.5667
L52.4768 109.1627
" />
<path d="M52.2748 109.3647
L51.5677 108.6576
" />
<path d="M51.5677 108.6576
L51.7360 108.6913
" />
<path d="M51.7360 108.6913
L51.8707 108.6913
" />
<path d="M51.8707 108.6913
L51.9718 108.6576
" />
</g></g>
<g style="fill:#E8B2A7; fill-opacity:0.0; 
stroke:#E8B2A7; stroke-width:0.1200; stroke-opacity:1; 
stroke-linecap:round; stroke-linejoin:round;">
<path d="M35.0810 11.8261
L35.0810 10.3719
" />
<path d="M36.9010 11.8261
L36.9010 10.3719
" />
<path d="M50.6960 117.2852
L50.6960 117.8078
" />
<path d="M49.2260 117.2852
L49.2260 117.8078
" />
<path d="M84.6530 68.0299
L84.6530 69.4841
" />
<path d="M82.8330 68.0299
L82.8330 69.4841
" />
<path d="M56.3920 106.9145
L56.7615 107.2840
" />
<path d="M55.3525 107.9540
L55.7220 108.3235
" />
<path d="M31.1440 23.8911
L31.1440 22.4369
" />
<path d="M32.9640 23.8911
L32.9640 22.4369
" />
<path d="M31.2710 36.2101
L31.2710 34.7559
" />
<path d="M33.0910 36.2101
L33.0910 34.7559
" />
<path d="M35.3350 24.0181
L35.3350 22.5639
" />
<path d="M37.1550 24.0181
L37.1550 22.5639
" />
<path d="M42.6525 107.7920
L43.0220 107.4225
" />
<path d="M43.6920 108.8315
L44.0615 108.4620
" />
<path d="M31.1440 12.2071
L31.1440 10.7529
" />
<path d="M32.9640 12.2071
L32.9640 10.7529
" />
<path d="M15.7770 11.5981
L15.7770 10.1439
" />
<path d="M17.5970 11.5981
L17.5970 10.1439
" />
<path d="M31.2710 61.1281
L31.2710 59.6739
" />
<path d="M33.0910 61.1281
L33.0910 59.6739
" />
<path d="M51.8200 102.0885
L52.1895 102.4580
" />
<path d="M50.7805 103.1280
L51.1500 103.4975
" />
<path d="M31.3980 48.5291
L31.3980 47.0749
" />
<path d="M33.2180 48.5291
L33.2180 47.0749
" />
<path d="M57.0155 111.7640
L56.6460 112.1335
" />
<path d="M55.9760 110.7245
L55.6065 111.0940
" />
<path d="M35.5890 61.1021
L35.5890 59.6479
" />
<path d="M37.4090 61.1021
L37.4090 59.6479
" />
<path d="M33.1621 163.9010
L31.7079 163.9010
" />
<path d="M33.1621 162.0810
L31.7079 162.0810
" />
<path d="M59.6479 68.8630
L61.1021 68.8630
" />
<path d="M59.6479 70.6830
L61.1021 70.6830
" />
<path d="M54.3000 69.1887
L54.3000 70.6113
" />
<path d="M52.4800 69.1887
L52.4800 70.6113
" />
<path d="M19.7140 11.5721
L19.7140 10.1179
" />
<path d="M21.5340 11.5721
L21.5340 10.1179
" />
<path d="M35.2080 36.2101
L35.2080 34.7559
" />
<path d="M37.0280 36.2101
L37.0280 34.7559
" />
<path d="M35.2080 48.5031
L35.2080 47.0489
" />
<path d="M37.0280 48.5031
L37.0280 47.0489
" />
<path d="M45.7240 118.0905
L46.0935 118.4600
" />
<path d="M44.6845 119.1300
L45.0540 119.4995
" />
<path d="M58.5559 121.7336
L58.9254 121.3642
" />
<path d="M59.5954 122.7731
L59.9648 122.4036
" />
<path d="M33.1361 158.8210
L31.6819 158.8210
" />
<path d="M33.1361 157.0010
L31.6819 157.0010
" />
<path d="M55.8441 118.2694
L55.4746 118.6388
" />
<path d="M54.8046 117.2299
L54.4352 117.5994
" />
<path d="M54.4578 109.9683
L54.0883 110.3378
" />
<path d="M53.4537 108.9642
L53.0842 109.3337
" />
<g >
</g>
<g >
</g>
<g >
</g>
<g >
</g>
<g >
</g>
<g >
</g>
<g >
</g>
<g >
</g>
<g >
</g>
<g >
</g>
<g >
</g>
<g >
</g>
<g >
</g>
<g >
</g>
<g >
</g>
<g >
</g>
<g >
</g>
<g >
</g>
<g >
</g>
<g >
</g>
<g >
</g>
<g >
</g>
<g >
</g>
<g >
</g>
<g >
</g>
<g >
</g>
<g >
</g>
<g >
</g>
<g >
</g>
<g >
</g>
<g >
</g>
<g >
</g>
<g >
</g>
<g >
</g>
<g >
</g>
<g >
</g>
<g >
</g>
<g >
</g>
<g >
</g>
<g >
</g>
<g >
</g>
<g >
</g>
<g >
</g>
<g >
</g>
<g >
</g>
<g >
</g>
<g >
</g>
<g >
</g>
<g >
</g>
<g >
</g>
<g >
</g>
<g >
</g>
<g >
</g>
<g >
</g>
<g >
</g>
<g >
</g>
<g >
</g>
<g >
</g>
<g >
</g>
<g >
</g>
<g >
</g>
<g >
</g>
<g >
</g>
<g >
</g>
<g >
</g>
<g >
</g>
<g >
</g>
<g >
</g>
<g >
</g>
<g >
</g>
<g >
</g>
<g >
</g>
<g >
</g>
<g >
</g>
<g >
</g>
<g >
</g>
<g >
</g>
<g >
</g>
<g >
</g>
<g >
</g>
<g >
</g>
<g >
</g>
<g >
</g>
<g >
</g>
<g >
</g>
<g >
</g>
<g >
</g>
<g >
</g>
<g >
</g>
<g >
</g>
<g >
</g>
<g >
</g>
<g >
</g>
<g >
</g>
<g >
</g>
<g >
</g>
<g >
</g>
<g >
</g>
<g >
</g>
<g >
</g>
<g >
</g>
<g >
</g>
<g >
</g>
<g >
</g>
<g >
</g>
<g >
</g>
<g >
</g>
<g >
</g>
<g >
</g>
<g >
</g>
<g >
</g>
<g >
</g>
<g >
</g>
<g >
</g>
<g >
</g>
<g >
</g>
<g >
</g>
<g >
</g>
<g >
</g>
<g >
</g>
<g >
</g>
<g >
</g>
<g >
</g>
<g >
</g>
<g >
</g>
<g >
</g>
<g >
</g>
<g >
</g>
<g >
</g>
</g>
<g style="fill:#000000; fill-opacity:0.0; 
stroke:#000000; stroke-width:0.1200; stroke-opacity:1; 
stroke-linecap:round; stroke-linejoin:round;">
</g>
<g style="fill:#D0D2CD; fill-opacity:0.0; 
stroke:#D0D2CD; stroke-width:0.1200; stroke-opacity:1; 
stroke-linecap:round; stroke-linejoin:round;">
</g>
<g style="fill:#D0D2CD; fill-opacity:0.0; 
stroke:#D0D2CD; stroke-width:0.1000; stroke-opacity:1; 
stroke-linecap:round; stroke-linejoin:round;">
<path style="fill:#D0D2CD; fill-opacity:0.0; 
stroke:#D0D2CD; stroke-width:0.1000; stroke-opacity:1; 
stroke-linecap:round; stroke-linejoin:round;fill:none"
d="M 0.0500,0.0500
115.3660,0.0500
115.3660,171.5000
0.0500,171.5000
Z" /> 
<g >
</g>
<g >
</g>
<g >
</g>
<g >
</g>
<g >
</g>
<g >
</g>
<g >
</g>
<g >
</g>
<g >
</g>
<g >
</g>
<g >
</g>
<g >
</g>
<g >
</g>
<g >
</g>
<g >
</g>
<g >
</g>
<g >
</g>
<g >
</g>
<g >
</g>
<g >
</g>
<g >
</g>
<g >
</g>
<g >
</g>
<g >
</g>
<g >
</g>
<g >
</g>
<g >
</g>
<g >
</g>
<g >
</g>
<g >
</g>
<g >
</g>
<g >
</g>
<g >
</g>
<g >
</g>
<g >
</g>
<g >
</g>
<g >
</g>
<g >
</g>
<g >
</g>
<g >
</g>
<g >
</g>
<g >
</g>
<g >
</g>
<g >
</g>
<g >
</g>
<g >
</g>
<g >
</g>
<g >
</g>
<g >
</g>
<g >
</g>
<g >
</g>
<g >
</g>
<g >
</g>
<g >
</g>
<g >
</g>
<g >
</g>
<g >
</g>
<g >
</g>
<g >
</g>
<g >
</g>
<g >
</g>
<g >
</g>
<g >
</g>
<g >
</g>
<g >
</g>
<g >
</g>
<g >
</g>
<g >
</g>
<g >
</g>
<g >
</g>
<g >
</g>
<g >
</g>
<g >
</g>
<g >
</g>
<g >
</g>
<g >
</g>
<g >
</g>
<g >
</g>
<g >
</g>
<g >
</g>
<g >
</g>
<g >
</g>
<g >
</g>
<g >
</g>
<g >
</g>
<g >
</g>
<g >
</g>
<g >
</g>
<g >
</g>
<g >
</g>
<g >
</g>
<g >
</g>
<g >
</g>
<g >
</g>
<g >
</g>
<g >
</g>
<g >
</g>
<g >
</g>
<g >
</g>
<g >
</g>
<g >
</g>
<g >
</g>
<g >
</g>
<g >
</g>
<g >
</g>
<g >
</g>
<g >
</g>
<g >
</g>
<g >
</g>
<g >
</g>
<g >
</g>
<g >
</g>
<g >
</g>
<g >
</g>
<g >
</g>
<g >
</g>
<g >
</g>
<g >
</g>
<g >
</g>
<g >
</g>
<g >
</g>
<g >
</g>
<g >
</g>
<g >
</g>
<g >
</g>
<g >
</g>
<g >
</g>
<g >
</g>
<g >
</g>
</g> 
</svg>
