<?xml version="1.0" standalone="no"?>
 <!DOCTYPE svg PUBLIC "-//W3C//DTD SVG 1.1//EN" 
 "http://www.w3.org/Graphics/SVG/1.1/DTD/svg11.dtd"> 
<svg
  xmlns:svg="http://www.w3.org/2000/svg"
  xmlns="http://www.w3.org/2000/svg"
  xmlns:xlink="http://www.w3.org/1999/xlink"
  version="1.1"
  width="279.4000mm" height="215.9000mm" viewBox="0.0000 0.0000 279.4000 215.9000">
<title>SVG Image created as Schematic-B_Paste.svg date 2023/10/10 16:56:55 </title>
  <desc>Image generated by PCBNEW </desc>
<g style="fill:#000000; fill-opacity:1.0000;stroke:#000000; stroke-opacity:1.0000;
stroke-linecap:round; stroke-linejoin:round;"
 transform="translate(0 0) scale(1 1)">
</g>
<g style="fill:#000000; fill-opacity:0.0; 
stroke:#000000; stroke-width:0.0000; stroke-opacity:1; 
stroke-linecap:round; stroke-linejoin:round;">
<g >
</g>
<g >
</g>
<g >
</g>
<g >
</g>
<g style="fill:#000000; fill-opacity:0.0; 
stroke:#000000; stroke-width:0.0000; stroke-opacity:1; 
stroke-linecap:round; stroke-linejoin:round;">
</g>
<g style="fill:#000000; fill-opacity:0.0; 
stroke:#000000; stroke-width:0.0000; stroke-opacity:1; 
stroke-linecap:round; stroke-linejoin:round;">
</g>
<g style="fill:#000000; fill-opacity:1.0000; 
stroke:#000000; stroke-width:0.0000; stroke-opacity:1; 
stroke-linecap:round; stroke-linejoin:round;">
<path style="fill:#000000; fill-opacity:1.0000; 
stroke:#000000; stroke-width:0.0000; stroke-opacity:1; 
stroke-linecap:round; stroke-linejoin:round;fill-rule:evenodd;"
d="M 55.7630,36.4900
55.6673,36.4710
55.5862,36.4168
55.5320,36.3357
55.5130,36.2400
55.5130,35.4400
55.5320,35.3443
55.5862,35.2632
55.6673,35.2090
55.7630,35.1900
57.0130,35.1900
57.1087,35.2090
57.1898,35.2632
57.2440,35.3443
57.2630,35.4400
57.2630,36.2400
57.2440,36.3357
57.1898,36.4168
57.1087,36.4710
57.0130,36.4900
Z" /> 
<path style="fill:#000000; fill-opacity:1.0000; 
stroke:#000000; stroke-width:0.0000; stroke-opacity:1; 
stroke-linecap:round; stroke-linejoin:round;fill-rule:evenodd;"
d="M 55.7630,33.3900
55.6673,33.3710
55.5862,33.3168
55.5320,33.2357
55.5130,33.1400
55.5130,32.3400
55.5320,32.2443
55.5862,32.1632
55.6673,32.1090
55.7630,32.0900
57.0130,32.0900
57.1087,32.1090
57.1898,32.1632
57.2440,32.2443
57.2630,32.3400
57.2630,33.1400
57.2440,33.2357
57.1898,33.3168
57.1087,33.3710
57.0130,33.3900
Z" /> 
</g>
<g >
</g>
<g style="fill:#000000; fill-opacity:1.0000; 
stroke:#000000; stroke-width:0.0000; stroke-opacity:1; 
stroke-linecap:round; stroke-linejoin:round;">
<path style="fill:#000000; fill-opacity:1.0000; 
stroke:#000000; stroke-width:0.0000; stroke-opacity:1; 
stroke-linecap:round; stroke-linejoin:round;fill-rule:evenodd;"
d="M 71.6380,86.0200
71.5423,86.0010
71.4612,85.9468
71.4070,85.8657
71.3880,85.7700
71.3880,84.9700
71.4070,84.8743
71.4612,84.7932
71.5423,84.7390
71.6380,84.7200
72.8880,84.7200
72.9837,84.7390
73.0648,84.7932
73.1190,84.8743
73.1380,84.9700
73.1380,85.7700
73.1190,85.8657
73.0648,85.9468
72.9837,86.0010
72.8880,86.0200
Z" /> 
<path style="fill:#000000; fill-opacity:1.0000; 
stroke:#000000; stroke-width:0.0000; stroke-opacity:1; 
stroke-linecap:round; stroke-linejoin:round;fill-rule:evenodd;"
d="M 71.6380,82.9200
71.5423,82.9010
71.4612,82.8468
71.4070,82.7657
71.3880,82.6700
71.3880,81.8700
71.4070,81.7743
71.4612,81.6932
71.5423,81.6390
71.6380,81.6200
72.8880,81.6200
72.9837,81.6390
73.0648,81.6932
73.1190,81.7743
73.1380,81.8700
73.1380,82.6700
73.1190,82.7657
73.0648,82.8468
72.9837,82.9010
72.8880,82.9200
Z" /> 
</g>
<g >
</g>
<g style="fill:#000000; fill-opacity:1.0000; 
stroke:#000000; stroke-width:0.0000; stroke-opacity:1; 
stroke-linecap:round; stroke-linejoin:round;">
<path style="fill:#000000; fill-opacity:1.0000; 
stroke:#000000; stroke-width:0.0000; stroke-opacity:1; 
stroke-linecap:round; stroke-linejoin:round;fill-rule:evenodd;"
d="M 71.2570,73.4210
71.1613,73.4020
71.0802,73.3478
71.0260,73.2667
71.0070,73.1710
71.0070,72.3710
71.0260,72.2753
71.0802,72.1942
71.1613,72.1400
71.2570,72.1210
72.5070,72.1210
72.6027,72.1400
72.6838,72.1942
72.7380,72.2753
72.7570,72.3710
72.7570,73.1710
72.7380,73.2667
72.6838,73.3478
72.6027,73.4020
72.5070,73.4210
Z" /> 
<path style="fill:#000000; fill-opacity:1.0000; 
stroke:#000000; stroke-width:0.0000; stroke-opacity:1; 
stroke-linecap:round; stroke-linejoin:round;fill-rule:evenodd;"
d="M 71.2570,70.3210
71.1613,70.3020
71.0802,70.2478
71.0260,70.1667
71.0070,70.0710
71.0070,69.2710
71.0260,69.1753
71.0802,69.0942
71.1613,69.0400
71.2570,69.0210
72.5070,69.0210
72.6027,69.0400
72.6838,69.0942
72.7380,69.1753
72.7570,69.2710
72.7570,70.0710
72.7380,70.1667
72.6838,70.2478
72.6027,70.3020
72.5070,70.3210
Z" /> 
</g>
<g >
</g>
<g style="fill:#000000; fill-opacity:1.0000; 
stroke:#000000; stroke-width:0.0000; stroke-opacity:1; 
stroke-linecap:round; stroke-linejoin:round;">
<path style="fill:#000000; fill-opacity:1.0000; 
stroke:#000000; stroke-width:0.0000; stroke-opacity:1; 
stroke-linecap:round; stroke-linejoin:round;fill-rule:evenodd;"
d="M 71.2570,58.0280
71.1613,58.0090
71.0802,57.9548
71.0260,57.8737
71.0070,57.7780
71.0070,56.9780
71.0260,56.8823
71.0802,56.8012
71.1613,56.7470
71.2570,56.7280
72.5070,56.7280
72.6027,56.7470
72.6838,56.8012
72.7380,56.8823
72.7570,56.9780
72.7570,57.7780
72.7380,57.8737
72.6838,57.9548
72.6027,58.0090
72.5070,58.0280
Z" /> 
<path style="fill:#000000; fill-opacity:1.0000; 
stroke:#000000; stroke-width:0.0000; stroke-opacity:1; 
stroke-linecap:round; stroke-linejoin:round;fill-rule:evenodd;"
d="M 71.2570,61.1280
71.1613,61.1090
71.0802,61.0548
71.0260,60.9737
71.0070,60.8780
71.0070,60.0780
71.0260,59.9823
71.0802,59.9012
71.1613,59.8470
71.2570,59.8280
72.5070,59.8280
72.6027,59.8470
72.6838,59.9012
72.7380,59.9823
72.7570,60.0780
72.7570,60.8780
72.7380,60.9737
72.6838,61.0548
72.6027,61.1090
72.5070,61.1280
Z" /> 
</g>
<g >
</g>
<g style="fill:#000000; fill-opacity:1.0000; 
stroke:#000000; stroke-width:0.0000; stroke-opacity:1; 
stroke-linecap:round; stroke-linejoin:round;">
<path style="fill:#000000; fill-opacity:1.0000; 
stroke:#000000; stroke-width:0.0000; stroke-opacity:1; 
stroke-linecap:round; stroke-linejoin:round;fill-rule:evenodd;"
d="M 71.3840,48.9360
71.2883,48.9170
71.2072,48.8628
71.1530,48.7817
71.1340,48.6860
71.1340,47.8860
71.1530,47.7903
71.2072,47.7092
71.2883,47.6550
71.3840,47.6360
72.6340,47.6360
72.7297,47.6550
72.8108,47.7092
72.8650,47.7903
72.8840,47.8860
72.8840,48.6860
72.8650,48.7817
72.8108,48.8628
72.7297,48.9170
72.6340,48.9360
Z" /> 
<path style="fill:#000000; fill-opacity:1.0000; 
stroke:#000000; stroke-width:0.0000; stroke-opacity:1; 
stroke-linecap:round; stroke-linejoin:round;fill-rule:evenodd;"
d="M 71.3840,45.8360
71.2883,45.8170
71.2072,45.7628
71.1530,45.6817
71.1340,45.5860
71.1340,44.7860
71.1530,44.6903
71.2072,44.6092
71.2883,44.5550
71.3840,44.5360
72.6340,44.5360
72.7297,44.5550
72.8108,44.6092
72.8650,44.6903
72.8840,44.7860
72.8840,45.5860
72.8650,45.6817
72.8108,45.7628
72.7297,45.8170
72.6340,45.8360
Z" /> 
</g>
<g >
</g>
<g style="fill:#000000; fill-opacity:1.0000; 
stroke:#000000; stroke-width:0.0000; stroke-opacity:1; 
stroke-linecap:round; stroke-linejoin:round;">
<path style="fill:#000000; fill-opacity:1.0000; 
stroke:#000000; stroke-width:0.0000; stroke-opacity:1; 
stroke-linecap:round; stroke-linejoin:round;fill-rule:evenodd;"
d="M 71.1300,36.7440
71.0343,36.7250
70.9532,36.6708
70.8990,36.5897
70.8800,36.4940
70.8800,35.6940
70.8990,35.5983
70.9532,35.5172
71.0343,35.4630
71.1300,35.4440
72.3800,35.4440
72.4757,35.4630
72.5568,35.5172
72.6110,35.5983
72.6300,35.6940
72.6300,36.4940
72.6110,36.5897
72.5568,36.6708
72.4757,36.7250
72.3800,36.7440
Z" /> 
<path style="fill:#000000; fill-opacity:1.0000; 
stroke:#000000; stroke-width:0.0000; stroke-opacity:1; 
stroke-linecap:round; stroke-linejoin:round;fill-rule:evenodd;"
d="M 71.1300,33.6440
71.0343,33.6250
70.9532,33.5708
70.8990,33.4897
70.8800,33.3940
70.8800,32.5940
70.8990,32.4983
70.9532,32.4172
71.0343,32.3630
71.1300,32.3440
72.3800,32.3440
72.4757,32.3630
72.5568,32.4172
72.6110,32.4983
72.6300,32.5940
72.6300,33.3940
72.6110,33.4897
72.5568,33.5708
72.4757,33.6250
72.3800,33.6440
Z" /> 
</g>
<g >
</g>
<g style="fill:#000000; fill-opacity:1.0000; 
stroke:#000000; stroke-width:0.0000; stroke-opacity:1; 
stroke-linecap:round; stroke-linejoin:round;">
<path style="fill:#000000; fill-opacity:1.0000; 
stroke:#000000; stroke-width:0.0000; stroke-opacity:1; 
stroke-linecap:round; stroke-linejoin:round;fill-rule:evenodd;"
d="M 51.8260,36.5160
51.7303,36.4970
51.6492,36.4428
51.5950,36.3617
51.5760,36.2660
51.5760,35.4660
51.5950,35.3703
51.6492,35.2892
51.7303,35.2350
51.8260,35.2160
53.0760,35.2160
53.1717,35.2350
53.2528,35.2892
53.3070,35.3703
53.3260,35.4660
53.3260,36.2660
53.3070,36.3617
53.2528,36.4428
53.1717,36.4970
53.0760,36.5160
Z" /> 
<path style="fill:#000000; fill-opacity:1.0000; 
stroke:#000000; stroke-width:0.0000; stroke-opacity:1; 
stroke-linecap:round; stroke-linejoin:round;fill-rule:evenodd;"
d="M 51.8260,33.4160
51.7303,33.3970
51.6492,33.3428
51.5950,33.2617
51.5760,33.1660
51.5760,32.3660
51.5950,32.2703
51.6492,32.1892
51.7303,32.1350
51.8260,32.1160
53.0760,32.1160
53.1717,32.1350
53.2528,32.1892
53.3070,32.2703
53.3260,32.3660
53.3260,33.1660
53.3070,33.2617
53.2528,33.3428
53.1717,33.3970
53.0760,33.4160
Z" /> 
</g>
<g >
</g>
<g style="fill:#000000; fill-opacity:1.0000; 
stroke:#000000; stroke-width:0.0000; stroke-opacity:1; 
stroke-linecap:round; stroke-linejoin:round;">
<path style="fill:#000000; fill-opacity:1.0000; 
stroke:#000000; stroke-width:0.0000; stroke-opacity:1; 
stroke-linecap:round; stroke-linejoin:round;fill-rule:evenodd;"
d="M 67.3200,86.0460
67.2243,86.0270
67.1432,85.9728
67.0890,85.8917
67.0700,85.7960
67.0700,84.9960
67.0890,84.9003
67.1432,84.8192
67.2243,84.7650
67.3200,84.7460
68.5700,84.7460
68.6657,84.7650
68.7468,84.8192
68.8010,84.9003
68.8200,84.9960
68.8200,85.7960
68.8010,85.8917
68.7468,85.9728
68.6657,86.0270
68.5700,86.0460
Z" /> 
<path style="fill:#000000; fill-opacity:1.0000; 
stroke:#000000; stroke-width:0.0000; stroke-opacity:1; 
stroke-linecap:round; stroke-linejoin:round;fill-rule:evenodd;"
d="M 67.3200,82.9460
67.2243,82.9270
67.1432,82.8728
67.0890,82.7917
67.0700,82.6960
67.0700,81.8960
67.0890,81.8003
67.1432,81.7192
67.2243,81.6650
67.3200,81.6460
68.5700,81.6460
68.6657,81.6650
68.7468,81.7192
68.8010,81.8003
68.8200,81.8960
68.8200,82.6960
68.8010,82.7917
68.7468,82.8728
68.6657,82.9270
68.5700,82.9460
Z" /> 
</g>
<g >
</g>
<g style="fill:#000000; fill-opacity:1.0000; 
stroke:#000000; stroke-width:0.0000; stroke-opacity:1; 
stroke-linecap:round; stroke-linejoin:round;">
<path style="fill:#000000; fill-opacity:1.0000; 
stroke:#000000; stroke-width:0.0000; stroke-opacity:1; 
stroke-linecap:round; stroke-linejoin:round;fill-rule:evenodd;"
d="M 67.4470,73.4470
67.3513,73.4280
67.2702,73.3738
67.2160,73.2927
67.1970,73.1970
67.1970,72.3970
67.2160,72.3013
67.2702,72.2202
67.3513,72.1660
67.4470,72.1470
68.6970,72.1470
68.7927,72.1660
68.8738,72.2202
68.9280,72.3013
68.9470,72.3970
68.9470,73.1970
68.9280,73.2927
68.8738,73.3738
68.7927,73.4280
68.6970,73.4470
Z" /> 
<path style="fill:#000000; fill-opacity:1.0000; 
stroke:#000000; stroke-width:0.0000; stroke-opacity:1; 
stroke-linecap:round; stroke-linejoin:round;fill-rule:evenodd;"
d="M 67.4470,70.3470
67.3513,70.3280
67.2702,70.2738
67.2160,70.1927
67.1970,70.0970
67.1970,69.2970
67.2160,69.2013
67.2702,69.1202
67.3513,69.0660
67.4470,69.0470
68.6970,69.0470
68.7927,69.0660
68.8738,69.1202
68.9280,69.2013
68.9470,69.2970
68.9470,70.0970
68.9280,70.1927
68.8738,70.2738
68.7927,70.3280
68.6970,70.3470
Z" /> 
</g>
<g >
</g>
<g style="fill:#000000; fill-opacity:1.0000; 
stroke:#000000; stroke-width:0.0000; stroke-opacity:1; 
stroke-linecap:round; stroke-linejoin:round;">
<path style="fill:#000000; fill-opacity:1.0000; 
stroke:#000000; stroke-width:0.0000; stroke-opacity:1; 
stroke-linecap:round; stroke-linejoin:round;fill-rule:evenodd;"
d="M 67.3200,61.1280
67.2243,61.1090
67.1432,61.0548
67.0890,60.9737
67.0700,60.8780
67.0700,60.0780
67.0890,59.9823
67.1432,59.9012
67.2243,59.8470
67.3200,59.8280
68.5700,59.8280
68.6657,59.8470
68.7468,59.9012
68.8010,59.9823
68.8200,60.0780
68.8200,60.8780
68.8010,60.9737
68.7468,61.0548
68.6657,61.1090
68.5700,61.1280
Z" /> 
<path style="fill:#000000; fill-opacity:1.0000; 
stroke:#000000; stroke-width:0.0000; stroke-opacity:1; 
stroke-linecap:round; stroke-linejoin:round;fill-rule:evenodd;"
d="M 67.3200,58.0280
67.2243,58.0090
67.1432,57.9548
67.0890,57.8737
67.0700,57.7780
67.0700,56.9780
67.0890,56.8823
67.1432,56.8012
67.2243,56.7470
67.3200,56.7280
68.5700,56.7280
68.6657,56.7470
68.7468,56.8012
68.8010,56.8823
68.8200,56.9780
68.8200,57.7780
68.8010,57.8737
68.7468,57.9548
68.6657,58.0090
68.5700,58.0280
Z" /> 
</g>
<g >
</g>
<g style="fill:#000000; fill-opacity:1.0000; 
stroke:#000000; stroke-width:0.0000; stroke-opacity:1; 
stroke-linecap:round; stroke-linejoin:round;">
<path style="fill:#000000; fill-opacity:1.0000; 
stroke:#000000; stroke-width:0.0000; stroke-opacity:1; 
stroke-linecap:round; stroke-linejoin:round;fill-rule:evenodd;"
d="M 67.1930,48.8090
67.0973,48.7900
67.0162,48.7358
66.9620,48.6547
66.9430,48.5590
66.9430,47.7590
66.9620,47.6633
67.0162,47.5822
67.0973,47.5280
67.1930,47.5090
68.4430,47.5090
68.5387,47.5280
68.6198,47.5822
68.6740,47.6633
68.6930,47.7590
68.6930,48.5590
68.6740,48.6547
68.6198,48.7358
68.5387,48.7900
68.4430,48.8090
Z" /> 
<path style="fill:#000000; fill-opacity:1.0000; 
stroke:#000000; stroke-width:0.0000; stroke-opacity:1; 
stroke-linecap:round; stroke-linejoin:round;fill-rule:evenodd;"
d="M 67.1930,45.7090
67.0973,45.6900
67.0162,45.6358
66.9620,45.5547
66.9430,45.4590
66.9430,44.6590
66.9620,44.5633
67.0162,44.4822
67.0973,44.4280
67.1930,44.4090
68.4430,44.4090
68.5387,44.4280
68.6198,44.4822
68.6740,44.5633
68.6930,44.6590
68.6930,45.4590
68.6740,45.5547
68.6198,45.6358
68.5387,45.6900
68.4430,45.7090
Z" /> 
</g>
<g >
</g>
<g style="fill:#000000; fill-opacity:1.0000; 
stroke:#000000; stroke-width:0.0000; stroke-opacity:1; 
stroke-linecap:round; stroke-linejoin:round;">
<path style="fill:#000000; fill-opacity:1.0000; 
stroke:#000000; stroke-width:0.0000; stroke-opacity:1; 
stroke-linecap:round; stroke-linejoin:round;fill-rule:evenodd;"
d="M 67.1930,37.1250
67.0973,37.1060
67.0162,37.0518
66.9620,36.9707
66.9430,36.8750
66.9430,36.0750
66.9620,35.9793
67.0162,35.8982
67.0973,35.8440
67.1930,35.8250
68.4430,35.8250
68.5387,35.8440
68.6198,35.8982
68.6740,35.9793
68.6930,36.0750
68.6930,36.8750
68.6740,36.9707
68.6198,37.0518
68.5387,37.1060
68.4430,37.1250
Z" /> 
<path style="fill:#000000; fill-opacity:1.0000; 
stroke:#000000; stroke-width:0.0000; stroke-opacity:1; 
stroke-linecap:round; stroke-linejoin:round;fill-rule:evenodd;"
d="M 67.1930,34.0250
67.0973,34.0060
67.0162,33.9518
66.9620,33.8707
66.9430,33.7750
66.9430,32.9750
66.9620,32.8793
67.0162,32.7982
67.0973,32.7440
67.1930,32.7250
68.4430,32.7250
68.5387,32.7440
68.6198,32.7982
68.6740,32.8793
68.6930,32.9750
68.6930,33.7750
68.6740,33.8707
68.6198,33.9518
68.5387,34.0060
68.4430,34.0250
Z" /> 
</g>
<g >
</g>
<g >
</g>
<g >
</g>
<g >
</g>
<g >
</g>
<g >
</g>
<g >
</g>
<g >
</g>
<g >
</g>
<g >
</g>
<g >
</g>
<g >
</g>
<g >
</g>
<g >
</g>
<g >
</g>
<g >
</g>
<g >
</g>
<g >
</g>
<g >
</g>
<g >
</g>
<g >
</g>
<g >
</g>
<g >
</g>
<g >
</g>
<g >
</g>
<g >
</g>
<g >
</g>
<g >
</g>
<g >
</g>
<g >
</g>
<g >
</g>
<g >
</g>
<g >
</g>
<g >
</g>
<g >
</g>
<g >
</g>
<g >
</g>
<g >
</g>
<g >
</g>
<g >
</g>
<g >
</g>
<g >
</g>
<g >
</g>
<g >
</g>
<g >
</g>
<g >
</g>
<g >
</g>
<g >
</g>
<g >
</g>
<g >
</g>
<g >
</g>
<g >
</g>
<g >
</g>
<g >
</g>
<g >
</g>
<g >
</g>
<g >
</g>
<g >
</g>
<g >
</g>
<g >
</g>
<g >
</g>
<g >
</g>
<g >
</g>
<g >
</g>
<g >
</g>
<g >
</g>
<g >
</g>
<g >
</g>
<g >
</g>
<g >
</g>
<g >
</g>
<g >
</g>
<g >
</g>
<g >
</g>
<g >
</g>
<g >
</g>
<g >
</g>
<g >
</g>
<g >
</g>
<g >
</g>
<g >
</g>
<g >
</g>
<g >
</g>
<g >
</g>
<g >
</g>
<g >
</g>
<g >
</g>
<g >
</g>
<g >
</g>
<g >
</g>
<g >
</g>
<g >
</g>
<g >
</g>
<g >
</g>
<g >
</g>
<g >
</g>
<g style="fill:#000000; fill-opacity:1.0000; 
stroke:#000000; stroke-width:0.0000; stroke-opacity:1; 
stroke-linecap:round; stroke-linejoin:round;">
<path style="fill:#000000; fill-opacity:1.0000; 
stroke:#000000; stroke-width:0.0000; stroke-opacity:1; 
stroke-linecap:round; stroke-linejoin:round;fill-rule:evenodd;"
d="M 86.2000,139.3665
86.2957,139.3855
86.3768,139.4397
86.4310,139.5208
86.4500,139.6165
86.4500,140.2915
86.4310,140.3872
86.3768,140.4683
86.2957,140.5225
86.2000,140.5415
85.2500,140.5415
85.1543,140.5225
85.0732,140.4683
85.0190,140.3872
85.0000,140.2915
85.0000,139.6165
85.0190,139.5208
85.0732,139.4397
85.1543,139.3855
85.2500,139.3665
Z" /> 
<path style="fill:#000000; fill-opacity:1.0000; 
stroke:#000000; stroke-width:0.0000; stroke-opacity:1; 
stroke-linecap:round; stroke-linejoin:round;fill-rule:evenodd;"
d="M 86.2000,141.4415
86.2957,141.4605
86.3768,141.5147
86.4310,141.5958
86.4500,141.6915
86.4500,142.3665
86.4310,142.4622
86.3768,142.5433
86.2957,142.5975
86.2000,142.6165
85.2500,142.6165
85.1543,142.5975
85.0732,142.5433
85.0190,142.4622
85.0000,142.3665
85.0000,141.6915
85.0190,141.5958
85.0732,141.5147
85.1543,141.4605
85.2500,141.4415
Z" /> 
</g>
<g >
</g>
<g style="fill:#000000; fill-opacity:1.0000; 
stroke:#000000; stroke-width:0.0000; stroke-opacity:1; 
stroke-linecap:round; stroke-linejoin:round;">
<path style="fill:#000000; fill-opacity:1.0000; 
stroke:#000000; stroke-width:0.0000; stroke-opacity:1; 
stroke-linecap:round; stroke-linejoin:round;fill-rule:evenodd;"
d="M 120.1320,90.0020
120.2277,90.0210
120.3088,90.0752
120.3630,90.1563
120.3820,90.2520
120.3820,91.0520
120.3630,91.1477
120.3088,91.2288
120.2277,91.2830
120.1320,91.3020
118.8820,91.3020
118.7863,91.2830
118.7052,91.2288
118.6510,91.1477
118.6320,91.0520
118.6320,90.2520
118.6510,90.1563
118.7052,90.0752
118.7863,90.0210
118.8820,90.0020
Z" /> 
<path style="fill:#000000; fill-opacity:1.0000; 
stroke:#000000; stroke-width:0.0000; stroke-opacity:1; 
stroke-linecap:round; stroke-linejoin:round;fill-rule:evenodd;"
d="M 120.1320,93.1020
120.2277,93.1210
120.3088,93.1752
120.3630,93.2563
120.3820,93.3520
120.3820,94.1520
120.3630,94.2477
120.3088,94.3288
120.2277,94.3830
120.1320,94.4020
118.8820,94.4020
118.7863,94.3830
118.7052,94.3288
118.6510,94.2477
118.6320,94.1520
118.6320,93.3520
118.6510,93.2563
118.7052,93.1752
118.7863,93.1210
118.8820,93.1020
Z" /> 
</g>
<g >
</g>
<g style="fill:#000000; fill-opacity:1.0000; 
stroke:#000000; stroke-width:0.0000; stroke-opacity:1; 
stroke-linecap:round; stroke-linejoin:round;">
<path style="fill:#000000; fill-opacity:1.0000; 
stroke:#000000; stroke-width:0.0000; stroke-opacity:1; 
stroke-linecap:round; stroke-linejoin:round;fill-rule:evenodd;"
d="M 91.0078,129.5791
91.0889,129.5249
91.1846,129.5059
91.2803,129.5249
91.3614,129.5791
91.8387,130.0564
91.8929,130.1375
91.9119,130.2331
91.8929,130.3288
91.8387,130.4099
91.1669,131.0817
91.0858,131.1359
90.9901,131.1549
90.8945,131.1359
90.8134,131.0817
90.3361,130.6044
90.2819,130.5233
90.2629,130.4276
90.2819,130.3319
90.3361,130.2508
Z" /> 
<path style="fill:#000000; fill-opacity:1.0000; 
stroke:#000000; stroke-width:0.0000; stroke-opacity:1; 
stroke-linecap:round; stroke-linejoin:round;fill-rule:evenodd;"
d="M 92.4751,131.0463
92.5562,130.9921
92.6518,130.9731
92.7475,130.9921
92.8286,131.0463
93.3059,131.5236
93.3601,131.6047
93.3791,131.7004
93.3601,131.7961
93.3059,131.8772
92.6342,132.5489
92.5531,132.6031
92.4574,132.6221
92.3617,132.6031
92.2806,132.5489
91.8033,132.0716
91.7491,131.9905
91.7301,131.8948
91.7491,131.7992
91.8033,131.7181
Z" /> 
</g>
<g >
</g>
<g style="fill:#000000; fill-opacity:1.0000; 
stroke:#000000; stroke-width:0.0000; stroke-opacity:1; 
stroke-linecap:round; stroke-linejoin:round;">
<path style="fill:#000000; fill-opacity:1.0000; 
stroke:#000000; stroke-width:0.0000; stroke-opacity:1; 
stroke-linecap:round; stroke-linejoin:round;fill-rule:evenodd;"
d="M 77.6361,132.3852
77.5819,132.3041
77.5629,132.2084
77.5819,132.1127
77.6361,132.0316
78.1134,131.5543
78.1945,131.5001
78.2901,131.4811
78.3858,131.5001
78.4669,131.5543
79.1387,132.2261
79.1929,132.3072
79.2119,132.4029
79.1929,132.4985
79.1387,132.5796
78.6614,133.0569
78.5803,133.1111
78.4846,133.1301
78.3889,133.1111
78.3078,133.0569
Z" /> 
<path style="fill:#000000; fill-opacity:1.0000; 
stroke:#000000; stroke-width:0.0000; stroke-opacity:1; 
stroke-linecap:round; stroke-linejoin:round;fill-rule:evenodd;"
d="M 79.1033,130.9179
79.0491,130.8368
79.0301,130.7412
79.0491,130.6455
79.1033,130.5644
79.5806,130.0871
79.6617,130.0329
79.7574,130.0139
79.8531,130.0329
79.9342,130.0871
80.6059,130.7588
80.6601,130.8399
80.6791,130.9356
80.6601,131.0313
80.6059,131.1124
80.1286,131.5897
80.0475,131.6439
79.9518,131.6629
79.8562,131.6439
79.7751,131.5897
Z" /> 
</g>
<g >
</g>
<g style="fill:#000000; fill-opacity:1.0000; 
stroke:#000000; stroke-width:0.0000; stroke-opacity:1; 
stroke-linecap:round; stroke-linejoin:round;">
<path style="fill:#000000; fill-opacity:1.0000; 
stroke:#000000; stroke-width:0.0000; stroke-opacity:1; 
stroke-linecap:round; stroke-linejoin:round;fill-rule:evenodd;"
d="M 86.4358,124.7531
86.5169,124.6989
86.6126,124.6799
86.7083,124.6989
86.7894,124.7531
87.2667,125.2304
87.3209,125.3115
87.3399,125.4071
87.3209,125.5028
87.2667,125.5839
86.5949,126.2557
86.5138,126.3099
86.4181,126.3289
86.3225,126.3099
86.2414,126.2557
85.7641,125.7784
85.7099,125.6973
85.6909,125.6016
85.7099,125.5059
85.7641,125.4248
Z" /> 
<path style="fill:#000000; fill-opacity:1.0000; 
stroke:#000000; stroke-width:0.0000; stroke-opacity:1; 
stroke-linecap:round; stroke-linejoin:round;fill-rule:evenodd;"
d="M 87.9031,126.2203
87.9842,126.1661
88.0798,126.1471
88.1755,126.1661
88.2566,126.2203
88.7339,126.6976
88.7881,126.7787
88.8071,126.8744
88.7881,126.9701
88.7339,127.0512
88.0622,127.7229
87.9811,127.7771
87.8854,127.7961
87.7897,127.7771
87.7086,127.7229
87.2313,127.2456
87.1771,127.1645
87.1581,127.0688
87.1771,126.9732
87.2313,126.8921
Z" /> 
</g>
<g >
</g>
<g style="fill:#000000; fill-opacity:1.0000; 
stroke:#000000; stroke-width:0.0000; stroke-opacity:1; 
stroke-linecap:round; stroke-linejoin:round;">
<path style="fill:#000000; fill-opacity:1.0000; 
stroke:#000000; stroke-width:0.0000; stroke-opacity:1; 
stroke-linecap:round; stroke-linejoin:round;fill-rule:evenodd;"
d="M 93.5599,134.0608
93.6141,134.1419
93.6331,134.2376
93.6141,134.3333
93.5599,134.4144
93.0826,134.8917
93.0015,134.9459
92.9059,134.9649
92.8102,134.9459
92.7291,134.8917
92.0573,134.2199
92.0031,134.1388
91.9841,134.0431
92.0031,133.9475
92.0573,133.8664
92.5346,133.3891
92.6157,133.3349
92.7114,133.3159
92.8071,133.3349
92.8882,133.3891
Z" /> 
<path style="fill:#000000; fill-opacity:1.0000; 
stroke:#000000; stroke-width:0.0000; stroke-opacity:1; 
stroke-linecap:round; stroke-linejoin:round;fill-rule:evenodd;"
d="M 92.0927,135.5281
92.1469,135.6092
92.1659,135.7048
92.1469,135.8005
92.0927,135.8816
91.6154,136.3589
91.5343,136.4131
91.4386,136.4321
91.3429,136.4131
91.2618,136.3589
90.5901,135.6872
90.5359,135.6061
90.5169,135.5104
90.5359,135.4147
90.5901,135.3336
91.0674,134.8563
91.1485,134.8021
91.2441,134.7831
91.3398,134.8021
91.4209,134.8563
Z" /> 
</g>
<g >
</g>
<g style="fill:#000000; fill-opacity:1.0000; 
stroke:#000000; stroke-width:0.0000; stroke-opacity:1; 
stroke-linecap:round; stroke-linejoin:round;">
<path style="fill:#000000; fill-opacity:1.0000; 
stroke:#000000; stroke-width:0.0000; stroke-opacity:1; 
stroke-linecap:round; stroke-linejoin:round;fill-rule:evenodd;"
d="M 70.3990,187.0610
70.3800,187.1567
70.3258,187.2378
70.2447,187.2920
70.1490,187.3110
69.3490,187.3110
69.2533,187.2920
69.1722,187.2378
69.1180,187.1567
69.0990,187.0610
69.0990,185.8110
69.1180,185.7153
69.1722,185.6342
69.2533,185.5800
69.3490,185.5610
70.1490,185.5610
70.2447,185.5800
70.3258,185.6342
70.3800,185.7153
70.3990,185.8110
Z" /> 
<path style="fill:#000000; fill-opacity:1.0000; 
stroke:#000000; stroke-width:0.0000; stroke-opacity:1; 
stroke-linecap:round; stroke-linejoin:round;fill-rule:evenodd;"
d="M 67.2990,187.0610
67.2800,187.1567
67.2258,187.2378
67.1447,187.2920
67.0490,187.3110
66.2490,187.3110
66.1533,187.2920
66.0722,187.2378
66.0180,187.1567
65.9990,187.0610
65.9990,185.8110
66.0180,185.7153
66.0722,185.6342
66.1533,185.5800
66.2490,185.5610
67.0490,185.5610
67.1447,185.5800
67.2258,185.6342
67.2800,185.7153
67.2990,185.8110
Z" /> 
</g>
<g >
</g>
<g style="fill:#000000; fill-opacity:1.0000; 
stroke:#000000; stroke-width:0.0000; stroke-opacity:1; 
stroke-linecap:round; stroke-linejoin:round;">
<path style="fill:#000000; fill-opacity:1.0000; 
stroke:#000000; stroke-width:0.0000; stroke-opacity:1; 
stroke-linecap:round; stroke-linejoin:round;fill-rule:evenodd;"
d="M 93.9390,92.5930
93.9580,92.4973
94.0122,92.4162
94.0933,92.3620
94.1890,92.3430
94.9890,92.3430
95.0847,92.3620
95.1658,92.4162
95.2200,92.4973
95.2390,92.5930
95.2390,93.8430
95.2200,93.9387
95.1658,94.0198
95.0847,94.0740
94.9890,94.0930
94.1890,94.0930
94.0933,94.0740
94.0122,94.0198
93.9580,93.9387
93.9390,93.8430
Z" /> 
<path style="fill:#000000; fill-opacity:1.0000; 
stroke:#000000; stroke-width:0.0000; stroke-opacity:1; 
stroke-linecap:round; stroke-linejoin:round;fill-rule:evenodd;"
d="M 97.0390,92.5930
97.0580,92.4973
97.1122,92.4162
97.1933,92.3620
97.2890,92.3430
98.0890,92.3430
98.1847,92.3620
98.2658,92.4162
98.3200,92.4973
98.3390,92.5930
98.3390,93.8430
98.3200,93.9387
98.2658,94.0198
98.1847,94.0740
98.0890,94.0930
97.2890,94.0930
97.1933,94.0740
97.1122,94.0198
97.0580,93.9387
97.0390,93.8430
Z" /> 
</g>
<g >
</g>
<g style="fill:#000000; fill-opacity:1.0000; 
stroke:#000000; stroke-width:0.0000; stroke-opacity:1; 
stroke-linecap:round; stroke-linejoin:round;">
<path style="fill:#000000; fill-opacity:1.0000; 
stroke:#000000; stroke-width:0.0000; stroke-opacity:1; 
stroke-linecap:round; stroke-linejoin:round;fill-rule:evenodd;"
d="M 89.8040,91.1200
89.8997,91.1390
89.9808,91.1932
90.0350,91.2743
90.0540,91.3700
90.0540,92.1950
90.0350,92.2907
89.9808,92.3718
89.8997,92.4260
89.8040,92.4450
88.5040,92.4450
88.4083,92.4260
88.3272,92.3718
88.2730,92.2907
88.2540,92.1950
88.2540,91.3700
88.2730,91.2743
88.3272,91.1932
88.4083,91.1390
88.5040,91.1200
Z" /> 
<path style="fill:#000000; fill-opacity:1.0000; 
stroke:#000000; stroke-width:0.0000; stroke-opacity:1; 
stroke-linecap:round; stroke-linejoin:round;fill-rule:evenodd;"
d="M 89.8040,94.2450
89.8997,94.2640
89.9808,94.3182
90.0350,94.3993
90.0540,94.4950
90.0540,95.3200
90.0350,95.4157
89.9808,95.4968
89.8997,95.5510
89.8040,95.5700
88.5040,95.5700
88.4083,95.5510
88.3272,95.4968
88.2730,95.4157
88.2540,95.3200
88.2540,94.4950
88.2730,94.3993
88.3272,94.3182
88.4083,94.2640
88.5040,94.2450
Z" /> 
</g>
<g >
</g>
<g style="fill:#000000; fill-opacity:1.0000; 
stroke:#000000; stroke-width:0.0000; stroke-opacity:1; 
stroke-linecap:round; stroke-linejoin:round;">
<path style="fill:#000000; fill-opacity:1.0000; 
stroke:#000000; stroke-width:0.0000; stroke-opacity:1; 
stroke-linecap:round; stroke-linejoin:round;fill-rule:evenodd;"
d="M 79.5778,141.5171
79.6589,141.4629
79.7546,141.4439
79.8503,141.4629
79.9314,141.5171
80.4087,141.9944
80.4629,142.0755
80.4819,142.1711
80.4629,142.2668
80.4087,142.3479
79.7369,143.0197
79.6558,143.0739
79.5601,143.0929
79.4645,143.0739
79.3834,143.0197
78.9061,142.5424
78.8519,142.4613
78.8329,142.3656
78.8519,142.2699
78.9061,142.1888
Z" /> 
<path style="fill:#000000; fill-opacity:1.0000; 
stroke:#000000; stroke-width:0.0000; stroke-opacity:1; 
stroke-linecap:round; stroke-linejoin:round;fill-rule:evenodd;"
d="M 81.0451,142.9843
81.1262,142.9301
81.2218,142.9111
81.3175,142.9301
81.3986,142.9843
81.8759,143.4616
81.9301,143.5427
81.9491,143.6384
81.9301,143.7341
81.8759,143.8152
81.2042,144.4869
81.1231,144.5411
81.0274,144.5601
80.9317,144.5411
80.8506,144.4869
80.3733,144.0096
80.3191,143.9285
80.3001,143.8329
80.3191,143.7372
80.3733,143.6561
Z" /> 
</g>
<g >
</g>
<g style="fill:#000000; fill-opacity:1.0000; 
stroke:#000000; stroke-width:0.0000; stroke-opacity:1; 
stroke-linecap:round; stroke-linejoin:round;">
<path style="fill:#000000; fill-opacity:1.0000; 
stroke:#000000; stroke-width:0.0000; stroke-opacity:1; 
stroke-linecap:round; stroke-linejoin:round;fill-rule:evenodd;"
d="M 92.3736,143.8512
92.3195,143.7701
92.3004,143.6744
92.3195,143.5787
92.3736,143.4976
92.8509,143.0203
92.9321,142.9661
93.0277,142.9471
93.1234,142.9661
93.2045,143.0203
93.8762,143.6921
93.9304,143.7732
93.9495,143.8688
93.9304,143.9645
93.8762,144.0456
93.3990,144.5229
93.3178,144.5771
93.2222,144.5961
93.1265,144.5771
93.0454,144.5229
Z" /> 
<path style="fill:#000000; fill-opacity:1.0000; 
stroke:#000000; stroke-width:0.0000; stroke-opacity:1; 
stroke-linecap:round; stroke-linejoin:round;fill-rule:evenodd;"
d="M 93.8409,142.3839
93.7867,142.3028
93.7677,142.2071
93.7867,142.1115
93.8409,142.0304
94.3182,141.5531
94.3993,141.4989
94.4950,141.4799
94.5906,141.4989
94.6717,141.5531
95.3435,142.2248
95.3977,142.3059
95.4167,142.4016
95.3977,142.4973
95.3435,142.5784
94.8662,143.0557
94.7851,143.1099
94.6894,143.1289
94.5938,143.1099
94.5126,143.0557
Z" /> 
</g>
<g >
</g>
<g style="fill:#000000; fill-opacity:1.0000; 
stroke:#000000; stroke-width:0.0000; stroke-opacity:1; 
stroke-linecap:round; stroke-linejoin:round;">
<path style="fill:#000000; fill-opacity:1.0000; 
stroke:#000000; stroke-width:0.0000; stroke-opacity:1; 
stroke-linecap:round; stroke-linejoin:round;fill-rule:evenodd;"
d="M 70.3730,181.9810
70.3540,182.0767
70.2998,182.1578
70.2187,182.2120
70.1230,182.2310
69.3230,182.2310
69.2273,182.2120
69.1462,182.1578
69.0920,182.0767
69.0730,181.9810
69.0730,180.7310
69.0920,180.6353
69.1462,180.5542
69.2273,180.5000
69.3230,180.4810
70.1230,180.4810
70.2187,180.5000
70.2998,180.5542
70.3540,180.6353
70.3730,180.7310
Z" /> 
<path style="fill:#000000; fill-opacity:1.0000; 
stroke:#000000; stroke-width:0.0000; stroke-opacity:1; 
stroke-linecap:round; stroke-linejoin:round;fill-rule:evenodd;"
d="M 67.2730,181.9810
67.2540,182.0767
67.1998,182.1578
67.1187,182.2120
67.0230,182.2310
66.2230,182.2310
66.1273,182.2120
66.0462,182.1578
65.9920,182.0767
65.9730,181.9810
65.9730,180.7310
65.9920,180.6353
66.0462,180.5542
66.1273,180.5000
66.2230,180.4810
67.0230,180.4810
67.1187,180.5000
67.1998,180.5542
67.2540,180.6353
67.2730,180.7310
Z" /> 
</g>
<g >
</g>
<g style="fill:#000000; fill-opacity:1.0000; 
stroke:#000000; stroke-width:0.0000; stroke-opacity:1; 
stroke-linecap:round; stroke-linejoin:round;">
<path style="fill:#000000; fill-opacity:1.0000; 
stroke:#000000; stroke-width:0.0000; stroke-opacity:1; 
stroke-linecap:round; stroke-linejoin:round;fill-rule:evenodd;"
d="M 95.6701,140.5132
95.6159,140.4321
95.5969,140.3364
95.6159,140.2407
95.6701,140.1596
96.1474,139.6823
96.2285,139.6281
96.3241,139.6091
96.4198,139.6281
96.5009,139.6823
97.1727,140.3541
97.2269,140.4352
97.2459,140.5308
97.2269,140.6265
97.1727,140.7076
96.6954,141.1849
96.6143,141.2391
96.5186,141.2581
96.4229,141.2391
96.3418,141.1849
Z" /> 
<path style="fill:#000000; fill-opacity:1.0000; 
stroke:#000000; stroke-width:0.0000; stroke-opacity:1; 
stroke-linecap:round; stroke-linejoin:round;fill-rule:evenodd;"
d="M 97.1373,139.0459
97.0831,138.9648
97.0641,138.8691
97.0831,138.7735
97.1373,138.6924
97.6146,138.2151
97.6957,138.1609
97.7914,138.1419
97.8871,138.1609
97.9682,138.2151
98.6399,138.8868
98.6941,138.9679
98.7131,139.0636
98.6941,139.1593
98.6399,139.2404
98.1626,139.7177
98.0815,139.7719
97.9858,139.7909
97.8902,139.7719
97.8091,139.7177
Z" /> 
</g>
<g >
</g>
<g style="fill:#000000; fill-opacity:1.0000; 
stroke:#000000; stroke-width:0.0000; stroke-opacity:1; 
stroke-linecap:round; stroke-linejoin:round;">
<path style="fill:#000000; fill-opacity:1.0000; 
stroke:#000000; stroke-width:0.0000; stroke-opacity:1; 
stroke-linecap:round; stroke-linejoin:round;fill-rule:evenodd;"
d="M 90.9846,132.2828
91.0388,132.3639
91.0578,132.4596
91.0388,132.5553
90.9846,132.6364
90.5249,133.0960
90.4438,133.1502
90.3482,133.1692
90.2525,133.1502
90.1714,133.0960
89.5350,132.4596
89.4808,132.3785
89.4618,132.2828
89.4808,132.1872
89.5350,132.1061
89.9946,131.6464
90.0757,131.5922
90.1714,131.5732
90.2671,131.5922
90.3482,131.6464
Z" /> 
<path style="fill:#000000; fill-opacity:1.0000; 
stroke:#000000; stroke-width:0.0000; stroke-opacity:1; 
stroke-linecap:round; stroke-linejoin:round;fill-rule:evenodd;"
d="M 89.5350,133.7324
89.5892,133.8135
89.6082,133.9092
89.5892,134.0048
89.5350,134.0859
89.0754,134.5456
88.9943,134.5998
88.8986,134.6188
88.8029,134.5998
88.7218,134.5456
88.0854,133.9092
88.0312,133.8281
88.0122,133.7324
88.0312,133.6367
88.0854,133.5556
88.5451,133.0960
88.6262,133.0418
88.7218,133.0228
88.8175,133.0418
88.8986,133.0960
Z" /> 
</g>
<g >
</g>
<g >
</g>
<g >
</g>
</g> 
</svg>
