<?xml version="1.0" standalone="no"?>
 <!DOCTYPE svg PUBLIC "-//W3C//DTD SVG 1.1//EN" 
 "http://www.w3.org/Graphics/SVG/1.1/DTD/svg11.dtd"> 
<svg
  xmlns:svg="http://www.w3.org/2000/svg"
  xmlns="http://www.w3.org/2000/svg"
  xmlns:xlink="http://www.w3.org/1999/xlink"
  version="1.1"
  width="279.4000mm" height="215.9000mm" viewBox="0.0000 0.0000 279.4000 215.9000">
<title>SVG Image created as Schematic-B_Silkscreen.svg date 2023/10/10 16:56:55 </title>
  <desc>Image generated by PCBNEW </desc>
<g style="fill:#000000; fill-opacity:1.0000;stroke:#000000; stroke-opacity:1.0000;
stroke-linecap:round; stroke-linejoin:round;"
 transform="translate(0 0) scale(1 1)">
</g>
<g style="fill:#000000; fill-opacity:0.0; 
stroke:#000000; stroke-width:0.0000; stroke-opacity:1; 
stroke-linecap:round; stroke-linejoin:round;">
</g>
<g style="fill:#000000; fill-opacity:0.0; 
stroke:#000000; stroke-width:0.1500; stroke-opacity:1; 
stroke-linecap:round; stroke-linejoin:round;">
<g transform="rotate(-90.000000 58.2080 34.2900)">
<text x="58.2080" y="34.7900"
transform="scale(-1 1) translate(-116.416000 0)"
textLength="3.0798" font-size="1.3333" lengthAdjust="spacingAndGlyphs"
text-anchor="middle" opacity="0">R58</text>
</g>
<g class="stroked-text"><desc>R58</desc>
<path d="M58.6706 33.6471
L58.1944 33.3138
" />
<path d="M58.6706 33.0757
L57.6706 33.0757
" />
<path d="M57.6706 33.0757
L57.6706 33.4567
" />
<path d="M57.6706 33.4567
L57.7182 33.5519
" />
<path d="M57.7182 33.5519
L57.7659 33.5995
" />
<path d="M57.7659 33.5995
L57.8611 33.6471
" />
<path d="M57.8611 33.6471
L58.0040 33.6471
" />
<path d="M58.0040 33.6471
L58.0992 33.5995
" />
<path d="M58.0992 33.5995
L58.1468 33.5519
" />
<path d="M58.1468 33.5519
L58.1944 33.4567
" />
<path d="M58.1944 33.4567
L58.1944 33.0757
" />
<path d="M57.6706 34.5519
L57.6706 34.0757
" />
<path d="M57.6706 34.0757
L58.1468 34.0281
" />
<path d="M58.1468 34.0281
L58.0992 34.0757
" />
<path d="M58.0992 34.0757
L58.0516 34.1710
" />
<path d="M58.0516 34.1710
L58.0516 34.4090
" />
<path d="M58.0516 34.4090
L58.0992 34.5043
" />
<path d="M58.0992 34.5043
L58.1468 34.5519
" />
<path d="M58.1468 34.5519
L58.2420 34.5995
" />
<path d="M58.2420 34.5995
L58.4801 34.5995
" />
<path d="M58.4801 34.5995
L58.5754 34.5519
" />
<path d="M58.5754 34.5519
L58.6230 34.5043
" />
<path d="M58.6230 34.5043
L58.6706 34.4090
" />
<path d="M58.6706 34.4090
L58.6706 34.1710
" />
<path d="M58.6706 34.1710
L58.6230 34.0757
" />
<path d="M58.6230 34.0757
L58.5754 34.0281
" />
<path d="M58.0992 35.1710
L58.0516 35.0757
" />
<path d="M58.0516 35.0757
L58.0040 35.0281
" />
<path d="M58.0040 35.0281
L57.9087 34.9805
" />
<path d="M57.9087 34.9805
L57.8611 34.9805
" />
<path d="M57.8611 34.9805
L57.7659 35.0281
" />
<path d="M57.7659 35.0281
L57.7182 35.0757
" />
<path d="M57.7182 35.0757
L57.6706 35.1710
" />
<path d="M57.6706 35.1710
L57.6706 35.3614
" />
<path d="M57.6706 35.3614
L57.7182 35.4567
" />
<path d="M57.7182 35.4567
L57.7659 35.5043
" />
<path d="M57.7659 35.5043
L57.8611 35.5519
" />
<path d="M57.8611 35.5519
L57.9087 35.5519
" />
<path d="M57.9087 35.5519
L58.0040 35.5043
" />
<path d="M58.0040 35.5043
L58.0516 35.4567
" />
<path d="M58.0516 35.4567
L58.0992 35.3614
" />
<path d="M58.0992 35.3614
L58.0992 35.1710
" />
<path d="M58.0992 35.1710
L58.1468 35.0757
" />
<path d="M58.1468 35.0757
L58.1944 35.0281
" />
<path d="M58.1944 35.0281
L58.2897 34.9805
" />
<path d="M58.2897 34.9805
L58.4801 34.9805
" />
<path d="M58.4801 34.9805
L58.5754 35.0281
" />
<path d="M58.5754 35.0281
L58.6230 35.0757
" />
<path d="M58.6230 35.0757
L58.6706 35.1710
" />
<path d="M58.6706 35.1710
L58.6706 35.3614
" />
<path d="M58.6706 35.3614
L58.6230 35.4567
" />
<path d="M58.6230 35.4567
L58.5754 35.5043
" />
<path d="M58.5754 35.5043
L58.4801 35.5519
" />
<path d="M58.4801 35.5519
L58.2897 35.5519
" />
<path d="M58.2897 35.5519
L58.1944 35.5043
" />
<path d="M58.1944 35.5043
L58.1468 35.4567
" />
<path d="M58.1468 35.4567
L58.0992 35.3614
" />
</g><g transform="rotate(-90.000000 74.0830 83.8200)">
<text x="74.0830" y="84.3200"
transform="scale(-1 1) translate(-148.166000 0)"
textLength="3.0798" font-size="1.3333" lengthAdjust="spacingAndGlyphs"
text-anchor="middle" opacity="0">R55</text>
</g>
<g class="stroked-text"><desc>R55</desc>
<path d="M74.5456 83.1771
L74.0694 82.8438
" />
<path d="M74.5456 82.6057
L73.5456 82.6057
" />
<path d="M73.5456 82.6057
L73.5456 82.9867
" />
<path d="M73.5456 82.9867
L73.5932 83.0819
" />
<path d="M73.5932 83.0819
L73.6409 83.1295
" />
<path d="M73.6409 83.1295
L73.7361 83.1771
" />
<path d="M73.7361 83.1771
L73.8790 83.1771
" />
<path d="M73.8790 83.1771
L73.9742 83.1295
" />
<path d="M73.9742 83.1295
L74.0218 83.0819
" />
<path d="M74.0218 83.0819
L74.0694 82.9867
" />
<path d="M74.0694 82.9867
L74.0694 82.6057
" />
<path d="M73.5456 84.0819
L73.5456 83.6057
" />
<path d="M73.5456 83.6057
L74.0218 83.5581
" />
<path d="M74.0218 83.5581
L73.9742 83.6057
" />
<path d="M73.9742 83.6057
L73.9266 83.7010
" />
<path d="M73.9266 83.7010
L73.9266 83.9390
" />
<path d="M73.9266 83.9390
L73.9742 84.0343
" />
<path d="M73.9742 84.0343
L74.0218 84.0819
" />
<path d="M74.0218 84.0819
L74.1170 84.1295
" />
<path d="M74.1170 84.1295
L74.3551 84.1295
" />
<path d="M74.3551 84.1295
L74.4504 84.0819
" />
<path d="M74.4504 84.0819
L74.4980 84.0343
" />
<path d="M74.4980 84.0343
L74.5456 83.9390
" />
<path d="M74.5456 83.9390
L74.5456 83.7010
" />
<path d="M74.5456 83.7010
L74.4980 83.6057
" />
<path d="M74.4980 83.6057
L74.4504 83.5581
" />
<path d="M73.5456 85.0343
L73.5456 84.5581
" />
<path d="M73.5456 84.5581
L74.0218 84.5105
" />
<path d="M74.0218 84.5105
L73.9742 84.5581
" />
<path d="M73.9742 84.5581
L73.9266 84.6533
" />
<path d="M73.9266 84.6533
L73.9266 84.8914
" />
<path d="M73.9266 84.8914
L73.9742 84.9867
" />
<path d="M73.9742 84.9867
L74.0218 85.0343
" />
<path d="M74.0218 85.0343
L74.1170 85.0819
" />
<path d="M74.1170 85.0819
L74.3551 85.0819
" />
<path d="M74.3551 85.0819
L74.4504 85.0343
" />
<path d="M74.4504 85.0343
L74.4980 84.9867
" />
<path d="M74.4980 84.9867
L74.5456 84.8914
" />
<path d="M74.5456 84.8914
L74.5456 84.6533
" />
<path d="M74.5456 84.6533
L74.4980 84.5581
" />
<path d="M74.4980 84.5581
L74.4504 84.5105
" />
</g><g transform="rotate(-90.000000 73.7020 71.2210)">
<text x="73.7020" y="71.7210"
transform="scale(-1 1) translate(-147.404000 0)"
textLength="3.0798" font-size="1.3333" lengthAdjust="spacingAndGlyphs"
text-anchor="middle" opacity="0">R52</text>
</g>
<g class="stroked-text"><desc>R52</desc>
<path d="M74.1646 70.5781
L73.6884 70.2448
" />
<path d="M74.1646 70.0067
L73.1646 70.0067
" />
<path d="M73.1646 70.0067
L73.1646 70.3877
" />
<path d="M73.1646 70.3877
L73.2122 70.4829
" />
<path d="M73.2122 70.4829
L73.2599 70.5305
" />
<path d="M73.2599 70.5305
L73.3551 70.5781
" />
<path d="M73.3551 70.5781
L73.4980 70.5781
" />
<path d="M73.4980 70.5781
L73.5932 70.5305
" />
<path d="M73.5932 70.5305
L73.6408 70.4829
" />
<path d="M73.6408 70.4829
L73.6884 70.3877
" />
<path d="M73.6884 70.3877
L73.6884 70.0067
" />
<path d="M73.1646 71.4829
L73.1646 71.0067
" />
<path d="M73.1646 71.0067
L73.6408 70.9591
" />
<path d="M73.6408 70.9591
L73.5932 71.0067
" />
<path d="M73.5932 71.0067
L73.5456 71.1020
" />
<path d="M73.5456 71.1020
L73.5456 71.3400
" />
<path d="M73.5456 71.3400
L73.5932 71.4353
" />
<path d="M73.5932 71.4353
L73.6408 71.4829
" />
<path d="M73.6408 71.4829
L73.7360 71.5305
" />
<path d="M73.7360 71.5305
L73.9741 71.5305
" />
<path d="M73.9741 71.5305
L74.0694 71.4829
" />
<path d="M74.0694 71.4829
L74.1170 71.4353
" />
<path d="M74.1170 71.4353
L74.1646 71.3400
" />
<path d="M74.1646 71.3400
L74.1646 71.1020
" />
<path d="M74.1646 71.1020
L74.1170 71.0067
" />
<path d="M74.1170 71.0067
L74.0694 70.9591
" />
<path d="M73.2599 71.9115
L73.2122 71.9591
" />
<path d="M73.2122 71.9591
L73.1646 72.0543
" />
<path d="M73.1646 72.0543
L73.1646 72.2924
" />
<path d="M73.1646 72.2924
L73.2122 72.3877
" />
<path d="M73.2122 72.3877
L73.2599 72.4353
" />
<path d="M73.2599 72.4353
L73.3551 72.4829
" />
<path d="M73.3551 72.4829
L73.4503 72.4829
" />
<path d="M73.4503 72.4829
L73.5932 72.4353
" />
<path d="M73.5932 72.4353
L74.1646 71.8639
" />
<path d="M74.1646 71.8639
L74.1646 72.4829
" />
</g><g transform="rotate(-90.000000 73.7020 58.9280)">
<text x="73.7020" y="59.4280"
transform="scale(-1 1) translate(-147.404000 0)"
textLength="3.0798" font-size="1.3333" lengthAdjust="spacingAndGlyphs"
text-anchor="middle" opacity="0">R51</text>
</g>
<g class="stroked-text"><desc>R51</desc>
<path d="M74.1646 58.2851
L73.6884 57.9518
" />
<path d="M74.1646 57.7137
L73.1646 57.7137
" />
<path d="M73.1646 57.7137
L73.1646 58.0947
" />
<path d="M73.1646 58.0947
L73.2122 58.1899
" />
<path d="M73.2122 58.1899
L73.2599 58.2375
" />
<path d="M73.2599 58.2375
L73.3551 58.2851
" />
<path d="M73.3551 58.2851
L73.4980 58.2851
" />
<path d="M73.4980 58.2851
L73.5932 58.2375
" />
<path d="M73.5932 58.2375
L73.6408 58.1899
" />
<path d="M73.6408 58.1899
L73.6884 58.0947
" />
<path d="M73.6884 58.0947
L73.6884 57.7137
" />
<path d="M73.1646 59.1899
L73.1646 58.7137
" />
<path d="M73.1646 58.7137
L73.6408 58.6661
" />
<path d="M73.6408 58.6661
L73.5932 58.7137
" />
<path d="M73.5932 58.7137
L73.5456 58.8090
" />
<path d="M73.5456 58.8090
L73.5456 59.0470
" />
<path d="M73.5456 59.0470
L73.5932 59.1423
" />
<path d="M73.5932 59.1423
L73.6408 59.1899
" />
<path d="M73.6408 59.1899
L73.7360 59.2375
" />
<path d="M73.7360 59.2375
L73.9741 59.2375
" />
<path d="M73.9741 59.2375
L74.0694 59.1899
" />
<path d="M74.0694 59.1899
L74.1170 59.1423
" />
<path d="M74.1170 59.1423
L74.1646 59.0470
" />
<path d="M74.1646 59.0470
L74.1646 58.8090
" />
<path d="M74.1646 58.8090
L74.1170 58.7137
" />
<path d="M74.1170 58.7137
L74.0694 58.6661
" />
<path d="M74.1646 60.1899
L74.1646 59.6185
" />
<path d="M74.1646 59.9042
L73.1646 59.9042
" />
<path d="M73.1646 59.9042
L73.3075 59.8090
" />
<path d="M73.3075 59.8090
L73.4027 59.7137
" />
<path d="M73.4027 59.7137
L73.4503 59.6185
" />
</g><g transform="rotate(-90.000000 73.8290 46.7360)">
<text x="73.8290" y="47.2360"
transform="scale(-1 1) translate(-147.658000 0)"
textLength="3.0798" font-size="1.3333" lengthAdjust="spacingAndGlyphs"
text-anchor="middle" opacity="0">R50</text>
</g>
<g class="stroked-text"><desc>R50</desc>
<path d="M74.2916 46.0931
L73.8154 45.7598
" />
<path d="M74.2916 45.5217
L73.2916 45.5217
" />
<path d="M73.2916 45.5217
L73.2916 45.9027
" />
<path d="M73.2916 45.9027
L73.3392 45.9979
" />
<path d="M73.3392 45.9979
L73.3869 46.0455
" />
<path d="M73.3869 46.0455
L73.4821 46.0931
" />
<path d="M73.4821 46.0931
L73.6250 46.0931
" />
<path d="M73.6250 46.0931
L73.7202 46.0455
" />
<path d="M73.7202 46.0455
L73.7678 45.9979
" />
<path d="M73.7678 45.9979
L73.8154 45.9027
" />
<path d="M73.8154 45.9027
L73.8154 45.5217
" />
<path d="M73.2916 46.9979
L73.2916 46.5217
" />
<path d="M73.2916 46.5217
L73.7678 46.4741
" />
<path d="M73.7678 46.4741
L73.7202 46.5217
" />
<path d="M73.7202 46.5217
L73.6726 46.6170
" />
<path d="M73.6726 46.6170
L73.6726 46.8550
" />
<path d="M73.6726 46.8550
L73.7202 46.9503
" />
<path d="M73.7202 46.9503
L73.7678 46.9979
" />
<path d="M73.7678 46.9979
L73.8630 47.0455
" />
<path d="M73.8630 47.0455
L74.1011 47.0455
" />
<path d="M74.1011 47.0455
L74.1964 46.9979
" />
<path d="M74.1964 46.9979
L74.2440 46.9503
" />
<path d="M74.2440 46.9503
L74.2916 46.8550
" />
<path d="M74.2916 46.8550
L74.2916 46.6170
" />
<path d="M74.2916 46.6170
L74.2440 46.5217
" />
<path d="M74.2440 46.5217
L74.1964 46.4741
" />
<path d="M73.2916 47.6646
L73.2916 47.7598
" />
<path d="M73.2916 47.7598
L73.3392 47.8550
" />
<path d="M73.3392 47.8550
L73.3869 47.9027
" />
<path d="M73.3869 47.9027
L73.4821 47.9503
" />
<path d="M73.4821 47.9503
L73.6726 47.9979
" />
<path d="M73.6726 47.9979
L73.9107 47.9979
" />
<path d="M73.9107 47.9979
L74.1011 47.9503
" />
<path d="M74.1011 47.9503
L74.1964 47.9027
" />
<path d="M74.1964 47.9027
L74.2440 47.8550
" />
<path d="M74.2440 47.8550
L74.2916 47.7598
" />
<path d="M74.2916 47.7598
L74.2916 47.6646
" />
<path d="M74.2916 47.6646
L74.2440 47.5693
" />
<path d="M74.2440 47.5693
L74.1964 47.5217
" />
<path d="M74.1964 47.5217
L74.1011 47.4741
" />
<path d="M74.1011 47.4741
L73.9107 47.4265
" />
<path d="M73.9107 47.4265
L73.6726 47.4265
" />
<path d="M73.6726 47.4265
L73.4821 47.4741
" />
<path d="M73.4821 47.4741
L73.3869 47.5217
" />
<path d="M73.3869 47.5217
L73.3392 47.5693
" />
<path d="M73.3392 47.5693
L73.2916 47.6646
" />
</g><g transform="rotate(-90.000000 73.5750 34.5440)">
<text x="73.5750" y="35.0440"
transform="scale(-1 1) translate(-147.150000 0)"
textLength="3.0798" font-size="1.3333" lengthAdjust="spacingAndGlyphs"
text-anchor="middle" opacity="0">R49</text>
</g>
<g class="stroked-text"><desc>R49</desc>
<path d="M74.0376 33.9011
L73.5614 33.5678
" />
<path d="M74.0376 33.3297
L73.0376 33.3297
" />
<path d="M73.0376 33.3297
L73.0376 33.7107
" />
<path d="M73.0376 33.7107
L73.0852 33.8059
" />
<path d="M73.0852 33.8059
L73.1329 33.8535
" />
<path d="M73.1329 33.8535
L73.2281 33.9011
" />
<path d="M73.2281 33.9011
L73.3710 33.9011
" />
<path d="M73.3710 33.9011
L73.4662 33.8535
" />
<path d="M73.4662 33.8535
L73.5138 33.8059
" />
<path d="M73.5138 33.8059
L73.5614 33.7107
" />
<path d="M73.5614 33.7107
L73.5614 33.3297
" />
<path d="M73.3710 34.7583
L74.0376 34.7583
" />
<path d="M72.9900 34.5202
L73.7043 34.2821
" />
<path d="M73.7043 34.2821
L73.7043 34.9011
" />
<path d="M74.0376 35.3297
L74.0376 35.5202
" />
<path d="M74.0376 35.5202
L73.9900 35.6154
" />
<path d="M73.9900 35.6154
L73.9424 35.6630
" />
<path d="M73.9424 35.6630
L73.7995 35.7583
" />
<path d="M73.7995 35.7583
L73.6090 35.8059
" />
<path d="M73.6090 35.8059
L73.2281 35.8059
" />
<path d="M73.2281 35.8059
L73.1329 35.7583
" />
<path d="M73.1329 35.7583
L73.0852 35.7107
" />
<path d="M73.0852 35.7107
L73.0376 35.6154
" />
<path d="M73.0376 35.6154
L73.0376 35.4250
" />
<path d="M73.0376 35.4250
L73.0852 35.3297
" />
<path d="M73.0852 35.3297
L73.1329 35.2821
" />
<path d="M73.1329 35.2821
L73.2281 35.2345
" />
<path d="M73.2281 35.2345
L73.4662 35.2345
" />
<path d="M73.4662 35.2345
L73.5614 35.2821
" />
<path d="M73.5614 35.2821
L73.6090 35.3297
" />
<path d="M73.6090 35.3297
L73.6567 35.4250
" />
<path d="M73.6567 35.4250
L73.6567 35.6154
" />
<path d="M73.6567 35.6154
L73.6090 35.7107
" />
<path d="M73.6090 35.7107
L73.5614 35.7583
" />
<path d="M73.5614 35.7583
L73.4662 35.8059
" />
</g><g transform="rotate(-90.000000 54.2710 34.3160)">
<text x="54.2710" y="34.8160"
transform="scale(-1 1) translate(-108.542000 0)"
textLength="3.0798" font-size="1.3333" lengthAdjust="spacingAndGlyphs"
text-anchor="middle" opacity="0">R48</text>
</g>
<g class="stroked-text"><desc>R48</desc>
<path d="M54.7336 33.6731
L54.2574 33.3398
" />
<path d="M54.7336 33.1017
L53.7336 33.1017
" />
<path d="M53.7336 33.1017
L53.7336 33.4827
" />
<path d="M53.7336 33.4827
L53.7812 33.5779
" />
<path d="M53.7812 33.5779
L53.8289 33.6255
" />
<path d="M53.8289 33.6255
L53.9241 33.6731
" />
<path d="M53.9241 33.6731
L54.0670 33.6731
" />
<path d="M54.0670 33.6731
L54.1622 33.6255
" />
<path d="M54.1622 33.6255
L54.2098 33.5779
" />
<path d="M54.2098 33.5779
L54.2574 33.4827
" />
<path d="M54.2574 33.4827
L54.2574 33.1017
" />
<path d="M54.0670 34.5303
L54.7336 34.5303
" />
<path d="M53.6860 34.2922
L54.4003 34.0541
" />
<path d="M54.4003 34.0541
L54.4003 34.6731
" />
<path d="M54.1622 35.1970
L54.1146 35.1017
" />
<path d="M54.1146 35.1017
L54.0670 35.0541
" />
<path d="M54.0670 35.0541
L53.9717 35.0065
" />
<path d="M53.9717 35.0065
L53.9241 35.0065
" />
<path d="M53.9241 35.0065
L53.8289 35.0541
" />
<path d="M53.8289 35.0541
L53.7812 35.1017
" />
<path d="M53.7812 35.1017
L53.7336 35.1970
" />
<path d="M53.7336 35.1970
L53.7336 35.3874
" />
<path d="M53.7336 35.3874
L53.7812 35.4827
" />
<path d="M53.7812 35.4827
L53.8289 35.5303
" />
<path d="M53.8289 35.5303
L53.9241 35.5779
" />
<path d="M53.9241 35.5779
L53.9717 35.5779
" />
<path d="M53.9717 35.5779
L54.0670 35.5303
" />
<path d="M54.0670 35.5303
L54.1146 35.4827
" />
<path d="M54.1146 35.4827
L54.1622 35.3874
" />
<path d="M54.1622 35.3874
L54.1622 35.1970
" />
<path d="M54.1622 35.1970
L54.2098 35.1017
" />
<path d="M54.2098 35.1017
L54.2574 35.0541
" />
<path d="M54.2574 35.0541
L54.3527 35.0065
" />
<path d="M54.3527 35.0065
L54.5431 35.0065
" />
<path d="M54.5431 35.0065
L54.6384 35.0541
" />
<path d="M54.6384 35.0541
L54.6860 35.1017
" />
<path d="M54.6860 35.1017
L54.7336 35.1970
" />
<path d="M54.7336 35.1970
L54.7336 35.3874
" />
<path d="M54.7336 35.3874
L54.6860 35.4827
" />
<path d="M54.6860 35.4827
L54.6384 35.5303
" />
<path d="M54.6384 35.5303
L54.5431 35.5779
" />
<path d="M54.5431 35.5779
L54.3527 35.5779
" />
<path d="M54.3527 35.5779
L54.2574 35.5303
" />
<path d="M54.2574 35.5303
L54.2098 35.4827
" />
<path d="M54.2098 35.4827
L54.1622 35.3874
" />
</g><g transform="rotate(-90.000000 69.7650 83.8460)">
<text x="69.7650" y="84.3460"
transform="scale(-1 1) translate(-139.530000 0)"
textLength="3.0798" font-size="1.3333" lengthAdjust="spacingAndGlyphs"
text-anchor="middle" opacity="0">R47</text>
</g>
<g class="stroked-text"><desc>R47</desc>
<path d="M70.2276 83.2031
L69.7514 82.8698
" />
<path d="M70.2276 82.6317
L69.2276 82.6317
" />
<path d="M69.2276 82.6317
L69.2276 83.0127
" />
<path d="M69.2276 83.0127
L69.2752 83.1079
" />
<path d="M69.2752 83.1079
L69.3229 83.1555
" />
<path d="M69.3229 83.1555
L69.4181 83.2031
" />
<path d="M69.4181 83.2031
L69.5610 83.2031
" />
<path d="M69.5610 83.2031
L69.6562 83.1555
" />
<path d="M69.6562 83.1555
L69.7038 83.1079
" />
<path d="M69.7038 83.1079
L69.7514 83.0127
" />
<path d="M69.7514 83.0127
L69.7514 82.6317
" />
<path d="M69.5610 84.0603
L70.2276 84.0603
" />
<path d="M69.1800 83.8222
L69.8943 83.5841
" />
<path d="M69.8943 83.5841
L69.8943 84.2031
" />
<path d="M69.2276 84.4889
L69.2276 85.1555
" />
<path d="M69.2276 85.1555
L70.2276 84.7270
" />
</g><g transform="rotate(-90.000000 69.8920 71.2470)">
<text x="69.8920" y="71.7470"
transform="scale(-1 1) translate(-139.784000 0)"
textLength="3.0798" font-size="1.3333" lengthAdjust="spacingAndGlyphs"
text-anchor="middle" opacity="0">R46</text>
</g>
<g class="stroked-text"><desc>R46</desc>
<path d="M70.3546 70.6041
L69.8784 70.2708
" />
<path d="M70.3546 70.0327
L69.3546 70.0327
" />
<path d="M69.3546 70.0327
L69.3546 70.4137
" />
<path d="M69.3546 70.4137
L69.4022 70.5089
" />
<path d="M69.4022 70.5089
L69.4499 70.5565
" />
<path d="M69.4499 70.5565
L69.5451 70.6041
" />
<path d="M69.5451 70.6041
L69.6880 70.6041
" />
<path d="M69.6880 70.6041
L69.7832 70.5565
" />
<path d="M69.7832 70.5565
L69.8308 70.5089
" />
<path d="M69.8308 70.5089
L69.8784 70.4137
" />
<path d="M69.8784 70.4137
L69.8784 70.0327
" />
<path d="M69.6880 71.4613
L70.3546 71.4613
" />
<path d="M69.3070 71.2232
L70.0213 70.9851
" />
<path d="M70.0213 70.9851
L70.0213 71.6041
" />
<path d="M69.3546 72.4137
L69.3546 72.2232
" />
<path d="M69.3546 72.2232
L69.4022 72.1280
" />
<path d="M69.4022 72.1280
L69.4499 72.0803
" />
<path d="M69.4499 72.0803
L69.5927 71.9851
" />
<path d="M69.5927 71.9851
L69.7832 71.9375
" />
<path d="M69.7832 71.9375
L70.1641 71.9375
" />
<path d="M70.1641 71.9375
L70.2594 71.9851
" />
<path d="M70.2594 71.9851
L70.3070 72.0327
" />
<path d="M70.3070 72.0327
L70.3546 72.1280
" />
<path d="M70.3546 72.1280
L70.3546 72.3184
" />
<path d="M70.3546 72.3184
L70.3070 72.4137
" />
<path d="M70.3070 72.4137
L70.2594 72.4613
" />
<path d="M70.2594 72.4613
L70.1641 72.5089
" />
<path d="M70.1641 72.5089
L69.9260 72.5089
" />
<path d="M69.9260 72.5089
L69.8308 72.4613
" />
<path d="M69.8308 72.4613
L69.7832 72.4137
" />
<path d="M69.7832 72.4137
L69.7356 72.3184
" />
<path d="M69.7356 72.3184
L69.7356 72.1280
" />
<path d="M69.7356 72.1280
L69.7832 72.0327
" />
<path d="M69.7832 72.0327
L69.8308 71.9851
" />
<path d="M69.8308 71.9851
L69.9260 71.9375
" />
</g><g transform="rotate(-90.000000 69.7650 58.9280)">
<text x="69.7650" y="59.4280"
transform="scale(-1 1) translate(-139.530000 0)"
textLength="3.0798" font-size="1.3333" lengthAdjust="spacingAndGlyphs"
text-anchor="middle" opacity="0">R45</text>
</g>
<g class="stroked-text"><desc>R45</desc>
<path d="M70.2276 58.2851
L69.7514 57.9518
" />
<path d="M70.2276 57.7137
L69.2276 57.7137
" />
<path d="M69.2276 57.7137
L69.2276 58.0947
" />
<path d="M69.2276 58.0947
L69.2752 58.1899
" />
<path d="M69.2752 58.1899
L69.3229 58.2375
" />
<path d="M69.3229 58.2375
L69.4181 58.2851
" />
<path d="M69.4181 58.2851
L69.5610 58.2851
" />
<path d="M69.5610 58.2851
L69.6562 58.2375
" />
<path d="M69.6562 58.2375
L69.7038 58.1899
" />
<path d="M69.7038 58.1899
L69.7514 58.0947
" />
<path d="M69.7514 58.0947
L69.7514 57.7137
" />
<path d="M69.5610 59.1423
L70.2276 59.1423
" />
<path d="M69.1800 58.9042
L69.8943 58.6661
" />
<path d="M69.8943 58.6661
L69.8943 59.2851
" />
<path d="M69.2276 60.1423
L69.2276 59.6661
" />
<path d="M69.2276 59.6661
L69.7038 59.6185
" />
<path d="M69.7038 59.6185
L69.6562 59.6661
" />
<path d="M69.6562 59.6661
L69.6086 59.7613
" />
<path d="M69.6086 59.7613
L69.6086 59.9994
" />
<path d="M69.6086 59.9994
L69.6562 60.0947
" />
<path d="M69.6562 60.0947
L69.7038 60.1423
" />
<path d="M69.7038 60.1423
L69.7990 60.1899
" />
<path d="M69.7990 60.1899
L70.0371 60.1899
" />
<path d="M70.0371 60.1899
L70.1324 60.1423
" />
<path d="M70.1324 60.1423
L70.1800 60.0947
" />
<path d="M70.1800 60.0947
L70.2276 59.9994
" />
<path d="M70.2276 59.9994
L70.2276 59.7613
" />
<path d="M70.2276 59.7613
L70.1800 59.6661
" />
<path d="M70.1800 59.6661
L70.1324 59.6185
" />
</g><g transform="rotate(-90.000000 69.6380 46.6090)">
<text x="69.6380" y="47.1090"
transform="scale(-1 1) translate(-139.276000 0)"
textLength="3.0798" font-size="1.3333" lengthAdjust="spacingAndGlyphs"
text-anchor="middle" opacity="0">R39</text>
</g>
<g class="stroked-text"><desc>R39</desc>
<path d="M70.1006 45.9661
L69.6244 45.6328
" />
<path d="M70.1006 45.3947
L69.1006 45.3947
" />
<path d="M69.1006 45.3947
L69.1006 45.7757
" />
<path d="M69.1006 45.7757
L69.1482 45.8709
" />
<path d="M69.1482 45.8709
L69.1959 45.9185
" />
<path d="M69.1959 45.9185
L69.2911 45.9661
" />
<path d="M69.2911 45.9661
L69.4340 45.9661
" />
<path d="M69.4340 45.9661
L69.5292 45.9185
" />
<path d="M69.5292 45.9185
L69.5768 45.8709
" />
<path d="M69.5768 45.8709
L69.6244 45.7757
" />
<path d="M69.6244 45.7757
L69.6244 45.3947
" />
<path d="M69.1006 46.2995
L69.1006 46.9185
" />
<path d="M69.1006 46.9185
L69.4816 46.5852
" />
<path d="M69.4816 46.5852
L69.4816 46.7280
" />
<path d="M69.4816 46.7280
L69.5292 46.8233
" />
<path d="M69.5292 46.8233
L69.5768 46.8709
" />
<path d="M69.5768 46.8709
L69.6720 46.9185
" />
<path d="M69.6720 46.9185
L69.9101 46.9185
" />
<path d="M69.9101 46.9185
L70.0054 46.8709
" />
<path d="M70.0054 46.8709
L70.0530 46.8233
" />
<path d="M70.0530 46.8233
L70.1006 46.7280
" />
<path d="M70.1006 46.7280
L70.1006 46.4423
" />
<path d="M70.1006 46.4423
L70.0530 46.3471
" />
<path d="M70.0530 46.3471
L70.0054 46.2995
" />
<path d="M70.1006 47.3947
L70.1006 47.5852
" />
<path d="M70.1006 47.5852
L70.0530 47.6804
" />
<path d="M70.0530 47.6804
L70.0054 47.7280
" />
<path d="M70.0054 47.7280
L69.8625 47.8233
" />
<path d="M69.8625 47.8233
L69.6720 47.8709
" />
<path d="M69.6720 47.8709
L69.2911 47.8709
" />
<path d="M69.2911 47.8709
L69.1959 47.8233
" />
<path d="M69.1959 47.8233
L69.1482 47.7757
" />
<path d="M69.1482 47.7757
L69.1006 47.6804
" />
<path d="M69.1006 47.6804
L69.1006 47.4900
" />
<path d="M69.1006 47.4900
L69.1482 47.3947
" />
<path d="M69.1482 47.3947
L69.1959 47.3471
" />
<path d="M69.1959 47.3471
L69.2911 47.2995
" />
<path d="M69.2911 47.2995
L69.5292 47.2995
" />
<path d="M69.5292 47.2995
L69.6244 47.3471
" />
<path d="M69.6244 47.3471
L69.6720 47.3947
" />
<path d="M69.6720 47.3947
L69.7197 47.4900
" />
<path d="M69.7197 47.4900
L69.7197 47.6804
" />
<path d="M69.7197 47.6804
L69.6720 47.7757
" />
<path d="M69.6720 47.7757
L69.6244 47.8233
" />
<path d="M69.6244 47.8233
L69.5292 47.8709
" />
</g><g transform="rotate(-90.000000 69.6380 34.9250)">
<text x="69.6380" y="35.4250"
transform="scale(-1 1) translate(-139.276000 0)"
textLength="3.0798" font-size="1.3333" lengthAdjust="spacingAndGlyphs"
text-anchor="middle" opacity="0">R38</text>
</g>
<g class="stroked-text"><desc>R38</desc>
<path d="M70.1006 34.2821
L69.6244 33.9488
" />
<path d="M70.1006 33.7107
L69.1006 33.7107
" />
<path d="M69.1006 33.7107
L69.1006 34.0917
" />
<path d="M69.1006 34.0917
L69.1482 34.1869
" />
<path d="M69.1482 34.1869
L69.1959 34.2345
" />
<path d="M69.1959 34.2345
L69.2911 34.2821
" />
<path d="M69.2911 34.2821
L69.4340 34.2821
" />
<path d="M69.4340 34.2821
L69.5292 34.2345
" />
<path d="M69.5292 34.2345
L69.5768 34.1869
" />
<path d="M69.5768 34.1869
L69.6244 34.0917
" />
<path d="M69.6244 34.0917
L69.6244 33.7107
" />
<path d="M69.1006 34.6155
L69.1006 35.2345
" />
<path d="M69.1006 35.2345
L69.4816 34.9012
" />
<path d="M69.4816 34.9012
L69.4816 35.0440
" />
<path d="M69.4816 35.0440
L69.5292 35.1393
" />
<path d="M69.5292 35.1393
L69.5768 35.1869
" />
<path d="M69.5768 35.1869
L69.6720 35.2345
" />
<path d="M69.6720 35.2345
L69.9101 35.2345
" />
<path d="M69.9101 35.2345
L70.0054 35.1869
" />
<path d="M70.0054 35.1869
L70.0530 35.1393
" />
<path d="M70.0530 35.1393
L70.1006 35.0440
" />
<path d="M70.1006 35.0440
L70.1006 34.7583
" />
<path d="M70.1006 34.7583
L70.0530 34.6631
" />
<path d="M70.0530 34.6631
L70.0054 34.6155
" />
<path d="M69.5292 35.8060
L69.4816 35.7107
" />
<path d="M69.4816 35.7107
L69.4340 35.6631
" />
<path d="M69.4340 35.6631
L69.3387 35.6155
" />
<path d="M69.3387 35.6155
L69.2911 35.6155
" />
<path d="M69.2911 35.6155
L69.1959 35.6631
" />
<path d="M69.1959 35.6631
L69.1482 35.7107
" />
<path d="M69.1482 35.7107
L69.1006 35.8060
" />
<path d="M69.1006 35.8060
L69.1006 35.9964
" />
<path d="M69.1006 35.9964
L69.1482 36.0917
" />
<path d="M69.1482 36.0917
L69.1959 36.1393
" />
<path d="M69.1959 36.1393
L69.2911 36.1869
" />
<path d="M69.2911 36.1869
L69.3387 36.1869
" />
<path d="M69.3387 36.1869
L69.4340 36.1393
" />
<path d="M69.4340 36.1393
L69.4816 36.0917
" />
<path d="M69.4816 36.0917
L69.5292 35.9964
" />
<path d="M69.5292 35.9964
L69.5292 35.8060
" />
<path d="M69.5292 35.8060
L69.5768 35.7107
" />
<path d="M69.5768 35.7107
L69.6244 35.6631
" />
<path d="M69.6244 35.6631
L69.7197 35.6155
" />
<path d="M69.7197 35.6155
L69.9101 35.6155
" />
<path d="M69.9101 35.6155
L70.0054 35.6631
" />
<path d="M70.0054 35.6631
L70.0530 35.7107
" />
<path d="M70.0530 35.7107
L70.1006 35.8060
" />
<path d="M70.1006 35.8060
L70.1006 35.9964
" />
<path d="M70.1006 35.9964
L70.0530 36.0917
" />
<path d="M70.0530 36.0917
L70.0054 36.1393
" />
<path d="M70.0054 36.1393
L69.9101 36.1869
" />
<path d="M69.9101 36.1869
L69.7197 36.1869
" />
<path d="M69.7197 36.1869
L69.6244 36.1393
" />
<path d="M69.6244 36.1393
L69.5768 36.0917
" />
<path d="M69.5768 36.0917
L69.5292 35.9964
" />
</g><text x="85.7250" y="143.8830"
transform="scale(-1 1) translate(-171.450000 0)"
textLength="2.1274" font-size="1.3333" lengthAdjust="spacingAndGlyphs"
text-anchor="middle" opacity="0">C3</text>
<g class="stroked-text"><desc>C3</desc>
<path d="M85.8917 143.7504
L85.9393 143.7980
" />
<path d="M85.9393 143.7980
L86.0821 143.8456
" />
<path d="M86.0821 143.8456
L86.1774 143.8456
" />
<path d="M86.1774 143.8456
L86.3202 143.7980
" />
<path d="M86.3202 143.7980
L86.4155 143.7028
" />
<path d="M86.4155 143.7028
L86.4631 143.6075
" />
<path d="M86.4631 143.6075
L86.5107 143.4170
" />
<path d="M86.5107 143.4170
L86.5107 143.2742
" />
<path d="M86.5107 143.2742
L86.4631 143.0837
" />
<path d="M86.4631 143.0837
L86.4155 142.9885
" />
<path d="M86.4155 142.9885
L86.3202 142.8932
" />
<path d="M86.3202 142.8932
L86.1774 142.8456
" />
<path d="M86.1774 142.8456
L86.0821 142.8456
" />
<path d="M86.0821 142.8456
L85.9393 142.8932
" />
<path d="M85.9393 142.8932
L85.8917 142.9409
" />
<path d="M85.5583 142.8456
L84.9393 142.8456
" />
<path d="M84.9393 142.8456
L85.2726 143.2266
" />
<path d="M85.2726 143.2266
L85.1298 143.2266
" />
<path d="M85.1298 143.2266
L85.0345 143.2742
" />
<path d="M85.0345 143.2742
L84.9869 143.3218
" />
<path d="M84.9869 143.3218
L84.9393 143.4170
" />
<path d="M84.9393 143.4170
L84.9393 143.6551
" />
<path d="M84.9393 143.6551
L84.9869 143.7504
" />
<path d="M84.9869 143.7504
L85.0345 143.7980
" />
<path d="M85.0345 143.7980
L85.1298 143.8456
" />
<path d="M85.1298 143.8456
L85.4155 143.8456
" />
<path d="M85.4155 143.8456
L85.5107 143.7980
" />
<path d="M85.5107 143.7980
L85.5583 143.7504
" />
</g><g transform="rotate(-90.000000 117.6870 92.2020)">
<text x="117.6870" y="92.7020"
transform="scale(-1 1) translate(-235.374000 0)"
textLength="3.0798" font-size="1.3333" lengthAdjust="spacingAndGlyphs"
text-anchor="middle" opacity="0">R41</text>
</g>
<g class="stroked-text"><desc>R41</desc>
<path d="M118.1496 91.5591
L117.6734 91.2258
" />
<path d="M118.1496 90.9877
L117.1496 90.9877
" />
<path d="M117.1496 90.9877
L117.1496 91.3687
" />
<path d="M117.1496 91.3687
L117.1972 91.4639
" />
<path d="M117.1972 91.4639
L117.2449 91.5115
" />
<path d="M117.2449 91.5115
L117.3401 91.5591
" />
<path d="M117.3401 91.5591
L117.4830 91.5591
" />
<path d="M117.4830 91.5591
L117.5782 91.5115
" />
<path d="M117.5782 91.5115
L117.6258 91.4639
" />
<path d="M117.6258 91.4639
L117.6734 91.3687
" />
<path d="M117.6734 91.3687
L117.6734 90.9877
" />
<path d="M117.4830 92.4163
L118.1496 92.4163
" />
<path d="M117.1020 92.1782
L117.8163 91.9401
" />
<path d="M117.8163 91.9401
L117.8163 92.5591
" />
<path d="M118.1496 93.4639
L118.1496 92.8925
" />
<path d="M118.1496 93.1782
L117.1496 93.1782
" />
<path d="M117.1496 93.1782
L117.2925 93.0830
" />
<path d="M117.2925 93.0830
L117.3877 92.9877
" />
<path d="M117.3877 92.9877
L117.4353 92.8925
" />
</g><g transform="rotate(45.000000 94.1070 132.8420)">
<text x="94.1070" y="133.3420"
transform="scale(-1 1) translate(-188.214000 0)"
textLength="2.1274" font-size="1.3333" lengthAdjust="spacingAndGlyphs"
text-anchor="middle" opacity="0">C4</text>
</g>
<g class="stroked-text"><desc>C4</desc>
<path d="M93.9651 133.2196
L93.9651 133.2870
" />
<path d="M93.9651 133.2870
L94.0324 133.4217
" />
<path d="M94.0324 133.4217
L94.0998 133.4890
" />
<path d="M94.0998 133.4890
L94.2344 133.5563
" />
<path d="M94.2344 133.5563
L94.3691 133.5563
" />
<path d="M94.3691 133.5563
L94.4701 133.5227
" />
<path d="M94.4701 133.5227
L94.6385 133.4217
" />
<path d="M94.6385 133.4217
L94.7395 133.3206
" />
<path d="M94.7395 133.3206
L94.8405 133.1523
" />
<path d="M94.8405 133.1523
L94.8742 133.0513
" />
<path d="M94.8742 133.0513
L94.8742 132.9166
" />
<path d="M94.8742 132.9166
L94.8069 132.7819
" />
<path d="M94.8069 132.7819
L94.7395 132.7146
" />
<path d="M94.7395 132.7146
L94.6048 132.6472
" />
<path d="M94.6048 132.6472
L94.5375 132.6472
" />
<path d="M93.7630 132.2095
L93.2916 132.6809
" />
<path d="M94.2008 132.1085
L93.8641 132.7819
" />
<path d="M93.8641 132.7819
L93.4263 132.3442
" />
</g><g transform="rotate(-45.000000 79.3750 133.3500)">
<text x="79.3750" y="133.8500"
transform="scale(-1 1) translate(-158.750000 0)"
textLength="2.1274" font-size="1.3333" lengthAdjust="spacingAndGlyphs"
text-anchor="middle" opacity="0">C2</text>
</g>
<g class="stroked-text"><desc>C2</desc>
<path d="M79.7526 133.4919
L79.8200 133.4919
" />
<path d="M79.8200 133.4919
L79.9547 133.4246
" />
<path d="M79.9547 133.4246
L80.0220 133.3572
" />
<path d="M80.0220 133.3572
L80.0893 133.2226
" />
<path d="M80.0893 133.2226
L80.0893 133.0879
" />
<path d="M80.0893 133.0879
L80.0557 132.9869
" />
<path d="M80.0557 132.9869
L79.9547 132.8185
" />
<path d="M79.9547 132.8185
L79.8536 132.7175
" />
<path d="M79.8536 132.7175
L79.6853 132.6165
" />
<path d="M79.6853 132.6165
L79.5843 132.5828
" />
<path d="M79.5843 132.5828
L79.4496 132.5828
" />
<path d="M79.4496 132.5828
L79.3149 132.6501
" />
<path d="M79.3149 132.6501
L79.2476 132.7175
" />
<path d="M79.2476 132.7175
L79.1802 132.8522
" />
<path d="M79.1802 132.8522
L79.1802 132.9195
" />
<path d="M78.9108 133.1889
L78.8435 133.1889
" />
<path d="M78.8435 133.1889
L78.7425 133.2226
" />
<path d="M78.7425 133.2226
L78.5741 133.3909
" />
<path d="M78.5741 133.3909
L78.5404 133.4919
" />
<path d="M78.5404 133.4919
L78.5404 133.5593
" />
<path d="M78.5404 133.5593
L78.5741 133.6603
" />
<path d="M78.5741 133.6603
L78.6415 133.7276
" />
<path d="M78.6415 133.7276
L78.7761 133.7950
" />
<path d="M78.7761 133.7950
L79.5843 133.7950
" />
<path d="M79.5843 133.7950
L79.1465 134.2327
" />
</g><g transform="rotate(45.000000 86.0611 127.4259)">
<text x="86.0611" y="127.9259"
transform="scale(-1 1) translate(-172.122122 0)"
textLength="2.1274" font-size="1.3333" lengthAdjust="spacingAndGlyphs"
text-anchor="middle" opacity="0">C5</text>
</g>
<g class="stroked-text"><desc>C5</desc>
<path d="M85.9191 127.8036
L85.9191 127.8709
" />
<path d="M85.9191 127.8709
L85.9865 128.0056
" />
<path d="M85.9865 128.0056
L86.0538 128.0729
" />
<path d="M86.0538 128.0729
L86.1885 128.1403
" />
<path d="M86.1885 128.1403
L86.3232 128.1403
" />
<path d="M86.3232 128.1403
L86.4242 128.1066
" />
<path d="M86.4242 128.1066
L86.5926 128.0056
" />
<path d="M86.5926 128.0056
L86.6936 127.9046
" />
<path d="M86.6936 127.9046
L86.7946 127.7362
" />
<path d="M86.7946 127.7362
L86.8283 127.6352
" />
<path d="M86.8283 127.6352
L86.8283 127.5005
" />
<path d="M86.8283 127.5005
L86.7609 127.3658
" />
<path d="M86.7609 127.3658
L86.6936 127.2985
" />
<path d="M86.6936 127.2985
L86.5589 127.2311
" />
<path d="M86.5589 127.2311
L86.4916 127.2311
" />
<path d="M85.9191 126.5240
L86.2559 126.8608
" />
<path d="M86.2559 126.8608
L85.9528 127.2311
" />
<path d="M85.9528 127.2311
L85.9528 127.1638
" />
<path d="M85.9528 127.1638
L85.9191 127.0628
" />
<path d="M85.9191 127.0628
L85.7508 126.8944
" />
<path d="M85.7508 126.8944
L85.6498 126.8608
" />
<path d="M85.6498 126.8608
L85.5824 126.8608
" />
<path d="M85.5824 126.8608
L85.4814 126.8944
" />
<path d="M85.4814 126.8944
L85.3130 127.0628
" />
<path d="M85.3130 127.0628
L85.2794 127.1638
" />
<path d="M85.2794 127.1638
L85.2794 127.2311
" />
<path d="M85.2794 127.2311
L85.3130 127.3322
" />
<path d="M85.3130 127.3322
L85.4814 127.5005
" />
<path d="M85.4814 127.5005
L85.5824 127.5342
" />
<path d="M85.5824 127.5342
L85.6498 127.5342
" />
</g><g transform="rotate(-45.000000 93.0910 136.1440)">
<text x="93.0910" y="136.6440"
transform="scale(-1 1) translate(-186.182000 0)"
textLength="2.1274" font-size="1.3333" lengthAdjust="spacingAndGlyphs"
text-anchor="middle" opacity="0">C6</text>
</g>
<g class="stroked-text"><desc>C6</desc>
<path d="M93.4686 136.2859
L93.5360 136.2859
" />
<path d="M93.5360 136.2859
L93.6707 136.2186
" />
<path d="M93.6707 136.2186
L93.7380 136.1512
" />
<path d="M93.7380 136.1512
L93.8053 136.0166
" />
<path d="M93.8053 136.0166
L93.8053 135.8819
" />
<path d="M93.8053 135.8819
L93.7717 135.7808
" />
<path d="M93.7717 135.7808
L93.6707 135.6125
" />
<path d="M93.6707 135.6125
L93.5696 135.5115
" />
<path d="M93.5696 135.5115
L93.4013 135.4105
" />
<path d="M93.4013 135.4105
L93.3003 135.3768
" />
<path d="M93.3003 135.3768
L93.1656 135.3768
" />
<path d="M93.1656 135.3768
L93.0309 135.4441
" />
<path d="M93.0309 135.4441
L92.9636 135.5115
" />
<path d="M92.9636 135.5115
L92.8962 135.6462
" />
<path d="M92.8962 135.6462
L92.8962 135.7135
" />
<path d="M92.2228 136.2523
L92.3575 136.1176
" />
<path d="M92.3575 136.1176
L92.4585 136.0839
" />
<path d="M92.4585 136.0839
L92.5258 136.0839
" />
<path d="M92.5258 136.0839
L92.6942 136.1176
" />
<path d="M92.6942 136.1176
L92.8625 136.2186
" />
<path d="M92.8625 136.2186
L93.1319 136.4880
" />
<path d="M93.1319 136.4880
L93.1656 136.5890
" />
<path d="M93.1656 136.5890
L93.1656 136.6563
" />
<path d="M93.1656 136.6563
L93.1319 136.7573
" />
<path d="M93.1319 136.7573
L92.9972 136.8920
" />
<path d="M92.9972 136.8920
L92.8962 136.9257
" />
<path d="M92.8962 136.9257
L92.8289 136.9257
" />
<path d="M92.8289 136.9257
L92.7278 136.8920
" />
<path d="M92.7278 136.8920
L92.5595 136.7237
" />
<path d="M92.5595 136.7237
L92.5258 136.6226
" />
<path d="M92.5258 136.6226
L92.5258 136.5553
" />
<path d="M92.5258 136.5553
L92.5595 136.4543
" />
<path d="M92.5595 136.4543
L92.6942 136.3196
" />
<path d="M92.6942 136.3196
L92.7952 136.2859
" />
<path d="M92.7952 136.2859
L92.8625 136.2859
" />
<path d="M92.8625 136.2859
L92.9636 136.3196
" />
</g><text x="68.1990" y="185.1160"
transform="scale(-1 1) translate(-136.398000 0)"
textLength="3.0798" font-size="1.3333" lengthAdjust="spacingAndGlyphs"
text-anchor="middle" opacity="0">R32</text>
<g class="stroked-text"><desc>R32</desc>
<path d="M68.8419 185.0786
L69.1752 184.6024
" />
<path d="M69.4133 185.0786
L69.4133 184.0786
" />
<path d="M69.4133 184.0786
L69.0323 184.0786
" />
<path d="M69.0323 184.0786
L68.9371 184.1262
" />
<path d="M68.9371 184.1262
L68.8895 184.1739
" />
<path d="M68.8895 184.1739
L68.8419 184.2691
" />
<path d="M68.8419 184.2691
L68.8419 184.4120
" />
<path d="M68.8419 184.4120
L68.8895 184.5072
" />
<path d="M68.8895 184.5072
L68.9371 184.5548
" />
<path d="M68.9371 184.5548
L69.0323 184.6024
" />
<path d="M69.0323 184.6024
L69.4133 184.6024
" />
<path d="M68.5085 184.0786
L67.8895 184.0786
" />
<path d="M67.8895 184.0786
L68.2228 184.4596
" />
<path d="M68.2228 184.4596
L68.0800 184.4596
" />
<path d="M68.0800 184.4596
L67.9847 184.5072
" />
<path d="M67.9847 184.5072
L67.9371 184.5548
" />
<path d="M67.9371 184.5548
L67.8895 184.6500
" />
<path d="M67.8895 184.6500
L67.8895 184.8881
" />
<path d="M67.8895 184.8881
L67.9371 184.9834
" />
<path d="M67.9371 184.9834
L67.9847 185.0310
" />
<path d="M67.9847 185.0310
L68.0800 185.0786
" />
<path d="M68.0800 185.0786
L68.3657 185.0786
" />
<path d="M68.3657 185.0786
L68.4609 185.0310
" />
<path d="M68.4609 185.0310
L68.5085 184.9834
" />
<path d="M67.5085 184.1739
L67.4609 184.1262
" />
<path d="M67.4609 184.1262
L67.3657 184.0786
" />
<path d="M67.3657 184.0786
L67.1276 184.0786
" />
<path d="M67.1276 184.0786
L67.0323 184.1262
" />
<path d="M67.0323 184.1262
L66.9847 184.1739
" />
<path d="M66.9847 184.1739
L66.9371 184.2691
" />
<path d="M66.9371 184.2691
L66.9371 184.3643
" />
<path d="M66.9371 184.3643
L66.9847 184.5072
" />
<path d="M66.9847 184.5072
L67.5561 185.0786
" />
<path d="M67.5561 185.0786
L66.9371 185.0786
" />
</g><text x="96.1390" y="95.5380"
transform="scale(-1 1) translate(-192.278000 0)"
textLength="3.0798" font-size="1.3333" lengthAdjust="spacingAndGlyphs"
text-anchor="middle" opacity="0">R43</text>
<g class="stroked-text"><desc>R43</desc>
<path d="M96.7819 95.5006
L97.1152 95.0244
" />
<path d="M97.3533 95.5006
L97.3533 94.5006
" />
<path d="M97.3533 94.5006
L96.9723 94.5006
" />
<path d="M96.9723 94.5006
L96.8771 94.5482
" />
<path d="M96.8771 94.5482
L96.8295 94.5959
" />
<path d="M96.8295 94.5959
L96.7819 94.6911
" />
<path d="M96.7819 94.6911
L96.7819 94.8340
" />
<path d="M96.7819 94.8340
L96.8295 94.9292
" />
<path d="M96.8295 94.9292
L96.8771 94.9768
" />
<path d="M96.8771 94.9768
L96.9723 95.0244
" />
<path d="M96.9723 95.0244
L97.3533 95.0244
" />
<path d="M95.9247 94.8340
L95.9247 95.5006
" />
<path d="M96.1628 94.4530
L96.4009 95.1673
" />
<path d="M96.4009 95.1673
L95.7819 95.1673
" />
<path d="M95.4961 94.5006
L94.8771 94.5006
" />
<path d="M94.8771 94.5006
L95.2104 94.8816
" />
<path d="M95.2104 94.8816
L95.0676 94.8816
" />
<path d="M95.0676 94.8816
L94.9723 94.9292
" />
<path d="M94.9723 94.9292
L94.9247 94.9768
" />
<path d="M94.9247 94.9768
L94.8771 95.0720
" />
<path d="M94.8771 95.0720
L94.8771 95.3101
" />
<path d="M94.8771 95.3101
L94.9247 95.4054
" />
<path d="M94.9247 95.4054
L94.9723 95.4530
" />
<path d="M94.9723 95.4530
L95.0676 95.5006
" />
<path d="M95.0676 95.5006
L95.3533 95.5006
" />
<path d="M95.3533 95.5006
L95.4485 95.4530
" />
<path d="M95.4485 95.4530
L95.4961 95.4054
" />
</g><g transform="rotate(-90.000000 87.3040 93.3450)">
<text x="87.3040" y="93.8450"
transform="scale(-1 1) translate(-174.608000 0)"
textLength="3.0798" font-size="1.3333" lengthAdjust="spacingAndGlyphs"
text-anchor="middle" opacity="0">C14</text>
</g>
<g class="stroked-text"><desc>C14</desc>
<path d="M87.6714 92.7021
L87.7190 92.6545
" />
<path d="M87.7190 92.6545
L87.7666 92.5117
" />
<path d="M87.7666 92.5117
L87.7666 92.4164
" />
<path d="M87.7666 92.4164
L87.7190 92.2736
" />
<path d="M87.7190 92.2736
L87.6238 92.1783
" />
<path d="M87.6238 92.1783
L87.5285 92.1307
" />
<path d="M87.5285 92.1307
L87.3380 92.0831
" />
<path d="M87.3380 92.0831
L87.1952 92.0831
" />
<path d="M87.1952 92.0831
L87.0047 92.1307
" />
<path d="M87.0047 92.1307
L86.9095 92.1783
" />
<path d="M86.9095 92.1783
L86.8142 92.2736
" />
<path d="M86.8142 92.2736
L86.7666 92.4164
" />
<path d="M86.7666 92.4164
L86.7666 92.5117
" />
<path d="M86.7666 92.5117
L86.8142 92.6545
" />
<path d="M86.8142 92.6545
L86.8619 92.7021
" />
<path d="M87.7666 93.6545
L87.7666 93.0831
" />
<path d="M87.7666 93.3688
L86.7666 93.3688
" />
<path d="M86.7666 93.3688
L86.9095 93.2736
" />
<path d="M86.9095 93.2736
L87.0047 93.1783
" />
<path d="M87.0047 93.1783
L87.0523 93.0831
" />
<path d="M87.1000 94.5117
L87.7666 94.5117
" />
<path d="M86.7190 94.2736
L87.4333 94.0355
" />
<path d="M87.4333 94.0355
L87.4333 94.6545
" />
</g><g transform="rotate(45.000000 79.2031 144.1899)">
<text x="79.2031" y="144.6899"
transform="scale(-1 1) translate(-158.406122 0)"
textLength="2.1274" font-size="1.3333" lengthAdjust="spacingAndGlyphs"
text-anchor="middle" opacity="0">R2</text>
</g>
<g class="stroked-text"><desc>R2</desc>
<path d="M78.9938 144.6349
L79.5662 144.5339
" />
<path d="M79.3979 145.0390
L80.1050 144.3319
" />
<path d="M80.1050 144.3319
L79.8356 144.0625
" />
<path d="M79.8356 144.0625
L79.7346 144.0288
" />
<path d="M79.7346 144.0288
L79.6672 144.0288
" />
<path d="M79.6672 144.0288
L79.5662 144.0625
" />
<path d="M79.5662 144.0625
L79.4652 144.1635
" />
<path d="M79.4652 144.1635
L79.4315 144.2645
" />
<path d="M79.4315 144.2645
L79.4315 144.3319
" />
<path d="M79.4315 144.3319
L79.4652 144.4329
" />
<path d="M79.4652 144.4329
L79.7346 144.7023
" />
<path d="M79.3642 143.7258
L79.3642 143.6584
" />
<path d="M79.3642 143.6584
L79.3305 143.5574
" />
<path d="M79.3305 143.5574
L79.1621 143.3891
" />
<path d="M79.1621 143.3891
L79.0611 143.3554
" />
<path d="M79.0611 143.3554
L78.9938 143.3554
" />
<path d="M78.9938 143.3554
L78.8928 143.3891
" />
<path d="M78.8928 143.3891
L78.8254 143.4564
" />
<path d="M78.8254 143.4564
L78.7581 143.5911
" />
<path d="M78.7581 143.5911
L78.7581 144.3992
" />
<path d="M78.7581 144.3992
L78.3204 143.9615
" />
</g><g transform="rotate(-45.000000 95.1230 144.1450)">
<text x="95.1230" y="144.6450"
transform="scale(-1 1) translate(-190.246000 0)"
textLength="2.1274" font-size="1.3333" lengthAdjust="spacingAndGlyphs"
text-anchor="middle" opacity="0">R1</text>
</g>
<g class="stroked-text"><desc>R1</desc>
<path d="M95.5680 144.3543
L95.4670 143.7818
" />
<path d="M95.9720 143.9502
L95.2649 143.2431
" />
<path d="M95.2649 143.2431
L94.9956 143.5125
" />
<path d="M94.9956 143.5125
L94.9619 143.6135
" />
<path d="M94.9619 143.6135
L94.9619 143.6808
" />
<path d="M94.9619 143.6808
L94.9956 143.7818
" />
<path d="M94.9956 143.7818
L95.0966 143.8829
" />
<path d="M95.0966 143.8829
L95.1976 143.9165
" />
<path d="M95.1976 143.9165
L95.2649 143.9165
" />
<path d="M95.2649 143.9165
L95.3659 143.8829
" />
<path d="M95.3659 143.8829
L95.6353 143.6135
" />
<path d="M94.8945 145.0277
L95.2986 144.6236
" />
<path d="M95.0966 144.8257
L94.3895 144.1186
" />
<path d="M94.3895 144.1186
L94.5578 144.1522
" />
<path d="M94.5578 144.1522
L94.6925 144.1522
" />
<path d="M94.6925 144.1522
L94.7935 144.1186
" />
</g><text x="68.1730" y="180.0360"
transform="scale(-1 1) translate(-136.346000 0)"
textLength="3.0798" font-size="1.3333" lengthAdjust="spacingAndGlyphs"
text-anchor="middle" opacity="0">R33</text>
<g class="stroked-text"><desc>R33</desc>
<path d="M68.8159 179.9986
L69.1492 179.5224
" />
<path d="M69.3873 179.9986
L69.3873 178.9986
" />
<path d="M69.3873 178.9986
L69.0063 178.9986
" />
<path d="M69.0063 178.9986
L68.9111 179.0462
" />
<path d="M68.9111 179.0462
L68.8635 179.0939
" />
<path d="M68.8635 179.0939
L68.8159 179.1891
" />
<path d="M68.8159 179.1891
L68.8159 179.3320
" />
<path d="M68.8159 179.3320
L68.8635 179.4272
" />
<path d="M68.8635 179.4272
L68.9111 179.4748
" />
<path d="M68.9111 179.4748
L69.0063 179.5224
" />
<path d="M69.0063 179.5224
L69.3873 179.5224
" />
<path d="M68.4825 178.9986
L67.8635 178.9986
" />
<path d="M67.8635 178.9986
L68.1968 179.3796
" />
<path d="M68.1968 179.3796
L68.0540 179.3796
" />
<path d="M68.0540 179.3796
L67.9587 179.4272
" />
<path d="M67.9587 179.4272
L67.9111 179.4748
" />
<path d="M67.9111 179.4748
L67.8635 179.5700
" />
<path d="M67.8635 179.5700
L67.8635 179.8081
" />
<path d="M67.8635 179.8081
L67.9111 179.9034
" />
<path d="M67.9111 179.9034
L67.9587 179.9510
" />
<path d="M67.9587 179.9510
L68.0540 179.9986
" />
<path d="M68.0540 179.9986
L68.3397 179.9986
" />
<path d="M68.3397 179.9986
L68.4349 179.9510
" />
<path d="M68.4349 179.9510
L68.4825 179.9034
" />
<path d="M67.5301 178.9986
L66.9111 178.9986
" />
<path d="M66.9111 178.9986
L67.2444 179.3796
" />
<path d="M67.2444 179.3796
L67.1016 179.3796
" />
<path d="M67.1016 179.3796
L67.0063 179.4272
" />
<path d="M67.0063 179.4272
L66.9587 179.4748
" />
<path d="M66.9587 179.4748
L66.9111 179.5700
" />
<path d="M66.9111 179.5700
L66.9111 179.8081
" />
<path d="M66.9111 179.8081
L66.9587 179.9034
" />
<path d="M66.9587 179.9034
L67.0063 179.9510
" />
<path d="M67.0063 179.9510
L67.1016 179.9986
" />
<path d="M67.1016 179.9986
L67.3873 179.9986
" />
<path d="M67.3873 179.9986
L67.4825 179.9510
" />
<path d="M67.4825 179.9510
L67.5301 179.9034
" />
</g><g transform="rotate(-45.000000 98.3429 140.8879)">
<text x="98.3429" y="141.3879"
transform="scale(-1 1) translate(-196.685878 0)"
textLength="2.1274" font-size="1.3333" lengthAdjust="spacingAndGlyphs"
text-anchor="middle" opacity="0">C1</text>
</g>
<g class="stroked-text"><desc>C1</desc>
<path d="M98.7206 141.0299
L98.7879 141.0299
" />
<path d="M98.7879 141.0299
L98.9226 140.9625
" />
<path d="M98.9226 140.9625
L98.9899 140.8952
" />
<path d="M98.9899 140.8952
L99.0573 140.7605
" />
<path d="M99.0573 140.7605
L99.0573 140.6258
" />
<path d="M99.0573 140.6258
L99.0236 140.5248
" />
<path d="M99.0236 140.5248
L98.9226 140.3564
" />
<path d="M98.9226 140.3564
L98.8216 140.2554
" />
<path d="M98.8216 140.2554
L98.6532 140.1544
" />
<path d="M98.6532 140.1544
L98.5522 140.1207
" />
<path d="M98.5522 140.1207
L98.4175 140.1207
" />
<path d="M98.4175 140.1207
L98.2828 140.1881
" />
<path d="M98.2828 140.1881
L98.2155 140.2554
" />
<path d="M98.2155 140.2554
L98.1481 140.3901
" />
<path d="M98.1481 140.3901
L98.1481 140.4574
" />
<path d="M98.1145 141.7706
L98.5185 141.3666
" />
<path d="M98.3165 141.5686
L97.6094 140.8615
" />
<path d="M97.6094 140.8615
L97.7778 140.8952
" />
<path d="M97.7778 140.8952
L97.9124 140.8952
" />
<path d="M97.9124 140.8952
L98.0135 140.8615
" />
</g><g transform="rotate(-45.000000 88.3683 131.9293)">
<text x="88.3683" y="132.4293"
transform="scale(-1 1) translate(-176.736548 0)"
textLength="2.9845" font-size="1.3333" lengthAdjust="spacingAndGlyphs"
text-anchor="middle" opacity="0">FB1</text>
</g>
<g class="stroked-text"><desc>FB1</desc>
<path d="M88.9143 131.2968
L89.1500 131.0610
" />
<path d="M89.5204 131.4314
L88.8132 130.7243
" />
<path d="M88.8132 130.7243
L88.4765 131.0610
" />
<path d="M88.3082 131.9028
L88.2408 132.0375
" />
<path d="M88.2408 132.0375
L88.2408 132.1049
" />
<path d="M88.2408 132.1049
L88.2745 132.2059
" />
<path d="M88.2745 132.2059
L88.3755 132.3069
" />
<path d="M88.3755 132.3069
L88.4765 132.3406
" />
<path d="M88.4765 132.3406
L88.5439 132.3406
" />
<path d="M88.5439 132.3406
L88.6449 132.3069
" />
<path d="M88.6449 132.3069
L88.9143 132.0375
" />
<path d="M88.9143 132.0375
L88.2072 131.3304
" />
<path d="M88.2072 131.3304
L87.9715 131.5661
" />
<path d="M87.9715 131.5661
L87.9378 131.6671
" />
<path d="M87.9378 131.6671
L87.9378 131.7345
" />
<path d="M87.9378 131.7345
L87.9715 131.8355
" />
<path d="M87.9715 131.8355
L88.0388 131.9028
" />
<path d="M88.0388 131.9028
L88.1398 131.9365
" />
<path d="M88.1398 131.9365
L88.2072 131.9365
" />
<path d="M88.2072 131.9365
L88.3082 131.9028
" />
<path d="M88.3082 131.9028
L88.5439 131.6671
" />
<path d="M87.8368 133.1150
L88.2408 132.7110
" />
<path d="M88.0388 132.9130
L87.3317 132.2059
" />
<path d="M87.3317 132.2059
L87.5000 132.2396
" />
<path d="M87.5000 132.2396
L87.6347 132.2396
" />
<path d="M87.6347 132.2396
L87.7357 132.2059
" />
</g></g>
<g style="fill:#000000; fill-opacity:0.0; 
stroke:#000000; stroke-width:0.1200; stroke-opacity:1; 
stroke-linecap:round; stroke-linejoin:round;">
<path d="M57.2980 35.0171
L57.2980 33.5629
" />
<path d="M55.4780 35.0171
L55.4780 33.5629
" />
<path d="M73.1730 84.5471
L73.1730 83.0929
" />
<path d="M71.3530 84.5471
L71.3530 83.0929
" />
<path d="M72.7920 71.9481
L72.7920 70.4939
" />
<path d="M70.9720 71.9481
L70.9720 70.4939
" />
<path d="M70.9720 59.6551
L70.9720 58.2009
" />
<path d="M72.7920 59.6551
L72.7920 58.2009
" />
<path d="M72.9190 47.4631
L72.9190 46.0089
" />
<path d="M71.0990 47.4631
L71.0990 46.0089
" />
<path d="M72.6650 35.2711
L72.6650 33.8169
" />
<path d="M70.8450 35.2711
L70.8450 33.8169
" />
<path d="M53.3610 35.0431
L53.3610 33.5889
" />
<path d="M51.5410 35.0431
L51.5410 33.5889
" />
<path d="M68.8550 84.5731
L68.8550 83.1189
" />
<path d="M67.0350 84.5731
L67.0350 83.1189
" />
<path d="M68.9820 71.9741
L68.9820 70.5199
" />
<path d="M67.1620 71.9741
L67.1620 70.5199
" />
<path d="M68.8550 59.6551
L68.8550 58.2009
" />
<path d="M67.0350 59.6551
L67.0350 58.2009
" />
<path d="M68.7280 47.3361
L68.7280 45.8819
" />
<path d="M66.9080 47.3361
L66.9080 45.8819
" />
<path d="M68.7280 35.6521
L68.7280 34.1979
" />
<path d="M66.9080 35.6521
L66.9080 34.1979
" />
<path d="M86.4600 140.7302
L86.4600 141.2528
" />
<path d="M84.9900 140.7302
L84.9900 141.2528
" />
<path d="M120.4170 91.4749
L120.4170 92.9291
" />
<path d="M118.5970 91.4749
L118.5970 92.9291
" />
<path d="M92.1560 130.3595
L92.5255 130.7290
" />
<path d="M91.1165 131.3990
L91.4860 131.7685
" />
<path d="M78.4165 131.2370
L78.7860 130.8675
" />
<path d="M79.4560 132.2765
L79.8255 131.9070
" />
<path d="M87.5840 125.5335
L87.9535 125.9030
" />
<path d="M86.5445 126.5730
L86.9140 126.9425
" />
<path d="M92.7795 135.2090
L92.4100 135.5785
" />
<path d="M91.7400 134.1695
L91.3705 134.5390
" />
<path d="M68.9261 187.3460
L67.4719 187.3460
" />
<path d="M68.9261 185.5260
L67.4719 185.5260
" />
<path d="M95.4119 92.3080
L96.8661 92.3080
" />
<path d="M95.4119 94.1280
L96.8661 94.1280
" />
<path d="M90.0640 92.6337
L90.0640 94.0563
" />
<path d="M88.2440 92.6337
L88.2440 94.0563
" />
<path d="M80.7260 142.2975
L81.0955 142.6670
" />
<path d="M79.6865 143.3370
L80.0560 143.7065
" />
<path d="M93.1541 142.7030
L93.5236 142.3335
" />
<path d="M94.1936 143.7425
L94.5630 143.3730
" />
<path d="M68.9001 182.2660
L67.4459 182.2660
" />
<path d="M68.9001 180.4460
L67.4459 180.4460
" />
<path d="M96.4505 139.3650
L96.8200 138.9955
" />
<path d="M97.4900 140.4045
L97.8595 140.0350
" />
<path d="M90.2218 133.4133
L89.8523 133.7828
" />
<path d="M89.2177 132.4092
L88.8482 132.7787
" />
<g >
</g>
<g >
</g>
<g >
</g>
<g >
</g>
<g >
</g>
<g >
</g>
<g >
</g>
<g >
</g>
<g >
</g>
<g >
</g>
<g >
</g>
<g >
</g>
<g >
</g>
<g >
</g>
<g >
</g>
<g >
</g>
<g >
</g>
<g >
</g>
<g >
</g>
<g >
</g>
<g >
</g>
<g >
</g>
<g >
</g>
<g >
</g>
<g >
</g>
<g >
</g>
<g >
</g>
<g >
</g>
<g >
</g>
<g >
</g>
<g >
</g>
<g >
</g>
<g >
</g>
<g >
</g>
<g >
</g>
<g >
</g>
<g >
</g>
<g >
</g>
<g >
</g>
<g >
</g>
<g >
</g>
<g >
</g>
<g >
</g>
<g >
</g>
<g >
</g>
<g >
</g>
<g >
</g>
<g >
</g>
<g >
</g>
<g >
</g>
<g >
</g>
<g >
</g>
<g >
</g>
<g >
</g>
<g >
</g>
<g >
</g>
<g >
</g>
<g >
</g>
<g >
</g>
<g >
</g>
<g >
</g>
<g >
</g>
<g >
</g>
<g >
</g>
<g >
</g>
<g >
</g>
<g >
</g>
<g >
</g>
<g >
</g>
<g >
</g>
<g >
</g>
<g >
</g>
<g >
</g>
<g >
</g>
<g >
</g>
<g >
</g>
<g >
</g>
<g >
</g>
<g >
</g>
<g >
</g>
<g >
</g>
<g >
</g>
<g >
</g>
<g >
</g>
<g >
</g>
<g >
</g>
<g >
</g>
<g >
</g>
<g >
</g>
<g >
</g>
<g >
</g>
<g >
</g>
<g >
</g>
<g >
</g>
<g >
</g>
<g >
</g>
<g >
</g>
<g >
</g>
<g >
</g>
<g >
</g>
<g >
</g>
<g >
</g>
<g >
</g>
<g >
</g>
<g >
</g>
<g >
</g>
<g >
</g>
<g >
</g>
<g >
</g>
<g >
</g>
<g >
</g>
<g >
</g>
<g >
</g>
<g >
</g>
<g >
</g>
<g >
</g>
<g >
</g>
<g >
</g>
<g >
</g>
<g >
</g>
<g >
</g>
<g >
</g>
<g >
</g>
<g >
</g>
<g >
</g>
<g >
</g>
<g >
</g>
</g> 
</svg>
