<?xml version="1.0" standalone="no"?>
 <!DOCTYPE svg PUBLIC "-//W3C//DTD SVG 1.1//EN" 
 "http://www.w3.org/Graphics/SVG/1.1/DTD/svg11.dtd"> 
<svg
  xmlns:svg="http://www.w3.org/2000/svg"
  xmlns="http://www.w3.org/2000/svg"
  xmlns:xlink="http://www.w3.org/1999/xlink"
  version="1.1"
  width="115.3922mm" height="171.5262mm" viewBox="0.0000 0.0000 115.3922 171.5262">
<title>SVG Image created as Schematic-F_Courtyard.svg date 2023/10/12 12:00:28 </title>
  <desc>Image generated by PCBNEW </desc>
<g style="fill:#000000; fill-opacity:1.0000;stroke:#000000; stroke-opacity:1.0000;
stroke-linecap:round; stroke-linejoin:round;"
 transform="translate(0 0) scale(1 1)">
</g>
<g style="fill:#000000; fill-opacity:0.0; 
stroke:#000000; stroke-width:0.0000; stroke-opacity:1; 
stroke-linecap:round; stroke-linejoin:round;">
</g>
<g style="fill:#FF26E2; fill-opacity:0.0; 
stroke:#FF26E2; stroke-width:0.0000; stroke-opacity:1; 
stroke-linecap:round; stroke-linejoin:round;">
</g>
<g style="fill:#FF26E2; fill-opacity:0.0; 
stroke:#FF26E2; stroke-width:0.0500; stroke-opacity:1; 
stroke-linecap:round; stroke-linejoin:round;">
<path d="M27.0600 91.7920
L27.0600 78.7420
" />
<path d="M27.0600 78.7420
L12.4100 78.7420
" />
<path d="M12.4100 91.7920
L27.0600 91.7920
" />
<path d="M12.4100 78.7420
L12.4100 91.7920
" />
<path d="M29.4310 1.6920
L29.4310 11.1920
" />
<path d="M29.4310 11.1920
L42.2510 11.1920
" />
<path d="M42.2510 1.6920
L29.4310 1.6920
" />
<path d="M42.2510 11.1920
L42.2510 1.6920
" />
<path d="M48.5530 139.2650
L53.4530 139.2650
" />
<path d="M48.5530 141.5050
L48.5530 139.2650
" />
<path d="M53.4530 139.2650
L53.4530 141.5050
" />
<path d="M53.4530 141.5050
L48.5530 141.5050
" />
<circle cx="63.6770" cy="67.9950" r="1.5000" /> 
<path d="M80.4930 78.3270
L86.9930 78.3270
" />
<path d="M86.9930 78.3270
L86.9930 71.8770
" />
<path d="M80.4930 71.8770
L80.4930 78.3270
" />
<path d="M86.9930 71.8770
L80.4930 71.8770
" />
<path d="M62.1970 54.2700
L62.1970 63.7700
" />
<path d="M62.1970 63.7700
L78.9770 63.7700
" />
<path d="M78.9770 54.2700
L62.1970 54.2700
" />
<path d="M78.9770 63.7700
L78.9770 54.2700
" />
<path d="M3.8435 110.0230
L3.8435 119.5230
" />
<path d="M3.8435 119.5230
L12.7035 119.5230
" />
<path d="M12.7035 110.0230
L3.8435 110.0230
" />
<path d="M12.7035 119.5230
L12.7035 110.0230
" />
<path d="M87.9410 98.2810
L87.9410 103.2410
" />
<path d="M85.6410 98.2810
L87.9410 98.2810
" />
<path d="M87.9410 103.2410
L85.6410 103.2410
" />
<path d="M85.6410 103.2410
L85.6410 98.2810
" />
<path d="M80.0490 139.5190
L84.9490 139.5190
" />
<path d="M80.0490 141.7590
L80.0490 139.5190
" />
<path d="M84.9490 139.5190
L84.9490 141.7590
" />
<path d="M84.9490 141.7590
L80.0490 141.7590
" />
<path d="M91.2195 62.4830
L91.2195 71.9830
" />
<path d="M91.2195 71.9830
L100.0795 71.9830
" />
<path d="M100.0795 62.4830
L91.2195 62.4830
" />
<path d="M100.0795 71.9830
L100.0795 62.4830
" />
<circle cx="109.2390" cy="165.3730" r="5.2500" /> 
<path d="M55.7653 117.7502
L53.3612 120.1543
" />
<path d="M53.9268 115.9117
L55.7653 117.7502
" />
<path d="M53.3612 120.1543
L51.5227 118.3158
" />
<path d="M51.5227 118.3158
L53.9268 115.9117
" />
<circle cx="109.2390" cy="6.1770" r="5.2500" /> 
<path d="M104.4070 87.4170
L104.4070 96.9170
" />
<path d="M104.4070 96.9170
L113.2670 96.9170
" />
<path d="M113.2670 87.4170
L104.4070 87.4170
" />
<path d="M113.2670 96.9170
L113.2670 87.4170
" />
<path d="M95.0210 34.9390
L91.2610 34.9390
" />
<path d="M95.0210 32.9790
L95.0210 34.9390
" />
<path d="M91.2610 34.9390
L91.2610 32.9790
" />
<path d="M91.2610 32.9790
L95.0210 32.9790
" />
<path d="M69.5030 102.6130
L80.2030 102.6130
" />
<path d="M80.2030 102.6130
L80.2030 92.8130
" />
<path d="M69.5030 92.8130
L69.5030 102.6130
" />
<path d="M80.2030 92.8130
L69.5030 92.8130
" />
<path d="M57.8253 119.1746
L55.1666 121.8333
" />
<path d="M56.4394 117.7887
L57.8253 119.1746
" />
<path d="M55.1666 121.8333
L53.7807 120.4474
" />
<path d="M53.7807 120.4474
L56.4394 117.7887
" />
<path d="M77.7140 53.0590
L63.8640 53.0590
" />
<path d="M77.7140 40.2590
L77.7140 53.0590
" />
<path d="M63.8640 53.0590
L63.8640 40.2590
" />
<path d="M63.8640 40.2590
L77.7140 40.2590
" />
<path d="M14.2970 102.1950
L14.2970 97.2950
" />
<path d="M16.5370 102.1950
L14.2970 102.1950
" />
<path d="M14.2970 97.2950
L16.5370 97.2950
" />
<path d="M16.5370 97.2950
L16.5370 102.1950
" />
<path d="M33.8690 115.8510
L28.9690 115.8510
" />
<path d="M33.8690 113.6110
L33.8690 115.8510
" />
<path d="M28.9690 115.8510
L28.9690 113.6110
" />
<path d="M28.9690 113.6110
L33.8690 113.6110
" />
</g>
<g style="fill:#FF26E2; fill-opacity:0.0; 
stroke:#FF26E2; stroke-width:0.1524; stroke-opacity:1; 
stroke-linecap:round; stroke-linejoin:round;">
<path d="M90.7280 15.7726
L101.6500 15.7726
" />
<path d="M90.7280 31.2920
L90.7280 15.7726
" />
<path d="M101.6500 15.7726
L101.6500 31.2920
" />
<path d="M101.6500 31.2920
L90.7280 31.2920
" />
</g>
<g style="fill:#FF26E2; fill-opacity:0.0; 
stroke:#FF26E2; stroke-width:0.0500; stroke-opacity:1; 
stroke-linecap:round; stroke-linejoin:round;">
<path d="M77.4315 87.9270
L82.3915 87.9270
" />
<path d="M77.4315 90.2270
L77.4315 87.9270
" />
<path d="M82.3915 87.9270
L82.3915 90.2270
" />
<path d="M82.3915 90.2270
L77.4315 90.2270
" />
<path d="M54.4130 65.7690
L54.4130 70.7290
" />
<path d="M52.1130 65.7690
L54.4130 65.7690
" />
<path d="M54.4130 70.7290
L52.1130 70.7290
" />
<path d="M52.1130 70.7290
L52.1130 65.7690
" />
<path d="M40.7130 158.0750
L40.7130 153.1750
" />
<path d="M42.9530 158.0750
L40.7130 158.0750
" />
<path d="M40.7130 153.1750
L42.9530 153.1750
" />
<path d="M42.9530 153.1750
L42.9530 158.0750
" />
<path d="M55.6530 88.6955
L55.6530 93.5955
" />
<path d="M53.4130 88.6955
L55.6530 88.6955
" />
<path d="M55.6530 93.5955
L53.4130 93.5955
" />
<path d="M53.4130 93.5955
L53.4130 88.6955
" />
<path d="M10.5010 107.2150
L5.6010 107.2150
" />
<path d="M10.5010 104.9750
L10.5010 107.2150
" />
<path d="M5.6010 107.2150
L5.6010 104.9750
" />
<path d="M5.6010 104.9750
L10.5010 104.9750
" />
<path d="M48.5270 144.3450
L53.4270 144.3450
" />
<path d="M48.5270 146.5850
L48.5270 144.3450
" />
<path d="M53.4270 144.3450
L53.4270 146.5850
" />
<path d="M53.4270 146.5850
L48.5270 146.5850
" />
<path d="M29.6765 14.0960
L29.6765 23.5960
" />
<path d="M29.6765 23.5960
L42.4965 23.5960
" />
<path d="M42.4965 14.0960
L29.6765 14.0960
" />
<path d="M42.4965 23.5960
L42.4965 14.0960
" />
<path d="M33.8950 105.9450
L28.9950 105.9450
" />
<path d="M33.8950 103.7050
L33.8950 105.9450
" />
<path d="M28.9950 105.9450
L28.9950 103.7050
" />
<path d="M28.9950 103.7050
L33.8950 103.7050
" />
<path d="M86.7690 128.2150
L86.7690 124.6650
" />
<path d="M95.4190 128.2150
L86.7690 128.2150
" />
<path d="M86.7690 124.6650
L95.4190 124.6650
" />
<path d="M95.4190 124.6650
L95.4190 128.2150
" />
<path d="M80.0490 129.3590
L84.9490 129.3590
" />
<path d="M80.0490 131.5990
L80.0490 129.3590
" />
<path d="M84.9490 129.3590
L84.9490 131.5990
" />
<path d="M84.9490 131.5990
L80.0490 131.5990
" />
<path d="M5.3470 152.2310
L10.2470 152.2310
" />
<path d="M5.3470 154.4710
L5.3470 152.2310
" />
<path d="M10.2470 152.2310
L10.2470 154.4710
" />
<path d="M10.2470 154.4710
L5.3470 154.4710
" />
<path d="M48.7810 154.5050
L53.6810 154.5050
" />
<path d="M48.7810 156.7450
L48.7810 154.5050
" />
<path d="M53.6810 154.5050
L53.6810 156.7450
" />
<path d="M53.6810 156.7450
L48.7810 156.7450
" />
<path d="M45.3470 73.8800
L50.2570 73.8800
" />
<path d="M50.2570 73.8800
L50.2570 63.3800
" />
<path d="M45.3470 63.3800
L45.3470 73.8800
" />
<path d="M50.2570 63.3800
L45.3470 63.3800
" />
<path d="M33.8950 90.7050
L28.9950 90.7050
" />
<path d="M33.8950 88.4650
L33.8950 90.7050
" />
<path d="M28.9950 90.7050
L28.9950 88.4650
" />
<path d="M28.9950 88.4650
L33.8950 88.4650
" />
<path d="M3.7565 94.0210
L3.7565 103.5210
" />
<path d="M3.7565 103.5210
L12.6165 103.5210
" />
<path d="M12.6165 94.0210
L3.7565 94.0210
" />
<path d="M12.6165 103.5210
L12.6165 94.0210
" />
<circle cx="6.1770" cy="165.3730" r="5.2500" /> 
<path d="M5.4480 147.1390
L10.3480 147.1390
" />
<path d="M5.4480 149.3790
L5.4480 147.1390
" />
<path d="M10.3480 147.1390
L10.3480 149.3790
" />
<path d="M10.3480 149.3790
L5.4480 149.3790
" />
<path d="M33.8950 95.7850
L28.9950 95.7850
" />
<path d="M33.8950 93.5450
L33.8950 95.7850
" />
<path d="M28.9950 95.7850
L28.9950 93.5450
" />
<path d="M28.9950 93.5450
L33.8950 93.5450
" />
<path d="M48.8070 164.6650
L53.7070 164.6650
" />
<path d="M48.8070 166.9050
L48.8070 164.6650
" />
<path d="M53.7070 164.6650
L53.7070 166.9050
" />
<path d="M53.7070 166.9050
L48.8070 166.9050
" />
<path d="M48.2990 128.8510
L53.1990 128.8510
" />
<path d="M48.2990 131.0910
L48.2990 128.8510
" />
<path d="M53.1990 128.8510
L53.1990 131.0910
" />
<path d="M53.1990 131.0910
L48.2990 131.0910
" />
<path d="M48.8070 149.4250
L53.7070 149.4250
" />
<path d="M48.8070 151.6650
L48.8070 149.4250
" />
<path d="M53.7070 149.4250
L53.7070 151.6650
" />
<path d="M53.7070 151.6650
L48.8070 151.6650
" />
<path d="M20.9830 95.1510
L20.9830 116.5010
" />
<path d="M20.9830 116.5010
L24.5830 116.5010
" />
<path d="M24.5830 95.1510
L20.9830 95.1510
" />
<path d="M24.5830 116.5010
L24.5830 95.1510
" />
<path d="M80.0490 154.7590
L84.9490 154.7590
" />
<path d="M80.0490 156.9990
L80.0490 154.7590
" />
<path d="M84.9490 154.7590
L84.9490 156.9990
" />
<path d="M84.9490 156.9990
L80.0490 156.9990
" />
<circle cx="87.5530" cy="63.6770" r="1.5000" /> 
<path d="M45.0830 145.0390
L38.5830 145.0390
" />
<path d="M38.5830 145.0390
L38.5830 151.4890
" />
<path d="M45.0830 151.4890
L45.0830 145.0390
" />
<path d="M38.5830 151.4890
L45.0830 151.4890
" />
<path d="M48.5530 134.1850
L53.4530 134.1850
" />
<path d="M48.5530 136.4250
L48.5530 134.1850
" />
<path d="M53.4530 134.1850
L53.4530 136.4250
" />
<path d="M53.4530 136.4250
L48.5530 136.4250
" />
<path d="M33.8690 120.9310
L28.9690 120.9310
" />
<path d="M33.8690 118.6910
L33.8690 120.9310
" />
<path d="M28.9690 120.9310
L28.9690 118.6910
" />
<path d="M28.9690 118.6910
L33.8690 118.6910
" />
<path d="M80.0490 144.5990
L84.9490 144.5990
" />
<path d="M80.0490 146.8390
L80.0490 144.5990
" />
<path d="M84.9490 144.5990
L84.9490 146.8390
" />
<path d="M84.9490 146.8390
L80.0490 146.8390
" />
<path d="M51.8090 43.5690
L54.2090 43.5690
" />
<path d="M54.2090 43.5690
L54.2090 42.1690
" />
<path d="M49.7590 42.1690
L51.8090 42.1690
" />
<path d="M49.7590 42.1690
L48.6090 41.0190
" />
<path d="M51.8090 42.1690
L51.8090 43.5690
" />
<path d="M54.2090 42.1690
L56.2590 42.1690
" />
<path d="M56.2590 42.1690
L57.4090 41.0190
" />
<path d="M48.6090 41.0190
L48.6090 33.3690
" />
<path d="M57.4090 41.0190
L57.4090 33.3690
" />
<path d="M48.6090 33.3690
L51.8090 33.3690
" />
<path d="M51.8090 33.3690
L51.8090 31.9690
" />
<path d="M54.2090 33.3690
L57.4090 33.3690
" />
<path d="M51.8090 31.9690
L54.2090 31.9690
" />
<path d="M54.2090 31.9690
L54.2090 33.3690
" />
<path d="M33.8690 111.0250
L28.9690 111.0250
" />
<path d="M33.8690 108.7850
L33.8690 111.0250
" />
<path d="M28.9690 111.0250
L28.9690 108.7850
" />
<path d="M28.9690 108.7850
L33.8690 108.7850
" />
<circle cx="6.1770" cy="6.1770" r="5.2500" /> 
</g>
<g style="fill:#FF26E2; fill-opacity:0.0; 
stroke:#FF26E2; stroke-width:0.1524; stroke-opacity:1; 
stroke-linecap:round; stroke-linejoin:round;">
<path d="M51.7731 117.1138
L50.8212 116.1619
" />
<path d="M57.6332 111.2538
L51.7731 117.1138
" />
<path d="M50.0334 116.9497
L49.2456 116.1619
" />
<path d="M50.8212 116.1619
L50.0334 116.9497
" />
<path d="M56.6813 110.3018
L57.6332 111.2538
" />
<path d="M57.4690 109.5141
L56.6813 110.3018
" />
<path d="M57.4690 109.5141
L56.6813 108.7263
" />
<path d="M48.2937 117.1138
L42.4336 111.2538
" />
<path d="M49.2456 116.1619
L48.2937 117.1138
" />
<path d="M56.6813 108.7263
L57.6332 107.7744
" />
<path d="M57.6332 107.7744
L51.7731 101.9143
" />
<path d="M42.4336 111.2538
L43.3855 110.3018
" />
<path d="M43.3855 110.3018
L42.5977 109.5141
" />
<path d="M50.8212 102.8662
L50.0334 102.0784
" />
<path d="M51.7731 101.9143
L50.8212 102.8662
" />
<path d="M43.3855 108.7263
L42.5977 109.5141
" />
<path d="M49.2456 102.8662
L48.2937 101.9143
" />
<path d="M50.0334 102.0784
L49.2456 102.8662
" />
<path d="M42.4336 107.7744
L43.3855 108.7263
" />
<path d="M48.2937 101.9143
L42.4336 107.7744
" />
</g>
<g style="fill:#FF26E2; fill-opacity:0.0; 
stroke:#FF26E2; stroke-width:0.0500; stroke-opacity:1; 
stroke-linecap:round; stroke-linejoin:round;">
<path d="M80.0490 159.8390
L84.9490 159.8390
" />
<path d="M80.0490 162.0790
L80.0490 159.8390
" />
<path d="M84.9490 159.8390
L84.9490 162.0790
" />
<path d="M84.9490 162.0790
L80.0490 162.0790
" />
<path d="M66.7950 29.8530
L69.1950 29.8530
" />
<path d="M69.1950 29.8530
L69.1950 28.4530
" />
<path d="M64.7450 28.4530
L66.7950 28.4530
" />
<path d="M64.7450 28.4530
L63.5950 27.3030
" />
<path d="M66.7950 28.4530
L66.7950 29.8530
" />
<path d="M69.1950 28.4530
L71.2450 28.4530
" />
<path d="M71.2450 28.4530
L72.3950 27.3030
" />
<path d="M63.5950 27.3030
L63.5950 19.6530
" />
<path d="M72.3950 27.3030
L72.3950 19.6530
" />
<path d="M63.5950 19.6530
L66.7950 19.6530
" />
<path d="M66.7950 19.6530
L66.7950 18.2530
" />
<path d="M69.1950 19.6530
L72.3950 19.6530
" />
<path d="M66.7950 18.2530
L69.1950 18.2530
" />
<path d="M69.1950 18.2530
L69.1950 19.6530
" />
<path d="M61.8010 132.7530
L61.8010 161.7330
" />
<path d="M61.8010 161.7330
L71.7010 161.7330
" />
<path d="M71.7010 132.7530
L61.8010 132.7530
" />
<path d="M71.7010 161.7330
L71.7010 132.7530
" />
<path d="M5.5000 143.4560
L10.4000 143.4560
" />
<path d="M5.5000 145.6960
L5.5000 143.4560
" />
<path d="M10.4000 143.4560
L10.4000 145.6960
" />
<path d="M10.4000 145.6960
L5.5000 145.6960
" />
<path d="M29.7080 25.9490
L29.7080 35.4490
" />
<path d="M29.7080 35.4490
L42.5280 35.4490
" />
<path d="M42.5280 25.9490
L29.7080 25.9490
" />
<path d="M42.5280 35.4490
L42.5280 25.9490
" />
<path d="M63.7310 86.8530
L63.7310 80.0530
" />
<path d="M63.7310 86.8530
L53.6310 86.8530
" />
<path d="M63.7310 80.0530
L53.6310 80.0530
" />
<path d="M53.6310 80.0530
L53.6310 86.8530
" />
<path d="M58.1930 96.7870
L58.1930 101.6870
" />
<path d="M55.9530 96.7870
L58.1930 96.7870
" />
<path d="M58.1930 101.6870
L55.9530 101.6870
" />
<path d="M55.9530 101.6870
L55.9530 96.7870
" />
<path d="M60.9350 78.3270
L67.4350 78.3270
" />
<path d="M67.4350 78.3270
L67.4350 71.8770
" />
<path d="M60.9350 71.8770
L60.9350 78.3270
" />
<path d="M67.4350 71.8770
L60.9350 71.8770
" />
<path d="M75.0590 32.0490
L75.0590 18.2490
" />
<path d="M81.7590 32.0490
L75.0590 32.0490
" />
<path d="M75.0590 18.2490
L81.7590 18.2490
" />
<path d="M81.7590 18.2490
L81.7590 32.0490
" />
<path d="M33.3610 153.6970
L28.4610 153.6970
" />
<path d="M33.3610 151.4570
L33.3610 153.6970
" />
<path d="M28.4610 153.6970
L28.4610 151.4570
" />
<path d="M28.4610 151.4570
L33.3610 151.4570
" />
<path d="M29.9850 69.4150
L34.8850 69.4150
" />
<path d="M29.9850 71.6550
L29.9850 69.4150
" />
<path d="M34.8850 69.4150
L34.8850 71.6550
" />
<path d="M34.8850 71.6550
L29.9850 71.6550
" />
<path d="M51.2430 75.7450
L29.8830 75.7450
" />
<path d="M29.8830 75.7450
L29.8830 85.6450
" />
<path d="M51.2430 85.6450
L51.2430 75.7450
" />
<path d="M29.8830 85.6450
L51.2430 85.6450
" />
<path d="M18.5990 164.3210
L18.5990 169.2810
" />
<path d="M16.2990 164.3210
L18.5990 164.3210
" />
<path d="M18.5990 169.2810
L16.2990 169.2810
" />
<path d="M16.2990 169.2810
L16.2990 164.3210
" />
<path d="M14.3180 1.6920
L14.3180 11.1920
" />
<path d="M14.3180 11.1920
L27.1380 11.1920
" />
<path d="M27.1380 1.6920
L14.3180 1.6920
" />
<path d="M27.1380 11.1920
L27.1380 1.6920
" />
<path d="M5.3470 155.5210
L10.2470 155.5210
" />
<path d="M5.3470 157.7610
L5.3470 155.5210
" />
<path d="M10.2470 155.5210
L10.2470 157.7610
" />
<path d="M10.2470 157.7610
L5.3470 157.7610
" />
<path d="M83.1710 112.0410
L78.2710 112.0410
" />
<path d="M83.1710 109.8010
L83.1710 112.0410
" />
<path d="M78.2710 112.0410
L78.2710 109.8010
" />
<path d="M78.2710 109.8010
L83.1710 109.8010
" />
<path d="M80.0490 149.6790
L84.9490 149.6790
" />
<path d="M80.0490 151.9190
L80.0490 149.6790
" />
<path d="M84.9490 149.6790
L84.9490 151.9190
" />
<path d="M84.9490 151.9190
L80.0490 151.9190
" />
<path d="M65.6570 89.9210
L59.1570 89.9210
" />
<path d="M59.1570 89.9210
L59.1570 96.3710
" />
<path d="M65.6570 96.3710
L65.6570 89.9210
" />
<path d="M59.1570 96.3710
L65.6570 96.3710
" />
<path d="M4.8990 67.6510
L4.8990 62.7510
" />
<path d="M7.1390 67.6510
L4.8990 67.6510
" />
<path d="M4.8990 62.7510
L7.1390 62.7510
" />
<path d="M7.1390 62.7510
L7.1390 67.6510
" />
<circle cx="56.0570" cy="64.4390" r="1.5000" /> 
<path d="M10.7850 79.4320
L5.8250 79.4320
" />
<path d="M10.7850 77.1320
L10.7850 79.4320
" />
<path d="M5.8250 79.4320
L5.8250 77.1320
" />
<path d="M5.8250 77.1320
L10.7850 77.1320
" />
<path d="M4.8990 74.0010
L4.8990 69.1010
" />
<path d="M7.1390 74.0010
L4.8990 74.0010
" />
<path d="M4.8990 69.1010
L7.1390 69.1010
" />
<path d="M7.1390 69.1010
L7.1390 74.0010
" />
<circle cx="96.6470" cy="91.6270" r="5.2500" /> 
<path d="M80.0490 164.9190
L84.9490 164.9190
" />
<path d="M80.0490 167.1590
L80.0490 164.9190
" />
<path d="M84.9490 164.9190
L84.9490 167.1590
" />
<path d="M84.9490 167.1590
L80.0490 167.1590
" />
<path d="M42.4515 87.3750
L42.4515 96.8750
" />
<path d="M42.4515 96.8750
L51.3115 96.8750
" />
<path d="M51.3115 87.3750
L42.4515 87.3750
" />
<path d="M51.3115 96.8750
L51.3115 87.3750
" />
<path d="M29.6850 51.0950
L29.6850 60.5950
" />
<path d="M29.6850 60.5950
L42.5050 60.5950
" />
<path d="M42.5050 51.0950
L29.6850 51.0950
" />
<path d="M42.5050 60.5950
L42.5050 51.0950
" />
<path d="M76.5710 106.9910
L71.6110 106.9910
" />
<path d="M76.5710 104.6910
L76.5710 106.9910
" />
<path d="M71.6110 106.9910
L71.6110 104.6910
" />
<path d="M71.6110 104.6910
L76.5710 104.6910
" />
<path d="M33.8690 126.0110
L28.9690 126.0110
" />
<path d="M33.8690 123.7710
L33.8690 126.0110
" />
<path d="M28.9690 126.0110
L28.9690 123.7710
" />
<path d="M28.9690 123.7710
L33.8690 123.7710
" />
<path d="M61.0330 101.9410
L61.0330 97.0410
" />
<path d="M63.2730 101.9410
L61.0330 101.9410
" />
<path d="M61.0330 97.0410
L63.2730 97.0410
" />
<path d="M63.2730 97.0410
L63.2730 101.9410
" />
<path d="M80.0490 134.4390
L84.9490 134.4390
" />
<path d="M80.0490 136.6790
L80.0490 134.4390
" />
<path d="M84.9490 134.4390
L84.9490 136.6790
" />
<path d="M84.9490 136.6790
L80.0490 136.6790
" />
<path d="M29.6850 38.5220
L29.6850 48.0220
" />
<path d="M29.6850 48.0220
L42.5050 48.0220
" />
<path d="M42.5050 38.5220
L29.6850 38.5220
" />
<path d="M42.5050 48.0220
L42.5050 38.5220
" />
<path d="M70.3330 78.3270
L76.8330 78.3270
" />
<path d="M76.8330 78.3270
L76.8330 71.8770
" />
<path d="M70.3330 71.8770
L70.3330 78.3270
" />
<path d="M76.8330 71.8770
L70.3330 71.8770
" />
<path d="M33.9210 100.8650
L29.0210 100.8650
" />
<path d="M33.9210 98.6250
L33.9210 100.8650
" />
<path d="M29.0210 100.8650
L29.0210 98.6250
" />
<path d="M29.0210 98.6250
L33.9210 98.6250
" />
<path d="M26.1690 164.0330
L26.1690 145.6830
" />
<path d="M26.1690 145.6830
L16.3690 145.6830
" />
<path d="M16.3690 164.0330
L26.1690 164.0330
" />
<path d="M16.3690 145.6830
L16.3690 164.0330
" />
<path d="M93.4990 77.4830
L93.4990 82.3830
" />
<path d="M91.2590 77.4830
L93.4990 77.4830
" />
<path d="M93.4990 82.3830
L91.2590 82.3830
" />
<path d="M91.2590 82.3830
L91.2590 77.4830
" />
<circle cx="73.3190" cy="88.8490" r="2.2500" /> 
<path d="M18.5390 75.8850
L18.5390 65.1850
" />
<path d="M18.5390 65.1850
L8.7390 65.1850
" />
<path d="M8.7390 75.8850
L18.5390 75.8850
" />
<path d="M8.7390 65.1850
L8.7390 75.8850
" />
<circle cx="55.0410" cy="75.8690" r="1.5000" /> 
<path d="M42.5130 73.0230
L42.5130 66.5230
" />
<path d="M42.5130 66.5230
L36.0630 66.5230
" />
<path d="M36.0630 73.0230
L42.5130 73.0230
" />
<path d="M36.0630 66.5230
L36.0630 73.0230
" />
<path d="M33.3610 150.4070
L28.4610 150.4070
" />
<path d="M33.3610 148.1670
L33.3610 150.4070
" />
<path d="M28.4610 150.4070
L28.4610 148.1670
" />
<path d="M28.4610 148.1670
L33.3610 148.1670
" />
<path d="M86.3190 26.1870
L86.3190 22.4270
" />
<path d="M88.2790 26.1870
L86.3190 26.1870
" />
<path d="M86.3190 22.4270
L88.2790 22.4270
" />
<path d="M88.2790 22.4270
L88.2790 26.1870
" />
<path d="M71.6410 109.8010
L76.5410 109.8010
" />
<path d="M71.6410 112.0410
L71.6410 109.8010
" />
<path d="M76.5410 109.8010
L76.5410 112.0410
" />
<path d="M76.5410 112.0410
L71.6410 112.0410
" />
<path d="M104.8180 15.4140
L104.8180 11.8640
" />
<path d="M113.4680 15.4140
L104.8180 15.4140
" />
<path d="M104.8180 11.8640
L113.4680 11.8640
" />
<path d="M113.4680 11.8640
L113.4680 15.4140
" />
<path d="M87.9110 90.6910
L87.9110 95.5910
" />
<path d="M85.6710 90.6910
L87.9110 90.6910
" />
<path d="M87.9110 95.5910
L85.6710 95.5910
" />
<path d="M85.6710 95.5910
L85.6710 90.6910
" />
<path d="M74.7030 66.0530
L74.7030 70.9530
" />
<path d="M72.4630 66.0530
L74.7030 66.0530
" />
<path d="M74.7030 70.9530
L72.4630 70.9530
" />
<path d="M72.4630 70.9530
L72.4630 66.0530
" />
<path d="M53.1730 161.8250
L48.2730 161.8250
" />
<path d="M53.1730 159.5850
L53.1730 161.8250
" />
<path d="M48.2730 161.8250
L48.2730 159.5850
" />
<path d="M48.2730 159.5850
L53.1730 159.5850
" />
<g >
</g>
<g >
</g>
<g >
</g>
<g >
</g>
<g >
</g>
<g >
</g>
<g >
</g>
<g >
</g>
<g >
</g>
<g >
</g>
<g >
</g>
<g >
</g>
<g >
</g>
<g >
</g>
<g >
</g>
<g >
</g>
<g >
</g>
<g >
</g>
<g >
</g>
<g >
</g>
<g >
</g>
<g >
</g>
<g >
</g>
<g >
</g>
<g >
</g>
<g >
</g>
<g >
</g>
<g >
</g>
<g >
</g>
<g >
</g>
<g >
</g>
<g >
</g>
<g >
</g>
<g >
</g>
<g >
</g>
<g >
</g>
<g >
</g>
<g >
</g>
<g >
</g>
<g >
</g>
<g >
</g>
<g >
</g>
<g >
</g>
<g >
</g>
<g >
</g>
<g >
</g>
<g >
</g>
<g >
</g>
<g >
</g>
<g >
</g>
<g >
</g>
<g >
</g>
<g >
</g>
<g >
</g>
<g >
</g>
<g >
</g>
<g >
</g>
<g >
</g>
<g >
</g>
<g >
</g>
<g >
</g>
<g >
</g>
<g >
</g>
<g >
</g>
<g >
</g>
<g >
</g>
<g >
</g>
<g >
</g>
<g >
</g>
<g >
</g>
<g >
</g>
<g >
</g>
<g >
</g>
<g >
</g>
<g >
</g>
<g >
</g>
<g >
</g>
<g >
</g>
<g >
</g>
<g >
</g>
<g >
</g>
<g >
</g>
<g >
</g>
<g >
</g>
<g >
</g>
<g >
</g>
<g >
</g>
<g >
</g>
<g >
</g>
<g >
</g>
<g >
</g>
<g >
</g>
<g >
</g>
<g >
</g>
<g >
</g>
<g >
</g>
<g >
</g>
<g >
</g>
<g >
</g>
<g >
</g>
<g >
</g>
<g >
</g>
<g >
</g>
<g >
</g>
<g >
</g>
<g >
</g>
<g >
</g>
<g >
</g>
<g >
</g>
<g >
</g>
<g >
</g>
<g >
</g>
<g >
</g>
<g >
</g>
<g >
</g>
<g >
</g>
<g >
</g>
<g >
</g>
<g >
</g>
<g >
</g>
<g >
</g>
<g >
</g>
<g >
</g>
<g >
</g>
<g >
</g>
<g >
</g>
<g >
</g>
<g >
</g>
<g >
</g>
</g>
<g style="fill:#000000; fill-opacity:0.0; 
stroke:#000000; stroke-width:0.0500; stroke-opacity:1; 
stroke-linecap:round; stroke-linejoin:round;">
</g>
<g style="fill:#D0D2CD; fill-opacity:0.0; 
stroke:#D0D2CD; stroke-width:0.0500; stroke-opacity:1; 
stroke-linecap:round; stroke-linejoin:round;">
</g>
<g style="fill:#D0D2CD; fill-opacity:0.0; 
stroke:#D0D2CD; stroke-width:0.1000; stroke-opacity:1; 
stroke-linecap:round; stroke-linejoin:round;">
<path style="fill:#D0D2CD; fill-opacity:0.0; 
stroke:#D0D2CD; stroke-width:0.1000; stroke-opacity:1; 
stroke-linecap:round; stroke-linejoin:round;fill:none"
d="M 0.0500,0.0500
115.3660,0.0500
115.3660,171.5000
0.0500,171.5000
Z" /> 
<g >
</g>
<g >
</g>
<g >
</g>
<g >
</g>
<g >
</g>
<g >
</g>
<g >
</g>
<g >
</g>
<g >
</g>
<g >
</g>
<g >
</g>
<g >
</g>
<g >
</g>
<g >
</g>
<g >
</g>
<g >
</g>
<g >
</g>
<g >
</g>
<g >
</g>
<g >
</g>
<g >
</g>
<g >
</g>
<g >
</g>
<g >
</g>
<g >
</g>
<g >
</g>
<g >
</g>
<g >
</g>
<g >
</g>
<g >
</g>
<g >
</g>
<g >
</g>
<g >
</g>
<g >
</g>
<g >
</g>
<g >
</g>
<g >
</g>
<g >
</g>
<g >
</g>
<g >
</g>
<g >
</g>
<g >
</g>
<g >
</g>
<g >
</g>
<g >
</g>
<g >
</g>
<g >
</g>
<g >
</g>
<g >
</g>
<g >
</g>
<g >
</g>
<g >
</g>
<g >
</g>
<g >
</g>
<g >
</g>
<g >
</g>
<g >
</g>
<g >
</g>
<g >
</g>
<g >
</g>
<g >
</g>
<g >
</g>
<g >
</g>
<g >
</g>
<g >
</g>
<g >
</g>
<g >
</g>
<g >
</g>
<g >
</g>
<g >
</g>
<g >
</g>
<g >
</g>
<g >
</g>
<g >
</g>
<g >
</g>
<g >
</g>
<g >
</g>
<g >
</g>
<g >
</g>
<g >
</g>
<g >
</g>
<g >
</g>
<g >
</g>
<g >
</g>
<g >
</g>
<g >
</g>
<g >
</g>
<g >
</g>
<g >
</g>
<g >
</g>
<g >
</g>
<g >
</g>
<g >
</g>
<g >
</g>
<g >
</g>
<g >
</g>
<g >
</g>
<g >
</g>
<g >
</g>
<g >
</g>
<g >
</g>
<g >
</g>
<g >
</g>
<g >
</g>
<g >
</g>
<g >
</g>
<g >
</g>
<g >
</g>
<g >
</g>
<g >
</g>
<g >
</g>
<g >
</g>
<g >
</g>
<g >
</g>
<g >
</g>
<g >
</g>
<g >
</g>
<g >
</g>
<g >
</g>
<g >
</g>
<g >
</g>
<g >
</g>
<g >
</g>
<g >
</g>
<g >
</g>
<g >
</g>
<g >
</g>
<g >
</g>
<g >
</g>
</g> 
</svg>
