<?xml version="1.0" standalone="no"?>
 <!DOCTYPE svg PUBLIC "-//W3C//DTD SVG 1.1//EN" 
 "http://www.w3.org/Graphics/SVG/1.1/DTD/svg11.dtd"> 
<svg
  xmlns:svg="http://www.w3.org/2000/svg"
  xmlns="http://www.w3.org/2000/svg"
  xmlns:xlink="http://www.w3.org/1999/xlink"
  version="1.1"
  width="115.3922mm" height="171.5262mm" viewBox="0.0000 0.0000 115.3922 171.5262">
<title>SVG Image created as Schematic-B_Fab.svg date 2023/10/12 12:03:12 </title>
  <desc>Image generated by PCBNEW </desc>
<g style="fill:#000000; fill-opacity:1.0000;stroke:#000000; stroke-opacity:1.0000;
stroke-linecap:round; stroke-linejoin:round;"
 transform="translate(0 0) scale(1 1)">
</g>
<g style="fill:#000000; fill-opacity:0.0; 
stroke:#000000; stroke-width:0.0000; stroke-opacity:1; 
stroke-linecap:round; stroke-linejoin:round;">
</g>
<g style="fill:#585D84; fill-opacity:0.0; 
stroke:#585D84; stroke-width:0.0000; stroke-opacity:1; 
stroke-linecap:round; stroke-linejoin:round;">
</g>
<g style="fill:#585D84; fill-opacity:0.0; 
stroke:#585D84; stroke-width:0.1500; stroke-opacity:1; 
stroke-linecap:round; stroke-linejoin:round;">
<g transform="rotate(-90.000000 34.1710 11.0990)">
<text x="34.1710" y="11.5990"
transform="scale(-1 1) translate(-68.342000 0)"
textLength="1.9369" font-size="1.3333" lengthAdjust="spacingAndGlyphs"
text-anchor="middle" opacity="0">2k</text>
</g>
<g class="stroked-text"><desc>2k</desc>
<path d="M33.7289 10.4085
L33.6812 10.4561
" />
<path d="M33.6812 10.4561
L33.6336 10.5514
" />
<path d="M33.6336 10.5514
L33.6336 10.7895
" />
<path d="M33.6336 10.7895
L33.6812 10.8847
" />
<path d="M33.6812 10.8847
L33.7289 10.9323
" />
<path d="M33.7289 10.9323
L33.8241 10.9800
" />
<path d="M33.8241 10.9800
L33.9193 10.9800
" />
<path d="M33.9193 10.9800
L34.0622 10.9323
" />
<path d="M34.0622 10.9323
L34.6336 10.3609
" />
<path d="M34.6336 10.3609
L34.6336 10.9800
" />
<path d="M34.6336 11.4085
L33.6336 11.4085
" />
<path d="M34.2527 11.5038
L34.6336 11.7895
" />
<path d="M33.9670 11.7895
L34.3479 11.4085
" />
</g></g>
<g style="fill:#585D84; fill-opacity:0.0; 
stroke:#585D84; stroke-width:0.1200; stroke-opacity:1; 
stroke-linecap:round; stroke-linejoin:round;">
<g transform="rotate(-90.000000 35.9910 11.0990)">
<text x="35.9910" y="11.4990"
transform="scale(-1 1) translate(-71.982000 0)"
textLength="2.4638" font-size="1.0667" lengthAdjust="spacingAndGlyphs"
text-anchor="middle" opacity="0">R49</text>
</g>
<g class="stroked-text"><desc>R49</desc>
<path d="M36.3611 10.5847
L35.9801 10.3180
" />
<path d="M36.3611 10.1276
L35.5611 10.1276
" />
<path d="M35.5611 10.1276
L35.5611 10.4323
" />
<path d="M35.5611 10.4323
L35.5992 10.5085
" />
<path d="M35.5992 10.5085
L35.6373 10.5466
" />
<path d="M35.6373 10.5466
L35.7135 10.5847
" />
<path d="M35.7135 10.5847
L35.8278 10.5847
" />
<path d="M35.8278 10.5847
L35.9040 10.5466
" />
<path d="M35.9040 10.5466
L35.9420 10.5085
" />
<path d="M35.9420 10.5085
L35.9801 10.4323
" />
<path d="M35.9801 10.4323
L35.9801 10.1276
" />
<path d="M35.8278 11.2704
L36.3611 11.2704
" />
<path d="M35.5230 11.0800
L36.0944 10.8895
" />
<path d="M36.0944 10.8895
L36.0944 11.3847
" />
<path d="M36.3611 11.7276
L36.3611 11.8800
" />
<path d="M36.3611 11.8800
L36.3230 11.9561
" />
<path d="M36.3230 11.9561
L36.2849 11.9942
" />
<path d="M36.2849 11.9942
L36.1706 12.0704
" />
<path d="M36.1706 12.0704
L36.0182 12.1085
" />
<path d="M36.0182 12.1085
L35.7135 12.1085
" />
<path d="M35.7135 12.1085
L35.6373 12.0704
" />
<path d="M35.6373 12.0704
L35.5992 12.0323
" />
<path d="M35.5992 12.0323
L35.5611 11.9561
" />
<path d="M35.5611 11.9561
L35.5611 11.8038
" />
<path d="M35.5611 11.8038
L35.5992 11.7276
" />
<path d="M35.5992 11.7276
L35.6373 11.6895
" />
<path d="M35.6373 11.6895
L35.7135 11.6514
" />
<path d="M35.7135 11.6514
L35.9040 11.6514
" />
<path d="M35.9040 11.6514
L35.9801 11.6895
" />
<path d="M35.9801 11.6895
L36.0182 11.7276
" />
<path d="M36.0182 11.7276
L36.0563 11.8038
" />
<path d="M36.0563 11.8038
L36.0563 11.9561
" />
<path d="M36.0563 11.9561
L36.0182 12.0323
" />
<path d="M36.0182 12.0323
L35.9801 12.0704
" />
<path d="M35.9801 12.0704
L35.9040 12.1085
" />
</g></g>
<g style="fill:#585D84; fill-opacity:0.0; 
stroke:#585D84; stroke-width:0.1500; stroke-opacity:1; 
stroke-linecap:round; stroke-linejoin:round;">
<g transform="rotate(-90.000000 51.6410 117.5465)">
<text x="51.6410" y="118.0465"
transform="scale(-1 1) translate(-103.282000 0)"
textLength="3.3655" font-size="1.3333" lengthAdjust="spacingAndGlyphs"
text-anchor="middle" opacity="0">.1uF</text>
</g>
<g class="stroked-text"><desc>.1uF</desc>
<path d="M52.0084 116.1894
L52.0560 116.2370
" />
<path d="M52.0560 116.2370
L52.1036 116.1894
" />
<path d="M52.1036 116.1894
L52.0560 116.1417
" />
<path d="M52.0560 116.1417
L52.0084 116.1894
" />
<path d="M52.0084 116.1894
L52.1036 116.1894
" />
<path d="M52.1036 117.1894
L52.1036 116.6179
" />
<path d="M52.1036 116.9036
L51.1036 116.9036
" />
<path d="M51.1036 116.9036
L51.2465 116.8084
" />
<path d="M51.2465 116.8084
L51.3417 116.7132
" />
<path d="M51.3417 116.7132
L51.3893 116.6179
" />
<path d="M51.4370 118.0465
L52.1036 118.0465
" />
<path d="M51.4370 117.6179
L51.9608 117.6179
" />
<path d="M51.9608 117.6179
L52.0560 117.6655
" />
<path d="M52.0560 117.6655
L52.1036 117.7608
" />
<path d="M52.1036 117.7608
L52.1036 117.9036
" />
<path d="M52.1036 117.9036
L52.0560 117.9989
" />
<path d="M52.0560 117.9989
L52.0084 118.0465
" />
<path d="M51.5798 118.8560
L51.5798 118.5227
" />
<path d="M52.1036 118.5227
L51.1036 118.5227
" />
<path d="M51.1036 118.5227
L51.1036 118.9989
" />
</g></g>
<g style="fill:#585D84; fill-opacity:0.0; 
stroke:#585D84; stroke-width:0.0800; stroke-opacity:1; 
stroke-linecap:round; stroke-linejoin:round;">
<g transform="rotate(-90.000000 49.9610 117.5465)">
<text x="49.9610" y="117.7965"
transform="scale(-1 1) translate(-99.922000 0)"
textLength="1.0762" font-size="0.6667" lengthAdjust="spacingAndGlyphs"
text-anchor="middle" opacity="0">C3</text>
</g>
<g class="stroked-text"><desc>C3</desc>
<path d="M50.1447 117.4632
L50.1685 117.4394
" />
<path d="M50.1685 117.4394
L50.1923 117.3679
" />
<path d="M50.1923 117.3679
L50.1923 117.3203
" />
<path d="M50.1923 117.3203
L50.1685 117.2489
" />
<path d="M50.1685 117.2489
L50.1209 117.2013
" />
<path d="M50.1209 117.2013
L50.0733 117.1775
" />
<path d="M50.0733 117.1775
L49.9780 117.1536
" />
<path d="M49.9780 117.1536
L49.9066 117.1536
" />
<path d="M49.9066 117.1536
L49.8114 117.1775
" />
<path d="M49.8114 117.1775
L49.7637 117.2013
" />
<path d="M49.7637 117.2013
L49.7161 117.2489
" />
<path d="M49.7161 117.2489
L49.6923 117.3203
" />
<path d="M49.6923 117.3203
L49.6923 117.3679
" />
<path d="M49.6923 117.3679
L49.7161 117.4394
" />
<path d="M49.7161 117.4394
L49.7399 117.4632
" />
<path d="M49.6923 117.6298
L49.6923 117.9394
" />
<path d="M49.6923 117.9394
L49.8828 117.7727
" />
<path d="M49.8828 117.7727
L49.8828 117.8441
" />
<path d="M49.8828 117.8441
L49.9066 117.8917
" />
<path d="M49.9066 117.8917
L49.9304 117.9155
" />
<path d="M49.9304 117.9155
L49.9780 117.9394
" />
<path d="M49.9780 117.9394
L50.0971 117.9394
" />
<path d="M50.0971 117.9394
L50.1447 117.9155
" />
<path d="M50.1447 117.9155
L50.1685 117.8917
" />
<path d="M50.1685 117.8917
L50.1923 117.8441
" />
<path d="M50.1923 117.8441
L50.1923 117.7013
" />
<path d="M50.1923 117.7013
L50.1685 117.6536
" />
<path d="M50.1685 117.6536
L50.1447 117.6298
" />
</g></g>
<g style="fill:#585D84; fill-opacity:0.0; 
stroke:#585D84; stroke-width:0.1500; stroke-opacity:1; 
stroke-linecap:round; stroke-linejoin:round;">
<g transform="rotate(-90.000000 85.5630 68.7570)">
<text x="85.5630" y="69.2570"
transform="scale(-1 1) translate(-171.126000 0)"
textLength="2.8893" font-size="1.3333" lengthAdjust="spacingAndGlyphs"
text-anchor="middle" opacity="0">56k</text>
</g>
<g class="stroked-text"><desc>56k</desc>
<path d="M85.0256 68.1141
L85.0256 67.6380
" />
<path d="M85.0256 67.6380
L85.5018 67.5903
" />
<path d="M85.5018 67.5903
L85.4542 67.6380
" />
<path d="M85.4542 67.6380
L85.4066 67.7332
" />
<path d="M85.4066 67.7332
L85.4066 67.9713
" />
<path d="M85.4066 67.9713
L85.4542 68.0665
" />
<path d="M85.4542 68.0665
L85.5018 68.1141
" />
<path d="M85.5018 68.1141
L85.5970 68.1618
" />
<path d="M85.5970 68.1618
L85.8351 68.1618
" />
<path d="M85.8351 68.1618
L85.9304 68.1141
" />
<path d="M85.9304 68.1141
L85.9780 68.0665
" />
<path d="M85.9780 68.0665
L86.0256 67.9713
" />
<path d="M86.0256 67.9713
L86.0256 67.7332
" />
<path d="M86.0256 67.7332
L85.9780 67.6380
" />
<path d="M85.9780 67.6380
L85.9304 67.5903
" />
<path d="M85.0256 69.0189
L85.0256 68.8284
" />
<path d="M85.0256 68.8284
L85.0732 68.7332
" />
<path d="M85.0732 68.7332
L85.1209 68.6856
" />
<path d="M85.1209 68.6856
L85.2637 68.5903
" />
<path d="M85.2637 68.5903
L85.4542 68.5427
" />
<path d="M85.4542 68.5427
L85.8351 68.5427
" />
<path d="M85.8351 68.5427
L85.9304 68.5903
" />
<path d="M85.9304 68.5903
L85.9780 68.6380
" />
<path d="M85.9780 68.6380
L86.0256 68.7332
" />
<path d="M86.0256 68.7332
L86.0256 68.9237
" />
<path d="M86.0256 68.9237
L85.9780 69.0189
" />
<path d="M85.9780 69.0189
L85.9304 69.0665
" />
<path d="M85.9304 69.0665
L85.8351 69.1141
" />
<path d="M85.8351 69.1141
L85.5970 69.1141
" />
<path d="M85.5970 69.1141
L85.5018 69.0665
" />
<path d="M85.5018 69.0665
L85.4542 69.0189
" />
<path d="M85.4542 69.0189
L85.4066 68.9237
" />
<path d="M85.4066 68.9237
L85.4066 68.7332
" />
<path d="M85.4066 68.7332
L85.4542 68.6380
" />
<path d="M85.4542 68.6380
L85.5018 68.5903
" />
<path d="M85.5018 68.5903
L85.5970 68.5427
" />
<path d="M86.0256 69.5427
L85.0256 69.5427
" />
<path d="M85.6447 69.6380
L86.0256 69.9237
" />
<path d="M85.3590 69.9237
L85.7399 69.5427
" />
</g></g>
<g style="fill:#585D84; fill-opacity:0.0; 
stroke:#585D84; stroke-width:0.1200; stroke-opacity:1; 
stroke-linecap:round; stroke-linejoin:round;">
<g transform="rotate(-90.000000 83.7430 68.7570)">
<text x="83.7430" y="69.1570"
transform="scale(-1 1) translate(-167.486000 0)"
textLength="2.4638" font-size="1.0667" lengthAdjust="spacingAndGlyphs"
text-anchor="middle" opacity="0">R41</text>
</g>
<g class="stroked-text"><desc>R41</desc>
<path d="M84.1131 68.2427
L83.7321 67.9760
" />
<path d="M84.1131 67.7856
L83.3131 67.7856
" />
<path d="M83.3131 67.7856
L83.3131 68.0903
" />
<path d="M83.3131 68.0903
L83.3512 68.1665
" />
<path d="M83.3512 68.1665
L83.3893 68.2046
" />
<path d="M83.3893 68.2046
L83.4655 68.2427
" />
<path d="M83.4655 68.2427
L83.5798 68.2427
" />
<path d="M83.5798 68.2427
L83.6560 68.2046
" />
<path d="M83.6560 68.2046
L83.6940 68.1665
" />
<path d="M83.6940 68.1665
L83.7321 68.0903
" />
<path d="M83.7321 68.0903
L83.7321 67.7856
" />
<path d="M83.5798 68.9284
L84.1131 68.9284
" />
<path d="M83.2750 68.7380
L83.8464 68.5475
" />
<path d="M83.8464 68.5475
L83.8464 69.0427
" />
<path d="M84.1131 69.7665
L84.1131 69.3094
" />
<path d="M84.1131 69.5380
L83.3131 69.5380
" />
<path d="M83.3131 69.5380
L83.4274 69.4618
" />
<path d="M83.4274 69.4618
L83.5036 69.3856
" />
<path d="M83.5036 69.3856
L83.5417 69.3094
" />
</g></g>
<g style="fill:#585D84; fill-opacity:0.0; 
stroke:#585D84; stroke-width:0.1500; stroke-opacity:1; 
stroke-linecap:round; stroke-linejoin:round;">
<g transform="rotate(45.000000 57.2449 106.4311)">
<text x="57.2449" y="106.9311"
transform="scale(-1 1) translate(-114.489878 0)"
textLength="3.3655" font-size="1.3333" lengthAdjust="spacingAndGlyphs"
text-anchor="middle" opacity="0">.1uF</text>
</g>
<g class="stroked-text"><desc>.1uF</desc>
<path d="M57.9448 107.6505
L57.8775 107.6505
" />
<path d="M57.8775 107.6505
L57.8775 107.7178
" />
<path d="M57.8775 107.7178
L57.9448 107.7178
" />
<path d="M57.9448 107.7178
L57.9448 107.6505
" />
<path d="M57.9448 107.6505
L57.8775 107.7178
" />
<path d="M57.1704 107.0107
L57.5744 107.4148
" />
<path d="M57.3724 107.2127
L58.0795 106.5056
" />
<path d="M58.0795 106.5056
L58.0458 106.6740
" />
<path d="M58.0458 106.6740
L58.0458 106.8087
" />
<path d="M58.0458 106.8087
L58.0795 106.9097
" />
<path d="M57.0357 105.9332
L56.5643 106.4046
" />
<path d="M57.3387 106.2363
L56.9683 106.6067
" />
<path d="M56.9683 106.6067
L56.8673 106.6403
" />
<path d="M56.8673 106.6403
L56.7663 106.6067
" />
<path d="M56.7663 106.6067
L56.6653 106.5056
" />
<path d="M56.6653 106.5056
L56.6316 106.4046
" />
<path d="M56.6316 106.4046
L56.6316 106.3373
" />
<path d="M56.3622 105.4618
L56.5979 105.6975
" />
<path d="M56.2275 106.0679
L56.9347 105.3608
" />
<path d="M56.9347 105.3608
L56.5979 105.0241
" />
</g></g>
<g style="fill:#585D84; fill-opacity:0.0; 
stroke:#585D84; stroke-width:0.0800; stroke-opacity:1; 
stroke-linecap:round; stroke-linejoin:round;">
<g transform="rotate(45.000000 56.0570 107.6190)">
<text x="56.0570" y="107.8690"
transform="scale(-1 1) translate(-112.114000 0)"
textLength="1.0762" font-size="0.6667" lengthAdjust="spacingAndGlyphs"
text-anchor="middle" opacity="0">C4</text>
</g>
<g class="stroked-text"><desc>C4</desc>
<path d="M55.9860 107.8078
L55.9860 107.8415
" />
<path d="M55.9860 107.8415
L56.0197 107.9088
" />
<path d="M56.0197 107.9088
L56.0534 107.9425
" />
<path d="M56.0534 107.9425
L56.1207 107.9762
" />
<path d="M56.1207 107.9762
L56.1881 107.9762
" />
<path d="M56.1881 107.9762
L56.2386 107.9593
" />
<path d="M56.2386 107.9593
L56.3228 107.9088
" />
<path d="M56.3228 107.9088
L56.3733 107.8583
" />
<path d="M56.3733 107.8583
L56.4238 107.7741
" />
<path d="M56.4238 107.7741
L56.4406 107.7236
" />
<path d="M56.4406 107.7236
L56.4406 107.6563
" />
<path d="M56.4406 107.6563
L56.4069 107.5889
" />
<path d="M56.4069 107.5889
L56.3733 107.5553
" />
<path d="M56.3733 107.5553
L56.3059 107.5216
" />
<path d="M56.3059 107.5216
L56.2722 107.5216
" />
<path d="M55.8850 107.3027
L55.6493 107.5384
" />
<path d="M56.1039 107.2522
L55.9355 107.5889
" />
<path d="M55.9355 107.5889
L55.7167 107.3701
" />
</g></g>
<g style="fill:#585D84; fill-opacity:0.0; 
stroke:#585D84; stroke-width:0.1500; stroke-opacity:1; 
stroke-linecap:round; stroke-linejoin:round;">
<g transform="rotate(-90.000000 30.2340 23.1640)">
<text x="30.2340" y="23.6640"
transform="scale(-1 1) translate(-60.468000 0)"
textLength="1.9369" font-size="1.3333" lengthAdjust="spacingAndGlyphs"
text-anchor="middle" opacity="0">1k</text>
</g>
<g class="stroked-text"><desc>1k</desc>
<path d="M30.6966 23.0450
L30.6966 22.4735
" />
<path d="M30.6966 22.7592
L29.6966 22.7592
" />
<path d="M29.6966 22.7592
L29.8395 22.6640
" />
<path d="M29.8395 22.6640
L29.9347 22.5688
" />
<path d="M29.9347 22.5688
L29.9823 22.4735
" />
<path d="M30.6966 23.4735
L29.6966 23.4735
" />
<path d="M30.3157 23.5688
L30.6966 23.8545
" />
<path d="M30.0300 23.8545
L30.4109 23.4735
" />
</g></g>
<g style="fill:#585D84; fill-opacity:0.0; 
stroke:#585D84; stroke-width:0.1200; stroke-opacity:1; 
stroke-linecap:round; stroke-linejoin:round;">
<g transform="rotate(-90.000000 32.0540 23.1640)">
<text x="32.0540" y="23.5640"
transform="scale(-1 1) translate(-64.108000 0)"
textLength="2.4638" font-size="1.0667" lengthAdjust="spacingAndGlyphs"
text-anchor="middle" opacity="0">R39</text>
</g>
<g class="stroked-text"><desc>R39</desc>
<path d="M32.4241 22.6497
L32.0431 22.3830
" />
<path d="M32.4241 22.1926
L31.6241 22.1926
" />
<path d="M31.6241 22.1926
L31.6241 22.4973
" />
<path d="M31.6241 22.4973
L31.6622 22.5735
" />
<path d="M31.6622 22.5735
L31.7003 22.6116
" />
<path d="M31.7003 22.6116
L31.7765 22.6497
" />
<path d="M31.7765 22.6497
L31.8908 22.6497
" />
<path d="M31.8908 22.6497
L31.9670 22.6116
" />
<path d="M31.9670 22.6116
L32.0050 22.5735
" />
<path d="M32.0050 22.5735
L32.0431 22.4973
" />
<path d="M32.0431 22.4973
L32.0431 22.1926
" />
<path d="M31.6241 22.9164
L31.6241 23.4116
" />
<path d="M31.6241 23.4116
L31.9289 23.1450
" />
<path d="M31.9289 23.1450
L31.9289 23.2592
" />
<path d="M31.9289 23.2592
L31.9670 23.3354
" />
<path d="M31.9670 23.3354
L32.0050 23.3735
" />
<path d="M32.0050 23.3735
L32.0812 23.4116
" />
<path d="M32.0812 23.4116
L32.2717 23.4116
" />
<path d="M32.2717 23.4116
L32.3479 23.3735
" />
<path d="M32.3479 23.3735
L32.3860 23.3354
" />
<path d="M32.3860 23.3354
L32.4241 23.2592
" />
<path d="M32.4241 23.2592
L32.4241 23.0307
" />
<path d="M32.4241 23.0307
L32.3860 22.9545
" />
<path d="M32.3860 22.9545
L32.3479 22.9164
" />
<path d="M32.4241 23.7926
L32.4241 23.9450
" />
<path d="M32.4241 23.9450
L32.3860 24.0211
" />
<path d="M32.3860 24.0211
L32.3479 24.0592
" />
<path d="M32.3479 24.0592
L32.2336 24.1354
" />
<path d="M32.2336 24.1354
L32.0812 24.1735
" />
<path d="M32.0812 24.1735
L31.7765 24.1735
" />
<path d="M31.7765 24.1735
L31.7003 24.1354
" />
<path d="M31.7003 24.1354
L31.6622 24.0973
" />
<path d="M31.6622 24.0973
L31.6241 24.0211
" />
<path d="M31.6241 24.0211
L31.6241 23.8688
" />
<path d="M31.6241 23.8688
L31.6622 23.7926
" />
<path d="M31.6622 23.7926
L31.7003 23.7545
" />
<path d="M31.7003 23.7545
L31.7765 23.7164
" />
<path d="M31.7765 23.7164
L31.9670 23.7164
" />
<path d="M31.9670 23.7164
L32.0431 23.7545
" />
<path d="M32.0431 23.7545
L32.0812 23.7926
" />
<path d="M32.0812 23.7926
L32.1193 23.8688
" />
<path d="M32.1193 23.8688
L32.1193 24.0211
" />
<path d="M32.1193 24.0211
L32.0812 24.0973
" />
<path d="M32.0812 24.0973
L32.0431 24.1354
" />
<path d="M32.0431 24.1354
L31.9670 24.1735
" />
</g></g>
<g style="fill:#585D84; fill-opacity:0.0; 
stroke:#585D84; stroke-width:0.1500; stroke-opacity:1; 
stroke-linecap:round; stroke-linejoin:round;">
<g transform="rotate(-90.000000 30.3610 35.4830)">
<text x="30.3610" y="35.9830"
transform="scale(-1 1) translate(-60.722000 0)"
textLength="1.9369" font-size="1.3333" lengthAdjust="spacingAndGlyphs"
text-anchor="middle" opacity="0">1k</text>
</g>
<g class="stroked-text"><desc>1k</desc>
<path d="M30.8236 35.3640
L30.8236 34.7925
" />
<path d="M30.8236 35.0782
L29.8236 35.0782
" />
<path d="M29.8236 35.0782
L29.9665 34.9830
" />
<path d="M29.9665 34.9830
L30.0617 34.8878
" />
<path d="M30.0617 34.8878
L30.1093 34.7925
" />
<path d="M30.8236 35.7925
L29.8236 35.7925
" />
<path d="M30.4427 35.8878
L30.8236 36.1735
" />
<path d="M30.1570 36.1735
L30.5379 35.7925
" />
</g></g>
<g style="fill:#585D84; fill-opacity:0.0; 
stroke:#585D84; stroke-width:0.1200; stroke-opacity:1; 
stroke-linecap:round; stroke-linejoin:round;">
<g transform="rotate(-90.000000 32.1810 35.4830)">
<text x="32.1810" y="35.8830"
transform="scale(-1 1) translate(-64.362000 0)"
textLength="2.4638" font-size="1.0667" lengthAdjust="spacingAndGlyphs"
text-anchor="middle" opacity="0">R45</text>
</g>
<g class="stroked-text"><desc>R45</desc>
<path d="M32.5511 34.9687
L32.1701 34.7020
" />
<path d="M32.5511 34.5116
L31.7511 34.5116
" />
<path d="M31.7511 34.5116
L31.7511 34.8163
" />
<path d="M31.7511 34.8163
L31.7892 34.8925
" />
<path d="M31.7892 34.8925
L31.8273 34.9306
" />
<path d="M31.8273 34.9306
L31.9035 34.9687
" />
<path d="M31.9035 34.9687
L32.0178 34.9687
" />
<path d="M32.0178 34.9687
L32.0940 34.9306
" />
<path d="M32.0940 34.9306
L32.1320 34.8925
" />
<path d="M32.1320 34.8925
L32.1701 34.8163
" />
<path d="M32.1701 34.8163
L32.1701 34.5116
" />
<path d="M32.0178 35.6544
L32.5511 35.6544
" />
<path d="M31.7130 35.4640
L32.2844 35.2735
" />
<path d="M32.2844 35.2735
L32.2844 35.7687
" />
<path d="M31.7511 36.4544
L31.7511 36.0735
" />
<path d="M31.7511 36.0735
L32.1320 36.0354
" />
<path d="M32.1320 36.0354
L32.0940 36.0735
" />
<path d="M32.0940 36.0735
L32.0559 36.1497
" />
<path d="M32.0559 36.1497
L32.0559 36.3401
" />
<path d="M32.0559 36.3401
L32.0940 36.4163
" />
<path d="M32.0940 36.4163
L32.1320 36.4544
" />
<path d="M32.1320 36.4544
L32.2082 36.4925
" />
<path d="M32.2082 36.4925
L32.3987 36.4925
" />
<path d="M32.3987 36.4925
L32.4749 36.4544
" />
<path d="M32.4749 36.4544
L32.5130 36.4163
" />
<path d="M32.5130 36.4163
L32.5511 36.3401
" />
<path d="M32.5511 36.3401
L32.5511 36.1497
" />
<path d="M32.5511 36.1497
L32.5130 36.0735
" />
<path d="M32.5130 36.0735
L32.4749 36.0354
" />
</g></g>
<g style="fill:#585D84; fill-opacity:0.0; 
stroke:#585D84; stroke-width:0.1500; stroke-opacity:1; 
stroke-linecap:round; stroke-linejoin:round;">
<g transform="rotate(-90.000000 34.4250 23.2910)">
<text x="34.4250" y="23.7910"
transform="scale(-1 1) translate(-68.850000 0)"
textLength="1.9369" font-size="1.3333" lengthAdjust="spacingAndGlyphs"
text-anchor="middle" opacity="0">2k</text>
</g>
<g class="stroked-text"><desc>2k</desc>
<path d="M33.9829 22.6005
L33.9352 22.6481
" />
<path d="M33.9352 22.6481
L33.8876 22.7434
" />
<path d="M33.8876 22.7434
L33.8876 22.9815
" />
<path d="M33.8876 22.9815
L33.9352 23.0767
" />
<path d="M33.9352 23.0767
L33.9829 23.1243
" />
<path d="M33.9829 23.1243
L34.0781 23.1720
" />
<path d="M34.0781 23.1720
L34.1733 23.1720
" />
<path d="M34.1733 23.1720
L34.3162 23.1243
" />
<path d="M34.3162 23.1243
L34.8876 22.5529
" />
<path d="M34.8876 22.5529
L34.8876 23.1720
" />
<path d="M34.8876 23.6005
L33.8876 23.6005
" />
<path d="M34.5067 23.6958
L34.8876 23.9815
" />
<path d="M34.2210 23.9815
L34.6019 23.6005
" />
</g></g>
<g style="fill:#585D84; fill-opacity:0.0; 
stroke:#585D84; stroke-width:0.1200; stroke-opacity:1; 
stroke-linecap:round; stroke-linejoin:round;">
<g transform="rotate(-90.000000 36.2450 23.2910)">
<text x="36.2450" y="23.6910"
transform="scale(-1 1) translate(-72.490000 0)"
textLength="2.4638" font-size="1.0667" lengthAdjust="spacingAndGlyphs"
text-anchor="middle" opacity="0">R50</text>
</g>
<g class="stroked-text"><desc>R50</desc>
<path d="M36.6151 22.7767
L36.2341 22.5100
" />
<path d="M36.6151 22.3196
L35.8151 22.3196
" />
<path d="M35.8151 22.3196
L35.8151 22.6243
" />
<path d="M35.8151 22.6243
L35.8532 22.7005
" />
<path d="M35.8532 22.7005
L35.8913 22.7386
" />
<path d="M35.8913 22.7386
L35.9675 22.7767
" />
<path d="M35.9675 22.7767
L36.0818 22.7767
" />
<path d="M36.0818 22.7767
L36.1580 22.7386
" />
<path d="M36.1580 22.7386
L36.1960 22.7005
" />
<path d="M36.1960 22.7005
L36.2341 22.6243
" />
<path d="M36.2341 22.6243
L36.2341 22.3196
" />
<path d="M35.8151 23.5005
L35.8151 23.1196
" />
<path d="M35.8151 23.1196
L36.1960 23.0815
" />
<path d="M36.1960 23.0815
L36.1580 23.1196
" />
<path d="M36.1580 23.1196
L36.1199 23.1958
" />
<path d="M36.1199 23.1958
L36.1199 23.3862
" />
<path d="M36.1199 23.3862
L36.1580 23.4624
" />
<path d="M36.1580 23.4624
L36.1960 23.5005
" />
<path d="M36.1960 23.5005
L36.2722 23.5386
" />
<path d="M36.2722 23.5386
L36.4627 23.5386
" />
<path d="M36.4627 23.5386
L36.5389 23.5005
" />
<path d="M36.5389 23.5005
L36.5770 23.4624
" />
<path d="M36.5770 23.4624
L36.6151 23.3862
" />
<path d="M36.6151 23.3862
L36.6151 23.1958
" />
<path d="M36.6151 23.1958
L36.5770 23.1196
" />
<path d="M36.5770 23.1196
L36.5389 23.0815
" />
<path d="M35.8151 24.0339
L35.8151 24.1100
" />
<path d="M35.8151 24.1100
L35.8532 24.1862
" />
<path d="M35.8532 24.1862
L35.8913 24.2243
" />
<path d="M35.8913 24.2243
L35.9675 24.2624
" />
<path d="M35.9675 24.2624
L36.1199 24.3005
" />
<path d="M36.1199 24.3005
L36.3103 24.3005
" />
<path d="M36.3103 24.3005
L36.4627 24.2624
" />
<path d="M36.4627 24.2624
L36.5389 24.2243
" />
<path d="M36.5389 24.2243
L36.5770 24.1862
" />
<path d="M36.5770 24.1862
L36.6151 24.1100
" />
<path d="M36.6151 24.1100
L36.6151 24.0339
" />
<path d="M36.6151 24.0339
L36.5770 23.9577
" />
<path d="M36.5770 23.9577
L36.5389 23.9196
" />
<path d="M36.5389 23.9196
L36.4627 23.8815
" />
<path d="M36.4627 23.8815
L36.3103 23.8434
" />
<path d="M36.3103 23.8434
L36.1199 23.8434
" />
<path d="M36.1199 23.8434
L35.9675 23.8815
" />
<path d="M35.9675 23.8815
L35.8913 23.9196
" />
<path d="M35.8913 23.9196
L35.8532 23.9577
" />
<path d="M35.8532 23.9577
L35.8151 24.0339
" />
</g></g>
<g style="fill:#585D84; fill-opacity:0.0; 
stroke:#585D84; stroke-width:0.1500; stroke-opacity:1; 
stroke-linecap:round; stroke-linejoin:round;">
<g transform="rotate(-45.000000 42.1691 106.9391)">
<text x="42.1691" y="107.4391"
transform="scale(-1 1) translate(-84.338122 0)"
textLength="3.3655" font-size="1.3333" lengthAdjust="spacingAndGlyphs"
text-anchor="middle" opacity="0">.1uF</text>
</g>
<g class="stroked-text"><desc>.1uF</desc>
<path d="M43.3885 106.2392
L43.3885 106.3065
" />
<path d="M43.3885 106.3065
L43.4558 106.3065
" />
<path d="M43.4558 106.3065
L43.4558 106.2392
" />
<path d="M43.4558 106.2392
L43.3885 106.2392
" />
<path d="M43.3885 106.2392
L43.4558 106.3065
" />
<path d="M42.7487 107.0136
L43.1528 106.6096
" />
<path d="M42.9507 106.8116
L42.2436 106.1045
" />
<path d="M42.2436 106.1045
L42.4120 106.1382
" />
<path d="M42.4120 106.1382
L42.5467 106.1382
" />
<path d="M42.5467 106.1382
L42.6477 106.1045
" />
<path d="M41.6712 107.1483
L42.1426 107.6197
" />
<path d="M41.9743 106.8453
L42.3447 107.2157
" />
<path d="M42.3447 107.2157
L42.3783 107.3167
" />
<path d="M42.3783 107.3167
L42.3447 107.4177
" />
<path d="M42.3447 107.4177
L42.2436 107.5187
" />
<path d="M42.2436 107.5187
L42.1426 107.5524
" />
<path d="M42.1426 107.5524
L42.0753 107.5524
" />
<path d="M41.1998 107.8218
L41.4355 107.5861
" />
<path d="M41.8059 107.9565
L41.0988 107.2493
" />
<path d="M41.0988 107.2493
L40.7621 107.5861
" />
</g></g>
<g style="fill:#585D84; fill-opacity:0.0; 
stroke:#585D84; stroke-width:0.0800; stroke-opacity:1; 
stroke-linecap:round; stroke-linejoin:round;">
<g transform="rotate(-45.000000 43.3570 108.1270)">
<text x="43.3570" y="108.3770"
transform="scale(-1 1) translate(-86.714000 0)"
textLength="1.0762" font-size="0.6667" lengthAdjust="spacingAndGlyphs"
text-anchor="middle" opacity="0">C2</text>
</g>
<g class="stroked-text"><desc>C2</desc>
<path d="M43.5458 108.1980
L43.5795 108.1980
" />
<path d="M43.5795 108.1980
L43.6468 108.1643
" />
<path d="M43.6468 108.1643
L43.6805 108.1306
" />
<path d="M43.6805 108.1306
L43.7142 108.0633
" />
<path d="M43.7142 108.0633
L43.7142 107.9959
" />
<path d="M43.7142 107.9959
L43.6973 107.9454
" />
<path d="M43.6973 107.9454
L43.6468 107.8612
" />
<path d="M43.6468 107.8612
L43.5963 107.8107
" />
<path d="M43.5963 107.8107
L43.5121 107.7602
" />
<path d="M43.5121 107.7602
L43.4616 107.7434
" />
<path d="M43.4616 107.7434
L43.3943 107.7434
" />
<path d="M43.3943 107.7434
L43.3269 107.7771
" />
<path d="M43.3269 107.7771
L43.2933 107.8107
" />
<path d="M43.2933 107.8107
L43.2596 107.8781
" />
<path d="M43.2596 107.8781
L43.2596 107.9118
" />
<path d="M43.1249 108.0464
L43.0912 108.0464
" />
<path d="M43.0912 108.0464
L43.0407 108.0633
" />
<path d="M43.0407 108.0633
L42.9566 108.1475
" />
<path d="M42.9566 108.1475
L42.9397 108.1980
" />
<path d="M42.9397 108.1980
L42.9397 108.2316
" />
<path d="M42.9397 108.2316
L42.9566 108.2821
" />
<path d="M42.9566 108.2821
L42.9902 108.3158
" />
<path d="M42.9902 108.3158
L43.0576 108.3495
" />
<path d="M43.0576 108.3495
L43.4616 108.3495
" />
<path d="M43.4616 108.3495
L43.2428 108.5684
" />
</g></g>
<g style="fill:#585D84; fill-opacity:0.0; 
stroke:#585D84; stroke-width:0.1500; stroke-opacity:1; 
stroke-linecap:round; stroke-linejoin:round;">
<g transform="rotate(-90.000000 30.2340 11.4800)">
<text x="30.2340" y="11.9800"
transform="scale(-1 1) translate(-60.468000 0)"
textLength="1.9369" font-size="1.3333" lengthAdjust="spacingAndGlyphs"
text-anchor="middle" opacity="0">1k</text>
</g>
<g class="stroked-text"><desc>1k</desc>
<path d="M30.6966 11.3610
L30.6966 10.7895
" />
<path d="M30.6966 11.0752
L29.6966 11.0752
" />
<path d="M29.6966 11.0752
L29.8395 10.9800
" />
<path d="M29.8395 10.9800
L29.9347 10.8848
" />
<path d="M29.9347 10.8848
L29.9823 10.7895
" />
<path d="M30.6966 11.7895
L29.6966 11.7895
" />
<path d="M30.3157 11.8848
L30.6966 12.1705
" />
<path d="M30.0300 12.1705
L30.4109 11.7895
" />
</g></g>
<g style="fill:#585D84; fill-opacity:0.0; 
stroke:#585D84; stroke-width:0.1200; stroke-opacity:1; 
stroke-linecap:round; stroke-linejoin:round;">
<g transform="rotate(-90.000000 32.0540 11.4800)">
<text x="32.0540" y="11.8800"
transform="scale(-1 1) translate(-64.108000 0)"
textLength="2.4638" font-size="1.0667" lengthAdjust="spacingAndGlyphs"
text-anchor="middle" opacity="0">R38</text>
</g>
<g class="stroked-text"><desc>R38</desc>
<path d="M32.4241 10.9657
L32.0431 10.6990
" />
<path d="M32.4241 10.5086
L31.6241 10.5086
" />
<path d="M31.6241 10.5086
L31.6241 10.8133
" />
<path d="M31.6241 10.8133
L31.6622 10.8895
" />
<path d="M31.6622 10.8895
L31.7003 10.9276
" />
<path d="M31.7003 10.9276
L31.7765 10.9657
" />
<path d="M31.7765 10.9657
L31.8908 10.9657
" />
<path d="M31.8908 10.9657
L31.9670 10.9276
" />
<path d="M31.9670 10.9276
L32.0050 10.8895
" />
<path d="M32.0050 10.8895
L32.0431 10.8133
" />
<path d="M32.0431 10.8133
L32.0431 10.5086
" />
<path d="M31.6241 11.2324
L31.6241 11.7276
" />
<path d="M31.6241 11.7276
L31.9289 11.4610
" />
<path d="M31.9289 11.4610
L31.9289 11.5752
" />
<path d="M31.9289 11.5752
L31.9670 11.6514
" />
<path d="M31.9670 11.6514
L32.0050 11.6895
" />
<path d="M32.0050 11.6895
L32.0812 11.7276
" />
<path d="M32.0812 11.7276
L32.2717 11.7276
" />
<path d="M32.2717 11.7276
L32.3479 11.6895
" />
<path d="M32.3479 11.6895
L32.3860 11.6514
" />
<path d="M32.3860 11.6514
L32.4241 11.5752
" />
<path d="M32.4241 11.5752
L32.4241 11.3467
" />
<path d="M32.4241 11.3467
L32.3860 11.2705
" />
<path d="M32.3860 11.2705
L32.3479 11.2324
" />
<path d="M31.9670 12.1848
L31.9289 12.1086
" />
<path d="M31.9289 12.1086
L31.8908 12.0705
" />
<path d="M31.8908 12.0705
L31.8146 12.0324
" />
<path d="M31.8146 12.0324
L31.7765 12.0324
" />
<path d="M31.7765 12.0324
L31.7003 12.0705
" />
<path d="M31.7003 12.0705
L31.6622 12.1086
" />
<path d="M31.6622 12.1086
L31.6241 12.1848
" />
<path d="M31.6241 12.1848
L31.6241 12.3371
" />
<path d="M31.6241 12.3371
L31.6622 12.4133
" />
<path d="M31.6622 12.4133
L31.7003 12.4514
" />
<path d="M31.7003 12.4514
L31.7765 12.4895
" />
<path d="M31.7765 12.4895
L31.8146 12.4895
" />
<path d="M31.8146 12.4895
L31.8908 12.4514
" />
<path d="M31.8908 12.4514
L31.9289 12.4133
" />
<path d="M31.9289 12.4133
L31.9670 12.3371
" />
<path d="M31.9670 12.3371
L31.9670 12.1848
" />
<path d="M31.9670 12.1848
L32.0050 12.1086
" />
<path d="M32.0050 12.1086
L32.0431 12.0705
" />
<path d="M32.0431 12.0705
L32.1193 12.0324
" />
<path d="M32.1193 12.0324
L32.2717 12.0324
" />
<path d="M32.2717 12.0324
L32.3479 12.0705
" />
<path d="M32.3479 12.0705
L32.3860 12.1086
" />
<path d="M32.3860 12.1086
L32.4241 12.1848
" />
<path d="M32.4241 12.1848
L32.4241 12.3371
" />
<path d="M32.4241 12.3371
L32.3860 12.4133
" />
<path d="M32.3860 12.4133
L32.3479 12.4514
" />
<path d="M32.3479 12.4514
L32.2717 12.4895
" />
<path d="M32.2717 12.4895
L32.1193 12.4895
" />
<path d="M32.1193 12.4895
L32.0431 12.4514
" />
<path d="M32.0431 12.4514
L32.0050 12.4133
" />
<path d="M32.0050 12.4133
L31.9670 12.3371
" />
</g></g>
<g style="fill:#585D84; fill-opacity:0.0; 
stroke:#585D84; stroke-width:0.1500; stroke-opacity:1; 
stroke-linecap:round; stroke-linejoin:round;">
<g transform="rotate(-90.000000 14.8670 10.8710)">
<text x="14.8670" y="11.3710"
transform="scale(-1 1) translate(-29.734000 0)"
textLength="1.9369" font-size="1.3333" lengthAdjust="spacingAndGlyphs"
text-anchor="middle" opacity="0">1k</text>
</g>
<g class="stroked-text"><desc>1k</desc>
<path d="M15.3296 10.7520
L15.3296 10.1805
" />
<path d="M15.3296 10.4662
L14.3296 10.4662
" />
<path d="M14.3296 10.4662
L14.4725 10.3710
" />
<path d="M14.4725 10.3710
L14.5677 10.2758
" />
<path d="M14.5677 10.2758
L14.6153 10.1805
" />
<path d="M15.3296 11.1805
L14.3296 11.1805
" />
<path d="M14.9487 11.2758
L15.3296 11.5615
" />
<path d="M14.6630 11.5615
L15.0439 11.1805
" />
</g></g>
<g style="fill:#585D84; fill-opacity:0.0; 
stroke:#585D84; stroke-width:0.1200; stroke-opacity:1; 
stroke-linecap:round; stroke-linejoin:round;">
<g transform="rotate(-90.000000 16.6870 10.8710)">
<text x="16.6870" y="11.2710"
transform="scale(-1 1) translate(-33.374000 0)"
textLength="2.4638" font-size="1.0667" lengthAdjust="spacingAndGlyphs"
text-anchor="middle" opacity="0">R48</text>
</g>
<g class="stroked-text"><desc>R48</desc>
<path d="M17.0571 10.3567
L16.6761 10.0900
" />
<path d="M17.0571 9.8996
L16.2571 9.8996
" />
<path d="M16.2571 9.8996
L16.2571 10.2043
" />
<path d="M16.2571 10.2043
L16.2952 10.2805
" />
<path d="M16.2952 10.2805
L16.3333 10.3186
" />
<path d="M16.3333 10.3186
L16.4095 10.3567
" />
<path d="M16.4095 10.3567
L16.5238 10.3567
" />
<path d="M16.5238 10.3567
L16.6000 10.3186
" />
<path d="M16.6000 10.3186
L16.6380 10.2805
" />
<path d="M16.6380 10.2805
L16.6761 10.2043
" />
<path d="M16.6761 10.2043
L16.6761 9.8996
" />
<path d="M16.5238 11.0424
L17.0571 11.0424
" />
<path d="M16.2190 10.8520
L16.7904 10.6615
" />
<path d="M16.7904 10.6615
L16.7904 11.1567
" />
<path d="M16.6000 11.5758
L16.5619 11.4996
" />
<path d="M16.5619 11.4996
L16.5238 11.4615
" />
<path d="M16.5238 11.4615
L16.4476 11.4234
" />
<path d="M16.4476 11.4234
L16.4095 11.4234
" />
<path d="M16.4095 11.4234
L16.3333 11.4615
" />
<path d="M16.3333 11.4615
L16.2952 11.4996
" />
<path d="M16.2952 11.4996
L16.2571 11.5758
" />
<path d="M16.2571 11.5758
L16.2571 11.7281
" />
<path d="M16.2571 11.7281
L16.2952 11.8043
" />
<path d="M16.2952 11.8043
L16.3333 11.8424
" />
<path d="M16.3333 11.8424
L16.4095 11.8805
" />
<path d="M16.4095 11.8805
L16.4476 11.8805
" />
<path d="M16.4476 11.8805
L16.5238 11.8424
" />
<path d="M16.5238 11.8424
L16.5619 11.8043
" />
<path d="M16.5619 11.8043
L16.6000 11.7281
" />
<path d="M16.6000 11.7281
L16.6000 11.5758
" />
<path d="M16.6000 11.5758
L16.6380 11.4996
" />
<path d="M16.6380 11.4996
L16.6761 11.4615
" />
<path d="M16.6761 11.4615
L16.7523 11.4234
" />
<path d="M16.7523 11.4234
L16.9047 11.4234
" />
<path d="M16.9047 11.4234
L16.9809 11.4615
" />
<path d="M16.9809 11.4615
L17.0190 11.4996
" />
<path d="M17.0190 11.4996
L17.0571 11.5758
" />
<path d="M17.0571 11.5758
L17.0571 11.7281
" />
<path d="M17.0571 11.7281
L17.0190 11.8043
" />
<path d="M17.0190 11.8043
L16.9809 11.8424
" />
<path d="M16.9809 11.8424
L16.9047 11.8805
" />
<path d="M16.9047 11.8805
L16.7523 11.8805
" />
<path d="M16.7523 11.8805
L16.6761 11.8424
" />
<path d="M16.6761 11.8424
L16.6380 11.8043
" />
<path d="M16.6380 11.8043
L16.6000 11.7281
" />
</g></g>
<g style="fill:#585D84; fill-opacity:0.0; 
stroke:#585D84; stroke-width:0.1500; stroke-opacity:1; 
stroke-linecap:round; stroke-linejoin:round;">
<g transform="rotate(-90.000000 30.3610 60.4010)">
<text x="30.3610" y="60.9010"
transform="scale(-1 1) translate(-60.722000 0)"
textLength="1.9369" font-size="1.3333" lengthAdjust="spacingAndGlyphs"
text-anchor="middle" opacity="0">1k</text>
</g>
<g class="stroked-text"><desc>1k</desc>
<path d="M30.8236 60.2820
L30.8236 59.7105
" />
<path d="M30.8236 59.9962
L29.8236 59.9962
" />
<path d="M29.8236 59.9962
L29.9665 59.9010
" />
<path d="M29.9665 59.9010
L30.0617 59.8058
" />
<path d="M30.0617 59.8058
L30.1093 59.7105
" />
<path d="M30.8236 60.7105
L29.8236 60.7105
" />
<path d="M30.4427 60.8058
L30.8236 61.0915
" />
<path d="M30.1570 61.0915
L30.5379 60.7105
" />
</g></g>
<g style="fill:#585D84; fill-opacity:0.0; 
stroke:#585D84; stroke-width:0.1200; stroke-opacity:1; 
stroke-linecap:round; stroke-linejoin:round;">
<g transform="rotate(-90.000000 32.1810 60.4010)">
<text x="32.1810" y="60.8010"
transform="scale(-1 1) translate(-64.362000 0)"
textLength="2.4638" font-size="1.0667" lengthAdjust="spacingAndGlyphs"
text-anchor="middle" opacity="0">R47</text>
</g>
<g class="stroked-text"><desc>R47</desc>
<path d="M32.5511 59.8867
L32.1701 59.6200
" />
<path d="M32.5511 59.4296
L31.7511 59.4296
" />
<path d="M31.7511 59.4296
L31.7511 59.7343
" />
<path d="M31.7511 59.7343
L31.7892 59.8105
" />
<path d="M31.7892 59.8105
L31.8273 59.8486
" />
<path d="M31.8273 59.8486
L31.9035 59.8867
" />
<path d="M31.9035 59.8867
L32.0178 59.8867
" />
<path d="M32.0178 59.8867
L32.0940 59.8486
" />
<path d="M32.0940 59.8486
L32.1320 59.8105
" />
<path d="M32.1320 59.8105
L32.1701 59.7343
" />
<path d="M32.1701 59.7343
L32.1701 59.4296
" />
<path d="M32.0178 60.5724
L32.5511 60.5724
" />
<path d="M31.7130 60.3820
L32.2844 60.1915
" />
<path d="M32.2844 60.1915
L32.2844 60.6867
" />
<path d="M31.7511 60.9153
L31.7511 61.4486
" />
<path d="M31.7511 61.4486
L32.5511 61.1058
" />
</g></g>
<g style="fill:#585D84; fill-opacity:0.0; 
stroke:#585D84; stroke-width:0.1500; stroke-opacity:1; 
stroke-linecap:round; stroke-linejoin:round;">
<g transform="rotate(45.000000 52.6729 101.6051)">
<text x="52.6729" y="102.1051"
transform="scale(-1 1) translate(-105.345878 0)"
textLength="3.3655" font-size="1.3333" lengthAdjust="spacingAndGlyphs"
text-anchor="middle" opacity="0">.1uF</text>
</g>
<g class="stroked-text"><desc>.1uF</desc>
<path d="M53.3728 102.8245
L53.3055 102.8245
" />
<path d="M53.3055 102.8245
L53.3055 102.8918
" />
<path d="M53.3055 102.8918
L53.3728 102.8918
" />
<path d="M53.3728 102.8918
L53.3728 102.8245
" />
<path d="M53.3728 102.8245
L53.3055 102.8918
" />
<path d="M52.5984 102.1847
L53.0024 102.5888
" />
<path d="M52.8004 102.3867
L53.5075 101.6796
" />
<path d="M53.5075 101.6796
L53.4738 101.8480
" />
<path d="M53.4738 101.8480
L53.4738 101.9827
" />
<path d="M53.4738 101.9827
L53.5075 102.0837
" />
<path d="M52.4637 101.1072
L51.9923 101.5786
" />
<path d="M52.7667 101.4103
L52.3963 101.7807
" />
<path d="M52.3963 101.7807
L52.2953 101.8143
" />
<path d="M52.2953 101.8143
L52.1943 101.7807
" />
<path d="M52.1943 101.7807
L52.0933 101.6796
" />
<path d="M52.0933 101.6796
L52.0596 101.5786
" />
<path d="M52.0596 101.5786
L52.0596 101.5113
" />
<path d="M51.7902 100.6358
L52.0259 100.8715
" />
<path d="M51.6555 101.2419
L52.3627 100.5348
" />
<path d="M52.3627 100.5348
L52.0259 100.1981
" />
</g></g>
<g style="fill:#585D84; fill-opacity:0.0; 
stroke:#585D84; stroke-width:0.0800; stroke-opacity:1; 
stroke-linecap:round; stroke-linejoin:round;">
<g transform="rotate(45.000000 51.4850 102.7930)">
<text x="51.4850" y="103.0430"
transform="scale(-1 1) translate(-102.970000 0)"
textLength="1.0762" font-size="0.6667" lengthAdjust="spacingAndGlyphs"
text-anchor="middle" opacity="0">C5</text>
</g>
<g class="stroked-text"><desc>C5</desc>
<path d="M51.4140 102.9818
L51.4140 103.0155
" />
<path d="M51.4140 103.0155
L51.4477 103.0828
" />
<path d="M51.4477 103.0828
L51.4814 103.1165
" />
<path d="M51.4814 103.1165
L51.5487 103.1502
" />
<path d="M51.5487 103.1502
L51.6161 103.1502
" />
<path d="M51.6161 103.1502
L51.6666 103.1333
" />
<path d="M51.6666 103.1333
L51.7508 103.0828
" />
<path d="M51.7508 103.0828
L51.8013 103.0323
" />
<path d="M51.8013 103.0323
L51.8518 102.9481
" />
<path d="M51.8518 102.9481
L51.8686 102.8976
" />
<path d="M51.8686 102.8976
L51.8686 102.8303
" />
<path d="M51.8686 102.8303
L51.8349 102.7629
" />
<path d="M51.8349 102.7629
L51.8013 102.7293
" />
<path d="M51.8013 102.7293
L51.7339 102.6956
" />
<path d="M51.7339 102.6956
L51.7002 102.6956
" />
<path d="M51.4140 102.3421
L51.5824 102.5104
" />
<path d="M51.5824 102.5104
L51.4309 102.6956
" />
<path d="M51.4309 102.6956
L51.4309 102.6619
" />
<path d="M51.4309 102.6619
L51.4140 102.6114
" />
<path d="M51.4140 102.6114
L51.3299 102.5272
" />
<path d="M51.3299 102.5272
L51.2793 102.5104
" />
<path d="M51.2793 102.5104
L51.2457 102.5104
" />
<path d="M51.2457 102.5104
L51.1952 102.5272
" />
<path d="M51.1952 102.5272
L51.1110 102.6114
" />
<path d="M51.1110 102.6114
L51.0942 102.6619
" />
<path d="M51.0942 102.6619
L51.0942 102.6956
" />
<path d="M51.0942 102.6956
L51.1110 102.7461
" />
<path d="M51.1110 102.7461
L51.1952 102.8303
" />
<path d="M51.1952 102.8303
L51.2457 102.8471
" />
<path d="M51.2457 102.8471
L51.2793 102.8471
" />
</g></g>
<g style="fill:#585D84; fill-opacity:0.0; 
stroke:#585D84; stroke-width:0.1500; stroke-opacity:1; 
stroke-linecap:round; stroke-linejoin:round;">
<g transform="rotate(-90.000000 30.4880 47.8020)">
<text x="30.4880" y="48.3020"
transform="scale(-1 1) translate(-60.976000 0)"
textLength="1.9369" font-size="1.3333" lengthAdjust="spacingAndGlyphs"
text-anchor="middle" opacity="0">1k</text>
</g>
<g class="stroked-text"><desc>1k</desc>
<path d="M30.9506 47.6830
L30.9506 47.1115
" />
<path d="M30.9506 47.3972
L29.9506 47.3972
" />
<path d="M29.9506 47.3972
L30.0935 47.3020
" />
<path d="M30.0935 47.3020
L30.1887 47.2068
" />
<path d="M30.1887 47.2068
L30.2363 47.1115
" />
<path d="M30.9506 48.1115
L29.9506 48.1115
" />
<path d="M30.5697 48.2068
L30.9506 48.4925
" />
<path d="M30.2840 48.4925
L30.6649 48.1115
" />
</g></g>
<g style="fill:#585D84; fill-opacity:0.0; 
stroke:#585D84; stroke-width:0.1200; stroke-opacity:1; 
stroke-linecap:round; stroke-linejoin:round;">
<g transform="rotate(-90.000000 32.3080 47.8020)">
<text x="32.3080" y="48.2020"
transform="scale(-1 1) translate(-64.616000 0)"
textLength="2.4638" font-size="1.0667" lengthAdjust="spacingAndGlyphs"
text-anchor="middle" opacity="0">R46</text>
</g>
<g class="stroked-text"><desc>R46</desc>
<path d="M32.6781 47.2877
L32.2971 47.0210
" />
<path d="M32.6781 46.8306
L31.8781 46.8306
" />
<path d="M31.8781 46.8306
L31.8781 47.1353
" />
<path d="M31.8781 47.1353
L31.9162 47.2115
" />
<path d="M31.9162 47.2115
L31.9543 47.2496
" />
<path d="M31.9543 47.2496
L32.0305 47.2877
" />
<path d="M32.0305 47.2877
L32.1448 47.2877
" />
<path d="M32.1448 47.2877
L32.2210 47.2496
" />
<path d="M32.2210 47.2496
L32.2590 47.2115
" />
<path d="M32.2590 47.2115
L32.2971 47.1353
" />
<path d="M32.2971 47.1353
L32.2971 46.8306
" />
<path d="M32.1448 47.9734
L32.6781 47.9734
" />
<path d="M31.8400 47.7830
L32.4114 47.5925
" />
<path d="M32.4114 47.5925
L32.4114 48.0877
" />
<path d="M31.8781 48.7353
L31.8781 48.5830
" />
<path d="M31.8781 48.5830
L31.9162 48.5068
" />
<path d="M31.9162 48.5068
L31.9543 48.4687
" />
<path d="M31.9543 48.4687
L32.0686 48.3925
" />
<path d="M32.0686 48.3925
L32.2210 48.3544
" />
<path d="M32.2210 48.3544
L32.5257 48.3544
" />
<path d="M32.5257 48.3544
L32.6019 48.3925
" />
<path d="M32.6019 48.3925
L32.6400 48.4306
" />
<path d="M32.6400 48.4306
L32.6781 48.5068
" />
<path d="M32.6781 48.5068
L32.6781 48.6591
" />
<path d="M32.6781 48.6591
L32.6400 48.7353
" />
<path d="M32.6400 48.7353
L32.6019 48.7734
" />
<path d="M32.6019 48.7734
L32.5257 48.8115
" />
<path d="M32.5257 48.8115
L32.3352 48.8115
" />
<path d="M32.3352 48.8115
L32.2590 48.7734
" />
<path d="M32.2590 48.7734
L32.2210 48.7353
" />
<path d="M32.2210 48.7353
L32.1829 48.6591
" />
<path d="M32.1829 48.6591
L32.1829 48.5068
" />
<path d="M32.1829 48.5068
L32.2210 48.4306
" />
<path d="M32.2210 48.4306
L32.2590 48.3925
" />
<path d="M32.2590 48.3925
L32.3352 48.3544
" />
</g></g>
<g style="fill:#585D84; fill-opacity:0.0; 
stroke:#585D84; stroke-width:0.1500; stroke-opacity:1; 
stroke-linecap:round; stroke-linejoin:round;">
<g transform="rotate(-45.000000 54.1520 113.5880)">
<text x="54.1520" y="114.0880"
transform="scale(-1 1) translate(-108.304000 0)"
textLength="3.3655" font-size="1.3333" lengthAdjust="spacingAndGlyphs"
text-anchor="middle" opacity="0">.1uF</text>
</g>
<g class="stroked-text"><desc>.1uF</desc>
<path d="M55.3714 112.8881
L55.3714 112.9555
" />
<path d="M55.3714 112.9555
L55.4388 112.9555
" />
<path d="M55.4388 112.9555
L55.4388 112.8881
" />
<path d="M55.4388 112.8881
L55.3714 112.8881
" />
<path d="M55.3714 112.8881
L55.4388 112.9555
" />
<path d="M54.7317 113.6626
L55.1357 113.2585
" />
<path d="M54.9337 113.4606
L54.2266 112.7534
" />
<path d="M54.2266 112.7534
L54.3949 112.7871
" />
<path d="M54.3949 112.7871
L54.5296 112.7871
" />
<path d="M54.5296 112.7871
L54.6306 112.7534
" />
<path d="M53.6542 113.7973
L54.1256 114.2687
" />
<path d="M53.9572 113.4942
L54.3276 113.8646
" />
<path d="M54.3276 113.8646
L54.3613 113.9656
" />
<path d="M54.3613 113.9656
L54.3276 114.0666
" />
<path d="M54.3276 114.0666
L54.2266 114.1677
" />
<path d="M54.2266 114.1677
L54.1256 114.2013
" />
<path d="M54.1256 114.2013
L54.0582 114.2013
" />
<path d="M53.1828 114.4707
L53.4185 114.2350
" />
<path d="M53.7888 114.6054
L53.0817 113.8983
" />
<path d="M53.0817 113.8983
L52.7450 114.2350
" />
</g></g>
<g style="fill:#585D84; fill-opacity:0.0; 
stroke:#585D84; stroke-width:0.0800; stroke-opacity:1; 
stroke-linecap:round; stroke-linejoin:round;">
<g transform="rotate(-45.000000 56.3110 111.4290)">
<text x="56.3110" y="111.6790"
transform="scale(-1 1) translate(-112.622000 0)"
textLength="1.0762" font-size="0.6667" lengthAdjust="spacingAndGlyphs"
text-anchor="middle" opacity="0">C6</text>
</g>
<g class="stroked-text"><desc>C6</desc>
<path d="M56.4998 111.5000
L56.5335 111.5000
" />
<path d="M56.5335 111.5000
L56.6008 111.4663
" />
<path d="M56.6008 111.4663
L56.6345 111.4326
" />
<path d="M56.6345 111.4326
L56.6682 111.3653
" />
<path d="M56.6682 111.3653
L56.6682 111.2979
" />
<path d="M56.6682 111.2979
L56.6513 111.2474
" />
<path d="M56.6513 111.2474
L56.6008 111.1632
" />
<path d="M56.6008 111.1632
L56.5503 111.1127
" />
<path d="M56.5503 111.1127
L56.4661 111.0622
" />
<path d="M56.4661 111.0622
L56.4156 111.0454
" />
<path d="M56.4156 111.0454
L56.3483 111.0454
" />
<path d="M56.3483 111.0454
L56.2809 111.0791
" />
<path d="M56.2809 111.0791
L56.2473 111.1127
" />
<path d="M56.2473 111.1127
L56.2136 111.1801
" />
<path d="M56.2136 111.1801
L56.2136 111.2138
" />
<path d="M55.8769 111.4831
L55.9442 111.4158
" />
<path d="M55.9442 111.4158
L55.9947 111.3989
" />
<path d="M55.9947 111.3989
L56.0284 111.3989
" />
<path d="M56.0284 111.3989
L56.1126 111.4158
" />
<path d="M56.1126 111.4158
L56.1968 111.4663
" />
<path d="M56.1968 111.4663
L56.3315 111.6010
" />
<path d="M56.3315 111.6010
L56.3483 111.6515
" />
<path d="M56.3483 111.6515
L56.3483 111.6852
" />
<path d="M56.3483 111.6852
L56.3315 111.7357
" />
<path d="M56.3315 111.7357
L56.2641 111.8030
" />
<path d="M56.2641 111.8030
L56.2136 111.8198
" />
<path d="M56.2136 111.8198
L56.1799 111.8198
" />
<path d="M56.1799 111.8198
L56.1294 111.8030
" />
<path d="M56.1294 111.8030
L56.0452 111.7188
" />
<path d="M56.0452 111.7188
L56.0284 111.6683
" />
<path d="M56.0284 111.6683
L56.0284 111.6346
" />
<path d="M56.0284 111.6346
L56.0452 111.5841
" />
<path d="M56.0452 111.5841
L56.1126 111.5168
" />
<path d="M56.1126 111.5168
L56.1631 111.5000
" />
<path d="M56.1631 111.5000
L56.1968 111.5000
" />
<path d="M56.1968 111.5000
L56.2473 111.5168
" />
</g></g>
<g style="fill:#585D84; fill-opacity:0.0; 
stroke:#585D84; stroke-width:0.1500; stroke-opacity:1; 
stroke-linecap:round; stroke-linejoin:round;">
<g transform="rotate(-90.000000 34.6790 60.3750)">
<text x="34.6790" y="60.8750"
transform="scale(-1 1) translate(-69.358000 0)"
textLength="1.9369" font-size="1.3333" lengthAdjust="spacingAndGlyphs"
text-anchor="middle" opacity="0">2k</text>
</g>
<g class="stroked-text"><desc>2k</desc>
<path d="M34.2369 59.6845
L34.1892 59.7321
" />
<path d="M34.1892 59.7321
L34.1416 59.8274
" />
<path d="M34.1416 59.8274
L34.1416 60.0655
" />
<path d="M34.1416 60.0655
L34.1892 60.1607
" />
<path d="M34.1892 60.1607
L34.2369 60.2083
" />
<path d="M34.2369 60.2083
L34.3321 60.2560
" />
<path d="M34.3321 60.2560
L34.4273 60.2560
" />
<path d="M34.4273 60.2560
L34.5702 60.2083
" />
<path d="M34.5702 60.2083
L35.1416 59.6369
" />
<path d="M35.1416 59.6369
L35.1416 60.2560
" />
<path d="M35.1416 60.6845
L34.1416 60.6845
" />
<path d="M34.7607 60.7798
L35.1416 61.0655
" />
<path d="M34.4750 61.0655
L34.8559 60.6845
" />
</g></g>
<g style="fill:#585D84; fill-opacity:0.0; 
stroke:#585D84; stroke-width:0.1200; stroke-opacity:1; 
stroke-linecap:round; stroke-linejoin:round;">
<g transform="rotate(-90.000000 36.4990 60.3750)">
<text x="36.4990" y="60.7750"
transform="scale(-1 1) translate(-72.998000 0)"
textLength="2.4638" font-size="1.0667" lengthAdjust="spacingAndGlyphs"
text-anchor="middle" opacity="0">R55</text>
</g>
<g class="stroked-text"><desc>R55</desc>
<path d="M36.8691 59.8607
L36.4881 59.5940
" />
<path d="M36.8691 59.4036
L36.0691 59.4036
" />
<path d="M36.0691 59.4036
L36.0691 59.7083
" />
<path d="M36.0691 59.7083
L36.1072 59.7845
" />
<path d="M36.1072 59.7845
L36.1453 59.8226
" />
<path d="M36.1453 59.8226
L36.2215 59.8607
" />
<path d="M36.2215 59.8607
L36.3358 59.8607
" />
<path d="M36.3358 59.8607
L36.4120 59.8226
" />
<path d="M36.4120 59.8226
L36.4500 59.7845
" />
<path d="M36.4500 59.7845
L36.4881 59.7083
" />
<path d="M36.4881 59.7083
L36.4881 59.4036
" />
<path d="M36.0691 60.5845
L36.0691 60.2036
" />
<path d="M36.0691 60.2036
L36.4500 60.1655
" />
<path d="M36.4500 60.1655
L36.4120 60.2036
" />
<path d="M36.4120 60.2036
L36.3739 60.2798
" />
<path d="M36.3739 60.2798
L36.3739 60.4702
" />
<path d="M36.3739 60.4702
L36.4120 60.5464
" />
<path d="M36.4120 60.5464
L36.4500 60.5845
" />
<path d="M36.4500 60.5845
L36.5262 60.6226
" />
<path d="M36.5262 60.6226
L36.7167 60.6226
" />
<path d="M36.7167 60.6226
L36.7929 60.5845
" />
<path d="M36.7929 60.5845
L36.8310 60.5464
" />
<path d="M36.8310 60.5464
L36.8691 60.4702
" />
<path d="M36.8691 60.4702
L36.8691 60.2798
" />
<path d="M36.8691 60.2798
L36.8310 60.2036
" />
<path d="M36.8310 60.2036
L36.7929 60.1655
" />
<path d="M36.0691 61.3464
L36.0691 60.9655
" />
<path d="M36.0691 60.9655
L36.4500 60.9274
" />
<path d="M36.4500 60.9274
L36.4120 60.9655
" />
<path d="M36.4120 60.9655
L36.3739 61.0417
" />
<path d="M36.3739 61.0417
L36.3739 61.2321
" />
<path d="M36.3739 61.2321
L36.4120 61.3083
" />
<path d="M36.4120 61.3083
L36.4500 61.3464
" />
<path d="M36.4500 61.3464
L36.5262 61.3845
" />
<path d="M36.5262 61.3845
L36.7167 61.3845
" />
<path d="M36.7167 61.3845
L36.7929 61.3464
" />
<path d="M36.7929 61.3464
L36.8310 61.3083
" />
<path d="M36.8310 61.3083
L36.8691 61.2321
" />
<path d="M36.8691 61.2321
L36.8691 61.0417
" />
<path d="M36.8691 61.0417
L36.8310 60.9655
" />
<path d="M36.8310 60.9655
L36.7929 60.9274
" />
</g></g>
<g style="fill:#585D84; fill-opacity:0.0; 
stroke:#585D84; stroke-width:0.1500; stroke-opacity:1; 
stroke-linecap:round; stroke-linejoin:round;">
<text x="32.4350" y="165.3110"
transform="scale(-1 1) translate(-64.870000 0)"
textLength="1.9369" font-size="1.3333" lengthAdjust="spacingAndGlyphs"
text-anchor="middle" opacity="0">1k</text>
<g class="stroked-text"><desc>1k</desc>
<path d="M32.5540 165.2736
L33.1255 165.2736
" />
<path d="M32.8398 165.2736
L32.8398 164.2736
" />
<path d="M32.8398 164.2736
L32.9350 164.4165
" />
<path d="M32.9350 164.4165
L33.0302 164.5117
" />
<path d="M33.0302 164.5117
L33.1255 164.5593
" />
<path d="M32.1255 165.2736
L32.1255 164.2736
" />
<path d="M32.0302 164.8927
L31.7445 165.2736
" />
<path d="M31.7445 164.6070
L32.1255 164.9879
" />
</g></g>
<g style="fill:#585D84; fill-opacity:0.0; 
stroke:#585D84; stroke-width:0.1200; stroke-opacity:1; 
stroke-linecap:round; stroke-linejoin:round;">
<text x="32.4350" y="163.3910"
transform="scale(-1 1) translate(-64.870000 0)"
textLength="2.4638" font-size="1.0667" lengthAdjust="spacingAndGlyphs"
text-anchor="middle" opacity="0">R32</text>
<g class="stroked-text"><desc>R32</desc>
<path d="M32.9493 163.3611
L33.2160 162.9801
" />
<path d="M33.4064 163.3611
L33.4064 162.5611
" />
<path d="M33.4064 162.5611
L33.1017 162.5611
" />
<path d="M33.1017 162.5611
L33.0255 162.5992
" />
<path d="M33.0255 162.5992
L32.9874 162.6373
" />
<path d="M32.9874 162.6373
L32.9493 162.7135
" />
<path d="M32.9493 162.7135
L32.9493 162.8278
" />
<path d="M32.9493 162.8278
L32.9874 162.9040
" />
<path d="M32.9874 162.9040
L33.0255 162.9420
" />
<path d="M33.0255 162.9420
L33.1017 162.9801
" />
<path d="M33.1017 162.9801
L33.4064 162.9801
" />
<path d="M32.6826 162.5611
L32.1874 162.5611
" />
<path d="M32.1874 162.5611
L32.4540 162.8659
" />
<path d="M32.4540 162.8659
L32.3398 162.8659
" />
<path d="M32.3398 162.8659
L32.2636 162.9040
" />
<path d="M32.2636 162.9040
L32.2255 162.9420
" />
<path d="M32.2255 162.9420
L32.1874 163.0182
" />
<path d="M32.1874 163.0182
L32.1874 163.2087
" />
<path d="M32.1874 163.2087
L32.2255 163.2849
" />
<path d="M32.2255 163.2849
L32.2636 163.3230
" />
<path d="M32.2636 163.3230
L32.3398 163.3611
" />
<path d="M32.3398 163.3611
L32.5683 163.3611
" />
<path d="M32.5683 163.3611
L32.6445 163.3230
" />
<path d="M32.6445 163.3230
L32.6826 163.2849
" />
<path d="M31.8826 162.6373
L31.8445 162.5992
" />
<path d="M31.8445 162.5992
L31.7683 162.5611
" />
<path d="M31.7683 162.5611
L31.5779 162.5611
" />
<path d="M31.5779 162.5611
L31.5017 162.5992
" />
<path d="M31.5017 162.5992
L31.4636 162.6373
" />
<path d="M31.4636 162.6373
L31.4255 162.7135
" />
<path d="M31.4255 162.7135
L31.4255 162.7897
" />
<path d="M31.4255 162.7897
L31.4636 162.9040
" />
<path d="M31.4636 162.9040
L31.9207 163.3611
" />
<path d="M31.9207 163.3611
L31.4255 163.3611
" />
</g></g>
<g style="fill:#585D84; fill-opacity:0.0; 
stroke:#585D84; stroke-width:0.1500; stroke-opacity:1; 
stroke-linecap:round; stroke-linejoin:round;">
<text x="60.3750" y="68.4530"
transform="scale(-1 1) translate(-120.750000 0)"
textLength="3.3655" font-size="1.3333" lengthAdjust="spacingAndGlyphs"
text-anchor="middle" opacity="0">5.6k</text>
<g class="stroked-text"><desc>5.6k</desc>
<path d="M61.2560 67.4156
L61.7321 67.4156
" />
<path d="M61.7321 67.4156
L61.7798 67.8918
" />
<path d="M61.7798 67.8918
L61.7321 67.8442
" />
<path d="M61.7321 67.8442
L61.6369 67.7966
" />
<path d="M61.6369 67.7966
L61.3988 67.7966
" />
<path d="M61.3988 67.7966
L61.3036 67.8442
" />
<path d="M61.3036 67.8442
L61.2560 67.8918
" />
<path d="M61.2560 67.8918
L61.2083 67.9870
" />
<path d="M61.2083 67.9870
L61.2083 68.2251
" />
<path d="M61.2083 68.2251
L61.2560 68.3204
" />
<path d="M61.2560 68.3204
L61.3036 68.3680
" />
<path d="M61.3036 68.3680
L61.3988 68.4156
" />
<path d="M61.3988 68.4156
L61.6369 68.4156
" />
<path d="M61.6369 68.4156
L61.7321 68.3680
" />
<path d="M61.7321 68.3680
L61.7798 68.3204
" />
<path d="M60.7798 68.3204
L60.7321 68.3680
" />
<path d="M60.7321 68.3680
L60.7798 68.4156
" />
<path d="M60.7798 68.4156
L60.8274 68.3680
" />
<path d="M60.8274 68.3680
L60.7798 68.3204
" />
<path d="M60.7798 68.3204
L60.7798 68.4156
" />
<path d="M59.8750 67.4156
L60.0655 67.4156
" />
<path d="M60.0655 67.4156
L60.1607 67.4632
" />
<path d="M60.1607 67.4632
L60.2083 67.5109
" />
<path d="M60.2083 67.5109
L60.3036 67.6537
" />
<path d="M60.3036 67.6537
L60.3512 67.8442
" />
<path d="M60.3512 67.8442
L60.3512 68.2251
" />
<path d="M60.3512 68.2251
L60.3036 68.3204
" />
<path d="M60.3036 68.3204
L60.2560 68.3680
" />
<path d="M60.2560 68.3680
L60.1607 68.4156
" />
<path d="M60.1607 68.4156
L59.9702 68.4156
" />
<path d="M59.9702 68.4156
L59.8750 68.3680
" />
<path d="M59.8750 68.3680
L59.8274 68.3204
" />
<path d="M59.8274 68.3204
L59.7798 68.2251
" />
<path d="M59.7798 68.2251
L59.7798 67.9870
" />
<path d="M59.7798 67.9870
L59.8274 67.8918
" />
<path d="M59.8274 67.8918
L59.8750 67.8442
" />
<path d="M59.8750 67.8442
L59.9702 67.7966
" />
<path d="M59.9702 67.7966
L60.1607 67.7966
" />
<path d="M60.1607 67.7966
L60.2560 67.8442
" />
<path d="M60.2560 67.8442
L60.3036 67.8918
" />
<path d="M60.3036 67.8918
L60.3512 67.9870
" />
<path d="M59.3512 68.4156
L59.3512 67.4156
" />
<path d="M59.2560 68.0347
L58.9702 68.4156
" />
<path d="M58.9702 67.7490
L59.3512 68.1299
" />
</g></g>
<g style="fill:#585D84; fill-opacity:0.0; 
stroke:#585D84; stroke-width:0.1200; stroke-opacity:1; 
stroke-linecap:round; stroke-linejoin:round;">
<text x="60.3750" y="70.1730"
transform="scale(-1 1) translate(-120.750000 0)"
textLength="2.4638" font-size="1.0667" lengthAdjust="spacingAndGlyphs"
text-anchor="middle" opacity="0">R43</text>
<g class="stroked-text"><desc>R43</desc>
<path d="M60.8893 70.1431
L61.1560 69.7621
" />
<path d="M61.3464 70.1431
L61.3464 69.3431
" />
<path d="M61.3464 69.3431
L61.0417 69.3431
" />
<path d="M61.0417 69.3431
L60.9655 69.3812
" />
<path d="M60.9655 69.3812
L60.9274 69.4193
" />
<path d="M60.9274 69.4193
L60.8893 69.4955
" />
<path d="M60.8893 69.4955
L60.8893 69.6098
" />
<path d="M60.8893 69.6098
L60.9274 69.6860
" />
<path d="M60.9274 69.6860
L60.9655 69.7240
" />
<path d="M60.9655 69.7240
L61.0417 69.7621
" />
<path d="M61.0417 69.7621
L61.3464 69.7621
" />
<path d="M60.2036 69.6098
L60.2036 70.1431
" />
<path d="M60.3940 69.3050
L60.5845 69.8764
" />
<path d="M60.5845 69.8764
L60.0893 69.8764
" />
<path d="M59.8607 69.3431
L59.3655 69.3431
" />
<path d="M59.3655 69.3431
L59.6321 69.6479
" />
<path d="M59.6321 69.6479
L59.5179 69.6479
" />
<path d="M59.5179 69.6479
L59.4417 69.6860
" />
<path d="M59.4417 69.6860
L59.4036 69.7240
" />
<path d="M59.4036 69.7240
L59.3655 69.8002
" />
<path d="M59.3655 69.8002
L59.3655 69.9907
" />
<path d="M59.3655 69.9907
L59.4036 70.0669
" />
<path d="M59.4036 70.0669
L59.4417 70.1050
" />
<path d="M59.4417 70.1050
L59.5179 70.1431
" />
<path d="M59.5179 70.1431
L59.7464 70.1431
" />
<path d="M59.7464 70.1431
L59.8226 70.1050
" />
<path d="M59.8226 70.1050
L59.8607 70.0669
" />
</g></g>
<g style="fill:#585D84; fill-opacity:0.0; 
stroke:#585D84; stroke-width:0.1500; stroke-opacity:1; 
stroke-linecap:round; stroke-linejoin:round;">
<g transform="rotate(-90.000000 55.2400 69.9000)">
<text x="55.2400" y="70.4000"
transform="scale(-1 1) translate(-110.480000 0)"
textLength="2.9845" font-size="1.3333" lengthAdjust="spacingAndGlyphs"
text-anchor="middle" opacity="0">10u</text>
</g>
<g class="stroked-text"><desc>10u</desc>
<path d="M55.7026 69.2571
L55.7026 68.6857
" />
<path d="M55.7026 68.9714
L54.7026 68.9714
" />
<path d="M54.7026 68.9714
L54.8455 68.8762
" />
<path d="M54.8455 68.8762
L54.9407 68.7810
" />
<path d="M54.9407 68.7810
L54.9883 68.6857
" />
<path d="M54.7026 69.8762
L54.7026 69.9714
" />
<path d="M54.7026 69.9714
L54.7502 70.0667
" />
<path d="M54.7502 70.0667
L54.7979 70.1143
" />
<path d="M54.7979 70.1143
L54.8931 70.1619
" />
<path d="M54.8931 70.1619
L55.0836 70.2095
" />
<path d="M55.0836 70.2095
L55.3217 70.2095
" />
<path d="M55.3217 70.2095
L55.5121 70.1619
" />
<path d="M55.5121 70.1619
L55.6074 70.1143
" />
<path d="M55.6074 70.1143
L55.6550 70.0667
" />
<path d="M55.6550 70.0667
L55.7026 69.9714
" />
<path d="M55.7026 69.9714
L55.7026 69.8762
" />
<path d="M55.7026 69.8762
L55.6550 69.7810
" />
<path d="M55.6550 69.7810
L55.6074 69.7333
" />
<path d="M55.6074 69.7333
L55.5121 69.6857
" />
<path d="M55.5121 69.6857
L55.3217 69.6381
" />
<path d="M55.3217 69.6381
L55.0836 69.6381
" />
<path d="M55.0836 69.6381
L54.8931 69.6857
" />
<path d="M54.8931 69.6857
L54.7979 69.7333
" />
<path d="M54.7979 69.7333
L54.7502 69.7810
" />
<path d="M54.7502 69.7810
L54.7026 69.8762
" />
<path d="M55.0360 71.0667
L55.7026 71.0667
" />
<path d="M55.0360 70.6381
L55.5598 70.6381
" />
<path d="M55.5598 70.6381
L55.6550 70.6857
" />
<path d="M55.6550 70.6857
L55.7026 70.7810
" />
<path d="M55.7026 70.7810
L55.7026 70.9238
" />
<path d="M55.7026 70.9238
L55.6550 71.0190
" />
<path d="M55.6550 71.0190
L55.6074 71.0667
" />
</g></g>
<g style="fill:#585D84; fill-opacity:0.0; 
stroke:#585D84; stroke-width:0.1200; stroke-opacity:1; 
stroke-linecap:round; stroke-linejoin:round;">
<g transform="rotate(-90.000000 53.3900 69.9000)">
<text x="53.3900" y="70.3000"
transform="scale(-1 1) translate(-106.780000 0)"
textLength="2.4638" font-size="1.0667" lengthAdjust="spacingAndGlyphs"
text-anchor="middle" opacity="0">C14</text>
</g>
<g class="stroked-text"><desc>C14</desc>
<path d="M53.6839 69.3857
L53.7220 69.3476
" />
<path d="M53.7220 69.3476
L53.7601 69.2333
" />
<path d="M53.7601 69.2333
L53.7601 69.1571
" />
<path d="M53.7601 69.1571
L53.7220 69.0429
" />
<path d="M53.7220 69.0429
L53.6458 68.9667
" />
<path d="M53.6458 68.9667
L53.5696 68.9286
" />
<path d="M53.5696 68.9286
L53.4172 68.8905
" />
<path d="M53.4172 68.8905
L53.3030 68.8905
" />
<path d="M53.3030 68.8905
L53.1506 68.9286
" />
<path d="M53.1506 68.9286
L53.0744 68.9667
" />
<path d="M53.0744 68.9667
L52.9982 69.0429
" />
<path d="M52.9982 69.0429
L52.9601 69.1571
" />
<path d="M52.9601 69.1571
L52.9601 69.2333
" />
<path d="M52.9601 69.2333
L52.9982 69.3476
" />
<path d="M52.9982 69.3476
L53.0363 69.3857
" />
<path d="M53.7601 70.1476
L53.7601 69.6905
" />
<path d="M53.7601 69.9190
L52.9601 69.9190
" />
<path d="M52.9601 69.9190
L53.0744 69.8429
" />
<path d="M53.0744 69.8429
L53.1506 69.7667
" />
<path d="M53.1506 69.7667
L53.1887 69.6905
" />
<path d="M53.2268 70.8333
L53.7601 70.8333
" />
<path d="M52.9220 70.6429
L53.4934 70.4524
" />
<path d="M53.4934 70.4524
L53.4934 70.9476
" />
</g></g>
<g style="fill:#585D84; fill-opacity:0.0; 
stroke:#585D84; stroke-width:0.1500; stroke-opacity:1; 
stroke-linecap:round; stroke-linejoin:round;">
<g transform="rotate(-90.000000 18.8040 10.8450)">
<text x="18.8040" y="11.3450"
transform="scale(-1 1) translate(-37.608000 0)"
textLength="1.9369" font-size="1.3333" lengthAdjust="spacingAndGlyphs"
text-anchor="middle" opacity="0">2k</text>
</g>
<g class="stroked-text"><desc>2k</desc>
<path d="M18.3619 10.1545
L18.3142 10.2021
" />
<path d="M18.3142 10.2021
L18.2666 10.2974
" />
<path d="M18.2666 10.2974
L18.2666 10.5355
" />
<path d="M18.2666 10.5355
L18.3142 10.6307
" />
<path d="M18.3142 10.6307
L18.3619 10.6783
" />
<path d="M18.3619 10.6783
L18.4571 10.7260
" />
<path d="M18.4571 10.7260
L18.5523 10.7260
" />
<path d="M18.5523 10.7260
L18.6952 10.6783
" />
<path d="M18.6952 10.6783
L19.2666 10.1069
" />
<path d="M19.2666 10.1069
L19.2666 10.7260
" />
<path d="M19.2666 11.1545
L18.2666 11.1545
" />
<path d="M18.8857 11.2498
L19.2666 11.5355
" />
<path d="M18.6000 11.5355
L18.9809 11.1545
" />
</g></g>
<g style="fill:#585D84; fill-opacity:0.0; 
stroke:#585D84; stroke-width:0.1200; stroke-opacity:1; 
stroke-linecap:round; stroke-linejoin:round;">
<g transform="rotate(-90.000000 20.6240 10.8450)">
<text x="20.6240" y="11.2450"
transform="scale(-1 1) translate(-41.248000 0)"
textLength="2.4638" font-size="1.0667" lengthAdjust="spacingAndGlyphs"
text-anchor="middle" opacity="0">R58</text>
</g>
<g class="stroked-text"><desc>R58</desc>
<path d="M20.9941 10.3307
L20.6131 10.0640
" />
<path d="M20.9941 9.8736
L20.1941 9.8736
" />
<path d="M20.1941 9.8736
L20.1941 10.1783
" />
<path d="M20.1941 10.1783
L20.2322 10.2545
" />
<path d="M20.2322 10.2545
L20.2703 10.2926
" />
<path d="M20.2703 10.2926
L20.3465 10.3307
" />
<path d="M20.3465 10.3307
L20.4608 10.3307
" />
<path d="M20.4608 10.3307
L20.5370 10.2926
" />
<path d="M20.5370 10.2926
L20.5750 10.2545
" />
<path d="M20.5750 10.2545
L20.6131 10.1783
" />
<path d="M20.6131 10.1783
L20.6131 9.8736
" />
<path d="M20.1941 11.0545
L20.1941 10.6736
" />
<path d="M20.1941 10.6736
L20.5750 10.6355
" />
<path d="M20.5750 10.6355
L20.5370 10.6736
" />
<path d="M20.5370 10.6736
L20.4989 10.7498
" />
<path d="M20.4989 10.7498
L20.4989 10.9402
" />
<path d="M20.4989 10.9402
L20.5370 11.0164
" />
<path d="M20.5370 11.0164
L20.5750 11.0545
" />
<path d="M20.5750 11.0545
L20.6512 11.0926
" />
<path d="M20.6512 11.0926
L20.8417 11.0926
" />
<path d="M20.8417 11.0926
L20.9179 11.0545
" />
<path d="M20.9179 11.0545
L20.9560 11.0164
" />
<path d="M20.9560 11.0164
L20.9941 10.9402
" />
<path d="M20.9941 10.9402
L20.9941 10.7498
" />
<path d="M20.9941 10.7498
L20.9560 10.6736
" />
<path d="M20.9560 10.6736
L20.9179 10.6355
" />
<path d="M20.5370 11.5498
L20.4989 11.4736
" />
<path d="M20.4989 11.4736
L20.4608 11.4355
" />
<path d="M20.4608 11.4355
L20.3846 11.3974
" />
<path d="M20.3846 11.3974
L20.3465 11.3974
" />
<path d="M20.3465 11.3974
L20.2703 11.4355
" />
<path d="M20.2703 11.4355
L20.2322 11.4736
" />
<path d="M20.2322 11.4736
L20.1941 11.5498
" />
<path d="M20.1941 11.5498
L20.1941 11.7021
" />
<path d="M20.1941 11.7021
L20.2322 11.7783
" />
<path d="M20.2322 11.7783
L20.2703 11.8164
" />
<path d="M20.2703 11.8164
L20.3465 11.8545
" />
<path d="M20.3465 11.8545
L20.3846 11.8545
" />
<path d="M20.3846 11.8545
L20.4608 11.8164
" />
<path d="M20.4608 11.8164
L20.4989 11.7783
" />
<path d="M20.4989 11.7783
L20.5370 11.7021
" />
<path d="M20.5370 11.7021
L20.5370 11.5498
" />
<path d="M20.5370 11.5498
L20.5750 11.4736
" />
<path d="M20.5750 11.4736
L20.6131 11.4355
" />
<path d="M20.6131 11.4355
L20.6893 11.3974
" />
<path d="M20.6893 11.3974
L20.8417 11.3974
" />
<path d="M20.8417 11.3974
L20.9179 11.4355
" />
<path d="M20.9179 11.4355
L20.9560 11.4736
" />
<path d="M20.9560 11.4736
L20.9941 11.5498
" />
<path d="M20.9941 11.5498
L20.9941 11.7021
" />
<path d="M20.9941 11.7021
L20.9560 11.7783
" />
<path d="M20.9560 11.7783
L20.9179 11.8164
" />
<path d="M20.9179 11.8164
L20.8417 11.8545
" />
<path d="M20.8417 11.8545
L20.6893 11.8545
" />
<path d="M20.6893 11.8545
L20.6131 11.8164
" />
<path d="M20.6131 11.8164
L20.5750 11.7783
" />
<path d="M20.5750 11.7783
L20.5370 11.7021
" />
</g></g>
<g style="fill:#585D84; fill-opacity:0.0; 
stroke:#585D84; stroke-width:0.1500; stroke-opacity:1; 
stroke-linecap:round; stroke-linejoin:round;">
<g transform="rotate(-90.000000 34.2980 35.4830)">
<text x="34.2980" y="35.9830"
transform="scale(-1 1) translate(-68.596000 0)"
textLength="1.9369" font-size="1.3333" lengthAdjust="spacingAndGlyphs"
text-anchor="middle" opacity="0">2k</text>
</g>
<g class="stroked-text"><desc>2k</desc>
<path d="M33.8559 34.7925
L33.8082 34.8401
" />
<path d="M33.8082 34.8401
L33.7606 34.9354
" />
<path d="M33.7606 34.9354
L33.7606 35.1735
" />
<path d="M33.7606 35.1735
L33.8082 35.2687
" />
<path d="M33.8082 35.2687
L33.8559 35.3163
" />
<path d="M33.8559 35.3163
L33.9511 35.3640
" />
<path d="M33.9511 35.3640
L34.0463 35.3640
" />
<path d="M34.0463 35.3640
L34.1892 35.3163
" />
<path d="M34.1892 35.3163
L34.7606 34.7449
" />
<path d="M34.7606 34.7449
L34.7606 35.3640
" />
<path d="M34.7606 35.7925
L33.7606 35.7925
" />
<path d="M34.3797 35.8878
L34.7606 36.1735
" />
<path d="M34.0940 36.1735
L34.4749 35.7925
" />
</g></g>
<g style="fill:#585D84; fill-opacity:0.0; 
stroke:#585D84; stroke-width:0.1200; stroke-opacity:1; 
stroke-linecap:round; stroke-linejoin:round;">
<g transform="rotate(-90.000000 36.1180 35.4830)">
<text x="36.1180" y="35.8830"
transform="scale(-1 1) translate(-72.236000 0)"
textLength="2.4638" font-size="1.0667" lengthAdjust="spacingAndGlyphs"
text-anchor="middle" opacity="0">R51</text>
</g>
<g class="stroked-text"><desc>R51</desc>
<path d="M36.4881 34.9687
L36.1071 34.7020
" />
<path d="M36.4881 34.5116
L35.6881 34.5116
" />
<path d="M35.6881 34.5116
L35.6881 34.8163
" />
<path d="M35.6881 34.8163
L35.7262 34.8925
" />
<path d="M35.7262 34.8925
L35.7643 34.9306
" />
<path d="M35.7643 34.9306
L35.8405 34.9687
" />
<path d="M35.8405 34.9687
L35.9548 34.9687
" />
<path d="M35.9548 34.9687
L36.0310 34.9306
" />
<path d="M36.0310 34.9306
L36.0690 34.8925
" />
<path d="M36.0690 34.8925
L36.1071 34.8163
" />
<path d="M36.1071 34.8163
L36.1071 34.5116
" />
<path d="M35.6881 35.6925
L35.6881 35.3116
" />
<path d="M35.6881 35.3116
L36.0690 35.2735
" />
<path d="M36.0690 35.2735
L36.0310 35.3116
" />
<path d="M36.0310 35.3116
L35.9929 35.3878
" />
<path d="M35.9929 35.3878
L35.9929 35.5782
" />
<path d="M35.9929 35.5782
L36.0310 35.6544
" />
<path d="M36.0310 35.6544
L36.0690 35.6925
" />
<path d="M36.0690 35.6925
L36.1452 35.7306
" />
<path d="M36.1452 35.7306
L36.3357 35.7306
" />
<path d="M36.3357 35.7306
L36.4119 35.6925
" />
<path d="M36.4119 35.6925
L36.4500 35.6544
" />
<path d="M36.4500 35.6544
L36.4881 35.5782
" />
<path d="M36.4881 35.5782
L36.4881 35.3878
" />
<path d="M36.4881 35.3878
L36.4500 35.3116
" />
<path d="M36.4500 35.3116
L36.4119 35.2735
" />
<path d="M36.4881 36.4925
L36.4881 36.0354
" />
<path d="M36.4881 36.2640
L35.6881 36.2640
" />
<path d="M35.6881 36.2640
L35.8024 36.1878
" />
<path d="M35.8024 36.1878
L35.8786 36.1116
" />
<path d="M35.8786 36.1116
L35.9167 36.0354
" />
</g></g>
<g style="fill:#585D84; fill-opacity:0.0; 
stroke:#585D84; stroke-width:0.1500; stroke-opacity:1; 
stroke-linecap:round; stroke-linejoin:round;">
<g transform="rotate(-90.000000 34.2980 47.7760)">
<text x="34.2980" y="48.2760"
transform="scale(-1 1) translate(-68.596000 0)"
textLength="1.9369" font-size="1.3333" lengthAdjust="spacingAndGlyphs"
text-anchor="middle" opacity="0">2k</text>
</g>
<g class="stroked-text"><desc>2k</desc>
<path d="M33.8559 47.0855
L33.8082 47.1331
" />
<path d="M33.8082 47.1331
L33.7606 47.2284
" />
<path d="M33.7606 47.2284
L33.7606 47.4665
" />
<path d="M33.7606 47.4665
L33.8082 47.5617
" />
<path d="M33.8082 47.5617
L33.8559 47.6093
" />
<path d="M33.8559 47.6093
L33.9511 47.6570
" />
<path d="M33.9511 47.6570
L34.0463 47.6570
" />
<path d="M34.0463 47.6570
L34.1892 47.6093
" />
<path d="M34.1892 47.6093
L34.7606 47.0379
" />
<path d="M34.7606 47.0379
L34.7606 47.6570
" />
<path d="M34.7606 48.0855
L33.7606 48.0855
" />
<path d="M34.3797 48.1808
L34.7606 48.4665
" />
<path d="M34.0940 48.4665
L34.4749 48.0855
" />
</g></g>
<g style="fill:#585D84; fill-opacity:0.0; 
stroke:#585D84; stroke-width:0.1200; stroke-opacity:1; 
stroke-linecap:round; stroke-linejoin:round;">
<g transform="rotate(-90.000000 36.1180 47.7760)">
<text x="36.1180" y="48.1760"
transform="scale(-1 1) translate(-72.236000 0)"
textLength="2.4638" font-size="1.0667" lengthAdjust="spacingAndGlyphs"
text-anchor="middle" opacity="0">R52</text>
</g>
<g class="stroked-text"><desc>R52</desc>
<path d="M36.4881 47.2617
L36.1071 46.9950
" />
<path d="M36.4881 46.8046
L35.6881 46.8046
" />
<path d="M35.6881 46.8046
L35.6881 47.1093
" />
<path d="M35.6881 47.1093
L35.7262 47.1855
" />
<path d="M35.7262 47.1855
L35.7643 47.2236
" />
<path d="M35.7643 47.2236
L35.8405 47.2617
" />
<path d="M35.8405 47.2617
L35.9548 47.2617
" />
<path d="M35.9548 47.2617
L36.0310 47.2236
" />
<path d="M36.0310 47.2236
L36.0690 47.1855
" />
<path d="M36.0690 47.1855
L36.1071 47.1093
" />
<path d="M36.1071 47.1093
L36.1071 46.8046
" />
<path d="M35.6881 47.9855
L35.6881 47.6046
" />
<path d="M35.6881 47.6046
L36.0690 47.5665
" />
<path d="M36.0690 47.5665
L36.0310 47.6046
" />
<path d="M36.0310 47.6046
L35.9929 47.6808
" />
<path d="M35.9929 47.6808
L35.9929 47.8712
" />
<path d="M35.9929 47.8712
L36.0310 47.9474
" />
<path d="M36.0310 47.9474
L36.0690 47.9855
" />
<path d="M36.0690 47.9855
L36.1452 48.0236
" />
<path d="M36.1452 48.0236
L36.3357 48.0236
" />
<path d="M36.3357 48.0236
L36.4119 47.9855
" />
<path d="M36.4119 47.9855
L36.4500 47.9474
" />
<path d="M36.4500 47.9474
L36.4881 47.8712
" />
<path d="M36.4881 47.8712
L36.4881 47.6808
" />
<path d="M36.4881 47.6808
L36.4500 47.6046
" />
<path d="M36.4500 47.6046
L36.4119 47.5665
" />
<path d="M35.7643 48.3284
L35.7262 48.3665
" />
<path d="M35.7262 48.3665
L35.6881 48.4427
" />
<path d="M35.6881 48.4427
L35.6881 48.6331
" />
<path d="M35.6881 48.6331
L35.7262 48.7093
" />
<path d="M35.7262 48.7093
L35.7643 48.7474
" />
<path d="M35.7643 48.7474
L35.8405 48.7855
" />
<path d="M35.8405 48.7855
L35.9167 48.7855
" />
<path d="M35.9167 48.7855
L36.0310 48.7474
" />
<path d="M36.0310 48.7474
L36.4881 48.2903
" />
<path d="M36.4881 48.2903
L36.4881 48.7855
" />
</g></g>
<g style="fill:#585D84; fill-opacity:0.0; 
stroke:#585D84; stroke-width:0.1500; stroke-opacity:1; 
stroke-linecap:round; stroke-linejoin:round;">
<g transform="rotate(45.000000 47.9290 121.0810)">
<text x="47.9290" y="121.5810"
transform="scale(-1 1) translate(-95.858000 0)"
textLength="4.0321" font-size="1.3333" lengthAdjust="spacingAndGlyphs"
text-anchor="middle" opacity="0">100K</text>
</g>
<g class="stroked-text"><desc>100K</desc>
<path d="M48.4268 122.2331
L48.8309 122.6371
" />
<path d="M48.6289 122.4351
L49.3360 121.7280
" />
<path d="M49.3360 121.7280
L49.3023 121.8964
" />
<path d="M49.3023 121.8964
L49.3023 122.0310
" />
<path d="M49.3023 122.0310
L49.3360 122.1321
" />
<path d="M48.6962 121.0882
L48.6289 121.0209
" />
<path d="M48.6289 121.0209
L48.5279 120.9872
" />
<path d="M48.5279 120.9872
L48.4605 120.9872
" />
<path d="M48.4605 120.9872
L48.3595 121.0209
" />
<path d="M48.3595 121.0209
L48.1911 121.1219
" />
<path d="M48.1911 121.1219
L48.0228 121.2903
" />
<path d="M48.0228 121.2903
L47.9218 121.4586
" />
<path d="M47.9218 121.4586
L47.8881 121.5596
" />
<path d="M47.8881 121.5596
L47.8881 121.6270
" />
<path d="M47.8881 121.6270
L47.9218 121.7280
" />
<path d="M47.9218 121.7280
L47.9891 121.7953
" />
<path d="M47.9891 121.7953
L48.0901 121.8290
" />
<path d="M48.0901 121.8290
L48.1575 121.8290
" />
<path d="M48.1575 121.8290
L48.2585 121.7953
" />
<path d="M48.2585 121.7953
L48.4268 121.6943
" />
<path d="M48.4268 121.6943
L48.5952 121.5260
" />
<path d="M48.5952 121.5260
L48.6962 121.3576
" />
<path d="M48.6962 121.3576
L48.7299 121.2566
" />
<path d="M48.7299 121.2566
L48.7299 121.1893
" />
<path d="M48.7299 121.1893
L48.6962 121.0882
" />
<path d="M48.0228 120.4148
L47.9554 120.3475
" />
<path d="M47.9554 120.3475
L47.8544 120.3138
" />
<path d="M47.8544 120.3138
L47.7871 120.3138
" />
<path d="M47.7871 120.3138
L47.6861 120.3475
" />
<path d="M47.6861 120.3475
L47.5177 120.4485
" />
<path d="M47.5177 120.4485
L47.3493 120.6168
" />
<path d="M47.3493 120.6168
L47.2483 120.7852
" />
<path d="M47.2483 120.7852
L47.2147 120.8862
" />
<path d="M47.2147 120.8862
L47.2147 120.9536
" />
<path d="M47.2147 120.9536
L47.2483 121.0546
" />
<path d="M47.2483 121.0546
L47.3157 121.1219
" />
<path d="M47.3157 121.1219
L47.4167 121.1556
" />
<path d="M47.4167 121.1556
L47.4840 121.1556
" />
<path d="M47.4840 121.1556
L47.5850 121.1219
" />
<path d="M47.5850 121.1219
L47.7534 121.0209
" />
<path d="M47.7534 121.0209
L47.9218 120.8525
" />
<path d="M47.9218 120.8525
L48.0228 120.6842
" />
<path d="M48.0228 120.6842
L48.0564 120.5832
" />
<path d="M48.0564 120.5832
L48.0564 120.5158
" />
<path d="M48.0564 120.5158
L48.0228 120.4148
" />
<path d="M46.7769 120.5832
L47.4840 119.8761
" />
<path d="M46.3729 120.1791
L47.0800 120.0781
" />
<path d="M47.0800 119.4720
L47.0800 120.2801
" />
</g></g>
<g style="fill:#585D84; fill-opacity:0.0; 
stroke:#585D84; stroke-width:0.0800; stroke-opacity:1; 
stroke-linecap:round; stroke-linejoin:round;">
<g transform="rotate(45.000000 45.3890 118.7950)">
<text x="45.3890" y="119.0450"
transform="scale(-1 1) translate(-90.778000 0)"
textLength="1.0762" font-size="0.6667" lengthAdjust="spacingAndGlyphs"
text-anchor="middle" opacity="0">R2</text>
</g>
<g class="stroked-text"><desc>R2</desc>
<path d="M45.2844 119.0175
L45.5706 118.9670
" />
<path d="M45.4864 119.2195
L45.8399 118.8660
" />
<path d="M45.8399 118.8660
L45.7053 118.7313
" />
<path d="M45.7053 118.7313
L45.6548 118.7144
" />
<path d="M45.6548 118.7144
L45.6211 118.7144
" />
<path d="M45.6211 118.7144
L45.5706 118.7313
" />
<path d="M45.5706 118.7313
L45.5201 118.7818
" />
<path d="M45.5201 118.7818
L45.5032 118.8323
" />
<path d="M45.5032 118.8323
L45.5032 118.8660
" />
<path d="M45.5032 118.8660
L45.5201 118.9165
" />
<path d="M45.5201 118.9165
L45.6548 119.0512
" />
<path d="M45.4696 118.5629
L45.4696 118.5292
" />
<path d="M45.4696 118.5292
L45.4527 118.4787
" />
<path d="M45.4527 118.4787
L45.3685 118.3946
" />
<path d="M45.3685 118.3946
L45.3180 118.3777
" />
<path d="M45.3180 118.3777
L45.2844 118.3777
" />
<path d="M45.2844 118.3777
L45.2339 118.3946
" />
<path d="M45.2339 118.3946
L45.2002 118.4282
" />
<path d="M45.2002 118.4282
L45.1665 118.4956
" />
<path d="M45.1665 118.4956
L45.1665 118.8996
" />
<path d="M45.1665 118.8996
L44.9476 118.6808
" />
</g></g>
<g style="fill:#585D84; fill-opacity:0.0; 
stroke:#585D84; stroke-width:0.1500; stroke-opacity:1; 
stroke-linecap:round; stroke-linejoin:round;">
<g transform="rotate(45.000000 57.5108 124.0722)">
<text x="57.5108" y="124.5722"
transform="scale(-1 1) translate(-115.021508 0)"
textLength="4.0321" font-size="1.3333" lengthAdjust="spacingAndGlyphs"
text-anchor="middle" opacity="0">100K</text>
</g>
<g class="stroked-text"><desc>100K</desc>
<path d="M58.0086 125.2243
L58.4127 125.6284
" />
<path d="M58.2106 125.4264
L58.9177 124.7192
" />
<path d="M58.9177 124.7192
L58.8841 124.8876
" />
<path d="M58.8841 124.8876
L58.8841 125.0223
" />
<path d="M58.8841 125.0223
L58.9177 125.1233
" />
<path d="M58.2780 124.0795
L58.2106 124.0121
" />
<path d="M58.2106 124.0121
L58.1096 123.9785
" />
<path d="M58.1096 123.9785
L58.0423 123.9785
" />
<path d="M58.0423 123.9785
L57.9412 124.0121
" />
<path d="M57.9412 124.0121
L57.7729 124.1132
" />
<path d="M57.7729 124.1132
L57.6045 124.2815
" />
<path d="M57.6045 124.2815
L57.5035 124.4499
" />
<path d="M57.5035 124.4499
L57.4698 124.5509
" />
<path d="M57.4698 124.5509
L57.4698 124.6182
" />
<path d="M57.4698 124.6182
L57.5035 124.7192
" />
<path d="M57.5035 124.7192
L57.5709 124.7866
" />
<path d="M57.5709 124.7866
L57.6719 124.8203
" />
<path d="M57.6719 124.8203
L57.7392 124.8203
" />
<path d="M57.7392 124.8203
L57.8402 124.7866
" />
<path d="M57.8402 124.7866
L58.0086 124.6856
" />
<path d="M58.0086 124.6856
L58.1769 124.5172
" />
<path d="M58.1769 124.5172
L58.2780 124.3489
" />
<path d="M58.2780 124.3489
L58.3116 124.2478
" />
<path d="M58.3116 124.2478
L58.3116 124.1805
" />
<path d="M58.3116 124.1805
L58.2780 124.0795
" />
<path d="M57.6045 123.4060
L57.5372 123.3387
" />
<path d="M57.5372 123.3387
L57.4362 123.3050
" />
<path d="M57.4362 123.3050
L57.3688 123.3050
" />
<path d="M57.3688 123.3050
L57.2678 123.3387
" />
<path d="M57.2678 123.3387
L57.0995 123.4397
" />
<path d="M57.0995 123.4397
L56.9311 123.6081
" />
<path d="M56.9311 123.6081
L56.8301 123.7764
" />
<path d="M56.8301 123.7764
L56.7964 123.8775
" />
<path d="M56.7964 123.8775
L56.7964 123.9448
" />
<path d="M56.7964 123.9448
L56.8301 124.0458
" />
<path d="M56.8301 124.0458
L56.8974 124.1132
" />
<path d="M56.8974 124.1132
L56.9984 124.1468
" />
<path d="M56.9984 124.1468
L57.0658 124.1468
" />
<path d="M57.0658 124.1468
L57.1668 124.1132
" />
<path d="M57.1668 124.1132
L57.3352 124.0121
" />
<path d="M57.3352 124.0121
L57.5035 123.8438
" />
<path d="M57.5035 123.8438
L57.6045 123.6754
" />
<path d="M57.6045 123.6754
L57.6382 123.5744
" />
<path d="M57.6382 123.5744
L57.6382 123.5071
" />
<path d="M57.6382 123.5071
L57.6045 123.4060
" />
<path d="M56.3587 123.5744
L57.0658 122.8673
" />
<path d="M55.9546 123.1703
L56.6617 123.0693
" />
<path d="M56.6617 122.4632
L56.6617 123.2714
" />
</g></g>
<g style="fill:#585D84; fill-opacity:0.0; 
stroke:#585D84; stroke-width:0.0800; stroke-opacity:1; 
stroke-linecap:round; stroke-linejoin:round;">
<g transform="rotate(-45.000000 59.2604 122.0686)">
<text x="59.2604" y="122.3186"
transform="scale(-1 1) translate(-118.520754 0)"
textLength="1.0762" font-size="0.6667" lengthAdjust="spacingAndGlyphs"
text-anchor="middle" opacity="0">R1</text>
</g>
<g class="stroked-text"><desc>R1</desc>
<path d="M59.4829 122.1733
L59.4324 121.8870
" />
<path d="M59.6849 121.9712
L59.3313 121.6177
" />
<path d="M59.3313 121.6177
L59.1967 121.7524
" />
<path d="M59.1967 121.7524
L59.1798 121.8029
" />
<path d="M59.1798 121.8029
L59.1798 121.8365
" />
<path d="M59.1798 121.8365
L59.1967 121.8870
" />
<path d="M59.1967 121.8870
L59.2472 121.9376
" />
<path d="M59.2472 121.9376
L59.2977 121.9544
" />
<path d="M59.2977 121.9544
L59.3313 121.9544
" />
<path d="M59.3313 121.9544
L59.3818 121.9376
" />
<path d="M59.3818 121.9376
L59.5165 121.8029
" />
<path d="M59.1461 122.5100
L59.3482 122.3079
" />
<path d="M59.2472 122.4090
L58.8936 122.0554
" />
<path d="M58.8936 122.0554
L58.9778 122.0722
" />
<path d="M58.9778 122.0722
L59.0451 122.0722
" />
<path d="M59.0451 122.0722
L59.0956 122.0554
" />
</g></g>
<g style="fill:#585D84; fill-opacity:0.0; 
stroke:#585D84; stroke-width:0.1500; stroke-opacity:1; 
stroke-linecap:round; stroke-linejoin:round;">
<text x="32.4090" y="160.2310"
transform="scale(-1 1) translate(-64.818000 0)"
textLength="1.9369" font-size="1.3333" lengthAdjust="spacingAndGlyphs"
text-anchor="middle" opacity="0">1k</text>
<g class="stroked-text"><desc>1k</desc>
<path d="M32.5280 160.1936
L33.0995 160.1936
" />
<path d="M32.8138 160.1936
L32.8138 159.1936
" />
<path d="M32.8138 159.1936
L32.9090 159.3365
" />
<path d="M32.9090 159.3365
L33.0042 159.4317
" />
<path d="M33.0042 159.4317
L33.0995 159.4793
" />
<path d="M32.0995 160.1936
L32.0995 159.1936
" />
<path d="M32.0042 159.8127
L31.7185 160.1936
" />
<path d="M31.7185 159.5270
L32.0995 159.9079
" />
</g></g>
<g style="fill:#585D84; fill-opacity:0.0; 
stroke:#585D84; stroke-width:0.1200; stroke-opacity:1; 
stroke-linecap:round; stroke-linejoin:round;">
<text x="32.4090" y="158.3110"
transform="scale(-1 1) translate(-64.818000 0)"
textLength="2.4638" font-size="1.0667" lengthAdjust="spacingAndGlyphs"
text-anchor="middle" opacity="0">R33</text>
<g class="stroked-text"><desc>R33</desc>
<path d="M32.9233 158.2811
L33.1900 157.9001
" />
<path d="M33.3804 158.2811
L33.3804 157.4811
" />
<path d="M33.3804 157.4811
L33.0757 157.4811
" />
<path d="M33.0757 157.4811
L32.9995 157.5192
" />
<path d="M32.9995 157.5192
L32.9614 157.5573
" />
<path d="M32.9614 157.5573
L32.9233 157.6335
" />
<path d="M32.9233 157.6335
L32.9233 157.7478
" />
<path d="M32.9233 157.7478
L32.9614 157.8240
" />
<path d="M32.9614 157.8240
L32.9995 157.8620
" />
<path d="M32.9995 157.8620
L33.0757 157.9001
" />
<path d="M33.0757 157.9001
L33.3804 157.9001
" />
<path d="M32.6566 157.4811
L32.1614 157.4811
" />
<path d="M32.1614 157.4811
L32.4280 157.7859
" />
<path d="M32.4280 157.7859
L32.3138 157.7859
" />
<path d="M32.3138 157.7859
L32.2376 157.8240
" />
<path d="M32.2376 157.8240
L32.1995 157.8620
" />
<path d="M32.1995 157.8620
L32.1614 157.9382
" />
<path d="M32.1614 157.9382
L32.1614 158.1287
" />
<path d="M32.1614 158.1287
L32.1995 158.2049
" />
<path d="M32.1995 158.2049
L32.2376 158.2430
" />
<path d="M32.2376 158.2430
L32.3138 158.2811
" />
<path d="M32.3138 158.2811
L32.5423 158.2811
" />
<path d="M32.5423 158.2811
L32.6185 158.2430
" />
<path d="M32.6185 158.2430
L32.6566 158.2049
" />
<path d="M31.8947 157.4811
L31.3995 157.4811
" />
<path d="M31.3995 157.4811
L31.6661 157.7859
" />
<path d="M31.6661 157.7859
L31.5519 157.7859
" />
<path d="M31.5519 157.7859
L31.4757 157.8240
" />
<path d="M31.4757 157.8240
L31.4376 157.8620
" />
<path d="M31.4376 157.8620
L31.3995 157.9382
" />
<path d="M31.3995 157.9382
L31.3995 158.1287
" />
<path d="M31.3995 158.1287
L31.4376 158.2049
" />
<path d="M31.4376 158.2049
L31.4757 158.2430
" />
<path d="M31.4757 158.2430
L31.5519 158.2811
" />
<path d="M31.5519 158.2811
L31.7804 158.2811
" />
<path d="M31.7804 158.2811
L31.8566 158.2430
" />
<path d="M31.8566 158.2430
L31.8947 158.2049
" />
</g></g>
<g style="fill:#585D84; fill-opacity:0.0; 
stroke:#585D84; stroke-width:0.1500; stroke-opacity:1; 
stroke-linecap:round; stroke-linejoin:round;">
<g transform="rotate(45.000000 53.3616 119.8394)">
<text x="53.3616" y="120.3394"
transform="scale(-1 1) translate(-106.723248 0)"
textLength="3.3655" font-size="1.3333" lengthAdjust="spacingAndGlyphs"
text-anchor="middle" opacity="0">.1uF</text>
</g>
<g class="stroked-text"><desc>.1uF</desc>
<path d="M54.0615 121.0588
L53.9941 121.0588
" />
<path d="M53.9941 121.0588
L53.9941 121.1261
" />
<path d="M53.9941 121.1261
L54.0615 121.1261
" />
<path d="M54.0615 121.1261
L54.0615 121.0588
" />
<path d="M54.0615 121.0588
L53.9941 121.1261
" />
<path d="M53.2870 120.4190
L53.6911 120.8231
" />
<path d="M53.4891 120.6211
L54.1962 119.9140
" />
<path d="M54.1962 119.9140
L54.1625 120.0823
" />
<path d="M54.1625 120.0823
L54.1625 120.2170
" />
<path d="M54.1625 120.2170
L54.1962 120.3180
" />
<path d="M53.1524 119.3415
L52.6809 119.8129
" />
<path d="M53.4554 119.6446
L53.0850 120.0150
" />
<path d="M53.0850 120.0150
L52.9840 120.0486
" />
<path d="M52.9840 120.0486
L52.8830 120.0150
" />
<path d="M52.8830 120.0150
L52.7820 119.9140
" />
<path d="M52.7820 119.9140
L52.7483 119.8129
" />
<path d="M52.7483 119.8129
L52.7483 119.7456
" />
<path d="M52.4789 118.8701
L52.7146 119.1058
" />
<path d="M52.3442 119.4762
L53.0513 118.7691
" />
<path d="M53.0513 118.7691
L52.7146 118.4324
" />
</g></g>
<g style="fill:#585D84; fill-opacity:0.0; 
stroke:#585D84; stroke-width:0.0800; stroke-opacity:1; 
stroke-linecap:round; stroke-linejoin:round;">
<g transform="rotate(-45.000000 55.1396 117.9344)">
<text x="55.1396" y="118.1844"
transform="scale(-1 1) translate(-110.279246 0)"
textLength="1.0762" font-size="0.6667" lengthAdjust="spacingAndGlyphs"
text-anchor="middle" opacity="0">C1</text>
</g>
<g class="stroked-text"><desc>C1</desc>
<path d="M55.3284 118.0053
L55.3621 118.0053
" />
<path d="M55.3621 118.0053
L55.4295 117.9717
" />
<path d="M55.4295 117.9717
L55.4631 117.9380
" />
<path d="M55.4631 117.9380
L55.4968 117.8707
" />
<path d="M55.4968 117.8707
L55.4968 117.8033
" />
<path d="M55.4968 117.8033
L55.4800 117.7528
" />
<path d="M55.4800 117.7528
L55.4295 117.6686
" />
<path d="M55.4295 117.6686
L55.3789 117.6181
" />
<path d="M55.3789 117.6181
L55.2948 117.5676
" />
<path d="M55.2948 117.5676
L55.2443 117.5508
" />
<path d="M55.2443 117.5508
L55.1769 117.5508
" />
<path d="M55.1769 117.5508
L55.1096 117.5844
" />
<path d="M55.1096 117.5844
L55.0759 117.6181
" />
<path d="M55.0759 117.6181
L55.0422 117.6855
" />
<path d="M55.0422 117.6855
L55.0422 117.7191
" />
<path d="M55.0254 118.3757
L55.2274 118.1737
" />
<path d="M55.1264 118.2747
L54.7729 117.9212
" />
<path d="M54.7729 117.9212
L54.8570 117.9380
" />
<path d="M54.8570 117.9380
L54.9244 117.9380
" />
<path d="M54.9244 117.9380
L54.9749 117.9212
" />
</g><g transform="rotate(-45.000000 53.7710 109.6510)">
<text x="53.7710" y="109.9010"
transform="scale(-1 1) translate(-107.542000 0)"
textLength="1.5048" font-size="0.6667" lengthAdjust="spacingAndGlyphs"
text-anchor="middle" opacity="0">FB1</text>
</g>
<g class="stroked-text"><desc>FB1</desc>
<path d="M54.0440 109.3347
L54.1618 109.2169
" />
<path d="M54.3470 109.4021
L53.9935 109.0485
" />
<path d="M53.9935 109.0485
L53.8251 109.2169
" />
<path d="M53.7409 109.6378
L53.7073 109.7051
" />
<path d="M53.7073 109.7051
L53.7073 109.7388
" />
<path d="M53.7073 109.7388
L53.7241 109.7893
" />
<path d="M53.7241 109.7893
L53.7746 109.8398
" />
<path d="M53.7746 109.8398
L53.8251 109.8567
" />
<path d="M53.8251 109.8567
L53.8588 109.8567
" />
<path d="M53.8588 109.8567
L53.9093 109.8398
" />
<path d="M53.9093 109.8398
L54.0440 109.7051
" />
<path d="M54.0440 109.7051
L53.6904 109.3516
" />
<path d="M53.6904 109.3516
L53.5726 109.4694
" />
<path d="M53.5726 109.4694
L53.5558 109.5199
" />
<path d="M53.5558 109.5199
L53.5558 109.5536
" />
<path d="M53.5558 109.5536
L53.5726 109.6041
" />
<path d="M53.5726 109.6041
L53.6063 109.6378
" />
<path d="M53.6063 109.6378
L53.6568 109.6546
" />
<path d="M53.6568 109.6546
L53.6904 109.6546
" />
<path d="M53.6904 109.6546
L53.7409 109.6378
" />
<path d="M53.7409 109.6378
L53.8588 109.5199
" />
<path d="M53.5052 110.2439
L53.7073 110.0418
" />
<path d="M53.6063 110.1429
L53.2527 109.7893
" />
<path d="M53.2527 109.7893
L53.3369 109.8061
" />
<path d="M53.3369 109.8061
L53.4042 109.8061
" />
<path d="M53.4042 109.8061
L53.4547 109.7893
" />
</g></g>
<g style="fill:#585D84; fill-opacity:0.0; 
stroke:#585D84; stroke-width:0.1000; stroke-opacity:1; 
stroke-linecap:round; stroke-linejoin:round;">
<path d="M35.1910 12.6990
L36.7910 12.6990
" />
<path d="M36.7910 12.6990
L36.7910 9.4990
" />
<path d="M35.1910 9.4990
L35.1910 12.6990
" />
<path d="M36.7910 9.4990
L35.1910 9.4990
" />
<path d="M50.5860 116.5465
L49.3360 116.5465
" />
<path d="M49.3360 116.5465
L49.3360 118.5465
" />
<path d="M50.5860 118.5465
L50.5860 116.5465
" />
<path d="M49.3360 118.5465
L50.5860 118.5465
" />
<path d="M84.5430 67.1570
L82.9430 67.1570
" />
<path d="M82.9430 67.1570
L82.9430 70.3570
" />
<path d="M84.5430 70.3570
L84.5430 67.1570
" />
<path d="M82.9430 70.3570
L84.5430 70.3570
" />
<path d="M55.7918 106.4700
L54.9080 107.3538
" />
<path d="M54.9080 107.3538
L56.3222 108.7680
" />
<path d="M57.2060 107.8842
L55.7918 106.4700
" />
<path d="M56.3222 108.7680
L57.2060 107.8842
" />
<path d="M31.2540 24.7640
L32.8540 24.7640
" />
<path d="M32.8540 24.7640
L32.8540 21.5640
" />
<path d="M31.2540 21.5640
L31.2540 24.7640
" />
<path d="M32.8540 21.5640
L31.2540 21.5640
" />
<path d="M31.3810 37.0830
L32.9810 37.0830
" />
<path d="M32.9810 37.0830
L32.9810 33.8830
" />
<path d="M31.3810 33.8830
L31.3810 37.0830
" />
<path d="M32.9810 33.8830
L31.3810 33.8830
" />
<path d="M35.4450 24.8910
L37.0450 24.8910
" />
<path d="M37.0450 24.8910
L37.0450 21.6910
" />
<path d="M35.4450 21.6910
L35.4450 24.8910
" />
<path d="M37.0450 21.6910
L35.4450 21.6910
" />
<path d="M42.2080 108.3922
L43.0918 109.2760
" />
<path d="M43.0918 109.2760
L44.5060 107.8618
" />
<path d="M43.6222 106.9780
L42.2080 108.3922
" />
<path d="M44.5060 107.8618
L43.6222 106.9780
" />
<path d="M31.2540 13.0800
L32.8540 13.0800
" />
<path d="M32.8540 13.0800
L32.8540 9.8800
" />
<path d="M31.2540 9.8800
L31.2540 13.0800
" />
<path d="M32.8540 9.8800
L31.2540 9.8800
" />
<path d="M15.8870 12.4710
L17.4870 12.4710
" />
<path d="M17.4870 12.4710
L17.4870 9.2710
" />
<path d="M15.8870 9.2710
L15.8870 12.4710
" />
<path d="M17.4870 9.2710
L15.8870 9.2710
" />
<path d="M31.3810 62.0010
L32.9810 62.0010
" />
<path d="M32.9810 62.0010
L32.9810 58.8010
" />
<path d="M31.3810 58.8010
L31.3810 62.0010
" />
<path d="M32.9810 58.8010
L31.3810 58.8010
" />
<path d="M51.2198 101.6440
L50.3360 102.5278
" />
<path d="M50.3360 102.5278
L51.7502 103.9420
" />
<path d="M52.6340 103.0582
L51.2198 101.6440
" />
<path d="M51.7502 103.9420
L52.6340 103.0582
" />
<path d="M31.5080 49.4020
L33.1080 49.4020
" />
<path d="M33.1080 49.4020
L33.1080 46.2020
" />
<path d="M31.5080 46.2020
L31.5080 49.4020
" />
<path d="M33.1080 46.2020
L31.5080 46.2020
" />
<path d="M57.4600 111.1638
L56.5762 110.2800
" />
<path d="M56.5762 110.2800
L55.1620 111.6942
" />
<path d="M56.0458 112.5780
L57.4600 111.1638
" />
<path d="M55.1620 111.6942
L56.0458 112.5780
" />
<path d="M35.6990 61.9750
L37.2990 61.9750
" />
<path d="M37.2990 61.9750
L37.2990 58.7750
" />
<path d="M35.6990 58.7750
L35.6990 61.9750
" />
<path d="M37.2990 58.7750
L35.6990 58.7750
" />
<path d="M34.0350 163.7910
L34.0350 162.1910
" />
<path d="M34.0350 162.1910
L30.8350 162.1910
" />
<path d="M30.8350 163.7910
L34.0350 163.7910
" />
<path d="M30.8350 162.1910
L30.8350 163.7910
" />
<path d="M58.7750 68.9730
L58.7750 70.5730
" />
<path d="M58.7750 70.5730
L61.9750 70.5730
" />
<path d="M61.9750 68.9730
L58.7750 68.9730
" />
<path d="M61.9750 70.5730
L61.9750 68.9730
" />
<path d="M54.1900 68.3000
L52.5900 68.3000
" />
<path d="M52.5900 68.3000
L52.5900 71.5000
" />
<path d="M54.1900 71.5000
L54.1900 68.3000
" />
<path d="M52.5900 71.5000
L54.1900 71.5000
" />
<path d="M19.8240 12.4450
L21.4240 12.4450
" />
<path d="M21.4240 12.4450
L21.4240 9.2450
" />
<path d="M19.8240 9.2450
L19.8240 12.4450
" />
<path d="M21.4240 9.2450
L19.8240 9.2450
" />
<path d="M35.3180 37.0830
L36.9180 37.0830
" />
<path d="M36.9180 37.0830
L36.9180 33.8830
" />
<path d="M35.3180 33.8830
L35.3180 37.0830
" />
<path d="M36.9180 33.8830
L35.3180 33.8830
" />
<path d="M35.3180 49.3760
L36.9180 49.3760
" />
<path d="M36.9180 49.3760
L36.9180 46.1760
" />
<path d="M35.3180 46.1760
L35.3180 49.3760
" />
<path d="M36.9180 46.1760
L35.3180 46.1760
" />
<path d="M45.1238 117.6460
L44.2400 118.5298
" />
<path d="M44.2400 118.5298
L45.6542 119.9440
" />
<path d="M46.5380 119.0602
L45.1238 117.6460
" />
<path d="M45.6542 119.9440
L46.5380 119.0602
" />
<path d="M58.1113 122.3338
L58.9952 123.2177
" />
<path d="M58.9952 123.2177
L60.4094 121.8035
" />
<path d="M59.5255 120.9196
L58.1113 122.3338
" />
<path d="M60.4094 121.8035
L59.5255 120.9196
" />
<path d="M34.0090 158.7110
L34.0090 157.1110
" />
<path d="M34.0090 157.1110
L30.8090 157.1110
" />
<path d="M30.8090 158.7110
L34.0090 158.7110
" />
<path d="M30.8090 157.1110
L30.8090 158.7110
" />
<path d="M56.2887 117.6692
L55.4048 116.7853
" />
<path d="M55.4048 116.7853
L53.9906 118.1995
" />
<path d="M54.8745 119.0834
L56.2887 117.6692
" />
<path d="M53.9906 118.1995
L54.8745 119.0834
" />
<path d="M54.9024 109.3682
L54.0538 108.5196
" />
<path d="M54.0538 108.5196
L52.6396 109.9338
" />
<path d="M53.4882 110.7824
L54.9024 109.3682
" />
<path d="M52.6396 109.9338
L53.4882 110.7824
" />
<g >
</g>
<g >
</g>
<g >
</g>
<g >
</g>
<g >
</g>
<g >
</g>
<g >
</g>
<g >
</g>
<g >
</g>
<g >
</g>
<g >
</g>
<g >
</g>
<g >
</g>
<g >
</g>
<g >
</g>
<g >
</g>
<g >
</g>
<g >
</g>
<g >
</g>
<g >
</g>
<g >
</g>
<g >
</g>
<g >
</g>
<g >
</g>
<g >
</g>
<g >
</g>
<g >
</g>
<g >
</g>
<g >
</g>
<g >
</g>
<g >
</g>
<g >
</g>
<g >
</g>
<g >
</g>
<g >
</g>
<g >
</g>
<g >
</g>
<g >
</g>
<g >
</g>
<g >
</g>
<g >
</g>
<g >
</g>
<g >
</g>
<g >
</g>
<g >
</g>
<g >
</g>
<g >
</g>
<g >
</g>
<g >
</g>
<g >
</g>
<g >
</g>
<g >
</g>
<g >
</g>
<g >
</g>
<g >
</g>
<g >
</g>
<g >
</g>
<g >
</g>
<g >
</g>
<g >
</g>
<g >
</g>
<g >
</g>
<g >
</g>
<g >
</g>
<g >
</g>
<g >
</g>
<g >
</g>
<g >
</g>
<g >
</g>
<g >
</g>
<g >
</g>
<g >
</g>
<g >
</g>
<g >
</g>
<g >
</g>
<g >
</g>
<g >
</g>
<g >
</g>
<g >
</g>
<g >
</g>
<g >
</g>
<g >
</g>
<g >
</g>
<g >
</g>
<g >
</g>
<g >
</g>
<g >
</g>
<g >
</g>
<g >
</g>
<g >
</g>
<g >
</g>
<g >
</g>
<g >
</g>
<g >
</g>
<g >
</g>
<g >
</g>
<g >
</g>
<g >
</g>
<g >
</g>
<g >
</g>
<g >
</g>
<g >
</g>
<g >
</g>
<g >
</g>
<g >
</g>
<g >
</g>
<g >
</g>
<g >
</g>
<g >
</g>
<g >
</g>
<g >
</g>
<g >
</g>
<g >
</g>
<g >
</g>
<g >
</g>
<g >
</g>
<g >
</g>
<g >
</g>
<g >
</g>
<g >
</g>
<g >
</g>
<g >
</g>
<g >
</g>
<g >
</g>
<g >
</g>
<g >
</g>
<g >
</g>
<g >
</g>
<g >
</g>
</g>
<g style="fill:#000000; fill-opacity:0.0; 
stroke:#000000; stroke-width:0.1000; stroke-opacity:1; 
stroke-linecap:round; stroke-linejoin:round;">
</g>
<g style="fill:#D0D2CD; fill-opacity:0.0; 
stroke:#D0D2CD; stroke-width:0.1000; stroke-opacity:1; 
stroke-linecap:round; stroke-linejoin:round;">
<path style="fill:#D0D2CD; fill-opacity:0.0; 
stroke:#D0D2CD; stroke-width:0.1000; stroke-opacity:1; 
stroke-linecap:round; stroke-linejoin:round;fill:none"
d="M 0.0500,0.0500
115.3660,0.0500
115.3660,171.5000
0.0500,171.5000
Z" /> 
<g >
</g>
<g >
</g>
<g >
</g>
<g >
</g>
<g >
</g>
<g >
</g>
<g >
</g>
<g >
</g>
<g >
</g>
<g >
</g>
<g >
</g>
<g >
</g>
<g >
</g>
<g >
</g>
<g >
</g>
<g >
</g>
<g >
</g>
<g >
</g>
<g >
</g>
<g >
</g>
<g >
</g>
<g >
</g>
<g >
</g>
<g >
</g>
<g >
</g>
<g >
</g>
<g >
</g>
<g >
</g>
<g >
</g>
<g >
</g>
<g >
</g>
<g >
</g>
<g >
</g>
<g >
</g>
<g >
</g>
<g >
</g>
<g >
</g>
<g >
</g>
<g >
</g>
<g >
</g>
<g >
</g>
<g >
</g>
<g >
</g>
<g >
</g>
<g >
</g>
<g >
</g>
<g >
</g>
<g >
</g>
<g >
</g>
<g >
</g>
<g >
</g>
<g >
</g>
<g >
</g>
<g >
</g>
<g >
</g>
<g >
</g>
<g >
</g>
<g >
</g>
<g >
</g>
<g >
</g>
<g >
</g>
<g >
</g>
<g >
</g>
<g >
</g>
<g >
</g>
<g >
</g>
<g >
</g>
<g >
</g>
<g >
</g>
<g >
</g>
<g >
</g>
<g >
</g>
<g >
</g>
<g >
</g>
<g >
</g>
<g >
</g>
<g >
</g>
<g >
</g>
<g >
</g>
<g >
</g>
<g >
</g>
<g >
</g>
<g >
</g>
<g >
</g>
<g >
</g>
<g >
</g>
<g >
</g>
<g >
</g>
<g >
</g>
<g >
</g>
<g >
</g>
<g >
</g>
<g >
</g>
<g >
</g>
<g >
</g>
<g >
</g>
<g >
</g>
<g >
</g>
<g >
</g>
<g >
</g>
<g >
</g>
<g >
</g>
<g >
</g>
<g >
</g>
<g >
</g>
<g >
</g>
<g >
</g>
<g >
</g>
<g >
</g>
<g >
</g>
<g >
</g>
<g >
</g>
<g >
</g>
<g >
</g>
<g >
</g>
<g >
</g>
<g >
</g>
<g >
</g>
<g >
</g>
<g >
</g>
<g >
</g>
<g >
</g>
<g >
</g>
<g >
</g>
<g >
</g>
<g >
</g>
<g >
</g>
<g >
</g>
<g >
</g>
</g> 
</svg>
