G04 #@! TF.GenerationSoftware,KiCad,Pcbnew,7.0.7*
G04 #@! TF.CreationDate,2023-10-20T13:35:02-04:00*
G04 #@! TF.ProjectId,Schematic,53636865-6d61-4746-9963-2e6b69636164,rev?*
G04 #@! TF.SameCoordinates,Original*
G04 #@! TF.FileFunction,Legend,Bot*
G04 #@! TF.FilePolarity,Positive*
%FSLAX46Y46*%
G04 Gerber Fmt 4.6, Leading zero omitted, Abs format (unit mm)*
G04 Created by KiCad (PCBNEW 7.0.7) date 2023-10-20 13:35:02*
%MOMM*%
%LPD*%
G01*
G04 APERTURE LIST*
G04 Aperture macros list*
%AMRoundRect*
0 Rectangle with rounded corners*
0 $1 Rounding radius*
0 $2 $3 $4 $5 $6 $7 $8 $9 X,Y pos of 4 corners*
0 Add a 4 corners polygon primitive as box body*
4,1,4,$2,$3,$4,$5,$6,$7,$8,$9,$2,$3,0*
0 Add four circle primitives for the rounded corners*
1,1,$1+$1,$2,$3*
1,1,$1+$1,$4,$5*
1,1,$1+$1,$6,$7*
1,1,$1+$1,$8,$9*
0 Add four rect primitives between the rounded corners*
20,1,$1+$1,$2,$3,$4,$5,0*
20,1,$1+$1,$4,$5,$6,$7,0*
20,1,$1+$1,$6,$7,$8,$9,0*
20,1,$1+$1,$8,$9,$2,$3,0*%
G04 Aperture macros list end*
%ADD10C,0.150000*%
%ADD11C,0.120000*%
%ADD12RoundRect,0.250000X0.400000X0.625000X-0.400000X0.625000X-0.400000X-0.625000X0.400000X-0.625000X0*%
%ADD13C,1.800000*%
%ADD14RoundRect,0.250001X-1.099999X-1.099999X1.099999X-1.099999X1.099999X1.099999X-1.099999X1.099999X0*%
%ADD15C,2.700000*%
%ADD16C,2.000000*%
%ADD17R,1.800000X1.800000*%
%ADD18C,5.000000*%
%ADD19RoundRect,0.250001X-1.099999X1.099999X-1.099999X-1.099999X1.099999X-1.099999X1.099999X1.099999X0*%
%ADD20R,1.600000X1.600000*%
%ADD21O,1.600000X1.600000*%
%ADD22R,1.700000X1.700000*%
%ADD23O,1.700000X1.700000*%
%ADD24R,2.000000X1.905000*%
%ADD25O,2.000000X1.905000*%
%ADD26RoundRect,0.250000X-0.600000X-0.600000X0.600000X-0.600000X0.600000X0.600000X-0.600000X0.600000X0*%
%ADD27C,1.700000*%
%ADD28RoundRect,0.250000X1.400000X-2.000000X1.400000X2.000000X-1.400000X2.000000X-1.400000X-2.000000X0*%
%ADD29RoundRect,0.250000X-1.400000X2.000000X-1.400000X-2.000000X1.400000X-2.000000X1.400000X2.000000X0*%
%ADD30RoundRect,0.250000X-0.600000X0.600000X-0.600000X-0.600000X0.600000X-0.600000X0.600000X0.600000X0*%
%ADD31R,2.000000X2.000000*%
%ADD32R,1.295400X1.295400*%
%ADD33C,1.295400*%
%ADD34R,1.200000X1.200000*%
%ADD35C,1.200000*%
%ADD36RoundRect,0.250000X-0.400000X-0.625000X0.400000X-0.625000X0.400000X0.625000X-0.400000X0.625000X0*%
%ADD37RoundRect,0.250000X0.625000X-0.400000X0.625000X0.400000X-0.625000X0.400000X-0.625000X-0.400000X0*%
%ADD38RoundRect,0.250000X-0.475000X0.337500X-0.475000X-0.337500X0.475000X-0.337500X0.475000X0.337500X0*%
%ADD39RoundRect,0.250000X-0.625000X0.400000X-0.625000X-0.400000X0.625000X-0.400000X0.625000X0.400000X0*%
%ADD40RoundRect,0.250000X-0.574524X-0.097227X-0.097227X-0.574524X0.574524X0.097227X0.097227X0.574524X0*%
%ADD41RoundRect,0.250000X-0.412500X-0.650000X0.412500X-0.650000X0.412500X0.650000X-0.412500X0.650000X0*%
%ADD42RoundRect,0.250000X0.650000X-0.412500X0.650000X0.412500X-0.650000X0.412500X-0.650000X-0.412500X0*%
%ADD43RoundRect,0.250000X0.412500X0.650000X-0.412500X0.650000X-0.412500X-0.650000X0.412500X-0.650000X0*%
%ADD44RoundRect,0.250000X0.097227X-0.574524X0.574524X-0.097227X-0.097227X0.574524X-0.574524X0.097227X0*%
%ADD45RoundRect,0.250000X-0.097227X0.574524X-0.574524X0.097227X0.097227X-0.574524X0.574524X-0.097227X0*%
%ADD46RoundRect,0.250000X-0.650000X0.412500X-0.650000X-0.412500X0.650000X-0.412500X0.650000X0.412500X0*%
%ADD47RoundRect,0.250000X-0.088388X0.548008X-0.548008X0.088388X0.088388X-0.548008X0.548008X-0.088388X0*%
%ADD48C,0.800000*%
%ADD49C,2.500000*%
%ADD50C,1.600000*%
%ADD51C,3.000000*%
G04 APERTURE END LIST*
D10*
X58808857Y-96678819D02*
X59142190Y-96202628D01*
X59380285Y-96678819D02*
X59380285Y-95678819D01*
X59380285Y-95678819D02*
X58999333Y-95678819D01*
X58999333Y-95678819D02*
X58904095Y-95726438D01*
X58904095Y-95726438D02*
X58856476Y-95774057D01*
X58856476Y-95774057D02*
X58808857Y-95869295D01*
X58808857Y-95869295D02*
X58808857Y-96012152D01*
X58808857Y-96012152D02*
X58856476Y-96107390D01*
X58856476Y-96107390D02*
X58904095Y-96155009D01*
X58904095Y-96155009D02*
X58999333Y-96202628D01*
X58999333Y-96202628D02*
X59380285Y-96202628D01*
X57904095Y-95678819D02*
X58380285Y-95678819D01*
X58380285Y-95678819D02*
X58427904Y-96155009D01*
X58427904Y-96155009D02*
X58380285Y-96107390D01*
X58380285Y-96107390D02*
X58285047Y-96059771D01*
X58285047Y-96059771D02*
X58046952Y-96059771D01*
X58046952Y-96059771D02*
X57951714Y-96107390D01*
X57951714Y-96107390D02*
X57904095Y-96155009D01*
X57904095Y-96155009D02*
X57856476Y-96250247D01*
X57856476Y-96250247D02*
X57856476Y-96488342D01*
X57856476Y-96488342D02*
X57904095Y-96583580D01*
X57904095Y-96583580D02*
X57951714Y-96631200D01*
X57951714Y-96631200D02*
X58046952Y-96678819D01*
X58046952Y-96678819D02*
X58285047Y-96678819D01*
X58285047Y-96678819D02*
X58380285Y-96631200D01*
X58380285Y-96631200D02*
X58427904Y-96583580D01*
X57523142Y-95678819D02*
X56904095Y-95678819D01*
X56904095Y-95678819D02*
X57237428Y-96059771D01*
X57237428Y-96059771D02*
X57094571Y-96059771D01*
X57094571Y-96059771D02*
X56999333Y-96107390D01*
X56999333Y-96107390D02*
X56951714Y-96155009D01*
X56951714Y-96155009D02*
X56904095Y-96250247D01*
X56904095Y-96250247D02*
X56904095Y-96488342D01*
X56904095Y-96488342D02*
X56951714Y-96583580D01*
X56951714Y-96583580D02*
X56999333Y-96631200D01*
X56999333Y-96631200D02*
X57094571Y-96678819D01*
X57094571Y-96678819D02*
X57380285Y-96678819D01*
X57380285Y-96678819D02*
X57475523Y-96631200D01*
X57475523Y-96631200D02*
X57523142Y-96583580D01*
X58808857Y-92614819D02*
X59142190Y-92138628D01*
X59380285Y-92614819D02*
X59380285Y-91614819D01*
X59380285Y-91614819D02*
X58999333Y-91614819D01*
X58999333Y-91614819D02*
X58904095Y-91662438D01*
X58904095Y-91662438D02*
X58856476Y-91710057D01*
X58856476Y-91710057D02*
X58808857Y-91805295D01*
X58808857Y-91805295D02*
X58808857Y-91948152D01*
X58808857Y-91948152D02*
X58856476Y-92043390D01*
X58856476Y-92043390D02*
X58904095Y-92091009D01*
X58904095Y-92091009D02*
X58999333Y-92138628D01*
X58999333Y-92138628D02*
X59380285Y-92138628D01*
X57904095Y-91614819D02*
X58380285Y-91614819D01*
X58380285Y-91614819D02*
X58427904Y-92091009D01*
X58427904Y-92091009D02*
X58380285Y-92043390D01*
X58380285Y-92043390D02*
X58285047Y-91995771D01*
X58285047Y-91995771D02*
X58046952Y-91995771D01*
X58046952Y-91995771D02*
X57951714Y-92043390D01*
X57951714Y-92043390D02*
X57904095Y-92091009D01*
X57904095Y-92091009D02*
X57856476Y-92186247D01*
X57856476Y-92186247D02*
X57856476Y-92424342D01*
X57856476Y-92424342D02*
X57904095Y-92519580D01*
X57904095Y-92519580D02*
X57951714Y-92567200D01*
X57951714Y-92567200D02*
X58046952Y-92614819D01*
X58046952Y-92614819D02*
X58285047Y-92614819D01*
X58285047Y-92614819D02*
X58380285Y-92567200D01*
X58380285Y-92567200D02*
X58427904Y-92519580D01*
X57475523Y-91710057D02*
X57427904Y-91662438D01*
X57427904Y-91662438D02*
X57332666Y-91614819D01*
X57332666Y-91614819D02*
X57094571Y-91614819D01*
X57094571Y-91614819D02*
X56999333Y-91662438D01*
X56999333Y-91662438D02*
X56951714Y-91710057D01*
X56951714Y-91710057D02*
X56904095Y-91805295D01*
X56904095Y-91805295D02*
X56904095Y-91900533D01*
X56904095Y-91900533D02*
X56951714Y-92043390D01*
X56951714Y-92043390D02*
X57523142Y-92614819D01*
X57523142Y-92614819D02*
X56904095Y-92614819D01*
X49918857Y-133550819D02*
X50252190Y-133074628D01*
X50490285Y-133550819D02*
X50490285Y-132550819D01*
X50490285Y-132550819D02*
X50109333Y-132550819D01*
X50109333Y-132550819D02*
X50014095Y-132598438D01*
X50014095Y-132598438D02*
X49966476Y-132646057D01*
X49966476Y-132646057D02*
X49918857Y-132741295D01*
X49918857Y-132741295D02*
X49918857Y-132884152D01*
X49918857Y-132884152D02*
X49966476Y-132979390D01*
X49966476Y-132979390D02*
X50014095Y-133027009D01*
X50014095Y-133027009D02*
X50109333Y-133074628D01*
X50109333Y-133074628D02*
X50490285Y-133074628D01*
X49585523Y-132550819D02*
X48966476Y-132550819D01*
X48966476Y-132550819D02*
X49299809Y-132931771D01*
X49299809Y-132931771D02*
X49156952Y-132931771D01*
X49156952Y-132931771D02*
X49061714Y-132979390D01*
X49061714Y-132979390D02*
X49014095Y-133027009D01*
X49014095Y-133027009D02*
X48966476Y-133122247D01*
X48966476Y-133122247D02*
X48966476Y-133360342D01*
X48966476Y-133360342D02*
X49014095Y-133455580D01*
X49014095Y-133455580D02*
X49061714Y-133503200D01*
X49061714Y-133503200D02*
X49156952Y-133550819D01*
X49156952Y-133550819D02*
X49442666Y-133550819D01*
X49442666Y-133550819D02*
X49537904Y-133503200D01*
X49537904Y-133503200D02*
X49585523Y-133455580D01*
X48585523Y-132646057D02*
X48537904Y-132598438D01*
X48537904Y-132598438D02*
X48442666Y-132550819D01*
X48442666Y-132550819D02*
X48204571Y-132550819D01*
X48204571Y-132550819D02*
X48109333Y-132598438D01*
X48109333Y-132598438D02*
X48061714Y-132646057D01*
X48061714Y-132646057D02*
X48014095Y-132741295D01*
X48014095Y-132741295D02*
X48014095Y-132836533D01*
X48014095Y-132836533D02*
X48061714Y-132979390D01*
X48061714Y-132979390D02*
X48633142Y-133550819D01*
X48633142Y-133550819D02*
X48014095Y-133550819D01*
X72270857Y-38554819D02*
X72604190Y-38078628D01*
X72842285Y-38554819D02*
X72842285Y-37554819D01*
X72842285Y-37554819D02*
X72461333Y-37554819D01*
X72461333Y-37554819D02*
X72366095Y-37602438D01*
X72366095Y-37602438D02*
X72318476Y-37650057D01*
X72318476Y-37650057D02*
X72270857Y-37745295D01*
X72270857Y-37745295D02*
X72270857Y-37888152D01*
X72270857Y-37888152D02*
X72318476Y-37983390D01*
X72318476Y-37983390D02*
X72366095Y-38031009D01*
X72366095Y-38031009D02*
X72461333Y-38078628D01*
X72461333Y-38078628D02*
X72842285Y-38078628D01*
X71413714Y-37554819D02*
X71604190Y-37554819D01*
X71604190Y-37554819D02*
X71699428Y-37602438D01*
X71699428Y-37602438D02*
X71747047Y-37650057D01*
X71747047Y-37650057D02*
X71842285Y-37792914D01*
X71842285Y-37792914D02*
X71889904Y-37983390D01*
X71889904Y-37983390D02*
X71889904Y-38364342D01*
X71889904Y-38364342D02*
X71842285Y-38459580D01*
X71842285Y-38459580D02*
X71794666Y-38507200D01*
X71794666Y-38507200D02*
X71699428Y-38554819D01*
X71699428Y-38554819D02*
X71508952Y-38554819D01*
X71508952Y-38554819D02*
X71413714Y-38507200D01*
X71413714Y-38507200D02*
X71366095Y-38459580D01*
X71366095Y-38459580D02*
X71318476Y-38364342D01*
X71318476Y-38364342D02*
X71318476Y-38126247D01*
X71318476Y-38126247D02*
X71366095Y-38031009D01*
X71366095Y-38031009D02*
X71413714Y-37983390D01*
X71413714Y-37983390D02*
X71508952Y-37935771D01*
X71508952Y-37935771D02*
X71699428Y-37935771D01*
X71699428Y-37935771D02*
X71794666Y-37983390D01*
X71794666Y-37983390D02*
X71842285Y-38031009D01*
X71842285Y-38031009D02*
X71889904Y-38126247D01*
X70699428Y-37554819D02*
X70604190Y-37554819D01*
X70604190Y-37554819D02*
X70508952Y-37602438D01*
X70508952Y-37602438D02*
X70461333Y-37650057D01*
X70461333Y-37650057D02*
X70413714Y-37745295D01*
X70413714Y-37745295D02*
X70366095Y-37935771D01*
X70366095Y-37935771D02*
X70366095Y-38173866D01*
X70366095Y-38173866D02*
X70413714Y-38364342D01*
X70413714Y-38364342D02*
X70461333Y-38459580D01*
X70461333Y-38459580D02*
X70508952Y-38507200D01*
X70508952Y-38507200D02*
X70604190Y-38554819D01*
X70604190Y-38554819D02*
X70699428Y-38554819D01*
X70699428Y-38554819D02*
X70794666Y-38507200D01*
X70794666Y-38507200D02*
X70842285Y-38459580D01*
X70842285Y-38459580D02*
X70889904Y-38364342D01*
X70889904Y-38364342D02*
X70937523Y-38173866D01*
X70937523Y-38173866D02*
X70937523Y-37935771D01*
X70937523Y-37935771D02*
X70889904Y-37745295D01*
X70889904Y-37745295D02*
X70842285Y-37650057D01*
X70842285Y-37650057D02*
X70794666Y-37602438D01*
X70794666Y-37602438D02*
X70699428Y-37554819D01*
X86018666Y-145139580D02*
X86066285Y-145187200D01*
X86066285Y-145187200D02*
X86209142Y-145234819D01*
X86209142Y-145234819D02*
X86304380Y-145234819D01*
X86304380Y-145234819D02*
X86447237Y-145187200D01*
X86447237Y-145187200D02*
X86542475Y-145091961D01*
X86542475Y-145091961D02*
X86590094Y-144996723D01*
X86590094Y-144996723D02*
X86637713Y-144806247D01*
X86637713Y-144806247D02*
X86637713Y-144663390D01*
X86637713Y-144663390D02*
X86590094Y-144472914D01*
X86590094Y-144472914D02*
X86542475Y-144377676D01*
X86542475Y-144377676D02*
X86447237Y-144282438D01*
X86447237Y-144282438D02*
X86304380Y-144234819D01*
X86304380Y-144234819D02*
X86209142Y-144234819D01*
X86209142Y-144234819D02*
X86066285Y-144282438D01*
X86066285Y-144282438D02*
X86018666Y-144330057D01*
X85685332Y-144234819D02*
X85066285Y-144234819D01*
X85066285Y-144234819D02*
X85399618Y-144615771D01*
X85399618Y-144615771D02*
X85256761Y-144615771D01*
X85256761Y-144615771D02*
X85161523Y-144663390D01*
X85161523Y-144663390D02*
X85113904Y-144711009D01*
X85113904Y-144711009D02*
X85066285Y-144806247D01*
X85066285Y-144806247D02*
X85066285Y-145044342D01*
X85066285Y-145044342D02*
X85113904Y-145139580D01*
X85113904Y-145139580D02*
X85161523Y-145187200D01*
X85161523Y-145187200D02*
X85256761Y-145234819D01*
X85256761Y-145234819D02*
X85542475Y-145234819D01*
X85542475Y-145234819D02*
X85637713Y-145187200D01*
X85637713Y-145187200D02*
X85685332Y-145139580D01*
X49918857Y-136852819D02*
X50252190Y-136376628D01*
X50490285Y-136852819D02*
X50490285Y-135852819D01*
X50490285Y-135852819D02*
X50109333Y-135852819D01*
X50109333Y-135852819D02*
X50014095Y-135900438D01*
X50014095Y-135900438D02*
X49966476Y-135948057D01*
X49966476Y-135948057D02*
X49918857Y-136043295D01*
X49918857Y-136043295D02*
X49918857Y-136186152D01*
X49918857Y-136186152D02*
X49966476Y-136281390D01*
X49966476Y-136281390D02*
X50014095Y-136329009D01*
X50014095Y-136329009D02*
X50109333Y-136376628D01*
X50109333Y-136376628D02*
X50490285Y-136376628D01*
X49585523Y-135852819D02*
X48966476Y-135852819D01*
X48966476Y-135852819D02*
X49299809Y-136233771D01*
X49299809Y-136233771D02*
X49156952Y-136233771D01*
X49156952Y-136233771D02*
X49061714Y-136281390D01*
X49061714Y-136281390D02*
X49014095Y-136329009D01*
X49014095Y-136329009D02*
X48966476Y-136424247D01*
X48966476Y-136424247D02*
X48966476Y-136662342D01*
X48966476Y-136662342D02*
X49014095Y-136757580D01*
X49014095Y-136757580D02*
X49061714Y-136805200D01*
X49061714Y-136805200D02*
X49156952Y-136852819D01*
X49156952Y-136852819D02*
X49442666Y-136852819D01*
X49442666Y-136852819D02*
X49537904Y-136805200D01*
X49537904Y-136805200D02*
X49585523Y-136757580D01*
X48490285Y-136852819D02*
X48299809Y-136852819D01*
X48299809Y-136852819D02*
X48204571Y-136805200D01*
X48204571Y-136805200D02*
X48156952Y-136757580D01*
X48156952Y-136757580D02*
X48061714Y-136614723D01*
X48061714Y-136614723D02*
X48014095Y-136424247D01*
X48014095Y-136424247D02*
X48014095Y-136043295D01*
X48014095Y-136043295D02*
X48061714Y-135948057D01*
X48061714Y-135948057D02*
X48109333Y-135900438D01*
X48109333Y-135900438D02*
X48204571Y-135852819D01*
X48204571Y-135852819D02*
X48395047Y-135852819D01*
X48395047Y-135852819D02*
X48490285Y-135900438D01*
X48490285Y-135900438D02*
X48537904Y-135948057D01*
X48537904Y-135948057D02*
X48585523Y-136043295D01*
X48585523Y-136043295D02*
X48585523Y-136281390D01*
X48585523Y-136281390D02*
X48537904Y-136376628D01*
X48537904Y-136376628D02*
X48490285Y-136424247D01*
X48490285Y-136424247D02*
X48395047Y-136471866D01*
X48395047Y-136471866D02*
X48204571Y-136471866D01*
X48204571Y-136471866D02*
X48109333Y-136424247D01*
X48109333Y-136424247D02*
X48061714Y-136376628D01*
X48061714Y-136376628D02*
X48014095Y-136281390D01*
X118141819Y-91559142D02*
X117665628Y-91225809D01*
X118141819Y-90987714D02*
X117141819Y-90987714D01*
X117141819Y-90987714D02*
X117141819Y-91368666D01*
X117141819Y-91368666D02*
X117189438Y-91463904D01*
X117189438Y-91463904D02*
X117237057Y-91511523D01*
X117237057Y-91511523D02*
X117332295Y-91559142D01*
X117332295Y-91559142D02*
X117475152Y-91559142D01*
X117475152Y-91559142D02*
X117570390Y-91511523D01*
X117570390Y-91511523D02*
X117618009Y-91463904D01*
X117618009Y-91463904D02*
X117665628Y-91368666D01*
X117665628Y-91368666D02*
X117665628Y-90987714D01*
X117475152Y-92416285D02*
X118141819Y-92416285D01*
X117094200Y-92178190D02*
X117808485Y-91940095D01*
X117808485Y-91940095D02*
X117808485Y-92559142D01*
X117141819Y-93416285D02*
X117141819Y-92940095D01*
X117141819Y-92940095D02*
X117618009Y-92892476D01*
X117618009Y-92892476D02*
X117570390Y-92940095D01*
X117570390Y-92940095D02*
X117522771Y-93035333D01*
X117522771Y-93035333D02*
X117522771Y-93273428D01*
X117522771Y-93273428D02*
X117570390Y-93368666D01*
X117570390Y-93368666D02*
X117618009Y-93416285D01*
X117618009Y-93416285D02*
X117713247Y-93463904D01*
X117713247Y-93463904D02*
X117951342Y-93463904D01*
X117951342Y-93463904D02*
X118046580Y-93416285D01*
X118046580Y-93416285D02*
X118094200Y-93368666D01*
X118094200Y-93368666D02*
X118141819Y-93273428D01*
X118141819Y-93273428D02*
X118141819Y-93035333D01*
X118141819Y-93035333D02*
X118094200Y-92940095D01*
X118094200Y-92940095D02*
X118046580Y-92892476D01*
X93970588Y-133214112D02*
X93970588Y-133281456D01*
X93970588Y-133281456D02*
X94037932Y-133416143D01*
X94037932Y-133416143D02*
X94105275Y-133483486D01*
X94105275Y-133483486D02*
X94239962Y-133550830D01*
X94239962Y-133550830D02*
X94374649Y-133550830D01*
X94374649Y-133550830D02*
X94475664Y-133517158D01*
X94475664Y-133517158D02*
X94644023Y-133416143D01*
X94644023Y-133416143D02*
X94745038Y-133315128D01*
X94745038Y-133315128D02*
X94846054Y-133146769D01*
X94846054Y-133146769D02*
X94879725Y-133045754D01*
X94879725Y-133045754D02*
X94879725Y-132911067D01*
X94879725Y-132911067D02*
X94812382Y-132776380D01*
X94812382Y-132776380D02*
X94745038Y-132709036D01*
X94745038Y-132709036D02*
X94610351Y-132641693D01*
X94610351Y-132641693D02*
X94543008Y-132641693D01*
X93768558Y-132203960D02*
X93297153Y-132675364D01*
X94206290Y-132102945D02*
X93869573Y-132776380D01*
X93869573Y-132776380D02*
X93431840Y-132338647D01*
X115842166Y-114731580D02*
X115889785Y-114779200D01*
X115889785Y-114779200D02*
X116032642Y-114826819D01*
X116032642Y-114826819D02*
X116127880Y-114826819D01*
X116127880Y-114826819D02*
X116270737Y-114779200D01*
X116270737Y-114779200D02*
X116365975Y-114683961D01*
X116365975Y-114683961D02*
X116413594Y-114588723D01*
X116413594Y-114588723D02*
X116461213Y-114398247D01*
X116461213Y-114398247D02*
X116461213Y-114255390D01*
X116461213Y-114255390D02*
X116413594Y-114064914D01*
X116413594Y-114064914D02*
X116365975Y-113969676D01*
X116365975Y-113969676D02*
X116270737Y-113874438D01*
X116270737Y-113874438D02*
X116127880Y-113826819D01*
X116127880Y-113826819D02*
X116032642Y-113826819D01*
X116032642Y-113826819D02*
X115889785Y-113874438D01*
X115889785Y-113874438D02*
X115842166Y-113922057D01*
X115365975Y-114826819D02*
X115175499Y-114826819D01*
X115175499Y-114826819D02*
X115080261Y-114779200D01*
X115080261Y-114779200D02*
X115032642Y-114731580D01*
X115032642Y-114731580D02*
X114937404Y-114588723D01*
X114937404Y-114588723D02*
X114889785Y-114398247D01*
X114889785Y-114398247D02*
X114889785Y-114017295D01*
X114889785Y-114017295D02*
X114937404Y-113922057D01*
X114937404Y-113922057D02*
X114985023Y-113874438D01*
X114985023Y-113874438D02*
X115080261Y-113826819D01*
X115080261Y-113826819D02*
X115270737Y-113826819D01*
X115270737Y-113826819D02*
X115365975Y-113874438D01*
X115365975Y-113874438D02*
X115413594Y-113922057D01*
X115413594Y-113922057D02*
X115461213Y-114017295D01*
X115461213Y-114017295D02*
X115461213Y-114255390D01*
X115461213Y-114255390D02*
X115413594Y-114350628D01*
X115413594Y-114350628D02*
X115365975Y-114398247D01*
X115365975Y-114398247D02*
X115270737Y-114445866D01*
X115270737Y-114445866D02*
X115080261Y-114445866D01*
X115080261Y-114445866D02*
X114985023Y-114398247D01*
X114985023Y-114398247D02*
X114937404Y-114350628D01*
X114937404Y-114350628D02*
X114889785Y-114255390D01*
X49918857Y-140154819D02*
X50252190Y-139678628D01*
X50490285Y-140154819D02*
X50490285Y-139154819D01*
X50490285Y-139154819D02*
X50109333Y-139154819D01*
X50109333Y-139154819D02*
X50014095Y-139202438D01*
X50014095Y-139202438D02*
X49966476Y-139250057D01*
X49966476Y-139250057D02*
X49918857Y-139345295D01*
X49918857Y-139345295D02*
X49918857Y-139488152D01*
X49918857Y-139488152D02*
X49966476Y-139583390D01*
X49966476Y-139583390D02*
X50014095Y-139631009D01*
X50014095Y-139631009D02*
X50109333Y-139678628D01*
X50109333Y-139678628D02*
X50490285Y-139678628D01*
X49061714Y-139488152D02*
X49061714Y-140154819D01*
X49299809Y-139107200D02*
X49537904Y-139821485D01*
X49537904Y-139821485D02*
X48918857Y-139821485D01*
X48347428Y-139154819D02*
X48252190Y-139154819D01*
X48252190Y-139154819D02*
X48156952Y-139202438D01*
X48156952Y-139202438D02*
X48109333Y-139250057D01*
X48109333Y-139250057D02*
X48061714Y-139345295D01*
X48061714Y-139345295D02*
X48014095Y-139535771D01*
X48014095Y-139535771D02*
X48014095Y-139773866D01*
X48014095Y-139773866D02*
X48061714Y-139964342D01*
X48061714Y-139964342D02*
X48109333Y-140059580D01*
X48109333Y-140059580D02*
X48156952Y-140107200D01*
X48156952Y-140107200D02*
X48252190Y-140154819D01*
X48252190Y-140154819D02*
X48347428Y-140154819D01*
X48347428Y-140154819D02*
X48442666Y-140107200D01*
X48442666Y-140107200D02*
X48490285Y-140059580D01*
X48490285Y-140059580D02*
X48537904Y-139964342D01*
X48537904Y-139964342D02*
X48585523Y-139773866D01*
X48585523Y-139773866D02*
X48585523Y-139535771D01*
X48585523Y-139535771D02*
X48537904Y-139345295D01*
X48537904Y-139345295D02*
X48490285Y-139250057D01*
X48490285Y-139250057D02*
X48442666Y-139202438D01*
X48442666Y-139202438D02*
X48347428Y-139154819D01*
X65077857Y-50492819D02*
X65411190Y-50016628D01*
X65649285Y-50492819D02*
X65649285Y-49492819D01*
X65649285Y-49492819D02*
X65268333Y-49492819D01*
X65268333Y-49492819D02*
X65173095Y-49540438D01*
X65173095Y-49540438D02*
X65125476Y-49588057D01*
X65125476Y-49588057D02*
X65077857Y-49683295D01*
X65077857Y-49683295D02*
X65077857Y-49826152D01*
X65077857Y-49826152D02*
X65125476Y-49921390D01*
X65125476Y-49921390D02*
X65173095Y-49969009D01*
X65173095Y-49969009D02*
X65268333Y-50016628D01*
X65268333Y-50016628D02*
X65649285Y-50016628D01*
X64173095Y-49492819D02*
X64649285Y-49492819D01*
X64649285Y-49492819D02*
X64696904Y-49969009D01*
X64696904Y-49969009D02*
X64649285Y-49921390D01*
X64649285Y-49921390D02*
X64554047Y-49873771D01*
X64554047Y-49873771D02*
X64315952Y-49873771D01*
X64315952Y-49873771D02*
X64220714Y-49921390D01*
X64220714Y-49921390D02*
X64173095Y-49969009D01*
X64173095Y-49969009D02*
X64125476Y-50064247D01*
X64125476Y-50064247D02*
X64125476Y-50302342D01*
X64125476Y-50302342D02*
X64173095Y-50397580D01*
X64173095Y-50397580D02*
X64220714Y-50445200D01*
X64220714Y-50445200D02*
X64315952Y-50492819D01*
X64315952Y-50492819D02*
X64554047Y-50492819D01*
X64554047Y-50492819D02*
X64649285Y-50445200D01*
X64649285Y-50445200D02*
X64696904Y-50397580D01*
X63220714Y-49492819D02*
X63696904Y-49492819D01*
X63696904Y-49492819D02*
X63744523Y-49969009D01*
X63744523Y-49969009D02*
X63696904Y-49921390D01*
X63696904Y-49921390D02*
X63601666Y-49873771D01*
X63601666Y-49873771D02*
X63363571Y-49873771D01*
X63363571Y-49873771D02*
X63268333Y-49921390D01*
X63268333Y-49921390D02*
X63220714Y-49969009D01*
X63220714Y-49969009D02*
X63173095Y-50064247D01*
X63173095Y-50064247D02*
X63173095Y-50302342D01*
X63173095Y-50302342D02*
X63220714Y-50397580D01*
X63220714Y-50397580D02*
X63268333Y-50445200D01*
X63268333Y-50445200D02*
X63363571Y-50492819D01*
X63363571Y-50492819D02*
X63601666Y-50492819D01*
X63601666Y-50492819D02*
X63696904Y-50445200D01*
X63696904Y-50445200D02*
X63744523Y-50397580D01*
X65077857Y-62938819D02*
X65411190Y-62462628D01*
X65649285Y-62938819D02*
X65649285Y-61938819D01*
X65649285Y-61938819D02*
X65268333Y-61938819D01*
X65268333Y-61938819D02*
X65173095Y-61986438D01*
X65173095Y-61986438D02*
X65125476Y-62034057D01*
X65125476Y-62034057D02*
X65077857Y-62129295D01*
X65077857Y-62129295D02*
X65077857Y-62272152D01*
X65077857Y-62272152D02*
X65125476Y-62367390D01*
X65125476Y-62367390D02*
X65173095Y-62415009D01*
X65173095Y-62415009D02*
X65268333Y-62462628D01*
X65268333Y-62462628D02*
X65649285Y-62462628D01*
X64173095Y-61938819D02*
X64649285Y-61938819D01*
X64649285Y-61938819D02*
X64696904Y-62415009D01*
X64696904Y-62415009D02*
X64649285Y-62367390D01*
X64649285Y-62367390D02*
X64554047Y-62319771D01*
X64554047Y-62319771D02*
X64315952Y-62319771D01*
X64315952Y-62319771D02*
X64220714Y-62367390D01*
X64220714Y-62367390D02*
X64173095Y-62415009D01*
X64173095Y-62415009D02*
X64125476Y-62510247D01*
X64125476Y-62510247D02*
X64125476Y-62748342D01*
X64125476Y-62748342D02*
X64173095Y-62843580D01*
X64173095Y-62843580D02*
X64220714Y-62891200D01*
X64220714Y-62891200D02*
X64315952Y-62938819D01*
X64315952Y-62938819D02*
X64554047Y-62938819D01*
X64554047Y-62938819D02*
X64649285Y-62891200D01*
X64649285Y-62891200D02*
X64696904Y-62843580D01*
X63268333Y-61938819D02*
X63458809Y-61938819D01*
X63458809Y-61938819D02*
X63554047Y-61986438D01*
X63554047Y-61986438D02*
X63601666Y-62034057D01*
X63601666Y-62034057D02*
X63696904Y-62176914D01*
X63696904Y-62176914D02*
X63744523Y-62367390D01*
X63744523Y-62367390D02*
X63744523Y-62748342D01*
X63744523Y-62748342D02*
X63696904Y-62843580D01*
X63696904Y-62843580D02*
X63649285Y-62891200D01*
X63649285Y-62891200D02*
X63554047Y-62938819D01*
X63554047Y-62938819D02*
X63363571Y-62938819D01*
X63363571Y-62938819D02*
X63268333Y-62891200D01*
X63268333Y-62891200D02*
X63220714Y-62843580D01*
X63220714Y-62843580D02*
X63173095Y-62748342D01*
X63173095Y-62748342D02*
X63173095Y-62510247D01*
X63173095Y-62510247D02*
X63220714Y-62415009D01*
X63220714Y-62415009D02*
X63268333Y-62367390D01*
X63268333Y-62367390D02*
X63363571Y-62319771D01*
X63363571Y-62319771D02*
X63554047Y-62319771D01*
X63554047Y-62319771D02*
X63649285Y-62367390D01*
X63649285Y-62367390D02*
X63696904Y-62415009D01*
X63696904Y-62415009D02*
X63744523Y-62510247D01*
X61348857Y-37951580D02*
X61396476Y-37999200D01*
X61396476Y-37999200D02*
X61539333Y-38046819D01*
X61539333Y-38046819D02*
X61634571Y-38046819D01*
X61634571Y-38046819D02*
X61777428Y-37999200D01*
X61777428Y-37999200D02*
X61872666Y-37903961D01*
X61872666Y-37903961D02*
X61920285Y-37808723D01*
X61920285Y-37808723D02*
X61967904Y-37618247D01*
X61967904Y-37618247D02*
X61967904Y-37475390D01*
X61967904Y-37475390D02*
X61920285Y-37284914D01*
X61920285Y-37284914D02*
X61872666Y-37189676D01*
X61872666Y-37189676D02*
X61777428Y-37094438D01*
X61777428Y-37094438D02*
X61634571Y-37046819D01*
X61634571Y-37046819D02*
X61539333Y-37046819D01*
X61539333Y-37046819D02*
X61396476Y-37094438D01*
X61396476Y-37094438D02*
X61348857Y-37142057D01*
X60967904Y-37142057D02*
X60920285Y-37094438D01*
X60920285Y-37094438D02*
X60825047Y-37046819D01*
X60825047Y-37046819D02*
X60586952Y-37046819D01*
X60586952Y-37046819D02*
X60491714Y-37094438D01*
X60491714Y-37094438D02*
X60444095Y-37142057D01*
X60444095Y-37142057D02*
X60396476Y-37237295D01*
X60396476Y-37237295D02*
X60396476Y-37332533D01*
X60396476Y-37332533D02*
X60444095Y-37475390D01*
X60444095Y-37475390D02*
X61015523Y-38046819D01*
X61015523Y-38046819D02*
X60396476Y-38046819D01*
X60015523Y-37142057D02*
X59967904Y-37094438D01*
X59967904Y-37094438D02*
X59872666Y-37046819D01*
X59872666Y-37046819D02*
X59634571Y-37046819D01*
X59634571Y-37046819D02*
X59539333Y-37094438D01*
X59539333Y-37094438D02*
X59491714Y-37142057D01*
X59491714Y-37142057D02*
X59444095Y-37237295D01*
X59444095Y-37237295D02*
X59444095Y-37332533D01*
X59444095Y-37332533D02*
X59491714Y-37475390D01*
X59491714Y-37475390D02*
X60063142Y-38046819D01*
X60063142Y-38046819D02*
X59444095Y-38046819D01*
X72117857Y-116532819D02*
X72451190Y-116056628D01*
X72689285Y-116532819D02*
X72689285Y-115532819D01*
X72689285Y-115532819D02*
X72308333Y-115532819D01*
X72308333Y-115532819D02*
X72213095Y-115580438D01*
X72213095Y-115580438D02*
X72165476Y-115628057D01*
X72165476Y-115628057D02*
X72117857Y-115723295D01*
X72117857Y-115723295D02*
X72117857Y-115866152D01*
X72117857Y-115866152D02*
X72165476Y-115961390D01*
X72165476Y-115961390D02*
X72213095Y-116009009D01*
X72213095Y-116009009D02*
X72308333Y-116056628D01*
X72308333Y-116056628D02*
X72689285Y-116056628D01*
X71784523Y-115532819D02*
X71165476Y-115532819D01*
X71165476Y-115532819D02*
X71498809Y-115913771D01*
X71498809Y-115913771D02*
X71355952Y-115913771D01*
X71355952Y-115913771D02*
X71260714Y-115961390D01*
X71260714Y-115961390D02*
X71213095Y-116009009D01*
X71213095Y-116009009D02*
X71165476Y-116104247D01*
X71165476Y-116104247D02*
X71165476Y-116342342D01*
X71165476Y-116342342D02*
X71213095Y-116437580D01*
X71213095Y-116437580D02*
X71260714Y-116485200D01*
X71260714Y-116485200D02*
X71355952Y-116532819D01*
X71355952Y-116532819D02*
X71641666Y-116532819D01*
X71641666Y-116532819D02*
X71736904Y-116485200D01*
X71736904Y-116485200D02*
X71784523Y-116437580D01*
X70260714Y-115532819D02*
X70736904Y-115532819D01*
X70736904Y-115532819D02*
X70784523Y-116009009D01*
X70784523Y-116009009D02*
X70736904Y-115961390D01*
X70736904Y-115961390D02*
X70641666Y-115913771D01*
X70641666Y-115913771D02*
X70403571Y-115913771D01*
X70403571Y-115913771D02*
X70308333Y-115961390D01*
X70308333Y-115961390D02*
X70260714Y-116009009D01*
X70260714Y-116009009D02*
X70213095Y-116104247D01*
X70213095Y-116104247D02*
X70213095Y-116342342D01*
X70213095Y-116342342D02*
X70260714Y-116437580D01*
X70260714Y-116437580D02*
X70308333Y-116485200D01*
X70308333Y-116485200D02*
X70403571Y-116532819D01*
X70403571Y-116532819D02*
X70641666Y-116532819D01*
X70641666Y-116532819D02*
X70736904Y-116485200D01*
X70736904Y-116485200D02*
X70784523Y-116437580D01*
X71863857Y-120088819D02*
X72197190Y-119612628D01*
X72435285Y-120088819D02*
X72435285Y-119088819D01*
X72435285Y-119088819D02*
X72054333Y-119088819D01*
X72054333Y-119088819D02*
X71959095Y-119136438D01*
X71959095Y-119136438D02*
X71911476Y-119184057D01*
X71911476Y-119184057D02*
X71863857Y-119279295D01*
X71863857Y-119279295D02*
X71863857Y-119422152D01*
X71863857Y-119422152D02*
X71911476Y-119517390D01*
X71911476Y-119517390D02*
X71959095Y-119565009D01*
X71959095Y-119565009D02*
X72054333Y-119612628D01*
X72054333Y-119612628D02*
X72435285Y-119612628D01*
X71530523Y-119088819D02*
X70911476Y-119088819D01*
X70911476Y-119088819D02*
X71244809Y-119469771D01*
X71244809Y-119469771D02*
X71101952Y-119469771D01*
X71101952Y-119469771D02*
X71006714Y-119517390D01*
X71006714Y-119517390D02*
X70959095Y-119565009D01*
X70959095Y-119565009D02*
X70911476Y-119660247D01*
X70911476Y-119660247D02*
X70911476Y-119898342D01*
X70911476Y-119898342D02*
X70959095Y-119993580D01*
X70959095Y-119993580D02*
X71006714Y-120041200D01*
X71006714Y-120041200D02*
X71101952Y-120088819D01*
X71101952Y-120088819D02*
X71387666Y-120088819D01*
X71387666Y-120088819D02*
X71482904Y-120041200D01*
X71482904Y-120041200D02*
X71530523Y-119993580D01*
X70054333Y-119088819D02*
X70244809Y-119088819D01*
X70244809Y-119088819D02*
X70340047Y-119136438D01*
X70340047Y-119136438D02*
X70387666Y-119184057D01*
X70387666Y-119184057D02*
X70482904Y-119326914D01*
X70482904Y-119326914D02*
X70530523Y-119517390D01*
X70530523Y-119517390D02*
X70530523Y-119898342D01*
X70530523Y-119898342D02*
X70482904Y-119993580D01*
X70482904Y-119993580D02*
X70435285Y-120041200D01*
X70435285Y-120041200D02*
X70340047Y-120088819D01*
X70340047Y-120088819D02*
X70149571Y-120088819D01*
X70149571Y-120088819D02*
X70054333Y-120041200D01*
X70054333Y-120041200D02*
X70006714Y-119993580D01*
X70006714Y-119993580D02*
X69959095Y-119898342D01*
X69959095Y-119898342D02*
X69959095Y-119660247D01*
X69959095Y-119660247D02*
X70006714Y-119565009D01*
X70006714Y-119565009D02*
X70054333Y-119517390D01*
X70054333Y-119517390D02*
X70149571Y-119469771D01*
X70149571Y-119469771D02*
X70340047Y-119469771D01*
X70340047Y-119469771D02*
X70435285Y-119517390D01*
X70435285Y-119517390D02*
X70482904Y-119565009D01*
X70482904Y-119565009D02*
X70530523Y-119660247D01*
X129166857Y-162847580D02*
X129214476Y-162895200D01*
X129214476Y-162895200D02*
X129357333Y-162942819D01*
X129357333Y-162942819D02*
X129452571Y-162942819D01*
X129452571Y-162942819D02*
X129595428Y-162895200D01*
X129595428Y-162895200D02*
X129690666Y-162799961D01*
X129690666Y-162799961D02*
X129738285Y-162704723D01*
X129738285Y-162704723D02*
X129785904Y-162514247D01*
X129785904Y-162514247D02*
X129785904Y-162371390D01*
X129785904Y-162371390D02*
X129738285Y-162180914D01*
X129738285Y-162180914D02*
X129690666Y-162085676D01*
X129690666Y-162085676D02*
X129595428Y-161990438D01*
X129595428Y-161990438D02*
X129452571Y-161942819D01*
X129452571Y-161942819D02*
X129357333Y-161942819D01*
X129357333Y-161942819D02*
X129214476Y-161990438D01*
X129214476Y-161990438D02*
X129166857Y-162038057D01*
X128785904Y-162038057D02*
X128738285Y-161990438D01*
X128738285Y-161990438D02*
X128643047Y-161942819D01*
X128643047Y-161942819D02*
X128404952Y-161942819D01*
X128404952Y-161942819D02*
X128309714Y-161990438D01*
X128309714Y-161990438D02*
X128262095Y-162038057D01*
X128262095Y-162038057D02*
X128214476Y-162133295D01*
X128214476Y-162133295D02*
X128214476Y-162228533D01*
X128214476Y-162228533D02*
X128262095Y-162371390D01*
X128262095Y-162371390D02*
X128833523Y-162942819D01*
X128833523Y-162942819D02*
X128214476Y-162942819D01*
X127881142Y-161942819D02*
X127262095Y-161942819D01*
X127262095Y-161942819D02*
X127595428Y-162323771D01*
X127595428Y-162323771D02*
X127452571Y-162323771D01*
X127452571Y-162323771D02*
X127357333Y-162371390D01*
X127357333Y-162371390D02*
X127309714Y-162419009D01*
X127309714Y-162419009D02*
X127262095Y-162514247D01*
X127262095Y-162514247D02*
X127262095Y-162752342D01*
X127262095Y-162752342D02*
X127309714Y-162847580D01*
X127309714Y-162847580D02*
X127357333Y-162895200D01*
X127357333Y-162895200D02*
X127452571Y-162942819D01*
X127452571Y-162942819D02*
X127738285Y-162942819D01*
X127738285Y-162942819D02*
X127833523Y-162895200D01*
X127833523Y-162895200D02*
X127881142Y-162847580D01*
X69141857Y-50492819D02*
X69475190Y-50016628D01*
X69713285Y-50492819D02*
X69713285Y-49492819D01*
X69713285Y-49492819D02*
X69332333Y-49492819D01*
X69332333Y-49492819D02*
X69237095Y-49540438D01*
X69237095Y-49540438D02*
X69189476Y-49588057D01*
X69189476Y-49588057D02*
X69141857Y-49683295D01*
X69141857Y-49683295D02*
X69141857Y-49826152D01*
X69141857Y-49826152D02*
X69189476Y-49921390D01*
X69189476Y-49921390D02*
X69237095Y-49969009D01*
X69237095Y-49969009D02*
X69332333Y-50016628D01*
X69332333Y-50016628D02*
X69713285Y-50016628D01*
X68284714Y-49492819D02*
X68475190Y-49492819D01*
X68475190Y-49492819D02*
X68570428Y-49540438D01*
X68570428Y-49540438D02*
X68618047Y-49588057D01*
X68618047Y-49588057D02*
X68713285Y-49730914D01*
X68713285Y-49730914D02*
X68760904Y-49921390D01*
X68760904Y-49921390D02*
X68760904Y-50302342D01*
X68760904Y-50302342D02*
X68713285Y-50397580D01*
X68713285Y-50397580D02*
X68665666Y-50445200D01*
X68665666Y-50445200D02*
X68570428Y-50492819D01*
X68570428Y-50492819D02*
X68379952Y-50492819D01*
X68379952Y-50492819D02*
X68284714Y-50445200D01*
X68284714Y-50445200D02*
X68237095Y-50397580D01*
X68237095Y-50397580D02*
X68189476Y-50302342D01*
X68189476Y-50302342D02*
X68189476Y-50064247D01*
X68189476Y-50064247D02*
X68237095Y-49969009D01*
X68237095Y-49969009D02*
X68284714Y-49921390D01*
X68284714Y-49921390D02*
X68379952Y-49873771D01*
X68379952Y-49873771D02*
X68570428Y-49873771D01*
X68570428Y-49873771D02*
X68665666Y-49921390D01*
X68665666Y-49921390D02*
X68713285Y-49969009D01*
X68713285Y-49969009D02*
X68760904Y-50064247D01*
X67237095Y-50492819D02*
X67808523Y-50492819D01*
X67522809Y-50492819D02*
X67522809Y-49492819D01*
X67522809Y-49492819D02*
X67618047Y-49635676D01*
X67618047Y-49635676D02*
X67713285Y-49730914D01*
X67713285Y-49730914D02*
X67808523Y-49778533D01*
X79747112Y-133486411D02*
X79814456Y-133486411D01*
X79814456Y-133486411D02*
X79949143Y-133419067D01*
X79949143Y-133419067D02*
X80016486Y-133351724D01*
X80016486Y-133351724D02*
X80083830Y-133217037D01*
X80083830Y-133217037D02*
X80083830Y-133082350D01*
X80083830Y-133082350D02*
X80050158Y-132981335D01*
X80050158Y-132981335D02*
X79949143Y-132812976D01*
X79949143Y-132812976D02*
X79848128Y-132711961D01*
X79848128Y-132711961D02*
X79679769Y-132610945D01*
X79679769Y-132610945D02*
X79578754Y-132577274D01*
X79578754Y-132577274D02*
X79444067Y-132577274D01*
X79444067Y-132577274D02*
X79309380Y-132644617D01*
X79309380Y-132644617D02*
X79242036Y-132711961D01*
X79242036Y-132711961D02*
X79174693Y-132846648D01*
X79174693Y-132846648D02*
X79174693Y-132913991D01*
X78905319Y-133183365D02*
X78837975Y-133183365D01*
X78837975Y-133183365D02*
X78736960Y-133217037D01*
X78736960Y-133217037D02*
X78568601Y-133385396D01*
X78568601Y-133385396D02*
X78534929Y-133486411D01*
X78534929Y-133486411D02*
X78534929Y-133553754D01*
X78534929Y-133553754D02*
X78568601Y-133654770D01*
X78568601Y-133654770D02*
X78635945Y-133722113D01*
X78635945Y-133722113D02*
X78770632Y-133789457D01*
X78770632Y-133789457D02*
X79578754Y-133789457D01*
X79578754Y-133789457D02*
X79141021Y-134227189D01*
X68460857Y-38554819D02*
X68794190Y-38078628D01*
X69032285Y-38554819D02*
X69032285Y-37554819D01*
X69032285Y-37554819D02*
X68651333Y-37554819D01*
X68651333Y-37554819D02*
X68556095Y-37602438D01*
X68556095Y-37602438D02*
X68508476Y-37650057D01*
X68508476Y-37650057D02*
X68460857Y-37745295D01*
X68460857Y-37745295D02*
X68460857Y-37888152D01*
X68460857Y-37888152D02*
X68508476Y-37983390D01*
X68508476Y-37983390D02*
X68556095Y-38031009D01*
X68556095Y-38031009D02*
X68651333Y-38078628D01*
X68651333Y-38078628D02*
X69032285Y-38078628D01*
X67556095Y-37554819D02*
X68032285Y-37554819D01*
X68032285Y-37554819D02*
X68079904Y-38031009D01*
X68079904Y-38031009D02*
X68032285Y-37983390D01*
X68032285Y-37983390D02*
X67937047Y-37935771D01*
X67937047Y-37935771D02*
X67698952Y-37935771D01*
X67698952Y-37935771D02*
X67603714Y-37983390D01*
X67603714Y-37983390D02*
X67556095Y-38031009D01*
X67556095Y-38031009D02*
X67508476Y-38126247D01*
X67508476Y-38126247D02*
X67508476Y-38364342D01*
X67508476Y-38364342D02*
X67556095Y-38459580D01*
X67556095Y-38459580D02*
X67603714Y-38507200D01*
X67603714Y-38507200D02*
X67698952Y-38554819D01*
X67698952Y-38554819D02*
X67937047Y-38554819D01*
X67937047Y-38554819D02*
X68032285Y-38507200D01*
X68032285Y-38507200D02*
X68079904Y-38459580D01*
X66651333Y-37888152D02*
X66651333Y-38554819D01*
X66889428Y-37507200D02*
X67127523Y-38221485D01*
X67127523Y-38221485D02*
X66508476Y-38221485D01*
X52966857Y-38046819D02*
X53300190Y-37570628D01*
X53538285Y-38046819D02*
X53538285Y-37046819D01*
X53538285Y-37046819D02*
X53157333Y-37046819D01*
X53157333Y-37046819D02*
X53062095Y-37094438D01*
X53062095Y-37094438D02*
X53014476Y-37142057D01*
X53014476Y-37142057D02*
X52966857Y-37237295D01*
X52966857Y-37237295D02*
X52966857Y-37380152D01*
X52966857Y-37380152D02*
X53014476Y-37475390D01*
X53014476Y-37475390D02*
X53062095Y-37523009D01*
X53062095Y-37523009D02*
X53157333Y-37570628D01*
X53157333Y-37570628D02*
X53538285Y-37570628D01*
X52062095Y-37046819D02*
X52538285Y-37046819D01*
X52538285Y-37046819D02*
X52585904Y-37523009D01*
X52585904Y-37523009D02*
X52538285Y-37475390D01*
X52538285Y-37475390D02*
X52443047Y-37427771D01*
X52443047Y-37427771D02*
X52204952Y-37427771D01*
X52204952Y-37427771D02*
X52109714Y-37475390D01*
X52109714Y-37475390D02*
X52062095Y-37523009D01*
X52062095Y-37523009D02*
X52014476Y-37618247D01*
X52014476Y-37618247D02*
X52014476Y-37856342D01*
X52014476Y-37856342D02*
X52062095Y-37951580D01*
X52062095Y-37951580D02*
X52109714Y-37999200D01*
X52109714Y-37999200D02*
X52204952Y-38046819D01*
X52204952Y-38046819D02*
X52443047Y-38046819D01*
X52443047Y-38046819D02*
X52538285Y-37999200D01*
X52538285Y-37999200D02*
X52585904Y-37951580D01*
X51538285Y-38046819D02*
X51347809Y-38046819D01*
X51347809Y-38046819D02*
X51252571Y-37999200D01*
X51252571Y-37999200D02*
X51204952Y-37951580D01*
X51204952Y-37951580D02*
X51109714Y-37808723D01*
X51109714Y-37808723D02*
X51062095Y-37618247D01*
X51062095Y-37618247D02*
X51062095Y-37237295D01*
X51062095Y-37237295D02*
X51109714Y-37142057D01*
X51109714Y-37142057D02*
X51157333Y-37094438D01*
X51157333Y-37094438D02*
X51252571Y-37046819D01*
X51252571Y-37046819D02*
X51443047Y-37046819D01*
X51443047Y-37046819D02*
X51538285Y-37094438D01*
X51538285Y-37094438D02*
X51585904Y-37142057D01*
X51585904Y-37142057D02*
X51633523Y-37237295D01*
X51633523Y-37237295D02*
X51633523Y-37475390D01*
X51633523Y-37475390D02*
X51585904Y-37570628D01*
X51585904Y-37570628D02*
X51538285Y-37618247D01*
X51538285Y-37618247D02*
X51443047Y-37665866D01*
X51443047Y-37665866D02*
X51252571Y-37665866D01*
X51252571Y-37665866D02*
X51157333Y-37618247D01*
X51157333Y-37618247D02*
X51109714Y-37570628D01*
X51109714Y-37570628D02*
X51062095Y-37475390D01*
X65331857Y-87830819D02*
X65665190Y-87354628D01*
X65903285Y-87830819D02*
X65903285Y-86830819D01*
X65903285Y-86830819D02*
X65522333Y-86830819D01*
X65522333Y-86830819D02*
X65427095Y-86878438D01*
X65427095Y-86878438D02*
X65379476Y-86926057D01*
X65379476Y-86926057D02*
X65331857Y-87021295D01*
X65331857Y-87021295D02*
X65331857Y-87164152D01*
X65331857Y-87164152D02*
X65379476Y-87259390D01*
X65379476Y-87259390D02*
X65427095Y-87307009D01*
X65427095Y-87307009D02*
X65522333Y-87354628D01*
X65522333Y-87354628D02*
X65903285Y-87354628D01*
X64427095Y-86830819D02*
X64903285Y-86830819D01*
X64903285Y-86830819D02*
X64950904Y-87307009D01*
X64950904Y-87307009D02*
X64903285Y-87259390D01*
X64903285Y-87259390D02*
X64808047Y-87211771D01*
X64808047Y-87211771D02*
X64569952Y-87211771D01*
X64569952Y-87211771D02*
X64474714Y-87259390D01*
X64474714Y-87259390D02*
X64427095Y-87307009D01*
X64427095Y-87307009D02*
X64379476Y-87402247D01*
X64379476Y-87402247D02*
X64379476Y-87640342D01*
X64379476Y-87640342D02*
X64427095Y-87735580D01*
X64427095Y-87735580D02*
X64474714Y-87783200D01*
X64474714Y-87783200D02*
X64569952Y-87830819D01*
X64569952Y-87830819D02*
X64808047Y-87830819D01*
X64808047Y-87830819D02*
X64903285Y-87783200D01*
X64903285Y-87783200D02*
X64950904Y-87735580D01*
X63808047Y-87259390D02*
X63903285Y-87211771D01*
X63903285Y-87211771D02*
X63950904Y-87164152D01*
X63950904Y-87164152D02*
X63998523Y-87068914D01*
X63998523Y-87068914D02*
X63998523Y-87021295D01*
X63998523Y-87021295D02*
X63950904Y-86926057D01*
X63950904Y-86926057D02*
X63903285Y-86878438D01*
X63903285Y-86878438D02*
X63808047Y-86830819D01*
X63808047Y-86830819D02*
X63617571Y-86830819D01*
X63617571Y-86830819D02*
X63522333Y-86878438D01*
X63522333Y-86878438D02*
X63474714Y-86926057D01*
X63474714Y-86926057D02*
X63427095Y-87021295D01*
X63427095Y-87021295D02*
X63427095Y-87068914D01*
X63427095Y-87068914D02*
X63474714Y-87164152D01*
X63474714Y-87164152D02*
X63522333Y-87211771D01*
X63522333Y-87211771D02*
X63617571Y-87259390D01*
X63617571Y-87259390D02*
X63808047Y-87259390D01*
X63808047Y-87259390D02*
X63903285Y-87307009D01*
X63903285Y-87307009D02*
X63950904Y-87354628D01*
X63950904Y-87354628D02*
X63998523Y-87449866D01*
X63998523Y-87449866D02*
X63998523Y-87640342D01*
X63998523Y-87640342D02*
X63950904Y-87735580D01*
X63950904Y-87735580D02*
X63903285Y-87783200D01*
X63903285Y-87783200D02*
X63808047Y-87830819D01*
X63808047Y-87830819D02*
X63617571Y-87830819D01*
X63617571Y-87830819D02*
X63522333Y-87783200D01*
X63522333Y-87783200D02*
X63474714Y-87735580D01*
X63474714Y-87735580D02*
X63427095Y-87640342D01*
X63427095Y-87640342D02*
X63427095Y-87449866D01*
X63427095Y-87449866D02*
X63474714Y-87354628D01*
X63474714Y-87354628D02*
X63522333Y-87307009D01*
X63522333Y-87307009D02*
X63617571Y-87259390D01*
X85924649Y-127798051D02*
X85924649Y-127865395D01*
X85924649Y-127865395D02*
X85991993Y-128000082D01*
X85991993Y-128000082D02*
X86059336Y-128067425D01*
X86059336Y-128067425D02*
X86194023Y-128134769D01*
X86194023Y-128134769D02*
X86328710Y-128134769D01*
X86328710Y-128134769D02*
X86429725Y-128101097D01*
X86429725Y-128101097D02*
X86598084Y-128000082D01*
X86598084Y-128000082D02*
X86699099Y-127899067D01*
X86699099Y-127899067D02*
X86800115Y-127730708D01*
X86800115Y-127730708D02*
X86833786Y-127629693D01*
X86833786Y-127629693D02*
X86833786Y-127495006D01*
X86833786Y-127495006D02*
X86766443Y-127360319D01*
X86766443Y-127360319D02*
X86699099Y-127292975D01*
X86699099Y-127292975D02*
X86564412Y-127225632D01*
X86564412Y-127225632D02*
X86497069Y-127225632D01*
X85958321Y-126552197D02*
X86093008Y-126686884D01*
X86093008Y-126686884D02*
X86126680Y-126787899D01*
X86126680Y-126787899D02*
X86126680Y-126855242D01*
X86126680Y-126855242D02*
X86093008Y-127023601D01*
X86093008Y-127023601D02*
X85991993Y-127191960D01*
X85991993Y-127191960D02*
X85722619Y-127461334D01*
X85722619Y-127461334D02*
X85621603Y-127495006D01*
X85621603Y-127495006D02*
X85554260Y-127495006D01*
X85554260Y-127495006D02*
X85453245Y-127461334D01*
X85453245Y-127461334D02*
X85318558Y-127326647D01*
X85318558Y-127326647D02*
X85284886Y-127225632D01*
X85284886Y-127225632D02*
X85284886Y-127158288D01*
X85284886Y-127158288D02*
X85318558Y-127057273D01*
X85318558Y-127057273D02*
X85486916Y-126888914D01*
X85486916Y-126888914D02*
X85587932Y-126855242D01*
X85587932Y-126855242D02*
X85655275Y-126855242D01*
X85655275Y-126855242D02*
X85756290Y-126888914D01*
X85756290Y-126888914D02*
X85890977Y-127023601D01*
X85890977Y-127023601D02*
X85924649Y-127124616D01*
X85924649Y-127124616D02*
X85924649Y-127191960D01*
X85924649Y-127191960D02*
X85890977Y-127292975D01*
X65331857Y-75130819D02*
X65665190Y-74654628D01*
X65903285Y-75130819D02*
X65903285Y-74130819D01*
X65903285Y-74130819D02*
X65522333Y-74130819D01*
X65522333Y-74130819D02*
X65427095Y-74178438D01*
X65427095Y-74178438D02*
X65379476Y-74226057D01*
X65379476Y-74226057D02*
X65331857Y-74321295D01*
X65331857Y-74321295D02*
X65331857Y-74464152D01*
X65331857Y-74464152D02*
X65379476Y-74559390D01*
X65379476Y-74559390D02*
X65427095Y-74607009D01*
X65427095Y-74607009D02*
X65522333Y-74654628D01*
X65522333Y-74654628D02*
X65903285Y-74654628D01*
X64427095Y-74130819D02*
X64903285Y-74130819D01*
X64903285Y-74130819D02*
X64950904Y-74607009D01*
X64950904Y-74607009D02*
X64903285Y-74559390D01*
X64903285Y-74559390D02*
X64808047Y-74511771D01*
X64808047Y-74511771D02*
X64569952Y-74511771D01*
X64569952Y-74511771D02*
X64474714Y-74559390D01*
X64474714Y-74559390D02*
X64427095Y-74607009D01*
X64427095Y-74607009D02*
X64379476Y-74702247D01*
X64379476Y-74702247D02*
X64379476Y-74940342D01*
X64379476Y-74940342D02*
X64427095Y-75035580D01*
X64427095Y-75035580D02*
X64474714Y-75083200D01*
X64474714Y-75083200D02*
X64569952Y-75130819D01*
X64569952Y-75130819D02*
X64808047Y-75130819D01*
X64808047Y-75130819D02*
X64903285Y-75083200D01*
X64903285Y-75083200D02*
X64950904Y-75035580D01*
X64046142Y-74130819D02*
X63379476Y-74130819D01*
X63379476Y-74130819D02*
X63808047Y-75130819D01*
X93717113Y-136153411D02*
X93784457Y-136153411D01*
X93784457Y-136153411D02*
X93919144Y-136086067D01*
X93919144Y-136086067D02*
X93986487Y-136018724D01*
X93986487Y-136018724D02*
X94053831Y-135884037D01*
X94053831Y-135884037D02*
X94053831Y-135749350D01*
X94053831Y-135749350D02*
X94020159Y-135648335D01*
X94020159Y-135648335D02*
X93919144Y-135479976D01*
X93919144Y-135479976D02*
X93818129Y-135378961D01*
X93818129Y-135378961D02*
X93649770Y-135277945D01*
X93649770Y-135277945D02*
X93548755Y-135244274D01*
X93548755Y-135244274D02*
X93414068Y-135244274D01*
X93414068Y-135244274D02*
X93279381Y-135311617D01*
X93279381Y-135311617D02*
X93212037Y-135378961D01*
X93212037Y-135378961D02*
X93144694Y-135513648D01*
X93144694Y-135513648D02*
X93144694Y-135580991D01*
X92841648Y-135749350D02*
X92370243Y-136220754D01*
X92370243Y-136220754D02*
X93380396Y-136624815D01*
X69649857Y-87576819D02*
X69983190Y-87100628D01*
X70221285Y-87576819D02*
X70221285Y-86576819D01*
X70221285Y-86576819D02*
X69840333Y-86576819D01*
X69840333Y-86576819D02*
X69745095Y-86624438D01*
X69745095Y-86624438D02*
X69697476Y-86672057D01*
X69697476Y-86672057D02*
X69649857Y-86767295D01*
X69649857Y-86767295D02*
X69649857Y-86910152D01*
X69649857Y-86910152D02*
X69697476Y-87005390D01*
X69697476Y-87005390D02*
X69745095Y-87053009D01*
X69745095Y-87053009D02*
X69840333Y-87100628D01*
X69840333Y-87100628D02*
X70221285Y-87100628D01*
X68792714Y-86576819D02*
X68983190Y-86576819D01*
X68983190Y-86576819D02*
X69078428Y-86624438D01*
X69078428Y-86624438D02*
X69126047Y-86672057D01*
X69126047Y-86672057D02*
X69221285Y-86814914D01*
X69221285Y-86814914D02*
X69268904Y-87005390D01*
X69268904Y-87005390D02*
X69268904Y-87386342D01*
X69268904Y-87386342D02*
X69221285Y-87481580D01*
X69221285Y-87481580D02*
X69173666Y-87529200D01*
X69173666Y-87529200D02*
X69078428Y-87576819D01*
X69078428Y-87576819D02*
X68887952Y-87576819D01*
X68887952Y-87576819D02*
X68792714Y-87529200D01*
X68792714Y-87529200D02*
X68745095Y-87481580D01*
X68745095Y-87481580D02*
X68697476Y-87386342D01*
X68697476Y-87386342D02*
X68697476Y-87148247D01*
X68697476Y-87148247D02*
X68745095Y-87053009D01*
X68745095Y-87053009D02*
X68792714Y-87005390D01*
X68792714Y-87005390D02*
X68887952Y-86957771D01*
X68887952Y-86957771D02*
X69078428Y-86957771D01*
X69078428Y-86957771D02*
X69173666Y-87005390D01*
X69173666Y-87005390D02*
X69221285Y-87053009D01*
X69221285Y-87053009D02*
X69268904Y-87148247D01*
X67840333Y-86910152D02*
X67840333Y-87576819D01*
X68078428Y-86529200D02*
X68316523Y-87243485D01*
X68316523Y-87243485D02*
X67697476Y-87243485D01*
X67476666Y-188118819D02*
X67809999Y-187642628D01*
X68048094Y-188118819D02*
X68048094Y-187118819D01*
X68048094Y-187118819D02*
X67667142Y-187118819D01*
X67667142Y-187118819D02*
X67571904Y-187166438D01*
X67571904Y-187166438D02*
X67524285Y-187214057D01*
X67524285Y-187214057D02*
X67476666Y-187309295D01*
X67476666Y-187309295D02*
X67476666Y-187452152D01*
X67476666Y-187452152D02*
X67524285Y-187547390D01*
X67524285Y-187547390D02*
X67571904Y-187595009D01*
X67571904Y-187595009D02*
X67667142Y-187642628D01*
X67667142Y-187642628D02*
X68048094Y-187642628D01*
X66619523Y-187452152D02*
X66619523Y-188118819D01*
X66857618Y-187071200D02*
X67095713Y-187785485D01*
X67095713Y-187785485D02*
X66476666Y-187785485D01*
X72951857Y-75035580D02*
X72999476Y-75083200D01*
X72999476Y-75083200D02*
X73142333Y-75130819D01*
X73142333Y-75130819D02*
X73237571Y-75130819D01*
X73237571Y-75130819D02*
X73380428Y-75083200D01*
X73380428Y-75083200D02*
X73475666Y-74987961D01*
X73475666Y-74987961D02*
X73523285Y-74892723D01*
X73523285Y-74892723D02*
X73570904Y-74702247D01*
X73570904Y-74702247D02*
X73570904Y-74559390D01*
X73570904Y-74559390D02*
X73523285Y-74368914D01*
X73523285Y-74368914D02*
X73475666Y-74273676D01*
X73475666Y-74273676D02*
X73380428Y-74178438D01*
X73380428Y-74178438D02*
X73237571Y-74130819D01*
X73237571Y-74130819D02*
X73142333Y-74130819D01*
X73142333Y-74130819D02*
X72999476Y-74178438D01*
X72999476Y-74178438D02*
X72951857Y-74226057D01*
X72570904Y-74226057D02*
X72523285Y-74178438D01*
X72523285Y-74178438D02*
X72428047Y-74130819D01*
X72428047Y-74130819D02*
X72189952Y-74130819D01*
X72189952Y-74130819D02*
X72094714Y-74178438D01*
X72094714Y-74178438D02*
X72047095Y-74226057D01*
X72047095Y-74226057D02*
X71999476Y-74321295D01*
X71999476Y-74321295D02*
X71999476Y-74416533D01*
X71999476Y-74416533D02*
X72047095Y-74559390D01*
X72047095Y-74559390D02*
X72618523Y-75130819D01*
X72618523Y-75130819D02*
X71999476Y-75130819D01*
X71380428Y-74130819D02*
X71285190Y-74130819D01*
X71285190Y-74130819D02*
X71189952Y-74178438D01*
X71189952Y-74178438D02*
X71142333Y-74226057D01*
X71142333Y-74226057D02*
X71094714Y-74321295D01*
X71094714Y-74321295D02*
X71047095Y-74511771D01*
X71047095Y-74511771D02*
X71047095Y-74749866D01*
X71047095Y-74749866D02*
X71094714Y-74940342D01*
X71094714Y-74940342D02*
X71142333Y-75035580D01*
X71142333Y-75035580D02*
X71189952Y-75083200D01*
X71189952Y-75083200D02*
X71285190Y-75130819D01*
X71285190Y-75130819D02*
X71380428Y-75130819D01*
X71380428Y-75130819D02*
X71475666Y-75083200D01*
X71475666Y-75083200D02*
X71523285Y-75035580D01*
X71523285Y-75035580D02*
X71570904Y-74940342D01*
X71570904Y-74940342D02*
X71618523Y-74749866D01*
X71618523Y-74749866D02*
X71618523Y-74511771D01*
X71618523Y-74511771D02*
X71570904Y-74321295D01*
X71570904Y-74321295D02*
X71523285Y-74226057D01*
X71523285Y-74226057D02*
X71475666Y-74178438D01*
X71475666Y-74178438D02*
X71380428Y-74130819D01*
X96781857Y-95492819D02*
X97115190Y-95016628D01*
X97353285Y-95492819D02*
X97353285Y-94492819D01*
X97353285Y-94492819D02*
X96972333Y-94492819D01*
X96972333Y-94492819D02*
X96877095Y-94540438D01*
X96877095Y-94540438D02*
X96829476Y-94588057D01*
X96829476Y-94588057D02*
X96781857Y-94683295D01*
X96781857Y-94683295D02*
X96781857Y-94826152D01*
X96781857Y-94826152D02*
X96829476Y-94921390D01*
X96829476Y-94921390D02*
X96877095Y-94969009D01*
X96877095Y-94969009D02*
X96972333Y-95016628D01*
X96972333Y-95016628D02*
X97353285Y-95016628D01*
X95924714Y-94826152D02*
X95924714Y-95492819D01*
X96162809Y-94445200D02*
X96400904Y-95159485D01*
X96400904Y-95159485D02*
X95781857Y-95159485D01*
X94972333Y-94492819D02*
X95162809Y-94492819D01*
X95162809Y-94492819D02*
X95258047Y-94540438D01*
X95258047Y-94540438D02*
X95305666Y-94588057D01*
X95305666Y-94588057D02*
X95400904Y-94730914D01*
X95400904Y-94730914D02*
X95448523Y-94921390D01*
X95448523Y-94921390D02*
X95448523Y-95302342D01*
X95448523Y-95302342D02*
X95400904Y-95397580D01*
X95400904Y-95397580D02*
X95353285Y-95445200D01*
X95353285Y-95445200D02*
X95258047Y-95492819D01*
X95258047Y-95492819D02*
X95067571Y-95492819D01*
X95067571Y-95492819D02*
X94972333Y-95445200D01*
X94972333Y-95445200D02*
X94924714Y-95397580D01*
X94924714Y-95397580D02*
X94877095Y-95302342D01*
X94877095Y-95302342D02*
X94877095Y-95064247D01*
X94877095Y-95064247D02*
X94924714Y-94969009D01*
X94924714Y-94969009D02*
X94972333Y-94921390D01*
X94972333Y-94921390D02*
X95067571Y-94873771D01*
X95067571Y-94873771D02*
X95258047Y-94873771D01*
X95258047Y-94873771D02*
X95353285Y-94921390D01*
X95353285Y-94921390D02*
X95400904Y-94969009D01*
X95400904Y-94969009D02*
X95448523Y-95064247D01*
X76334857Y-38459580D02*
X76382476Y-38507200D01*
X76382476Y-38507200D02*
X76525333Y-38554819D01*
X76525333Y-38554819D02*
X76620571Y-38554819D01*
X76620571Y-38554819D02*
X76763428Y-38507200D01*
X76763428Y-38507200D02*
X76858666Y-38411961D01*
X76858666Y-38411961D02*
X76906285Y-38316723D01*
X76906285Y-38316723D02*
X76953904Y-38126247D01*
X76953904Y-38126247D02*
X76953904Y-37983390D01*
X76953904Y-37983390D02*
X76906285Y-37792914D01*
X76906285Y-37792914D02*
X76858666Y-37697676D01*
X76858666Y-37697676D02*
X76763428Y-37602438D01*
X76763428Y-37602438D02*
X76620571Y-37554819D01*
X76620571Y-37554819D02*
X76525333Y-37554819D01*
X76525333Y-37554819D02*
X76382476Y-37602438D01*
X76382476Y-37602438D02*
X76334857Y-37650057D01*
X75382476Y-38554819D02*
X75953904Y-38554819D01*
X75668190Y-38554819D02*
X75668190Y-37554819D01*
X75668190Y-37554819D02*
X75763428Y-37697676D01*
X75763428Y-37697676D02*
X75858666Y-37792914D01*
X75858666Y-37792914D02*
X75953904Y-37840533D01*
X75049142Y-37554819D02*
X74382476Y-37554819D01*
X74382476Y-37554819D02*
X74811047Y-38554819D01*
X49918857Y-130248819D02*
X50252190Y-129772628D01*
X50490285Y-130248819D02*
X50490285Y-129248819D01*
X50490285Y-129248819D02*
X50109333Y-129248819D01*
X50109333Y-129248819D02*
X50014095Y-129296438D01*
X50014095Y-129296438D02*
X49966476Y-129344057D01*
X49966476Y-129344057D02*
X49918857Y-129439295D01*
X49918857Y-129439295D02*
X49918857Y-129582152D01*
X49918857Y-129582152D02*
X49966476Y-129677390D01*
X49966476Y-129677390D02*
X50014095Y-129725009D01*
X50014095Y-129725009D02*
X50109333Y-129772628D01*
X50109333Y-129772628D02*
X50490285Y-129772628D01*
X49585523Y-129248819D02*
X48966476Y-129248819D01*
X48966476Y-129248819D02*
X49299809Y-129629771D01*
X49299809Y-129629771D02*
X49156952Y-129629771D01*
X49156952Y-129629771D02*
X49061714Y-129677390D01*
X49061714Y-129677390D02*
X49014095Y-129725009D01*
X49014095Y-129725009D02*
X48966476Y-129820247D01*
X48966476Y-129820247D02*
X48966476Y-130058342D01*
X48966476Y-130058342D02*
X49014095Y-130153580D01*
X49014095Y-130153580D02*
X49061714Y-130201200D01*
X49061714Y-130201200D02*
X49156952Y-130248819D01*
X49156952Y-130248819D02*
X49442666Y-130248819D01*
X49442666Y-130248819D02*
X49537904Y-130201200D01*
X49537904Y-130201200D02*
X49585523Y-130153580D01*
X48347428Y-129248819D02*
X48252190Y-129248819D01*
X48252190Y-129248819D02*
X48156952Y-129296438D01*
X48156952Y-129296438D02*
X48109333Y-129344057D01*
X48109333Y-129344057D02*
X48061714Y-129439295D01*
X48061714Y-129439295D02*
X48014095Y-129629771D01*
X48014095Y-129629771D02*
X48014095Y-129867866D01*
X48014095Y-129867866D02*
X48061714Y-130058342D01*
X48061714Y-130058342D02*
X48109333Y-130153580D01*
X48109333Y-130153580D02*
X48156952Y-130201200D01*
X48156952Y-130201200D02*
X48252190Y-130248819D01*
X48252190Y-130248819D02*
X48347428Y-130248819D01*
X48347428Y-130248819D02*
X48442666Y-130201200D01*
X48442666Y-130201200D02*
X48490285Y-130153580D01*
X48490285Y-130153580D02*
X48537904Y-130058342D01*
X48537904Y-130058342D02*
X48585523Y-129867866D01*
X48585523Y-129867866D02*
X48585523Y-129629771D01*
X48585523Y-129629771D02*
X48537904Y-129439295D01*
X48537904Y-129439295D02*
X48490285Y-129344057D01*
X48490285Y-129344057D02*
X48442666Y-129296438D01*
X48442666Y-129296438D02*
X48347428Y-129248819D01*
X72951857Y-62843580D02*
X72999476Y-62891200D01*
X72999476Y-62891200D02*
X73142333Y-62938819D01*
X73142333Y-62938819D02*
X73237571Y-62938819D01*
X73237571Y-62938819D02*
X73380428Y-62891200D01*
X73380428Y-62891200D02*
X73475666Y-62795961D01*
X73475666Y-62795961D02*
X73523285Y-62700723D01*
X73523285Y-62700723D02*
X73570904Y-62510247D01*
X73570904Y-62510247D02*
X73570904Y-62367390D01*
X73570904Y-62367390D02*
X73523285Y-62176914D01*
X73523285Y-62176914D02*
X73475666Y-62081676D01*
X73475666Y-62081676D02*
X73380428Y-61986438D01*
X73380428Y-61986438D02*
X73237571Y-61938819D01*
X73237571Y-61938819D02*
X73142333Y-61938819D01*
X73142333Y-61938819D02*
X72999476Y-61986438D01*
X72999476Y-61986438D02*
X72951857Y-62034057D01*
X71999476Y-62938819D02*
X72570904Y-62938819D01*
X72285190Y-62938819D02*
X72285190Y-61938819D01*
X72285190Y-61938819D02*
X72380428Y-62081676D01*
X72380428Y-62081676D02*
X72475666Y-62176914D01*
X72475666Y-62176914D02*
X72570904Y-62224533D01*
X71523285Y-62938819D02*
X71332809Y-62938819D01*
X71332809Y-62938819D02*
X71237571Y-62891200D01*
X71237571Y-62891200D02*
X71189952Y-62843580D01*
X71189952Y-62843580D02*
X71094714Y-62700723D01*
X71094714Y-62700723D02*
X71047095Y-62510247D01*
X71047095Y-62510247D02*
X71047095Y-62129295D01*
X71047095Y-62129295D02*
X71094714Y-62034057D01*
X71094714Y-62034057D02*
X71142333Y-61986438D01*
X71142333Y-61986438D02*
X71237571Y-61938819D01*
X71237571Y-61938819D02*
X71428047Y-61938819D01*
X71428047Y-61938819D02*
X71523285Y-61986438D01*
X71523285Y-61986438D02*
X71570904Y-62034057D01*
X71570904Y-62034057D02*
X71618523Y-62129295D01*
X71618523Y-62129295D02*
X71618523Y-62367390D01*
X71618523Y-62367390D02*
X71570904Y-62462628D01*
X71570904Y-62462628D02*
X71523285Y-62510247D01*
X71523285Y-62510247D02*
X71428047Y-62557866D01*
X71428047Y-62557866D02*
X71237571Y-62557866D01*
X71237571Y-62557866D02*
X71142333Y-62510247D01*
X71142333Y-62510247D02*
X71094714Y-62462628D01*
X71094714Y-62462628D02*
X71047095Y-62367390D01*
X87663580Y-92702142D02*
X87711200Y-92654523D01*
X87711200Y-92654523D02*
X87758819Y-92511666D01*
X87758819Y-92511666D02*
X87758819Y-92416428D01*
X87758819Y-92416428D02*
X87711200Y-92273571D01*
X87711200Y-92273571D02*
X87615961Y-92178333D01*
X87615961Y-92178333D02*
X87520723Y-92130714D01*
X87520723Y-92130714D02*
X87330247Y-92083095D01*
X87330247Y-92083095D02*
X87187390Y-92083095D01*
X87187390Y-92083095D02*
X86996914Y-92130714D01*
X86996914Y-92130714D02*
X86901676Y-92178333D01*
X86901676Y-92178333D02*
X86806438Y-92273571D01*
X86806438Y-92273571D02*
X86758819Y-92416428D01*
X86758819Y-92416428D02*
X86758819Y-92511666D01*
X86758819Y-92511666D02*
X86806438Y-92654523D01*
X86806438Y-92654523D02*
X86854057Y-92702142D01*
X87758819Y-93654523D02*
X87758819Y-93083095D01*
X87758819Y-93368809D02*
X86758819Y-93368809D01*
X86758819Y-93368809D02*
X86901676Y-93273571D01*
X86901676Y-93273571D02*
X86996914Y-93178333D01*
X86996914Y-93178333D02*
X87044533Y-93083095D01*
X86758819Y-94559285D02*
X86758819Y-94083095D01*
X86758819Y-94083095D02*
X87235009Y-94035476D01*
X87235009Y-94035476D02*
X87187390Y-94083095D01*
X87187390Y-94083095D02*
X87139771Y-94178333D01*
X87139771Y-94178333D02*
X87139771Y-94416428D01*
X87139771Y-94416428D02*
X87187390Y-94511666D01*
X87187390Y-94511666D02*
X87235009Y-94559285D01*
X87235009Y-94559285D02*
X87330247Y-94606904D01*
X87330247Y-94606904D02*
X87568342Y-94606904D01*
X87568342Y-94606904D02*
X87663580Y-94559285D01*
X87663580Y-94559285D02*
X87711200Y-94511666D01*
X87711200Y-94511666D02*
X87758819Y-94416428D01*
X87758819Y-94416428D02*
X87758819Y-94178333D01*
X87758819Y-94178333D02*
X87711200Y-94083095D01*
X87711200Y-94083095D02*
X87663580Y-94035476D01*
X57030857Y-38046819D02*
X57364190Y-37570628D01*
X57602285Y-38046819D02*
X57602285Y-37046819D01*
X57602285Y-37046819D02*
X57221333Y-37046819D01*
X57221333Y-37046819D02*
X57126095Y-37094438D01*
X57126095Y-37094438D02*
X57078476Y-37142057D01*
X57078476Y-37142057D02*
X57030857Y-37237295D01*
X57030857Y-37237295D02*
X57030857Y-37380152D01*
X57030857Y-37380152D02*
X57078476Y-37475390D01*
X57078476Y-37475390D02*
X57126095Y-37523009D01*
X57126095Y-37523009D02*
X57221333Y-37570628D01*
X57221333Y-37570628D02*
X57602285Y-37570628D01*
X56173714Y-37046819D02*
X56364190Y-37046819D01*
X56364190Y-37046819D02*
X56459428Y-37094438D01*
X56459428Y-37094438D02*
X56507047Y-37142057D01*
X56507047Y-37142057D02*
X56602285Y-37284914D01*
X56602285Y-37284914D02*
X56649904Y-37475390D01*
X56649904Y-37475390D02*
X56649904Y-37856342D01*
X56649904Y-37856342D02*
X56602285Y-37951580D01*
X56602285Y-37951580D02*
X56554666Y-37999200D01*
X56554666Y-37999200D02*
X56459428Y-38046819D01*
X56459428Y-38046819D02*
X56268952Y-38046819D01*
X56268952Y-38046819D02*
X56173714Y-37999200D01*
X56173714Y-37999200D02*
X56126095Y-37951580D01*
X56126095Y-37951580D02*
X56078476Y-37856342D01*
X56078476Y-37856342D02*
X56078476Y-37618247D01*
X56078476Y-37618247D02*
X56126095Y-37523009D01*
X56126095Y-37523009D02*
X56173714Y-37475390D01*
X56173714Y-37475390D02*
X56268952Y-37427771D01*
X56268952Y-37427771D02*
X56459428Y-37427771D01*
X56459428Y-37427771D02*
X56554666Y-37475390D01*
X56554666Y-37475390D02*
X56602285Y-37523009D01*
X56602285Y-37523009D02*
X56649904Y-37618247D01*
X55173714Y-37046819D02*
X55649904Y-37046819D01*
X55649904Y-37046819D02*
X55697523Y-37523009D01*
X55697523Y-37523009D02*
X55649904Y-37475390D01*
X55649904Y-37475390D02*
X55554666Y-37427771D01*
X55554666Y-37427771D02*
X55316571Y-37427771D01*
X55316571Y-37427771D02*
X55221333Y-37475390D01*
X55221333Y-37475390D02*
X55173714Y-37523009D01*
X55173714Y-37523009D02*
X55126095Y-37618247D01*
X55126095Y-37618247D02*
X55126095Y-37856342D01*
X55126095Y-37856342D02*
X55173714Y-37951580D01*
X55173714Y-37951580D02*
X55221333Y-37999200D01*
X55221333Y-37999200D02*
X55316571Y-38046819D01*
X55316571Y-38046819D02*
X55554666Y-38046819D01*
X55554666Y-38046819D02*
X55649904Y-37999200D01*
X55649904Y-37999200D02*
X55697523Y-37951580D01*
X69141857Y-62938819D02*
X69475190Y-62462628D01*
X69713285Y-62938819D02*
X69713285Y-61938819D01*
X69713285Y-61938819D02*
X69332333Y-61938819D01*
X69332333Y-61938819D02*
X69237095Y-61986438D01*
X69237095Y-61986438D02*
X69189476Y-62034057D01*
X69189476Y-62034057D02*
X69141857Y-62129295D01*
X69141857Y-62129295D02*
X69141857Y-62272152D01*
X69141857Y-62272152D02*
X69189476Y-62367390D01*
X69189476Y-62367390D02*
X69237095Y-62415009D01*
X69237095Y-62415009D02*
X69332333Y-62462628D01*
X69332333Y-62462628D02*
X69713285Y-62462628D01*
X68284714Y-61938819D02*
X68475190Y-61938819D01*
X68475190Y-61938819D02*
X68570428Y-61986438D01*
X68570428Y-61986438D02*
X68618047Y-62034057D01*
X68618047Y-62034057D02*
X68713285Y-62176914D01*
X68713285Y-62176914D02*
X68760904Y-62367390D01*
X68760904Y-62367390D02*
X68760904Y-62748342D01*
X68760904Y-62748342D02*
X68713285Y-62843580D01*
X68713285Y-62843580D02*
X68665666Y-62891200D01*
X68665666Y-62891200D02*
X68570428Y-62938819D01*
X68570428Y-62938819D02*
X68379952Y-62938819D01*
X68379952Y-62938819D02*
X68284714Y-62891200D01*
X68284714Y-62891200D02*
X68237095Y-62843580D01*
X68237095Y-62843580D02*
X68189476Y-62748342D01*
X68189476Y-62748342D02*
X68189476Y-62510247D01*
X68189476Y-62510247D02*
X68237095Y-62415009D01*
X68237095Y-62415009D02*
X68284714Y-62367390D01*
X68284714Y-62367390D02*
X68379952Y-62319771D01*
X68379952Y-62319771D02*
X68570428Y-62319771D01*
X68570428Y-62319771D02*
X68665666Y-62367390D01*
X68665666Y-62367390D02*
X68713285Y-62415009D01*
X68713285Y-62415009D02*
X68760904Y-62510247D01*
X67808523Y-62034057D02*
X67760904Y-61986438D01*
X67760904Y-61986438D02*
X67665666Y-61938819D01*
X67665666Y-61938819D02*
X67427571Y-61938819D01*
X67427571Y-61938819D02*
X67332333Y-61986438D01*
X67332333Y-61986438D02*
X67284714Y-62034057D01*
X67284714Y-62034057D02*
X67237095Y-62129295D01*
X67237095Y-62129295D02*
X67237095Y-62224533D01*
X67237095Y-62224533D02*
X67284714Y-62367390D01*
X67284714Y-62367390D02*
X67856142Y-62938819D01*
X67856142Y-62938819D02*
X67237095Y-62938819D01*
X69141857Y-74876819D02*
X69475190Y-74400628D01*
X69713285Y-74876819D02*
X69713285Y-73876819D01*
X69713285Y-73876819D02*
X69332333Y-73876819D01*
X69332333Y-73876819D02*
X69237095Y-73924438D01*
X69237095Y-73924438D02*
X69189476Y-73972057D01*
X69189476Y-73972057D02*
X69141857Y-74067295D01*
X69141857Y-74067295D02*
X69141857Y-74210152D01*
X69141857Y-74210152D02*
X69189476Y-74305390D01*
X69189476Y-74305390D02*
X69237095Y-74353009D01*
X69237095Y-74353009D02*
X69332333Y-74400628D01*
X69332333Y-74400628D02*
X69713285Y-74400628D01*
X68284714Y-73876819D02*
X68475190Y-73876819D01*
X68475190Y-73876819D02*
X68570428Y-73924438D01*
X68570428Y-73924438D02*
X68618047Y-73972057D01*
X68618047Y-73972057D02*
X68713285Y-74114914D01*
X68713285Y-74114914D02*
X68760904Y-74305390D01*
X68760904Y-74305390D02*
X68760904Y-74686342D01*
X68760904Y-74686342D02*
X68713285Y-74781580D01*
X68713285Y-74781580D02*
X68665666Y-74829200D01*
X68665666Y-74829200D02*
X68570428Y-74876819D01*
X68570428Y-74876819D02*
X68379952Y-74876819D01*
X68379952Y-74876819D02*
X68284714Y-74829200D01*
X68284714Y-74829200D02*
X68237095Y-74781580D01*
X68237095Y-74781580D02*
X68189476Y-74686342D01*
X68189476Y-74686342D02*
X68189476Y-74448247D01*
X68189476Y-74448247D02*
X68237095Y-74353009D01*
X68237095Y-74353009D02*
X68284714Y-74305390D01*
X68284714Y-74305390D02*
X68379952Y-74257771D01*
X68379952Y-74257771D02*
X68570428Y-74257771D01*
X68570428Y-74257771D02*
X68665666Y-74305390D01*
X68665666Y-74305390D02*
X68713285Y-74353009D01*
X68713285Y-74353009D02*
X68760904Y-74448247D01*
X67856142Y-73876819D02*
X67237095Y-73876819D01*
X67237095Y-73876819D02*
X67570428Y-74257771D01*
X67570428Y-74257771D02*
X67427571Y-74257771D01*
X67427571Y-74257771D02*
X67332333Y-74305390D01*
X67332333Y-74305390D02*
X67284714Y-74353009D01*
X67284714Y-74353009D02*
X67237095Y-74448247D01*
X67237095Y-74448247D02*
X67237095Y-74686342D01*
X67237095Y-74686342D02*
X67284714Y-74781580D01*
X67284714Y-74781580D02*
X67332333Y-74829200D01*
X67332333Y-74829200D02*
X67427571Y-74876819D01*
X67427571Y-74876819D02*
X67713285Y-74876819D01*
X67713285Y-74876819D02*
X67808523Y-74829200D01*
X67808523Y-74829200D02*
X67856142Y-74781580D01*
X79761306Y-143867395D02*
X80333725Y-143766380D01*
X80165367Y-144271456D02*
X80872473Y-143564349D01*
X80872473Y-143564349D02*
X80603099Y-143294975D01*
X80603099Y-143294975D02*
X80502084Y-143261303D01*
X80502084Y-143261303D02*
X80434741Y-143261303D01*
X80434741Y-143261303D02*
X80333725Y-143294975D01*
X80333725Y-143294975D02*
X80232710Y-143395990D01*
X80232710Y-143395990D02*
X80199038Y-143497006D01*
X80199038Y-143497006D02*
X80199038Y-143564349D01*
X80199038Y-143564349D02*
X80232710Y-143665364D01*
X80232710Y-143665364D02*
X80502084Y-143934738D01*
X80131695Y-142958258D02*
X80131695Y-142890914D01*
X80131695Y-142890914D02*
X80098023Y-142789899D01*
X80098023Y-142789899D02*
X79929664Y-142621540D01*
X79929664Y-142621540D02*
X79828649Y-142587868D01*
X79828649Y-142587868D02*
X79761306Y-142587868D01*
X79761306Y-142587868D02*
X79660290Y-142621540D01*
X79660290Y-142621540D02*
X79592947Y-142688884D01*
X79592947Y-142688884D02*
X79525603Y-142823571D01*
X79525603Y-142823571D02*
X79525603Y-143631693D01*
X79525603Y-143631693D02*
X79087871Y-143193960D01*
X72016857Y-123898819D02*
X72350190Y-123422628D01*
X72588285Y-123898819D02*
X72588285Y-122898819D01*
X72588285Y-122898819D02*
X72207333Y-122898819D01*
X72207333Y-122898819D02*
X72112095Y-122946438D01*
X72112095Y-122946438D02*
X72064476Y-122994057D01*
X72064476Y-122994057D02*
X72016857Y-123089295D01*
X72016857Y-123089295D02*
X72016857Y-123232152D01*
X72016857Y-123232152D02*
X72064476Y-123327390D01*
X72064476Y-123327390D02*
X72112095Y-123375009D01*
X72112095Y-123375009D02*
X72207333Y-123422628D01*
X72207333Y-123422628D02*
X72588285Y-123422628D01*
X71683523Y-122898819D02*
X71064476Y-122898819D01*
X71064476Y-122898819D02*
X71397809Y-123279771D01*
X71397809Y-123279771D02*
X71254952Y-123279771D01*
X71254952Y-123279771D02*
X71159714Y-123327390D01*
X71159714Y-123327390D02*
X71112095Y-123375009D01*
X71112095Y-123375009D02*
X71064476Y-123470247D01*
X71064476Y-123470247D02*
X71064476Y-123708342D01*
X71064476Y-123708342D02*
X71112095Y-123803580D01*
X71112095Y-123803580D02*
X71159714Y-123851200D01*
X71159714Y-123851200D02*
X71254952Y-123898819D01*
X71254952Y-123898819D02*
X71540666Y-123898819D01*
X71540666Y-123898819D02*
X71635904Y-123851200D01*
X71635904Y-123851200D02*
X71683523Y-123803580D01*
X70731142Y-122898819D02*
X70064476Y-122898819D01*
X70064476Y-122898819D02*
X70493047Y-123898819D01*
X72951857Y-50651580D02*
X72999476Y-50699200D01*
X72999476Y-50699200D02*
X73142333Y-50746819D01*
X73142333Y-50746819D02*
X73237571Y-50746819D01*
X73237571Y-50746819D02*
X73380428Y-50699200D01*
X73380428Y-50699200D02*
X73475666Y-50603961D01*
X73475666Y-50603961D02*
X73523285Y-50508723D01*
X73523285Y-50508723D02*
X73570904Y-50318247D01*
X73570904Y-50318247D02*
X73570904Y-50175390D01*
X73570904Y-50175390D02*
X73523285Y-49984914D01*
X73523285Y-49984914D02*
X73475666Y-49889676D01*
X73475666Y-49889676D02*
X73380428Y-49794438D01*
X73380428Y-49794438D02*
X73237571Y-49746819D01*
X73237571Y-49746819D02*
X73142333Y-49746819D01*
X73142333Y-49746819D02*
X72999476Y-49794438D01*
X72999476Y-49794438D02*
X72951857Y-49842057D01*
X71999476Y-50746819D02*
X72570904Y-50746819D01*
X72285190Y-50746819D02*
X72285190Y-49746819D01*
X72285190Y-49746819D02*
X72380428Y-49889676D01*
X72380428Y-49889676D02*
X72475666Y-49984914D01*
X72475666Y-49984914D02*
X72570904Y-50032533D01*
X71428047Y-50175390D02*
X71523285Y-50127771D01*
X71523285Y-50127771D02*
X71570904Y-50080152D01*
X71570904Y-50080152D02*
X71618523Y-49984914D01*
X71618523Y-49984914D02*
X71618523Y-49937295D01*
X71618523Y-49937295D02*
X71570904Y-49842057D01*
X71570904Y-49842057D02*
X71523285Y-49794438D01*
X71523285Y-49794438D02*
X71428047Y-49746819D01*
X71428047Y-49746819D02*
X71237571Y-49746819D01*
X71237571Y-49746819D02*
X71142333Y-49794438D01*
X71142333Y-49794438D02*
X71094714Y-49842057D01*
X71094714Y-49842057D02*
X71047095Y-49937295D01*
X71047095Y-49937295D02*
X71047095Y-49984914D01*
X71047095Y-49984914D02*
X71094714Y-50080152D01*
X71094714Y-50080152D02*
X71142333Y-50127771D01*
X71142333Y-50127771D02*
X71237571Y-50175390D01*
X71237571Y-50175390D02*
X71428047Y-50175390D01*
X71428047Y-50175390D02*
X71523285Y-50223009D01*
X71523285Y-50223009D02*
X71570904Y-50270628D01*
X71570904Y-50270628D02*
X71618523Y-50365866D01*
X71618523Y-50365866D02*
X71618523Y-50556342D01*
X71618523Y-50556342D02*
X71570904Y-50651580D01*
X71570904Y-50651580D02*
X71523285Y-50699200D01*
X71523285Y-50699200D02*
X71428047Y-50746819D01*
X71428047Y-50746819D02*
X71237571Y-50746819D01*
X71237571Y-50746819D02*
X71142333Y-50699200D01*
X71142333Y-50699200D02*
X71094714Y-50651580D01*
X71094714Y-50651580D02*
X71047095Y-50556342D01*
X71047095Y-50556342D02*
X71047095Y-50365866D01*
X71047095Y-50365866D02*
X71094714Y-50270628D01*
X71094714Y-50270628D02*
X71142333Y-50223009D01*
X71142333Y-50223009D02*
X71237571Y-50175390D01*
X73713857Y-87735580D02*
X73761476Y-87783200D01*
X73761476Y-87783200D02*
X73904333Y-87830819D01*
X73904333Y-87830819D02*
X73999571Y-87830819D01*
X73999571Y-87830819D02*
X74142428Y-87783200D01*
X74142428Y-87783200D02*
X74237666Y-87687961D01*
X74237666Y-87687961D02*
X74285285Y-87592723D01*
X74285285Y-87592723D02*
X74332904Y-87402247D01*
X74332904Y-87402247D02*
X74332904Y-87259390D01*
X74332904Y-87259390D02*
X74285285Y-87068914D01*
X74285285Y-87068914D02*
X74237666Y-86973676D01*
X74237666Y-86973676D02*
X74142428Y-86878438D01*
X74142428Y-86878438D02*
X73999571Y-86830819D01*
X73999571Y-86830819D02*
X73904333Y-86830819D01*
X73904333Y-86830819D02*
X73761476Y-86878438D01*
X73761476Y-86878438D02*
X73713857Y-86926057D01*
X73332904Y-86926057D02*
X73285285Y-86878438D01*
X73285285Y-86878438D02*
X73190047Y-86830819D01*
X73190047Y-86830819D02*
X72951952Y-86830819D01*
X72951952Y-86830819D02*
X72856714Y-86878438D01*
X72856714Y-86878438D02*
X72809095Y-86926057D01*
X72809095Y-86926057D02*
X72761476Y-87021295D01*
X72761476Y-87021295D02*
X72761476Y-87116533D01*
X72761476Y-87116533D02*
X72809095Y-87259390D01*
X72809095Y-87259390D02*
X73380523Y-87830819D01*
X73380523Y-87830819D02*
X72761476Y-87830819D01*
X71809095Y-87830819D02*
X72380523Y-87830819D01*
X72094809Y-87830819D02*
X72094809Y-86830819D01*
X72094809Y-86830819D02*
X72190047Y-86973676D01*
X72190047Y-86973676D02*
X72285285Y-87068914D01*
X72285285Y-87068914D02*
X72380523Y-87116533D01*
X96728261Y-146824377D02*
X96627246Y-146251958D01*
X97132322Y-146420316D02*
X96425215Y-145713210D01*
X96425215Y-145713210D02*
X96155841Y-145982584D01*
X96155841Y-145982584D02*
X96122169Y-146083599D01*
X96122169Y-146083599D02*
X96122169Y-146150942D01*
X96122169Y-146150942D02*
X96155841Y-146251958D01*
X96155841Y-146251958D02*
X96256856Y-146352973D01*
X96256856Y-146352973D02*
X96357872Y-146386645D01*
X96357872Y-146386645D02*
X96425215Y-146386645D01*
X96425215Y-146386645D02*
X96526230Y-146352973D01*
X96526230Y-146352973D02*
X96795604Y-146083599D01*
X95785452Y-146352973D02*
X95347719Y-146790706D01*
X95347719Y-146790706D02*
X95852795Y-146824377D01*
X95852795Y-146824377D02*
X95751780Y-146925393D01*
X95751780Y-146925393D02*
X95718108Y-147026408D01*
X95718108Y-147026408D02*
X95718108Y-147093751D01*
X95718108Y-147093751D02*
X95751780Y-147194767D01*
X95751780Y-147194767D02*
X95920139Y-147363125D01*
X95920139Y-147363125D02*
X96021154Y-147396797D01*
X96021154Y-147396797D02*
X96088498Y-147396797D01*
X96088498Y-147396797D02*
X96189513Y-147363125D01*
X96189513Y-147363125D02*
X96391543Y-147161095D01*
X96391543Y-147161095D02*
X96425215Y-147060080D01*
X96425215Y-147060080D02*
X96425215Y-146992736D01*
X67476666Y-183038819D02*
X67809999Y-182562628D01*
X68048094Y-183038819D02*
X68048094Y-182038819D01*
X68048094Y-182038819D02*
X67667142Y-182038819D01*
X67667142Y-182038819D02*
X67571904Y-182086438D01*
X67571904Y-182086438D02*
X67524285Y-182134057D01*
X67524285Y-182134057D02*
X67476666Y-182229295D01*
X67476666Y-182229295D02*
X67476666Y-182372152D01*
X67476666Y-182372152D02*
X67524285Y-182467390D01*
X67524285Y-182467390D02*
X67571904Y-182515009D01*
X67571904Y-182515009D02*
X67667142Y-182562628D01*
X67667142Y-182562628D02*
X68048094Y-182562628D01*
X66571904Y-182038819D02*
X67048094Y-182038819D01*
X67048094Y-182038819D02*
X67095713Y-182515009D01*
X67095713Y-182515009D02*
X67048094Y-182467390D01*
X67048094Y-182467390D02*
X66952856Y-182419771D01*
X66952856Y-182419771D02*
X66714761Y-182419771D01*
X66714761Y-182419771D02*
X66619523Y-182467390D01*
X66619523Y-182467390D02*
X66571904Y-182515009D01*
X66571904Y-182515009D02*
X66524285Y-182610247D01*
X66524285Y-182610247D02*
X66524285Y-182848342D01*
X66524285Y-182848342D02*
X66571904Y-182943580D01*
X66571904Y-182943580D02*
X66619523Y-182991200D01*
X66619523Y-182991200D02*
X66714761Y-183038819D01*
X66714761Y-183038819D02*
X66952856Y-183038819D01*
X66952856Y-183038819D02*
X67048094Y-182991200D01*
X67048094Y-182991200D02*
X67095713Y-182943580D01*
X92545736Y-142658788D02*
X92613080Y-142658788D01*
X92613080Y-142658788D02*
X92747767Y-142591444D01*
X92747767Y-142591444D02*
X92815110Y-142524101D01*
X92815110Y-142524101D02*
X92882454Y-142389414D01*
X92882454Y-142389414D02*
X92882454Y-142254727D01*
X92882454Y-142254727D02*
X92848782Y-142153712D01*
X92848782Y-142153712D02*
X92747767Y-141985353D01*
X92747767Y-141985353D02*
X92646752Y-141884338D01*
X92646752Y-141884338D02*
X92478393Y-141783322D01*
X92478393Y-141783322D02*
X92377378Y-141749651D01*
X92377378Y-141749651D02*
X92242691Y-141749651D01*
X92242691Y-141749651D02*
X92108004Y-141816994D01*
X92108004Y-141816994D02*
X92040660Y-141884338D01*
X92040660Y-141884338D02*
X91973317Y-142019025D01*
X91973317Y-142019025D02*
X91973317Y-142086368D01*
X91266210Y-142658788D02*
X91602927Y-142322070D01*
X91602927Y-142322070D02*
X91973317Y-142625116D01*
X91973317Y-142625116D02*
X91905973Y-142625116D01*
X91905973Y-142625116D02*
X91804958Y-142658788D01*
X91804958Y-142658788D02*
X91636599Y-142827147D01*
X91636599Y-142827147D02*
X91602927Y-142928162D01*
X91602927Y-142928162D02*
X91602927Y-142995505D01*
X91602927Y-142995505D02*
X91636599Y-143096521D01*
X91636599Y-143096521D02*
X91804958Y-143264879D01*
X91804958Y-143264879D02*
X91905973Y-143298551D01*
X91905973Y-143298551D02*
X91973317Y-143298551D01*
X91973317Y-143298551D02*
X92074332Y-143264879D01*
X92074332Y-143264879D02*
X92242691Y-143096521D01*
X92242691Y-143096521D02*
X92276362Y-142995505D01*
X92276362Y-142995505D02*
X92276362Y-142928162D01*
X107981819Y-91305142D02*
X107505628Y-90971809D01*
X107981819Y-90733714D02*
X106981819Y-90733714D01*
X106981819Y-90733714D02*
X106981819Y-91114666D01*
X106981819Y-91114666D02*
X107029438Y-91209904D01*
X107029438Y-91209904D02*
X107077057Y-91257523D01*
X107077057Y-91257523D02*
X107172295Y-91305142D01*
X107172295Y-91305142D02*
X107315152Y-91305142D01*
X107315152Y-91305142D02*
X107410390Y-91257523D01*
X107410390Y-91257523D02*
X107458009Y-91209904D01*
X107458009Y-91209904D02*
X107505628Y-91114666D01*
X107505628Y-91114666D02*
X107505628Y-90733714D01*
X107315152Y-92162285D02*
X107981819Y-92162285D01*
X106934200Y-91924190D02*
X107648485Y-91686095D01*
X107648485Y-91686095D02*
X107648485Y-92305142D01*
X106981819Y-92590857D02*
X106981819Y-93257523D01*
X106981819Y-93257523D02*
X107981819Y-92828952D01*
X88908747Y-131187960D02*
X89144449Y-130952258D01*
X89514838Y-131322647D02*
X88807731Y-130615540D01*
X88807731Y-130615540D02*
X88471014Y-130952258D01*
X88302655Y-131794052D02*
X88235311Y-131928739D01*
X88235311Y-131928739D02*
X88235311Y-131996082D01*
X88235311Y-131996082D02*
X88268983Y-132097098D01*
X88268983Y-132097098D02*
X88369998Y-132198113D01*
X88369998Y-132198113D02*
X88471014Y-132231785D01*
X88471014Y-132231785D02*
X88538357Y-132231785D01*
X88538357Y-132231785D02*
X88639372Y-132198113D01*
X88639372Y-132198113D02*
X88908746Y-131928739D01*
X88908746Y-131928739D02*
X88201640Y-131221632D01*
X88201640Y-131221632D02*
X87965937Y-131457334D01*
X87965937Y-131457334D02*
X87932266Y-131558350D01*
X87932266Y-131558350D02*
X87932266Y-131625693D01*
X87932266Y-131625693D02*
X87965937Y-131726708D01*
X87965937Y-131726708D02*
X88033281Y-131794052D01*
X88033281Y-131794052D02*
X88134296Y-131827724D01*
X88134296Y-131827724D02*
X88201640Y-131827724D01*
X88201640Y-131827724D02*
X88302655Y-131794052D01*
X88302655Y-131794052D02*
X88538357Y-131558350D01*
X87831250Y-133006235D02*
X88235311Y-132602174D01*
X88033281Y-132804204D02*
X87326174Y-132097098D01*
X87326174Y-132097098D02*
X87494533Y-132130769D01*
X87494533Y-132130769D02*
X87629220Y-132130769D01*
X87629220Y-132130769D02*
X87730235Y-132097098D01*
D11*
X58893064Y-97134000D02*
X57438936Y-97134000D01*
X58893064Y-98954000D02*
X57438936Y-98954000D01*
X58893064Y-93070000D02*
X57438936Y-93070000D01*
X58893064Y-94890000D02*
X57438936Y-94890000D01*
X52765936Y-132301000D02*
X54220064Y-132301000D01*
X52765936Y-134121000D02*
X54220064Y-134121000D01*
X70845000Y-35271064D02*
X70845000Y-33816936D01*
X72665000Y-35271064D02*
X72665000Y-33816936D01*
X86460000Y-140730248D02*
X86460000Y-141252752D01*
X84990000Y-140730248D02*
X84990000Y-141252752D01*
X52765936Y-135591000D02*
X54220064Y-135591000D01*
X52765936Y-137411000D02*
X54220064Y-137411000D01*
X120417000Y-91474936D02*
X120417000Y-92929064D01*
X118597000Y-91474936D02*
X118597000Y-92929064D01*
X92155990Y-130359543D02*
X92525457Y-130729010D01*
X91116543Y-131398990D02*
X91486010Y-131768457D01*
X114964248Y-111612000D02*
X116386752Y-111612000D01*
X114964248Y-113432000D02*
X116386752Y-113432000D01*
X52765936Y-138881000D02*
X54220064Y-138881000D01*
X52765936Y-140701000D02*
X54220064Y-140701000D01*
X63525000Y-47590064D02*
X63525000Y-46135936D01*
X65345000Y-47590064D02*
X65345000Y-46135936D01*
X63652000Y-59909064D02*
X63652000Y-58454936D01*
X65472000Y-59909064D02*
X65472000Y-58454936D01*
X59669000Y-35001252D02*
X59669000Y-33578748D01*
X61489000Y-35001252D02*
X61489000Y-33578748D01*
X68037064Y-116988000D02*
X66582936Y-116988000D01*
X68037064Y-115168000D02*
X66582936Y-115168000D01*
X68037064Y-120544000D02*
X66582936Y-120544000D01*
X68037064Y-118724000D02*
X66582936Y-118724000D01*
X129235252Y-165248000D02*
X127812748Y-165248000D01*
X129235252Y-163428000D02*
X127812748Y-163428000D01*
X67716000Y-47717064D02*
X67716000Y-46262936D01*
X69536000Y-47717064D02*
X69536000Y-46262936D01*
X78416543Y-131237010D02*
X78786010Y-130867543D01*
X79455990Y-132276457D02*
X79825457Y-131906990D01*
X66908000Y-35652064D02*
X66908000Y-34197936D01*
X68728000Y-35652064D02*
X68728000Y-34197936D01*
X51541000Y-35043064D02*
X51541000Y-33588936D01*
X53361000Y-35043064D02*
X53361000Y-33588936D01*
X63652000Y-84827064D02*
X63652000Y-83372936D01*
X65472000Y-84827064D02*
X65472000Y-83372936D01*
X87583990Y-125533543D02*
X87953457Y-125903010D01*
X86544543Y-126572990D02*
X86914010Y-126942457D01*
X63779000Y-72228064D02*
X63779000Y-70773936D01*
X65599000Y-72228064D02*
X65599000Y-70773936D01*
X92779457Y-135208990D02*
X92409990Y-135578457D01*
X91740010Y-134169543D02*
X91370543Y-134539010D01*
X67970000Y-84801064D02*
X67970000Y-83346936D01*
X69790000Y-84801064D02*
X69790000Y-83346936D01*
X68037064Y-190394000D02*
X66582936Y-190394000D01*
X68037064Y-188574000D02*
X66582936Y-188574000D01*
X71399000Y-72339252D02*
X71399000Y-70916748D01*
X73219000Y-72339252D02*
X73219000Y-70916748D01*
X95411936Y-92308000D02*
X96866064Y-92308000D01*
X95411936Y-94128000D02*
X96866064Y-94128000D01*
X74782000Y-35382252D02*
X74782000Y-33959748D01*
X76602000Y-35382252D02*
X76602000Y-33959748D01*
X52765936Y-129011000D02*
X54220064Y-129011000D01*
X52765936Y-130831000D02*
X54220064Y-130831000D01*
X71399000Y-59893252D02*
X71399000Y-58470748D01*
X73219000Y-59893252D02*
X73219000Y-58470748D01*
X90064000Y-92633748D02*
X90064000Y-94056252D01*
X88244000Y-92633748D02*
X88244000Y-94056252D01*
X55478000Y-35017064D02*
X55478000Y-33562936D01*
X57298000Y-35017064D02*
X57298000Y-33562936D01*
X67589000Y-59909064D02*
X67589000Y-58454936D01*
X69409000Y-59909064D02*
X69409000Y-58454936D01*
X67589000Y-72202064D02*
X67589000Y-70747936D01*
X69409000Y-72202064D02*
X69409000Y-70747936D01*
X81487990Y-141535543D02*
X81857457Y-141905010D01*
X80448543Y-142574990D02*
X80818010Y-142944457D01*
X67962064Y-124100000D02*
X66507936Y-124100000D01*
X67962064Y-122280000D02*
X66507936Y-122280000D01*
X71399000Y-47701252D02*
X71399000Y-46278748D01*
X73219000Y-47701252D02*
X73219000Y-46278748D01*
X72034000Y-84785252D02*
X72034000Y-83362748D01*
X73854000Y-84785252D02*
X73854000Y-83362748D01*
X94319920Y-145178633D02*
X94689387Y-144809166D01*
X95359367Y-146218080D02*
X95728834Y-145848613D01*
X68037064Y-185314000D02*
X66582936Y-185314000D01*
X68037064Y-183494000D02*
X66582936Y-183494000D01*
X91608080Y-141714367D02*
X91238613Y-142083834D01*
X90568633Y-140674920D02*
X90199166Y-141044387D01*
X110257000Y-91220936D02*
X110257000Y-92675064D01*
X108437000Y-91220936D02*
X108437000Y-92675064D01*
X90221779Y-133413313D02*
X89852313Y-133782779D01*
X89217687Y-132409221D02*
X88848221Y-132778687D01*
%LPC*%
D12*
X59716000Y-98044000D03*
X56616000Y-98044000D03*
X59716000Y-93980000D03*
X56616000Y-93980000D03*
D13*
X57658000Y-105918000D03*
X57658000Y-108458000D03*
X57658000Y-110998000D03*
D14*
X67645000Y-29337000D03*
D15*
X71605000Y-29337000D03*
X75565000Y-29337000D03*
D16*
X114427000Y-92075000D03*
D17*
X119507000Y-99822000D03*
D13*
X119507000Y-97282000D03*
D14*
X100454500Y-84159000D03*
D15*
X104414500Y-84159000D03*
X108374500Y-84159000D03*
X112334500Y-84159000D03*
D14*
X42057500Y-137668000D03*
D15*
X46017500Y-137668000D03*
D18*
X145003000Y-188818000D03*
X145003000Y-29622000D03*
D19*
X143637000Y-125349000D03*
D15*
X143637000Y-129309000D03*
D20*
X106817000Y-124958000D03*
D21*
X109357000Y-124958000D03*
X111897000Y-124958000D03*
X114437000Y-124958000D03*
X114437000Y-117338000D03*
X111897000Y-117338000D03*
X109357000Y-117338000D03*
X106817000Y-117338000D03*
D22*
X72390000Y-89677000D03*
D23*
X72390000Y-92217000D03*
X72390000Y-94757000D03*
D14*
X64507500Y-41995000D03*
D15*
X68467500Y-41995000D03*
X72427500Y-41995000D03*
D22*
X134381000Y-159766000D03*
D23*
X136921000Y-159766000D03*
X139461000Y-159766000D03*
D24*
X84511000Y-94615000D03*
D25*
X84511000Y-92075000D03*
X84511000Y-89535000D03*
D14*
X41970500Y-121666000D03*
D15*
X45930500Y-121666000D03*
D18*
X41941000Y-188818000D03*
D14*
X141582000Y-147066000D03*
D15*
X145542000Y-147066000D03*
D22*
X58547000Y-120396000D03*
D23*
X58547000Y-122936000D03*
X58547000Y-125476000D03*
X58547000Y-128016000D03*
X58547000Y-130556000D03*
X58547000Y-133096000D03*
X58547000Y-135636000D03*
X58547000Y-138176000D03*
D16*
X126619000Y-92583000D03*
D17*
X76962000Y-170434000D03*
D13*
X76962000Y-172974000D03*
D18*
X41941000Y-29622000D03*
D22*
X68326000Y-153162000D03*
D23*
X68326000Y-155702000D03*
X68326000Y-158242000D03*
X68326000Y-160782000D03*
X68326000Y-163322000D03*
D26*
X101245000Y-164465000D03*
D27*
X103785000Y-164465000D03*
X101245000Y-167005000D03*
X103785000Y-167005000D03*
X101245000Y-169545000D03*
X103785000Y-169545000D03*
X101245000Y-172085000D03*
X103785000Y-172085000D03*
X101245000Y-174625000D03*
X103785000Y-174625000D03*
X101245000Y-177165000D03*
X103785000Y-177165000D03*
X101245000Y-179705000D03*
X103785000Y-179705000D03*
X101245000Y-182245000D03*
X103785000Y-182245000D03*
D14*
X64539000Y-53848000D03*
D15*
X68499000Y-53848000D03*
X72459000Y-53848000D03*
D17*
X99949000Y-99822000D03*
D13*
X99949000Y-97282000D03*
D28*
X114173000Y-52994000D03*
D29*
X114173000Y-44194000D03*
D30*
X83058000Y-109220000D03*
D27*
X83058000Y-111760000D03*
X80518000Y-109220000D03*
X80518000Y-111760000D03*
X77978000Y-109220000D03*
X77978000Y-111760000D03*
X75438000Y-109220000D03*
X75438000Y-111760000D03*
X72898000Y-109220000D03*
X72898000Y-111760000D03*
D14*
X52532000Y-29337000D03*
D15*
X56492000Y-29337000D03*
X60452000Y-29337000D03*
D14*
X136502000Y-89916000D03*
D15*
X140462000Y-89916000D03*
D17*
X98171000Y-115316000D03*
D13*
X98171000Y-117856000D03*
D16*
X91567000Y-87757000D03*
D31*
X129911000Y-115072000D03*
D16*
X134911000Y-115072000D03*
D14*
X64516000Y-78994000D03*
D15*
X68476000Y-78994000D03*
X72436000Y-78994000D03*
D14*
X64516000Y-66421000D03*
D15*
X68476000Y-66421000D03*
X72436000Y-66421000D03*
D17*
X109347000Y-99822000D03*
D13*
X109347000Y-97282000D03*
D32*
X145288000Y-166878000D03*
D33*
X142748000Y-166878000D03*
X140208000Y-166878000D03*
X137668000Y-166878000D03*
X135128000Y-166878000D03*
X132588000Y-166878000D03*
X130048000Y-166878000D03*
X130048000Y-174498000D03*
X132588000Y-174498000D03*
X135128000Y-174498000D03*
X137668000Y-174498000D03*
X140208000Y-174498000D03*
X142748000Y-174498000D03*
X145288000Y-174498000D03*
D20*
X60833000Y-185928000D03*
D21*
X60833000Y-183388000D03*
X60833000Y-180848000D03*
X60833000Y-178308000D03*
X60833000Y-175768000D03*
X60833000Y-173228000D03*
X60833000Y-170688000D03*
X53213000Y-170688000D03*
X53213000Y-173228000D03*
X53213000Y-175768000D03*
X53213000Y-178308000D03*
X53213000Y-180848000D03*
X53213000Y-183388000D03*
X53213000Y-185928000D03*
D34*
X109083000Y-113294000D03*
D35*
X109083000Y-111294000D03*
D20*
X53340000Y-93980000D03*
D21*
X53340000Y-91440000D03*
X53340000Y-88900000D03*
X53340000Y-86360000D03*
X45720000Y-86360000D03*
X45720000Y-88900000D03*
X45720000Y-91440000D03*
X45720000Y-93980000D03*
D16*
X94996000Y-97917000D03*
D22*
X97765000Y-31989000D03*
D23*
X97765000Y-29449000D03*
X97765000Y-26909000D03*
D36*
X51943000Y-133211000D03*
X55043000Y-133211000D03*
D37*
X71755000Y-36094000D03*
X71755000Y-32994000D03*
D38*
X85725000Y-139954000D03*
X85725000Y-142029000D03*
D36*
X51943000Y-136501000D03*
X55043000Y-136501000D03*
D39*
X119507000Y-90652000D03*
X119507000Y-93752000D03*
D40*
X91087377Y-130330377D03*
X92554623Y-131797623D03*
D41*
X114113000Y-112522000D03*
X117238000Y-112522000D03*
D36*
X51943000Y-139791000D03*
X55043000Y-139791000D03*
D37*
X64435000Y-48413000D03*
X64435000Y-45313000D03*
X64562000Y-60732000D03*
X64562000Y-57632000D03*
D42*
X60579000Y-35852500D03*
X60579000Y-32727500D03*
D12*
X68860000Y-116078000D03*
X65760000Y-116078000D03*
X68860000Y-119634000D03*
X65760000Y-119634000D03*
D43*
X130086500Y-164338000D03*
X126961500Y-164338000D03*
D37*
X68626000Y-48540000D03*
X68626000Y-45440000D03*
D44*
X78387377Y-132305623D03*
X79854623Y-130838377D03*
D37*
X67818000Y-36475000D03*
X67818000Y-33375000D03*
X52451000Y-35866000D03*
X52451000Y-32766000D03*
X64562000Y-85650000D03*
X64562000Y-82550000D03*
D40*
X86515377Y-125504377D03*
X87982623Y-126971623D03*
D37*
X64689000Y-73051000D03*
X64689000Y-69951000D03*
D45*
X92808623Y-134140377D03*
X91341377Y-135607623D03*
D37*
X68880000Y-85624000D03*
X68880000Y-82524000D03*
D12*
X68860000Y-189484000D03*
X65760000Y-189484000D03*
D42*
X72309000Y-73190500D03*
X72309000Y-70065500D03*
D36*
X94589000Y-93218000D03*
X97689000Y-93218000D03*
D42*
X75692000Y-36233500D03*
X75692000Y-33108500D03*
D36*
X51943000Y-129921000D03*
X55043000Y-129921000D03*
D42*
X72309000Y-60744500D03*
X72309000Y-57619500D03*
D46*
X89154000Y-91782500D03*
X89154000Y-94907500D03*
D37*
X56388000Y-35840000D03*
X56388000Y-32740000D03*
X68499000Y-60732000D03*
X68499000Y-57632000D03*
X68499000Y-73025000D03*
X68499000Y-69925000D03*
D40*
X80419377Y-141506377D03*
X81886623Y-142973623D03*
D12*
X68785000Y-123190000D03*
X65685000Y-123190000D03*
D42*
X72309000Y-48552500D03*
X72309000Y-45427500D03*
X72944000Y-85636500D03*
X72944000Y-82511500D03*
D44*
X94290754Y-146247246D03*
X95758000Y-144780000D03*
D12*
X68860000Y-184404000D03*
X65760000Y-184404000D03*
D45*
X91637246Y-140645754D03*
X90170000Y-142113000D03*
D39*
X109347000Y-90398000D03*
X109347000Y-93498000D03*
D47*
X90259784Y-132371216D03*
X88810216Y-133820784D03*
D48*
X102870000Y-148082000D03*
X90043000Y-138684000D03*
X95591500Y-109220000D03*
X83693000Y-140970000D03*
X85471000Y-138303000D03*
X93091000Y-129831500D03*
X77343000Y-131318000D03*
X86995000Y-140970000D03*
X88519000Y-124968000D03*
X81881909Y-139666910D03*
X91718965Y-150613968D03*
X85593003Y-135386997D03*
X88392000Y-136144000D03*
X95295826Y-136959788D03*
X94588743Y-136253361D03*
X89201068Y-135404336D03*
X93114913Y-139154500D03*
X87630000Y-136906000D03*
X81153000Y-125746497D03*
X81153000Y-126746000D03*
X90767500Y-150920106D03*
X84751899Y-134328681D03*
X117860299Y-153665701D03*
X83947000Y-135777500D03*
X76448650Y-136308500D03*
X91301500Y-151765000D03*
X117663500Y-157226000D03*
X75630821Y-136887127D03*
X116939000Y-156464000D03*
X75057000Y-137705500D03*
X84644500Y-118110000D03*
X83632176Y-118297824D03*
X83566000Y-119380000D03*
X83951299Y-129027701D03*
X84709000Y-128270000D03*
X84013297Y-124647703D03*
X80843418Y-123846997D03*
X80518000Y-124919645D03*
X81780415Y-131570987D03*
X82804000Y-131572000D03*
X119126000Y-144182500D03*
X134493000Y-55372000D03*
D49*
X97663000Y-49276000D03*
D50*
X95123000Y-87757000D03*
D48*
X124587000Y-105664000D03*
X137160000Y-134366000D03*
X149479000Y-105156000D03*
X132080000Y-127508000D03*
X90037160Y-134856658D03*
X104394000Y-123571000D03*
X137541000Y-105791000D03*
X105029000Y-105156000D03*
X149352000Y-115570000D03*
X117983000Y-129032000D03*
X98552000Y-134493000D03*
X127254000Y-134112000D03*
X146558000Y-133985000D03*
X107315000Y-139065000D03*
X76295803Y-155964596D03*
X100452456Y-155437594D03*
X101092000Y-156205701D03*
X76454000Y-156951500D03*
X77470000Y-157226000D03*
X101906475Y-157057465D03*
X90697506Y-134106359D03*
X39751000Y-175006000D03*
X125095000Y-41275000D03*
X86868000Y-147828000D03*
X93664821Y-130649873D03*
X138811000Y-40132000D03*
X117856000Y-43942000D03*
X103886000Y-39370000D03*
X131064000Y-186182000D03*
X125095000Y-44196000D03*
D51*
X131953000Y-44450000D03*
D48*
X76454000Y-134112000D03*
X98552000Y-145542000D03*
X127381000Y-38354000D03*
X80378960Y-132203819D03*
X67056000Y-89916000D03*
X80137000Y-128524000D03*
X126492000Y-148590000D03*
X77470000Y-162560000D03*
X125095000Y-45974000D03*
X127000000Y-26416000D03*
X57658000Y-89154000D03*
X81534000Y-120904000D03*
X110236000Y-39878000D03*
X138811000Y-48260000D03*
X89281000Y-125730000D03*
X56642000Y-79502000D03*
X110236000Y-43942000D03*
X138811000Y-46228000D03*
X88900000Y-53340000D03*
X133731000Y-38354000D03*
X117856000Y-39878000D03*
X138811000Y-42418000D03*
X98806000Y-136906000D03*
X48768000Y-104902000D03*
X95591500Y-107950000D03*
X80772000Y-144526000D03*
X93892500Y-107950000D03*
X125095000Y-38354000D03*
X129413000Y-38354000D03*
X61976000Y-150622000D03*
X90678000Y-97790000D03*
X64516000Y-99314000D03*
X114046000Y-39878000D03*
X76962000Y-148590000D03*
X138811000Y-38354000D03*
X42164000Y-111506000D03*
X145796000Y-68326000D03*
X136144000Y-38354000D03*
X94488000Y-150368000D03*
X138811000Y-44450000D03*
X79248000Y-153416000D03*
X44958000Y-111760000D03*
X90678000Y-119380000D03*
X96520000Y-143002000D03*
X83058000Y-133604000D03*
X83726695Y-142029000D03*
X98806000Y-130556000D03*
X83058000Y-160528000D03*
X115215000Y-160274000D03*
X83312000Y-164338000D03*
X115316000Y-164084000D03*
X83566000Y-167894000D03*
X115316000Y-167894000D03*
X83693000Y-171577000D03*
X115215000Y-171831000D03*
X83693000Y-176657000D03*
X115215000Y-176911000D03*
X83693000Y-181737000D03*
X115215000Y-181991000D03*
X89535000Y-186817000D03*
X115215000Y-187071000D03*
X83693000Y-191897000D03*
X115215000Y-192151000D03*
%LPD*%
M02*
