M48
; DRILL file {KiCad 7.0.7} date Fri Oct 20 13:37:22 2023
; FORMAT={-:-/ absolute / metric / decimal}
; #@! TF.CreationDate,2023-10-20T13:37:22-04:00
; #@! TF.GenerationSoftware,Kicad,Pcbnew,7.0.7
; #@! TF.FileFunction,Plated,1,2,PTH
FMAT,2
METRIC
; #@! TA.AperFunction,Plated,PTH,ViaDrill
T1C0.400
; #@! TA.AperFunction,Plated,PTH,ComponentDrill
T2C0.600
; #@! TA.AperFunction,Plated,PTH,ComponentDrill
T3C0.787
; #@! TA.AperFunction,Plated,PTH,ViaDrill
T4C0.800
; #@! TA.AperFunction,Plated,PTH,ComponentDrill
T5C0.800
; #@! TA.AperFunction,Plated,PTH,ComponentDrill
T6C0.900
; #@! TA.AperFunction,Plated,PTH,ComponentDrill
T7C1.000
; #@! TA.AperFunction,Plated,PTH,ComponentDrill
T8C1.100
; #@! TA.AperFunction,Plated,PTH,ComponentDrill
T9C1.200
; #@! TA.AperFunction,Plated,PTH,ViaDrill
T10C1.500
; #@! TA.AperFunction,Plated,PTH,ComponentDrill
T11C1.700
; #@! TA.AperFunction,Plated,PTH,ViaDrill
T12C2.000
%
G90
G05
T1
X39.751Y-175.006
X42.164Y-111.506
X44.958Y-111.76
X48.768Y-104.902
X56.642Y-79.502
X57.658Y-89.154
X61.976Y-150.622
X64.516Y-99.314
X67.056Y-89.916
X75.057Y-137.706
X75.631Y-136.887
X76.296Y-155.965
X76.449Y-136.308
X76.454Y-134.112
X76.454Y-156.951
X76.962Y-148.59
X77.343Y-131.318
X77.47Y-157.226
X77.47Y-162.56
X79.248Y-153.416
X80.137Y-128.524
X80.379Y-132.204
X80.518Y-124.92
X80.772Y-144.526
X80.843Y-123.847
X81.153Y-125.746
X81.153Y-126.746
X81.534Y-120.904
X81.78Y-131.571
X81.882Y-139.667
X82.804Y-131.572
X83.058Y-133.604
X83.058Y-160.528
X83.312Y-164.338
X83.566Y-119.38
X83.566Y-167.894
X83.632Y-118.298
X83.693Y-140.97
X83.693Y-171.577
X83.693Y-176.657
X83.693Y-181.737
X83.693Y-191.897
X83.727Y-142.029
X83.947Y-135.778
X83.951Y-129.028
X84.013Y-124.648
X84.644Y-118.11
X84.709Y-128.27
X84.752Y-134.329
X85.471Y-138.303
X85.593Y-135.387
X86.868Y-147.828
X86.995Y-140.97
X87.63Y-136.906
X88.392Y-136.144
X88.519Y-124.968
X88.9Y-53.34
X89.201Y-135.404
X89.281Y-125.73
X89.535Y-186.817
X90.037Y-134.857
X90.043Y-138.684
X90.678Y-97.79
X90.678Y-119.38
X90.698Y-134.106
X90.767Y-150.92
X91.301Y-151.765
X91.719Y-150.614
X93.091Y-129.832
X93.115Y-139.154
X93.665Y-130.65
X93.892Y-107.95
X94.488Y-150.368
X94.589Y-136.253
X95.296Y-136.96
X95.591Y-107.95
X95.591Y-109.22
X96.52Y-143.002
X98.552Y-134.493
X98.552Y-145.542
X98.806Y-130.556
X98.806Y-136.906
X100.452Y-155.438
X101.092Y-156.206
X101.906Y-157.057
X102.87Y-148.082
X103.886Y-39.37
X104.394Y-123.571
X105.029Y-105.156
X107.315Y-139.065
X110.236Y-39.878
X110.236Y-43.942
X114.046Y-39.878
X115.215Y-160.274
X115.215Y-171.831
X115.215Y-176.911
X115.215Y-181.991
X115.215Y-187.071
X115.215Y-192.151
X115.316Y-164.084
X115.316Y-167.894
X116.939Y-156.464
X117.663Y-157.226
X117.856Y-39.878
X117.856Y-43.942
X117.86Y-153.666
X117.983Y-129.032
X119.126Y-144.183
X124.587Y-105.664
X125.095Y-38.354
X125.095Y-41.275
X125.095Y-44.196
X125.095Y-45.974
X126.492Y-148.59
X127.0Y-26.416
X127.254Y-134.112
X127.381Y-38.354
X129.413Y-38.354
X131.064Y-186.182
X132.08Y-127.508
X133.731Y-38.354
X134.493Y-55.372
X136.144Y-38.354
X137.16Y-134.366
X137.541Y-105.791
X138.811Y-38.354
X138.811Y-40.132
X138.811Y-42.418
X138.811Y-44.45
X138.811Y-46.228
X138.811Y-48.26
X145.796Y-68.326
X146.558Y-133.985
X149.352Y-115.57
X149.479Y-105.156
T2
X109.083Y-111.294
X109.083Y-113.294
T3
X130.048Y-166.878
X130.048Y-174.498
X132.588Y-166.878
X132.588Y-174.498
X135.128Y-166.878
X135.128Y-174.498
X137.668Y-166.878
X137.668Y-174.498
X140.208Y-166.878
X140.208Y-174.498
X142.748Y-166.878
X142.748Y-174.498
X145.288Y-166.878
X145.288Y-174.498
T4
X95.123Y-87.757
T5
X45.72Y-86.36
X45.72Y-88.9
X45.72Y-91.44
X45.72Y-93.98
X53.213Y-170.688
X53.213Y-173.228
X53.213Y-175.768
X53.213Y-178.308
X53.213Y-180.848
X53.213Y-183.388
X53.213Y-185.928
X53.34Y-86.36
X53.34Y-88.9
X53.34Y-91.44
X53.34Y-93.98
X60.833Y-170.688
X60.833Y-173.228
X60.833Y-175.768
X60.833Y-178.308
X60.833Y-180.848
X60.833Y-183.388
X60.833Y-185.928
X106.817Y-117.338
X106.817Y-124.958
X109.357Y-117.338
X109.357Y-124.958
X111.897Y-117.338
X111.897Y-124.958
X114.437Y-117.338
X114.437Y-124.958
T6
X76.962Y-170.434
X76.962Y-172.974
X98.171Y-115.316
X98.171Y-117.856
X99.949Y-97.282
X99.949Y-99.822
X109.347Y-97.282
X109.347Y-99.822
X119.507Y-97.282
X119.507Y-99.822
T7
X57.658Y-105.918
X57.658Y-108.458
X57.658Y-110.998
X58.547Y-120.396
X58.547Y-122.936
X58.547Y-125.476
X58.547Y-128.016
X58.547Y-130.556
X58.547Y-133.096
X58.547Y-135.636
X58.547Y-138.176
X68.326Y-153.162
X68.326Y-155.702
X68.326Y-158.242
X68.326Y-160.782
X68.326Y-163.322
X72.39Y-89.677
X72.39Y-92.217
X72.39Y-94.757
X72.898Y-109.22
X72.898Y-111.76
X75.438Y-109.22
X75.438Y-111.76
X77.978Y-109.22
X77.978Y-111.76
X80.518Y-109.22
X80.518Y-111.76
X83.058Y-109.22
X83.058Y-111.76
X91.567Y-87.757
X94.996Y-97.917
X97.765Y-26.909
X97.765Y-29.449
X97.765Y-31.989
X101.245Y-164.465
X101.245Y-167.005
X101.245Y-169.545
X101.245Y-172.085
X101.245Y-174.625
X101.245Y-177.165
X101.245Y-179.705
X101.245Y-182.245
X103.785Y-164.465
X103.785Y-167.005
X103.785Y-169.545
X103.785Y-172.085
X103.785Y-174.625
X103.785Y-177.165
X103.785Y-179.705
X103.785Y-182.245
X114.427Y-92.075
X126.619Y-92.583
X129.911Y-115.072
X134.381Y-159.766
X134.911Y-115.072
X136.921Y-159.766
X139.461Y-159.766
T8
X84.511Y-89.535
X84.511Y-92.075
X84.511Y-94.615
T9
X114.173Y-43.594
X114.173Y-53.594
T10
X97.663Y-49.276
T11
X41.971Y-121.666
X42.057Y-137.668
X45.93Y-121.666
X46.017Y-137.668
X52.532Y-29.337
X56.492Y-29.337
X60.452Y-29.337
X64.507Y-41.995
X64.516Y-66.421
X64.516Y-78.994
X64.539Y-53.848
X67.645Y-29.337
X68.468Y-41.995
X68.476Y-66.421
X68.476Y-78.994
X68.499Y-53.848
X71.605Y-29.337
X72.427Y-41.995
X72.436Y-66.421
X72.436Y-78.994
X72.459Y-53.848
X75.565Y-29.337
X100.454Y-84.159
X104.414Y-84.159
X108.374Y-84.159
X112.334Y-84.159
X136.502Y-89.916
X140.462Y-89.916
X141.582Y-147.066
X143.637Y-125.349
X143.637Y-129.309
X145.542Y-147.066
T12
X131.953Y-44.45
T0
M30
