%TF.GenerationSoftware,KiCad,Pcbnew,7.0.7*%
%TF.CreationDate,2023-10-20T13:38:14-04:00*%
%TF.ProjectId,Schematic,53636865-6d61-4746-9963-2e6b69636164,rev?*%
%TF.SameCoordinates,Original*%
%TF.FileFunction,Drillmap*%
%TF.FilePolarity,Positive*%
%FSLAX45Y45*%
G04 Gerber Fmt 4.5, Leading zero omitted, Abs format (unit mm)*
G04 Created by KiCad (PCBNEW 7.0.7) date 2023-10-20 13:38:14*
%MOMM*%
%LPD*%
G01*
G04 APERTURE LIST*
%ADD10C,0.100000*%
%ADD11C,0.200000*%
%ADD12C,0.040000*%
%ADD13C,0.060000*%
%ADD14C,0.078740*%
%ADD15C,0.080000*%
%ADD16C,0.090000*%
%ADD17C,0.110000*%
%ADD18C,0.120000*%
%ADD19C,0.150000*%
%ADD20C,0.170000*%
G04 APERTURE END LIST*
D10*
X3581400Y-2349500D02*
X15113000Y-2349500D01*
X15113000Y-19494500D01*
X3581400Y-19494500D01*
X3581400Y-2349500D01*
D11*
D12*
X3955100Y-17480600D02*
X3995100Y-17520600D01*
X3995100Y-17480600D02*
X3955100Y-17520600D01*
X4196400Y-11130600D02*
X4236400Y-11170600D01*
X4236400Y-11130600D02*
X4196400Y-11170600D01*
X4475800Y-11156000D02*
X4515800Y-11196000D01*
X4515800Y-11156000D02*
X4475800Y-11196000D01*
X4856800Y-10470200D02*
X4896800Y-10510200D01*
X4896800Y-10470200D02*
X4856800Y-10510200D01*
X5644200Y-7930200D02*
X5684200Y-7970200D01*
X5684200Y-7930200D02*
X5644200Y-7970200D01*
X5745800Y-8895400D02*
X5785800Y-8935400D01*
X5785800Y-8895400D02*
X5745800Y-8935400D01*
X6177600Y-15042200D02*
X6217600Y-15082200D01*
X6217600Y-15042200D02*
X6177600Y-15082200D01*
X6431600Y-9911400D02*
X6471600Y-9951400D01*
X6471600Y-9911400D02*
X6431600Y-9951400D01*
X6685600Y-8971600D02*
X6725600Y-9011600D01*
X6725600Y-8971600D02*
X6685600Y-9011600D01*
X7485700Y-13750550D02*
X7525700Y-13790550D01*
X7525700Y-13750550D02*
X7485700Y-13790550D01*
X7543082Y-13668713D02*
X7583082Y-13708713D01*
X7583082Y-13668713D02*
X7543082Y-13708713D01*
X7609580Y-15576460D02*
X7649580Y-15616460D01*
X7649580Y-15576460D02*
X7609580Y-15616460D01*
X7624865Y-13610850D02*
X7664865Y-13650850D01*
X7664865Y-13610850D02*
X7624865Y-13650850D01*
X7625400Y-13391200D02*
X7665400Y-13431200D01*
X7665400Y-13391200D02*
X7625400Y-13431200D01*
X7625400Y-15675150D02*
X7665400Y-15715150D01*
X7665400Y-15675150D02*
X7625400Y-15715150D01*
X7676200Y-14839000D02*
X7716200Y-14879000D01*
X7716200Y-14839000D02*
X7676200Y-14879000D01*
X7714300Y-13111800D02*
X7754300Y-13151800D01*
X7754300Y-13111800D02*
X7714300Y-13151800D01*
X7727000Y-15702600D02*
X7767000Y-15742600D01*
X7767000Y-15702600D02*
X7727000Y-15742600D01*
X7727000Y-16236000D02*
X7767000Y-16276000D01*
X7767000Y-16236000D02*
X7727000Y-16276000D01*
X7904800Y-15321600D02*
X7944800Y-15361600D01*
X7944800Y-15321600D02*
X7904800Y-15361600D01*
X7993700Y-12832400D02*
X8033700Y-12872400D01*
X8033700Y-12832400D02*
X7993700Y-12872400D01*
X8017896Y-13200382D02*
X8057896Y-13240382D01*
X8057896Y-13200382D02*
X8017896Y-13240382D01*
X8031800Y-12471964D02*
X8071800Y-12511964D01*
X8071800Y-12471964D02*
X8031800Y-12511964D01*
X8057200Y-14432600D02*
X8097200Y-14472600D01*
X8097200Y-14432600D02*
X8057200Y-14472600D01*
X8064342Y-12364700D02*
X8104342Y-12404700D01*
X8104342Y-12364700D02*
X8064342Y-12404700D01*
X8095300Y-12554650D02*
X8135300Y-12594650D01*
X8135300Y-12554650D02*
X8095300Y-12594650D01*
X8095300Y-12654600D02*
X8135300Y-12694600D01*
X8135300Y-12654600D02*
X8095300Y-12694600D01*
X8133400Y-12070400D02*
X8173400Y-12110400D01*
X8173400Y-12070400D02*
X8133400Y-12110400D01*
X8158041Y-13137099D02*
X8198041Y-13177099D01*
X8198041Y-13137099D02*
X8158041Y-13177099D01*
X8168191Y-13946691D02*
X8208191Y-13986691D01*
X8208191Y-13946691D02*
X8168191Y-13986691D01*
X8260400Y-13137200D02*
X8300400Y-13177200D01*
X8300400Y-13137200D02*
X8260400Y-13177200D01*
X8285800Y-13340400D02*
X8325800Y-13380400D01*
X8325800Y-13340400D02*
X8285800Y-13380400D01*
X8285800Y-16032800D02*
X8325800Y-16072800D01*
X8325800Y-16032800D02*
X8285800Y-16072800D01*
X8311200Y-16413800D02*
X8351200Y-16453800D01*
X8351200Y-16413800D02*
X8311200Y-16453800D01*
X8336600Y-11918000D02*
X8376600Y-11958000D01*
X8376600Y-11918000D02*
X8336600Y-11958000D01*
X8336600Y-16769400D02*
X8376600Y-16809400D01*
X8376600Y-16769400D02*
X8336600Y-16809400D01*
X8343218Y-11809782D02*
X8383218Y-11849782D01*
X8383218Y-11809782D02*
X8343218Y-11849782D01*
X8349300Y-14077000D02*
X8389300Y-14117000D01*
X8389300Y-14077000D02*
X8349300Y-14117000D01*
X8349300Y-17137700D02*
X8389300Y-17177700D01*
X8389300Y-17137700D02*
X8349300Y-17177700D01*
X8349300Y-17645700D02*
X8389300Y-17685700D01*
X8389300Y-17645700D02*
X8349300Y-17685700D01*
X8349300Y-18153700D02*
X8389300Y-18193700D01*
X8389300Y-18153700D02*
X8349300Y-18193700D01*
X8349300Y-19169700D02*
X8389300Y-19209700D01*
X8389300Y-19169700D02*
X8349300Y-19209700D01*
X8352669Y-14182900D02*
X8392670Y-14222900D01*
X8392670Y-14182900D02*
X8352669Y-14222900D01*
X8374700Y-13557750D02*
X8414700Y-13597750D01*
X8414700Y-13557750D02*
X8374700Y-13597750D01*
X8375130Y-12882770D02*
X8415130Y-12922770D01*
X8415130Y-12882770D02*
X8375130Y-12922770D01*
X8381330Y-12444770D02*
X8421330Y-12484770D01*
X8421330Y-12444770D02*
X8381330Y-12484770D01*
X8444450Y-11791000D02*
X8484450Y-11831000D01*
X8484450Y-11791000D02*
X8444450Y-11831000D01*
X8450900Y-12807000D02*
X8490900Y-12847000D01*
X8490900Y-12807000D02*
X8450900Y-12847000D01*
X8455190Y-13412868D02*
X8495190Y-13452868D01*
X8495190Y-13412868D02*
X8455190Y-13452868D01*
X8527100Y-13810300D02*
X8567100Y-13850300D01*
X8567100Y-13810300D02*
X8527100Y-13850300D01*
X8539300Y-13518700D02*
X8579300Y-13558700D01*
X8579300Y-13518700D02*
X8539300Y-13558700D01*
X8666800Y-14762800D02*
X8706800Y-14802800D01*
X8706800Y-14762800D02*
X8666800Y-14802800D01*
X8679500Y-14077000D02*
X8719500Y-14117000D01*
X8719500Y-14077000D02*
X8679500Y-14117000D01*
X8743000Y-13670600D02*
X8783000Y-13710600D01*
X8783000Y-13670600D02*
X8743000Y-13710600D01*
X8819200Y-13594400D02*
X8859200Y-13634400D01*
X8859200Y-13594400D02*
X8819200Y-13634400D01*
X8831900Y-12476800D02*
X8871900Y-12516800D01*
X8871900Y-12476800D02*
X8831900Y-12516800D01*
X8870000Y-5314000D02*
X8910000Y-5354000D01*
X8910000Y-5314000D02*
X8870000Y-5354000D01*
X8900107Y-13520434D02*
X8940107Y-13560434D01*
X8940107Y-13520434D02*
X8900107Y-13560434D01*
X8908100Y-12553000D02*
X8948100Y-12593000D01*
X8948100Y-12553000D02*
X8908100Y-12593000D01*
X8933500Y-18661700D02*
X8973500Y-18701700D01*
X8973500Y-18661700D02*
X8933500Y-18701700D01*
X8983716Y-13465666D02*
X9023716Y-13505666D01*
X9023716Y-13465666D02*
X8983716Y-13505666D01*
X8984300Y-13848400D02*
X9024300Y-13888400D01*
X9024300Y-13848400D02*
X8984300Y-13888400D01*
X9047800Y-9759000D02*
X9087800Y-9799000D01*
X9087800Y-9759000D02*
X9047800Y-9799000D01*
X9047800Y-11918000D02*
X9087800Y-11958000D01*
X9087800Y-11918000D02*
X9047800Y-11958000D01*
X9049751Y-13390636D02*
X9089751Y-13430636D01*
X9089751Y-13390636D02*
X9049751Y-13430636D01*
X9056750Y-15072011D02*
X9096750Y-15112011D01*
X9096750Y-15072011D02*
X9056750Y-15112011D01*
X9110150Y-15156500D02*
X9150150Y-15196500D01*
X9150150Y-15156500D02*
X9110150Y-15196500D01*
X9151897Y-15041397D02*
X9191897Y-15081397D01*
X9191897Y-15041397D02*
X9151897Y-15081397D01*
X9289100Y-12963150D02*
X9329100Y-13003150D01*
X9329100Y-12963150D02*
X9289100Y-13003150D01*
X9291491Y-13895450D02*
X9331491Y-13935450D01*
X9331491Y-13895450D02*
X9291491Y-13935450D01*
X9346482Y-13044987D02*
X9386482Y-13084987D01*
X9386482Y-13044987D02*
X9346482Y-13084987D01*
X9369250Y-10775000D02*
X9409250Y-10815000D01*
X9409250Y-10775000D02*
X9369250Y-10815000D01*
X9428800Y-15016800D02*
X9468800Y-15056800D01*
X9468800Y-15016800D02*
X9428800Y-15056800D01*
X9438874Y-13605336D02*
X9478874Y-13645336D01*
X9478874Y-13605336D02*
X9438874Y-13645336D01*
X9509583Y-13675979D02*
X9549583Y-13715979D01*
X9549583Y-13675979D02*
X9509583Y-13715979D01*
X9539150Y-10775000D02*
X9579150Y-10815000D01*
X9579150Y-10775000D02*
X9539150Y-10815000D01*
X9539150Y-10902000D02*
X9579150Y-10942000D01*
X9579150Y-10902000D02*
X9539150Y-10942000D01*
X9632000Y-14280200D02*
X9672000Y-14320200D01*
X9672000Y-14280200D02*
X9632000Y-14320200D01*
X9835200Y-13429300D02*
X9875200Y-13469300D01*
X9875200Y-13429300D02*
X9835200Y-13469300D01*
X9835200Y-14534200D02*
X9875200Y-14574200D01*
X9875200Y-14534200D02*
X9835200Y-14574200D01*
X9860600Y-13035600D02*
X9900600Y-13075600D01*
X9900600Y-13035600D02*
X9860600Y-13075600D01*
X9860600Y-13670600D02*
X9900600Y-13710600D01*
X9900600Y-13670600D02*
X9860600Y-13710600D01*
X10025246Y-15523759D02*
X10065246Y-15563759D01*
X10065246Y-15523759D02*
X10025246Y-15563759D01*
X10089200Y-15600570D02*
X10129200Y-15640570D01*
X10129200Y-15600570D02*
X10089200Y-15640570D01*
X10170648Y-15685746D02*
X10210648Y-15725746D01*
X10210648Y-15685746D02*
X10170648Y-15725746D01*
X10267000Y-14788200D02*
X10307000Y-14828200D01*
X10307000Y-14788200D02*
X10267000Y-14828200D01*
X10368600Y-3917000D02*
X10408600Y-3957000D01*
X10408600Y-3917000D02*
X10368600Y-3957000D01*
X10419400Y-12337100D02*
X10459400Y-12377100D01*
X10459400Y-12337100D02*
X10419400Y-12377100D01*
X10482900Y-10495600D02*
X10522900Y-10535600D01*
X10522900Y-10495600D02*
X10482900Y-10535600D01*
X10711500Y-13886500D02*
X10751500Y-13926500D01*
X10751500Y-13886500D02*
X10711500Y-13926500D01*
X11003600Y-3967800D02*
X11043600Y-4007800D01*
X11043600Y-3967800D02*
X11003600Y-4007800D01*
X11003600Y-4374200D02*
X11043600Y-4414200D01*
X11043600Y-4374200D02*
X11003600Y-4414200D01*
X11384600Y-3967800D02*
X11424600Y-4007800D01*
X11424600Y-3967800D02*
X11384600Y-4007800D01*
X11501500Y-16007400D02*
X11541500Y-16047400D01*
X11541500Y-16007400D02*
X11501500Y-16047400D01*
X11501500Y-17163100D02*
X11541500Y-17203100D01*
X11541500Y-17163100D02*
X11501500Y-17203100D01*
X11501500Y-17671100D02*
X11541500Y-17711100D01*
X11541500Y-17671100D02*
X11501500Y-17711100D01*
X11501500Y-18179100D02*
X11541500Y-18219100D01*
X11541500Y-18179100D02*
X11501500Y-18219100D01*
X11501500Y-18687100D02*
X11541500Y-18727100D01*
X11541500Y-18687100D02*
X11501500Y-18727100D01*
X11501500Y-19195100D02*
X11541500Y-19235100D01*
X11541500Y-19195100D02*
X11501500Y-19235100D01*
X11511600Y-16388400D02*
X11551600Y-16428400D01*
X11551600Y-16388400D02*
X11511600Y-16428400D01*
X11511600Y-16769400D02*
X11551600Y-16809400D01*
X11551600Y-16769400D02*
X11511600Y-16809400D01*
X11673900Y-15626400D02*
X11713900Y-15666400D01*
X11713900Y-15626400D02*
X11673900Y-15666400D01*
X11746350Y-15702600D02*
X11786350Y-15742600D01*
X11786350Y-15702600D02*
X11746350Y-15742600D01*
X11765600Y-3967800D02*
X11805600Y-4007800D01*
X11805600Y-3967800D02*
X11765600Y-4007800D01*
X11765600Y-4374200D02*
X11805600Y-4414200D01*
X11805600Y-4374200D02*
X11765600Y-4414200D01*
X11766030Y-15346570D02*
X11806030Y-15386570D01*
X11806030Y-15346570D02*
X11766030Y-15386570D01*
X11778300Y-12883200D02*
X11818300Y-12923200D01*
X11818300Y-12883200D02*
X11778300Y-12923200D01*
X11892600Y-14398250D02*
X11932600Y-14438250D01*
X11932600Y-14398250D02*
X11892600Y-14438250D01*
X12438700Y-10546400D02*
X12478700Y-10586400D01*
X12478700Y-10546400D02*
X12438700Y-10586400D01*
X12489500Y-3815400D02*
X12529500Y-3855400D01*
X12529500Y-3815400D02*
X12489500Y-3855400D01*
X12489500Y-4107500D02*
X12529500Y-4147500D01*
X12529500Y-4107500D02*
X12489500Y-4147500D01*
X12489500Y-4399600D02*
X12529500Y-4439600D01*
X12529500Y-4399600D02*
X12489500Y-4439600D01*
X12489500Y-4577400D02*
X12529500Y-4617400D01*
X12529500Y-4577400D02*
X12489500Y-4617400D01*
X12629200Y-14839000D02*
X12669200Y-14879000D01*
X12669200Y-14839000D02*
X12629200Y-14879000D01*
X12680000Y-2621600D02*
X12720000Y-2661600D01*
X12720000Y-2621600D02*
X12680000Y-2661600D01*
X12705400Y-13391200D02*
X12745400Y-13431200D01*
X12745400Y-13391200D02*
X12705400Y-13431200D01*
X12718100Y-3815400D02*
X12758100Y-3855400D01*
X12758100Y-3815400D02*
X12718100Y-3855400D01*
X12921300Y-3815400D02*
X12961300Y-3855400D01*
X12961300Y-3815400D02*
X12921300Y-3855400D01*
X13086400Y-18598200D02*
X13126400Y-18638200D01*
X13126400Y-18598200D02*
X13086400Y-18638200D01*
X13188000Y-12730800D02*
X13228000Y-12770800D01*
X13228000Y-12730800D02*
X13188000Y-12770800D01*
X13353100Y-3815400D02*
X13393100Y-3855400D01*
X13393100Y-3815400D02*
X13353100Y-3855400D01*
X13429300Y-5517200D02*
X13469300Y-5557200D01*
X13469300Y-5517200D02*
X13429300Y-5557200D01*
X13594400Y-3815400D02*
X13634400Y-3855400D01*
X13634400Y-3815400D02*
X13594400Y-3855400D01*
X13696000Y-13416600D02*
X13736000Y-13456600D01*
X13736000Y-13416600D02*
X13696000Y-13456600D01*
X13734100Y-10559100D02*
X13774100Y-10599100D01*
X13774100Y-10559100D02*
X13734100Y-10599100D01*
X13861100Y-3815400D02*
X13901100Y-3855400D01*
X13901100Y-3815400D02*
X13861100Y-3855400D01*
X13861100Y-3993200D02*
X13901100Y-4033200D01*
X13901100Y-3993200D02*
X13861100Y-4033200D01*
X13861100Y-4221800D02*
X13901100Y-4261800D01*
X13901100Y-4221800D02*
X13861100Y-4261800D01*
X13861100Y-4425000D02*
X13901100Y-4465000D01*
X13901100Y-4425000D02*
X13861100Y-4465000D01*
X13861100Y-4602800D02*
X13901100Y-4642800D01*
X13901100Y-4602800D02*
X13861100Y-4642800D01*
X13861100Y-4806000D02*
X13901100Y-4846000D01*
X13901100Y-4806000D02*
X13861100Y-4846000D01*
X14559600Y-6812600D02*
X14599600Y-6852600D01*
X14599600Y-6812600D02*
X14559600Y-6852600D01*
X14635800Y-13378500D02*
X14675800Y-13418500D01*
X14675800Y-13378500D02*
X14635800Y-13418500D01*
X14915200Y-11537000D02*
X14955200Y-11577000D01*
X14955200Y-11537000D02*
X14915200Y-11577000D01*
X14927900Y-10495600D02*
X14967900Y-10535600D01*
X14967900Y-10495600D02*
X14927900Y-10535600D01*
D13*
X10938300Y-11129400D02*
G75*
G03*
X10938300Y-11129400I-30000J0D01*
G01*
X10938300Y-11329400D02*
G75*
G03*
X10938300Y-11329400I-30000J0D01*
G01*
D14*
X13004800Y-16648430D02*
X13004800Y-16727170D01*
X12965430Y-16687800D02*
X13044170Y-16687800D01*
X13004800Y-17410430D02*
X13004800Y-17489170D01*
X12965430Y-17449800D02*
X13044170Y-17449800D01*
X13258800Y-16648430D02*
X13258800Y-16727170D01*
X13219430Y-16687800D02*
X13298170Y-16687800D01*
X13258800Y-17410430D02*
X13258800Y-17489170D01*
X13219430Y-17449800D02*
X13298170Y-17449800D01*
X13512800Y-16648430D02*
X13512800Y-16727170D01*
X13473430Y-16687800D02*
X13552170Y-16687800D01*
X13512800Y-17410430D02*
X13512800Y-17489170D01*
X13473430Y-17449800D02*
X13552170Y-17449800D01*
X13766800Y-16648430D02*
X13766800Y-16727170D01*
X13727430Y-16687800D02*
X13806170Y-16687800D01*
X13766800Y-17410430D02*
X13766800Y-17489170D01*
X13727430Y-17449800D02*
X13806170Y-17449800D01*
X14020800Y-16648430D02*
X14020800Y-16727170D01*
X13981430Y-16687800D02*
X14060170Y-16687800D01*
X14020800Y-17410430D02*
X14020800Y-17489170D01*
X13981430Y-17449800D02*
X14060170Y-17449800D01*
X14274800Y-16648430D02*
X14274800Y-16727170D01*
X14235430Y-16687800D02*
X14314170Y-16687800D01*
X14274800Y-17410430D02*
X14274800Y-17489170D01*
X14235430Y-17449800D02*
X14314170Y-17449800D01*
X14528800Y-16648430D02*
X14528800Y-16727170D01*
X14489430Y-16687800D02*
X14568170Y-16687800D01*
X14528800Y-17410430D02*
X14528800Y-17489170D01*
X14489430Y-17449800D02*
X14568170Y-17449800D01*
D15*
X9540585Y-8803985D02*
X9540585Y-8747416D01*
X9484016Y-8747416D01*
X9484016Y-8803985D01*
X9540585Y-8803985D01*
X4572000Y-8676000D02*
X4612000Y-8636000D01*
X4572000Y-8596000D01*
X4532000Y-8636000D01*
X4572000Y-8676000D01*
X4572000Y-8930000D02*
X4612000Y-8890000D01*
X4572000Y-8850000D01*
X4532000Y-8890000D01*
X4572000Y-8930000D01*
X4572000Y-9184000D02*
X4612000Y-9144000D01*
X4572000Y-9104000D01*
X4532000Y-9144000D01*
X4572000Y-9184000D01*
X4572000Y-9438000D02*
X4612000Y-9398000D01*
X4572000Y-9358000D01*
X4532000Y-9398000D01*
X4572000Y-9438000D01*
X5321300Y-17108800D02*
X5361300Y-17068800D01*
X5321300Y-17028800D01*
X5281300Y-17068800D01*
X5321300Y-17108800D01*
X5321300Y-17362800D02*
X5361300Y-17322800D01*
X5321300Y-17282800D01*
X5281300Y-17322800D01*
X5321300Y-17362800D01*
X5321300Y-17616800D02*
X5361300Y-17576800D01*
X5321300Y-17536800D01*
X5281300Y-17576800D01*
X5321300Y-17616800D01*
X5321300Y-17870800D02*
X5361300Y-17830800D01*
X5321300Y-17790800D01*
X5281300Y-17830800D01*
X5321300Y-17870800D01*
X5321300Y-18124800D02*
X5361300Y-18084800D01*
X5321300Y-18044800D01*
X5281300Y-18084800D01*
X5321300Y-18124800D01*
X5321300Y-18378800D02*
X5361300Y-18338800D01*
X5321300Y-18298800D01*
X5281300Y-18338800D01*
X5321300Y-18378800D01*
X5321300Y-18632800D02*
X5361300Y-18592800D01*
X5321300Y-18552800D01*
X5281300Y-18592800D01*
X5321300Y-18632800D01*
X5334000Y-8676000D02*
X5374000Y-8636000D01*
X5334000Y-8596000D01*
X5294000Y-8636000D01*
X5334000Y-8676000D01*
X5334000Y-8930000D02*
X5374000Y-8890000D01*
X5334000Y-8850000D01*
X5294000Y-8890000D01*
X5334000Y-8930000D01*
X5334000Y-9184000D02*
X5374000Y-9144000D01*
X5334000Y-9104000D01*
X5294000Y-9144000D01*
X5334000Y-9184000D01*
X5334000Y-9438000D02*
X5374000Y-9398000D01*
X5334000Y-9358000D01*
X5294000Y-9398000D01*
X5334000Y-9438000D01*
X6083300Y-17108800D02*
X6123300Y-17068800D01*
X6083300Y-17028800D01*
X6043300Y-17068800D01*
X6083300Y-17108800D01*
X6083300Y-17362800D02*
X6123300Y-17322800D01*
X6083300Y-17282800D01*
X6043300Y-17322800D01*
X6083300Y-17362800D01*
X6083300Y-17616800D02*
X6123300Y-17576800D01*
X6083300Y-17536800D01*
X6043300Y-17576800D01*
X6083300Y-17616800D01*
X6083300Y-17870800D02*
X6123300Y-17830800D01*
X6083300Y-17790800D01*
X6043300Y-17830800D01*
X6083300Y-17870800D01*
X6083300Y-18124800D02*
X6123300Y-18084800D01*
X6083300Y-18044800D01*
X6043300Y-18084800D01*
X6083300Y-18124800D01*
X6083300Y-18378800D02*
X6123300Y-18338800D01*
X6083300Y-18298800D01*
X6043300Y-18338800D01*
X6083300Y-18378800D01*
X6083300Y-18632800D02*
X6123300Y-18592800D01*
X6083300Y-18552800D01*
X6043300Y-18592800D01*
X6083300Y-18632800D01*
X10681700Y-11773800D02*
X10721700Y-11733800D01*
X10681700Y-11693800D01*
X10641700Y-11733800D01*
X10681700Y-11773800D01*
X10681700Y-12535800D02*
X10721700Y-12495800D01*
X10681700Y-12455800D01*
X10641700Y-12495800D01*
X10681700Y-12535800D01*
X10935700Y-11773800D02*
X10975700Y-11733800D01*
X10935700Y-11693800D01*
X10895700Y-11733800D01*
X10935700Y-11773800D01*
X10935700Y-12535800D02*
X10975700Y-12495800D01*
X10935700Y-12455800D01*
X10895700Y-12495800D01*
X10935700Y-12535800D01*
X11189700Y-11773800D02*
X11229700Y-11733800D01*
X11189700Y-11693800D01*
X11149700Y-11733800D01*
X11189700Y-11773800D01*
X11189700Y-12535800D02*
X11229700Y-12495800D01*
X11189700Y-12455800D01*
X11149700Y-12495800D01*
X11189700Y-12535800D01*
X11443700Y-11773800D02*
X11483700Y-11733800D01*
X11443700Y-11693800D01*
X11403700Y-11733800D01*
X11443700Y-11773800D01*
X11443700Y-12535800D02*
X11483700Y-12495800D01*
X11443700Y-12455800D01*
X11403700Y-12495800D01*
X11443700Y-12535800D01*
D16*
X7651200Y-16998400D02*
X7741200Y-17088400D01*
X7741200Y-16998400D02*
X7651200Y-17088400D01*
X7741200Y-17043400D02*
G75*
G03*
X7741200Y-17043400I-45000J0D01*
G01*
X7651200Y-17252400D02*
X7741200Y-17342400D01*
X7741200Y-17252400D02*
X7651200Y-17342400D01*
X7741200Y-17297400D02*
G75*
G03*
X7741200Y-17297400I-45000J0D01*
G01*
X9772100Y-11486600D02*
X9862100Y-11576600D01*
X9862100Y-11486600D02*
X9772100Y-11576600D01*
X9862100Y-11531600D02*
G75*
G03*
X9862100Y-11531600I-45000J0D01*
G01*
X9772100Y-11740600D02*
X9862100Y-11830600D01*
X9862100Y-11740600D02*
X9772100Y-11830600D01*
X9862100Y-11785600D02*
G75*
G03*
X9862100Y-11785600I-45000J0D01*
G01*
X9949900Y-9683200D02*
X10039900Y-9773200D01*
X10039900Y-9683200D02*
X9949900Y-9773200D01*
X10039900Y-9728200D02*
G75*
G03*
X10039900Y-9728200I-45000J0D01*
G01*
X9949900Y-9937200D02*
X10039900Y-10027200D01*
X10039900Y-9937200D02*
X9949900Y-10027200D01*
X10039900Y-9982200D02*
G75*
G03*
X10039900Y-9982200I-45000J0D01*
G01*
X10889700Y-9683200D02*
X10979700Y-9773200D01*
X10979700Y-9683200D02*
X10889700Y-9773200D01*
X10979700Y-9728200D02*
G75*
G03*
X10979700Y-9728200I-45000J0D01*
G01*
X10889700Y-9937200D02*
X10979700Y-10027200D01*
X10979700Y-9937200D02*
X10889700Y-10027200D01*
X10979700Y-9982200D02*
G75*
G03*
X10979700Y-9982200I-45000J0D01*
G01*
X11905700Y-9683200D02*
X11995700Y-9773200D01*
X11995700Y-9683200D02*
X11905700Y-9773200D01*
X11995700Y-9728200D02*
G75*
G03*
X11995700Y-9728200I-45000J0D01*
G01*
X11905700Y-9937200D02*
X11995700Y-10027200D01*
X11995700Y-9937200D02*
X11905700Y-10027200D01*
X11995700Y-9982200D02*
G75*
G03*
X11995700Y-9982200I-45000J0D01*
G01*
D10*
X5715800Y-10541800D02*
X5815800Y-10641800D01*
X5815800Y-10541800D02*
X5715800Y-10641800D01*
X5765800Y-10541800D02*
X5765800Y-10641800D01*
X5715800Y-10591800D02*
X5815800Y-10591800D01*
X5715800Y-10795800D02*
X5815800Y-10895800D01*
X5815800Y-10795800D02*
X5715800Y-10895800D01*
X5765800Y-10795800D02*
X5765800Y-10895800D01*
X5715800Y-10845800D02*
X5815800Y-10845800D01*
X5715800Y-11049800D02*
X5815800Y-11149800D01*
X5815800Y-11049800D02*
X5715800Y-11149800D01*
X5765800Y-11049800D02*
X5765800Y-11149800D01*
X5715800Y-11099800D02*
X5815800Y-11099800D01*
X5804700Y-11989600D02*
X5904700Y-12089600D01*
X5904700Y-11989600D02*
X5804700Y-12089600D01*
X5854700Y-11989600D02*
X5854700Y-12089600D01*
X5804700Y-12039600D02*
X5904700Y-12039600D01*
X5804700Y-12243600D02*
X5904700Y-12343600D01*
X5904700Y-12243600D02*
X5804700Y-12343600D01*
X5854700Y-12243600D02*
X5854700Y-12343600D01*
X5804700Y-12293600D02*
X5904700Y-12293600D01*
X5804700Y-12497600D02*
X5904700Y-12597600D01*
X5904700Y-12497600D02*
X5804700Y-12597600D01*
X5854700Y-12497600D02*
X5854700Y-12597600D01*
X5804700Y-12547600D02*
X5904700Y-12547600D01*
X5804700Y-12751600D02*
X5904700Y-12851600D01*
X5904700Y-12751600D02*
X5804700Y-12851600D01*
X5854700Y-12751600D02*
X5854700Y-12851600D01*
X5804700Y-12801600D02*
X5904700Y-12801600D01*
X5804700Y-13005600D02*
X5904700Y-13105600D01*
X5904700Y-13005600D02*
X5804700Y-13105600D01*
X5854700Y-13005600D02*
X5854700Y-13105600D01*
X5804700Y-13055600D02*
X5904700Y-13055600D01*
X5804700Y-13259600D02*
X5904700Y-13359600D01*
X5904700Y-13259600D02*
X5804700Y-13359600D01*
X5854700Y-13259600D02*
X5854700Y-13359600D01*
X5804700Y-13309600D02*
X5904700Y-13309600D01*
X5804700Y-13513600D02*
X5904700Y-13613600D01*
X5904700Y-13513600D02*
X5804700Y-13613600D01*
X5854700Y-13513600D02*
X5854700Y-13613600D01*
X5804700Y-13563600D02*
X5904700Y-13563600D01*
X5804700Y-13767600D02*
X5904700Y-13867600D01*
X5904700Y-13767600D02*
X5804700Y-13867600D01*
X5854700Y-13767600D02*
X5854700Y-13867600D01*
X5804700Y-13817600D02*
X5904700Y-13817600D01*
X6782600Y-15266200D02*
X6882600Y-15366200D01*
X6882600Y-15266200D02*
X6782600Y-15366200D01*
X6832600Y-15266200D02*
X6832600Y-15366200D01*
X6782600Y-15316200D02*
X6882600Y-15316200D01*
X6782600Y-15520200D02*
X6882600Y-15620200D01*
X6882600Y-15520200D02*
X6782600Y-15620200D01*
X6832600Y-15520200D02*
X6832600Y-15620200D01*
X6782600Y-15570200D02*
X6882600Y-15570200D01*
X6782600Y-15774200D02*
X6882600Y-15874200D01*
X6882600Y-15774200D02*
X6782600Y-15874200D01*
X6832600Y-15774200D02*
X6832600Y-15874200D01*
X6782600Y-15824200D02*
X6882600Y-15824200D01*
X6782600Y-16028200D02*
X6882600Y-16128200D01*
X6882600Y-16028200D02*
X6782600Y-16128200D01*
X6832600Y-16028200D02*
X6832600Y-16128200D01*
X6782600Y-16078200D02*
X6882600Y-16078200D01*
X6782600Y-16282200D02*
X6882600Y-16382200D01*
X6882600Y-16282200D02*
X6782600Y-16382200D01*
X6832600Y-16282200D02*
X6832600Y-16382200D01*
X6782600Y-16332200D02*
X6882600Y-16332200D01*
X7189000Y-8917700D02*
X7289000Y-9017700D01*
X7289000Y-8917700D02*
X7189000Y-9017700D01*
X7239000Y-8917700D02*
X7239000Y-9017700D01*
X7189000Y-8967700D02*
X7289000Y-8967700D01*
X7189000Y-9171700D02*
X7289000Y-9271700D01*
X7289000Y-9171700D02*
X7189000Y-9271700D01*
X7239000Y-9171700D02*
X7239000Y-9271700D01*
X7189000Y-9221700D02*
X7289000Y-9221700D01*
X7189000Y-9425700D02*
X7289000Y-9525700D01*
X7289000Y-9425700D02*
X7189000Y-9525700D01*
X7239000Y-9425700D02*
X7239000Y-9525700D01*
X7189000Y-9475700D02*
X7289000Y-9475700D01*
X7239800Y-10872000D02*
X7339800Y-10972000D01*
X7339800Y-10872000D02*
X7239800Y-10972000D01*
X7289800Y-10872000D02*
X7289800Y-10972000D01*
X7239800Y-10922000D02*
X7339800Y-10922000D01*
X7239800Y-11126000D02*
X7339800Y-11226000D01*
X7339800Y-11126000D02*
X7239800Y-11226000D01*
X7289800Y-11126000D02*
X7289800Y-11226000D01*
X7239800Y-11176000D02*
X7339800Y-11176000D01*
X7493800Y-10872000D02*
X7593800Y-10972000D01*
X7593800Y-10872000D02*
X7493800Y-10972000D01*
X7543800Y-10872000D02*
X7543800Y-10972000D01*
X7493800Y-10922000D02*
X7593800Y-10922000D01*
X7493800Y-11126000D02*
X7593800Y-11226000D01*
X7593800Y-11126000D02*
X7493800Y-11226000D01*
X7543800Y-11126000D02*
X7543800Y-11226000D01*
X7493800Y-11176000D02*
X7593800Y-11176000D01*
X7747800Y-10872000D02*
X7847800Y-10972000D01*
X7847800Y-10872000D02*
X7747800Y-10972000D01*
X7797800Y-10872000D02*
X7797800Y-10972000D01*
X7747800Y-10922000D02*
X7847800Y-10922000D01*
X7747800Y-11126000D02*
X7847800Y-11226000D01*
X7847800Y-11126000D02*
X7747800Y-11226000D01*
X7797800Y-11126000D02*
X7797800Y-11226000D01*
X7747800Y-11176000D02*
X7847800Y-11176000D01*
X8001800Y-10872000D02*
X8101800Y-10972000D01*
X8101800Y-10872000D02*
X8001800Y-10972000D01*
X8051800Y-10872000D02*
X8051800Y-10972000D01*
X8001800Y-10922000D02*
X8101800Y-10922000D01*
X8001800Y-11126000D02*
X8101800Y-11226000D01*
X8101800Y-11126000D02*
X8001800Y-11226000D01*
X8051800Y-11126000D02*
X8051800Y-11226000D01*
X8001800Y-11176000D02*
X8101800Y-11176000D01*
X8255800Y-10872000D02*
X8355800Y-10972000D01*
X8355800Y-10872000D02*
X8255800Y-10972000D01*
X8305800Y-10872000D02*
X8305800Y-10972000D01*
X8255800Y-10922000D02*
X8355800Y-10922000D01*
X8255800Y-11126000D02*
X8355800Y-11226000D01*
X8355800Y-11126000D02*
X8255800Y-11226000D01*
X8305800Y-11126000D02*
X8305800Y-11226000D01*
X8255800Y-11176000D02*
X8355800Y-11176000D01*
X9106700Y-8725700D02*
X9206700Y-8825700D01*
X9206700Y-8725700D02*
X9106700Y-8825700D01*
X9156700Y-8725700D02*
X9156700Y-8825700D01*
X9106700Y-8775700D02*
X9206700Y-8775700D01*
X9449600Y-9741700D02*
X9549600Y-9841700D01*
X9549600Y-9741700D02*
X9449600Y-9841700D01*
X9499600Y-9741700D02*
X9499600Y-9841700D01*
X9449600Y-9791700D02*
X9549600Y-9791700D01*
X9726500Y-2640900D02*
X9826500Y-2740900D01*
X9826500Y-2640900D02*
X9726500Y-2740900D01*
X9776500Y-2640900D02*
X9776500Y-2740900D01*
X9726500Y-2690900D02*
X9826500Y-2690900D01*
X9726500Y-2894900D02*
X9826500Y-2994900D01*
X9826500Y-2894900D02*
X9726500Y-2994900D01*
X9776500Y-2894900D02*
X9776500Y-2994900D01*
X9726500Y-2944900D02*
X9826500Y-2944900D01*
X9726500Y-3148900D02*
X9826500Y-3248900D01*
X9826500Y-3148900D02*
X9726500Y-3248900D01*
X9776500Y-3148900D02*
X9776500Y-3248900D01*
X9726500Y-3198900D02*
X9826500Y-3198900D01*
X10074500Y-16396500D02*
X10174500Y-16496500D01*
X10174500Y-16396500D02*
X10074500Y-16496500D01*
X10124500Y-16396500D02*
X10124500Y-16496500D01*
X10074500Y-16446500D02*
X10174500Y-16446500D01*
X10074500Y-16650500D02*
X10174500Y-16750500D01*
X10174500Y-16650500D02*
X10074500Y-16750500D01*
X10124500Y-16650500D02*
X10124500Y-16750500D01*
X10074500Y-16700500D02*
X10174500Y-16700500D01*
X10074500Y-16904500D02*
X10174500Y-17004500D01*
X10174500Y-16904500D02*
X10074500Y-17004500D01*
X10124500Y-16904500D02*
X10124500Y-17004500D01*
X10074500Y-16954500D02*
X10174500Y-16954500D01*
X10074500Y-17158500D02*
X10174500Y-17258500D01*
X10174500Y-17158500D02*
X10074500Y-17258500D01*
X10124500Y-17158500D02*
X10124500Y-17258500D01*
X10074500Y-17208500D02*
X10174500Y-17208500D01*
X10074500Y-17412500D02*
X10174500Y-17512500D01*
X10174500Y-17412500D02*
X10074500Y-17512500D01*
X10124500Y-17412500D02*
X10124500Y-17512500D01*
X10074500Y-17462500D02*
X10174500Y-17462500D01*
X10074500Y-17666500D02*
X10174500Y-17766500D01*
X10174500Y-17666500D02*
X10074500Y-17766500D01*
X10124500Y-17666500D02*
X10124500Y-17766500D01*
X10074500Y-17716500D02*
X10174500Y-17716500D01*
X10074500Y-17920500D02*
X10174500Y-18020500D01*
X10174500Y-17920500D02*
X10074500Y-18020500D01*
X10124500Y-17920500D02*
X10124500Y-18020500D01*
X10074500Y-17970500D02*
X10174500Y-17970500D01*
X10074500Y-18174500D02*
X10174500Y-18274500D01*
X10174500Y-18174500D02*
X10074500Y-18274500D01*
X10124500Y-18174500D02*
X10124500Y-18274500D01*
X10074500Y-18224500D02*
X10174500Y-18224500D01*
X10328500Y-16396500D02*
X10428500Y-16496500D01*
X10428500Y-16396500D02*
X10328500Y-16496500D01*
X10378500Y-16396500D02*
X10378500Y-16496500D01*
X10328500Y-16446500D02*
X10428500Y-16446500D01*
X10328500Y-16650500D02*
X10428500Y-16750500D01*
X10428500Y-16650500D02*
X10328500Y-16750500D01*
X10378500Y-16650500D02*
X10378500Y-16750500D01*
X10328500Y-16700500D02*
X10428500Y-16700500D01*
X10328500Y-16904500D02*
X10428500Y-17004500D01*
X10428500Y-16904500D02*
X10328500Y-17004500D01*
X10378500Y-16904500D02*
X10378500Y-17004500D01*
X10328500Y-16954500D02*
X10428500Y-16954500D01*
X10328500Y-17158500D02*
X10428500Y-17258500D01*
X10428500Y-17158500D02*
X10328500Y-17258500D01*
X10378500Y-17158500D02*
X10378500Y-17258500D01*
X10328500Y-17208500D02*
X10428500Y-17208500D01*
X10328500Y-17412500D02*
X10428500Y-17512500D01*
X10428500Y-17412500D02*
X10328500Y-17512500D01*
X10378500Y-17412500D02*
X10378500Y-17512500D01*
X10328500Y-17462500D02*
X10428500Y-17462500D01*
X10328500Y-17666500D02*
X10428500Y-17766500D01*
X10428500Y-17666500D02*
X10328500Y-17766500D01*
X10378500Y-17666500D02*
X10378500Y-17766500D01*
X10328500Y-17716500D02*
X10428500Y-17716500D01*
X10328500Y-17920500D02*
X10428500Y-18020500D01*
X10428500Y-17920500D02*
X10328500Y-18020500D01*
X10378500Y-17920500D02*
X10378500Y-18020500D01*
X10328500Y-17970500D02*
X10428500Y-17970500D01*
X10328500Y-18174500D02*
X10428500Y-18274500D01*
X10428500Y-18174500D02*
X10328500Y-18274500D01*
X10378500Y-18174500D02*
X10378500Y-18274500D01*
X10328500Y-18224500D02*
X10428500Y-18224500D01*
X11392700Y-9157500D02*
X11492700Y-9257500D01*
X11492700Y-9157500D02*
X11392700Y-9257500D01*
X11442700Y-9157500D02*
X11442700Y-9257500D01*
X11392700Y-9207500D02*
X11492700Y-9207500D01*
X12611900Y-9208300D02*
X12711900Y-9308300D01*
X12711900Y-9208300D02*
X12611900Y-9308300D01*
X12661900Y-9208300D02*
X12661900Y-9308300D01*
X12611900Y-9258300D02*
X12711900Y-9258300D01*
X12941100Y-11457200D02*
X13041100Y-11557200D01*
X13041100Y-11457200D02*
X12941100Y-11557200D01*
X12991100Y-11457200D02*
X12991100Y-11557200D01*
X12941100Y-11507200D02*
X13041100Y-11507200D01*
X13388100Y-15926600D02*
X13488100Y-16026600D01*
X13488100Y-15926600D02*
X13388100Y-16026600D01*
X13438100Y-15926600D02*
X13438100Y-16026600D01*
X13388100Y-15976600D02*
X13488100Y-15976600D01*
X13441100Y-11457200D02*
X13541100Y-11557200D01*
X13541100Y-11457200D02*
X13441100Y-11557200D01*
X13491100Y-11457200D02*
X13491100Y-11557200D01*
X13441100Y-11507200D02*
X13541100Y-11507200D01*
X13642100Y-15926600D02*
X13742100Y-16026600D01*
X13742100Y-15926600D02*
X13642100Y-16026600D01*
X13692100Y-15926600D02*
X13692100Y-16026600D01*
X13642100Y-15976600D02*
X13742100Y-15976600D01*
X13896100Y-15926600D02*
X13996100Y-16026600D01*
X13996100Y-15926600D02*
X13896100Y-16026600D01*
X13946100Y-15926600D02*
X13946100Y-16026600D01*
X13896100Y-15976600D02*
X13996100Y-15976600D01*
D17*
X8396100Y-8898500D02*
X8506100Y-9008500D01*
X8506100Y-8898500D02*
X8396100Y-9008500D01*
X8489991Y-8992391D02*
X8489991Y-8914609D01*
X8412209Y-8914609D01*
X8412209Y-8992391D01*
X8489991Y-8992391D01*
X8396100Y-9152500D02*
X8506100Y-9262500D01*
X8506100Y-9152500D02*
X8396100Y-9262500D01*
X8489991Y-9246391D02*
X8489991Y-9168609D01*
X8412209Y-9168609D01*
X8412209Y-9246391D01*
X8489991Y-9246391D01*
X8396100Y-9406500D02*
X8506100Y-9516500D01*
X8506100Y-9406500D02*
X8396100Y-9516500D01*
X8489991Y-9500391D02*
X8489991Y-9422609D01*
X8412209Y-9422609D01*
X8412209Y-9500391D01*
X8489991Y-9500391D01*
D18*
X11357300Y-4299400D02*
X11477300Y-4419400D01*
X11477300Y-4299400D02*
X11357300Y-4419400D01*
X11417300Y-4419400D02*
X11477300Y-4359400D01*
X11417300Y-4299400D01*
X11357300Y-4359400D01*
X11417300Y-4419400D01*
X11357300Y-5299400D02*
X11477300Y-5419400D01*
X11477300Y-5299400D02*
X11357300Y-5419400D01*
X11417300Y-5419400D02*
X11477300Y-5359400D01*
X11417300Y-5299400D01*
X11357300Y-5359400D01*
X11417300Y-5419400D01*
D19*
X9766300Y-4852600D02*
X9766300Y-5002600D01*
X9691300Y-4927600D02*
X9841300Y-4927600D01*
X9841300Y-4927600D02*
G75*
G03*
X9841300Y-4927600I-75000J0D01*
G01*
D20*
X4257155Y-12226705D02*
X4257155Y-12106495D01*
X4136945Y-12106495D01*
X4136945Y-12226705D01*
X4257155Y-12226705D01*
X4282050Y-12166600D02*
G75*
G03*
X4282050Y-12166600I-85000J0D01*
G01*
X4265855Y-13826905D02*
X4265855Y-13706695D01*
X4145645Y-13706695D01*
X4145645Y-13826905D01*
X4265855Y-13826905D01*
X4290750Y-13766800D02*
G75*
G03*
X4290750Y-13766800I-85000J0D01*
G01*
X4653155Y-12226705D02*
X4653155Y-12106495D01*
X4532945Y-12106495D01*
X4532945Y-12226705D01*
X4653155Y-12226705D01*
X4678050Y-12166600D02*
G75*
G03*
X4678050Y-12166600I-85000J0D01*
G01*
X4661855Y-13826905D02*
X4661855Y-13706695D01*
X4541645Y-13706695D01*
X4541645Y-13826905D01*
X4661855Y-13826905D01*
X4686750Y-13766800D02*
G75*
G03*
X4686750Y-13766800I-85000J0D01*
G01*
X5313305Y-2993805D02*
X5313305Y-2873595D01*
X5193095Y-2873595D01*
X5193095Y-2993805D01*
X5313305Y-2993805D01*
X5338200Y-2933700D02*
G75*
G03*
X5338200Y-2933700I-85000J0D01*
G01*
X5709305Y-2993805D02*
X5709305Y-2873595D01*
X5589095Y-2873595D01*
X5589095Y-2993805D01*
X5709305Y-2993805D01*
X5734200Y-2933700D02*
G75*
G03*
X5734200Y-2933700I-85000J0D01*
G01*
X6105305Y-2993805D02*
X6105305Y-2873595D01*
X5985095Y-2873595D01*
X5985095Y-2993805D01*
X6105305Y-2993805D01*
X6130200Y-2933700D02*
G75*
G03*
X6130200Y-2933700I-85000J0D01*
G01*
X6510855Y-4259605D02*
X6510855Y-4139395D01*
X6390645Y-4139395D01*
X6390645Y-4259605D01*
X6510855Y-4259605D01*
X6535750Y-4199500D02*
G75*
G03*
X6535750Y-4199500I-85000J0D01*
G01*
X6511705Y-6702205D02*
X6511705Y-6581995D01*
X6391495Y-6581995D01*
X6391495Y-6702205D01*
X6511705Y-6702205D01*
X6536600Y-6642100D02*
G75*
G03*
X6536600Y-6642100I-85000J0D01*
G01*
X6511705Y-7959505D02*
X6511705Y-7839295D01*
X6391495Y-7839295D01*
X6391495Y-7959505D01*
X6511705Y-7959505D01*
X6536600Y-7899400D02*
G75*
G03*
X6536600Y-7899400I-85000J0D01*
G01*
X6514005Y-5444905D02*
X6514005Y-5324695D01*
X6393795Y-5324695D01*
X6393795Y-5444905D01*
X6514005Y-5444905D01*
X6538900Y-5384800D02*
G75*
G03*
X6538900Y-5384800I-85000J0D01*
G01*
X6824605Y-2993805D02*
X6824605Y-2873595D01*
X6704395Y-2873595D01*
X6704395Y-2993805D01*
X6824605Y-2993805D01*
X6849500Y-2933700D02*
G75*
G03*
X6849500Y-2933700I-85000J0D01*
G01*
X6906855Y-4259605D02*
X6906855Y-4139395D01*
X6786645Y-4139395D01*
X6786645Y-4259605D01*
X6906855Y-4259605D01*
X6931750Y-4199500D02*
G75*
G03*
X6931750Y-4199500I-85000J0D01*
G01*
X6907705Y-6702205D02*
X6907705Y-6581995D01*
X6787495Y-6581995D01*
X6787495Y-6702205D01*
X6907705Y-6702205D01*
X6932600Y-6642100D02*
G75*
G03*
X6932600Y-6642100I-85000J0D01*
G01*
X6907705Y-7959505D02*
X6907705Y-7839295D01*
X6787495Y-7839295D01*
X6787495Y-7959505D01*
X6907705Y-7959505D01*
X6932600Y-7899400D02*
G75*
G03*
X6932600Y-7899400I-85000J0D01*
G01*
X6910005Y-5444905D02*
X6910005Y-5324695D01*
X6789795Y-5324695D01*
X6789795Y-5444905D01*
X6910005Y-5444905D01*
X6934900Y-5384800D02*
G75*
G03*
X6934900Y-5384800I-85000J0D01*
G01*
X7220605Y-2993805D02*
X7220605Y-2873595D01*
X7100395Y-2873595D01*
X7100395Y-2993805D01*
X7220605Y-2993805D01*
X7245500Y-2933700D02*
G75*
G03*
X7245500Y-2933700I-85000J0D01*
G01*
X7302855Y-4259605D02*
X7302855Y-4139395D01*
X7182645Y-4139395D01*
X7182645Y-4259605D01*
X7302855Y-4259605D01*
X7327750Y-4199500D02*
G75*
G03*
X7327750Y-4199500I-85000J0D01*
G01*
X7303705Y-6702205D02*
X7303705Y-6581995D01*
X7183495Y-6581995D01*
X7183495Y-6702205D01*
X7303705Y-6702205D01*
X7328600Y-6642100D02*
G75*
G03*
X7328600Y-6642100I-85000J0D01*
G01*
X7303705Y-7959505D02*
X7303705Y-7839295D01*
X7183495Y-7839295D01*
X7183495Y-7959505D01*
X7303705Y-7959505D01*
X7328600Y-7899400D02*
G75*
G03*
X7328600Y-7899400I-85000J0D01*
G01*
X7306005Y-5444905D02*
X7306005Y-5324695D01*
X7185795Y-5324695D01*
X7185795Y-5444905D01*
X7306005Y-5444905D01*
X7330900Y-5384800D02*
G75*
G03*
X7330900Y-5384800I-85000J0D01*
G01*
X7616605Y-2993805D02*
X7616605Y-2873595D01*
X7496395Y-2873595D01*
X7496395Y-2993805D01*
X7616605Y-2993805D01*
X7641500Y-2933700D02*
G75*
G03*
X7641500Y-2933700I-85000J0D01*
G01*
X10105555Y-8476005D02*
X10105555Y-8355795D01*
X9985345Y-8355795D01*
X9985345Y-8476005D01*
X10105555Y-8476005D01*
X10130450Y-8415900D02*
G75*
G03*
X10130450Y-8415900I-85000J0D01*
G01*
X10501555Y-8476005D02*
X10501555Y-8355795D01*
X10381345Y-8355795D01*
X10381345Y-8476005D01*
X10501555Y-8476005D01*
X10526450Y-8415900D02*
G75*
G03*
X10526450Y-8415900I-85000J0D01*
G01*
X10897555Y-8476005D02*
X10897555Y-8355795D01*
X10777345Y-8355795D01*
X10777345Y-8476005D01*
X10897555Y-8476005D01*
X10922450Y-8415900D02*
G75*
G03*
X10922450Y-8415900I-85000J0D01*
G01*
X11293555Y-8476005D02*
X11293555Y-8355795D01*
X11173345Y-8355795D01*
X11173345Y-8476005D01*
X11293555Y-8476005D01*
X11318450Y-8415900D02*
G75*
G03*
X11318450Y-8415900I-85000J0D01*
G01*
X13710305Y-9051705D02*
X13710305Y-8931495D01*
X13590095Y-8931495D01*
X13590095Y-9051705D01*
X13710305Y-9051705D01*
X13735200Y-8991600D02*
G75*
G03*
X13735200Y-8991600I-85000J0D01*
G01*
X14106305Y-9051705D02*
X14106305Y-8931495D01*
X13986095Y-8931495D01*
X13986095Y-9051705D01*
X14106305Y-9051705D01*
X14131200Y-8991600D02*
G75*
G03*
X14131200Y-8991600I-85000J0D01*
G01*
X14218305Y-14766705D02*
X14218305Y-14646495D01*
X14098095Y-14646495D01*
X14098095Y-14766705D01*
X14218305Y-14766705D01*
X14243200Y-14706600D02*
G75*
G03*
X14243200Y-14706600I-85000J0D01*
G01*
X14423805Y-12595005D02*
X14423805Y-12474795D01*
X14303595Y-12474795D01*
X14303595Y-12595005D01*
X14423805Y-12595005D01*
X14448700Y-12534900D02*
G75*
G03*
X14448700Y-12534900I-85000J0D01*
G01*
X14423805Y-12991005D02*
X14423805Y-12870795D01*
X14303595Y-12870795D01*
X14303595Y-12991005D01*
X14423805Y-12991005D01*
X14448700Y-12930900D02*
G75*
G03*
X14448700Y-12930900I-85000J0D01*
G01*
X14614305Y-14766705D02*
X14614305Y-14646495D01*
X14494095Y-14646495D01*
X14494095Y-14766705D01*
X14614305Y-14766705D01*
X14639200Y-14706600D02*
G75*
G03*
X14639200Y-14706600I-85000J0D01*
G01*
D11*
X13195300Y-4545000D02*
X13295300Y-4445000D01*
X13195300Y-4345000D01*
X13095300Y-4445000D01*
X13195300Y-4545000D01*
X13295300Y-4445000D02*
G75*
G03*
X13295300Y-4445000I-100000J0D01*
G01*
X3837177Y-19810984D02*
X3837177Y-19610984D01*
X3837177Y-19610984D02*
X3884796Y-19610984D01*
X3884796Y-19610984D02*
X3913367Y-19620508D01*
X3913367Y-19620508D02*
X3932415Y-19639555D01*
X3932415Y-19639555D02*
X3941939Y-19658603D01*
X3941939Y-19658603D02*
X3951462Y-19696698D01*
X3951462Y-19696698D02*
X3951462Y-19725270D01*
X3951462Y-19725270D02*
X3941939Y-19763365D01*
X3941939Y-19763365D02*
X3932415Y-19782412D01*
X3932415Y-19782412D02*
X3913367Y-19801460D01*
X3913367Y-19801460D02*
X3884796Y-19810984D01*
X3884796Y-19810984D02*
X3837177Y-19810984D01*
X4037177Y-19810984D02*
X4037177Y-19677650D01*
X4037177Y-19715746D02*
X4046701Y-19696698D01*
X4046701Y-19696698D02*
X4056224Y-19687174D01*
X4056224Y-19687174D02*
X4075272Y-19677650D01*
X4075272Y-19677650D02*
X4094320Y-19677650D01*
X4160986Y-19810984D02*
X4160986Y-19677650D01*
X4160986Y-19610984D02*
X4151462Y-19620508D01*
X4151462Y-19620508D02*
X4160986Y-19630031D01*
X4160986Y-19630031D02*
X4170510Y-19620508D01*
X4170510Y-19620508D02*
X4160986Y-19610984D01*
X4160986Y-19610984D02*
X4160986Y-19630031D01*
X4284796Y-19810984D02*
X4265748Y-19801460D01*
X4265748Y-19801460D02*
X4256224Y-19782412D01*
X4256224Y-19782412D02*
X4256224Y-19610984D01*
X4389558Y-19810984D02*
X4370510Y-19801460D01*
X4370510Y-19801460D02*
X4360986Y-19782412D01*
X4360986Y-19782412D02*
X4360986Y-19610984D01*
X4618129Y-19810984D02*
X4618129Y-19610984D01*
X4618129Y-19610984D02*
X4684796Y-19753841D01*
X4684796Y-19753841D02*
X4751463Y-19610984D01*
X4751463Y-19610984D02*
X4751463Y-19810984D01*
X4932415Y-19810984D02*
X4932415Y-19706222D01*
X4932415Y-19706222D02*
X4922891Y-19687174D01*
X4922891Y-19687174D02*
X4903844Y-19677650D01*
X4903844Y-19677650D02*
X4865748Y-19677650D01*
X4865748Y-19677650D02*
X4846701Y-19687174D01*
X4932415Y-19801460D02*
X4913367Y-19810984D01*
X4913367Y-19810984D02*
X4865748Y-19810984D01*
X4865748Y-19810984D02*
X4846701Y-19801460D01*
X4846701Y-19801460D02*
X4837177Y-19782412D01*
X4837177Y-19782412D02*
X4837177Y-19763365D01*
X4837177Y-19763365D02*
X4846701Y-19744317D01*
X4846701Y-19744317D02*
X4865748Y-19734793D01*
X4865748Y-19734793D02*
X4913367Y-19734793D01*
X4913367Y-19734793D02*
X4932415Y-19725270D01*
X5027653Y-19677650D02*
X5027653Y-19877650D01*
X5027653Y-19687174D02*
X5046701Y-19677650D01*
X5046701Y-19677650D02*
X5084796Y-19677650D01*
X5084796Y-19677650D02*
X5103844Y-19687174D01*
X5103844Y-19687174D02*
X5113367Y-19696698D01*
X5113367Y-19696698D02*
X5122891Y-19715746D01*
X5122891Y-19715746D02*
X5122891Y-19772889D01*
X5122891Y-19772889D02*
X5113367Y-19791936D01*
X5113367Y-19791936D02*
X5103844Y-19801460D01*
X5103844Y-19801460D02*
X5084796Y-19810984D01*
X5084796Y-19810984D02*
X5046701Y-19810984D01*
X5046701Y-19810984D02*
X5027653Y-19801460D01*
X5208605Y-19791936D02*
X5218129Y-19801460D01*
X5218129Y-19801460D02*
X5208605Y-19810984D01*
X5208605Y-19810984D02*
X5199082Y-19801460D01*
X5199082Y-19801460D02*
X5208605Y-19791936D01*
X5208605Y-19791936D02*
X5208605Y-19810984D01*
X5208605Y-19687174D02*
X5218129Y-19696698D01*
X5218129Y-19696698D02*
X5208605Y-19706222D01*
X5208605Y-19706222D02*
X5199082Y-19696698D01*
X5199082Y-19696698D02*
X5208605Y-19687174D01*
X5208605Y-19687174D02*
X5208605Y-19706222D01*
D12*
X3536400Y-20119500D02*
X3576400Y-20159500D01*
X3576400Y-20119500D02*
X3536400Y-20159500D01*
D11*
X3875272Y-20030984D02*
X3894320Y-20030984D01*
X3894320Y-20030984D02*
X3913367Y-20040508D01*
X3913367Y-20040508D02*
X3922891Y-20050031D01*
X3922891Y-20050031D02*
X3932415Y-20069079D01*
X3932415Y-20069079D02*
X3941939Y-20107174D01*
X3941939Y-20107174D02*
X3941939Y-20154793D01*
X3941939Y-20154793D02*
X3932415Y-20192889D01*
X3932415Y-20192889D02*
X3922891Y-20211936D01*
X3922891Y-20211936D02*
X3913367Y-20221460D01*
X3913367Y-20221460D02*
X3894320Y-20230984D01*
X3894320Y-20230984D02*
X3875272Y-20230984D01*
X3875272Y-20230984D02*
X3856224Y-20221460D01*
X3856224Y-20221460D02*
X3846701Y-20211936D01*
X3846701Y-20211936D02*
X3837177Y-20192889D01*
X3837177Y-20192889D02*
X3827653Y-20154793D01*
X3827653Y-20154793D02*
X3827653Y-20107174D01*
X3827653Y-20107174D02*
X3837177Y-20069079D01*
X3837177Y-20069079D02*
X3846701Y-20050031D01*
X3846701Y-20050031D02*
X3856224Y-20040508D01*
X3856224Y-20040508D02*
X3875272Y-20030984D01*
X4027653Y-20211936D02*
X4037177Y-20221460D01*
X4037177Y-20221460D02*
X4027653Y-20230984D01*
X4027653Y-20230984D02*
X4018129Y-20221460D01*
X4018129Y-20221460D02*
X4027653Y-20211936D01*
X4027653Y-20211936D02*
X4027653Y-20230984D01*
X4208605Y-20097650D02*
X4208605Y-20230984D01*
X4160986Y-20021460D02*
X4113367Y-20164317D01*
X4113367Y-20164317D02*
X4237177Y-20164317D01*
X4351463Y-20030984D02*
X4370510Y-20030984D01*
X4370510Y-20030984D02*
X4389558Y-20040508D01*
X4389558Y-20040508D02*
X4399082Y-20050031D01*
X4399082Y-20050031D02*
X4408605Y-20069079D01*
X4408605Y-20069079D02*
X4418129Y-20107174D01*
X4418129Y-20107174D02*
X4418129Y-20154793D01*
X4418129Y-20154793D02*
X4408605Y-20192889D01*
X4408605Y-20192889D02*
X4399082Y-20211936D01*
X4399082Y-20211936D02*
X4389558Y-20221460D01*
X4389558Y-20221460D02*
X4370510Y-20230984D01*
X4370510Y-20230984D02*
X4351463Y-20230984D01*
X4351463Y-20230984D02*
X4332415Y-20221460D01*
X4332415Y-20221460D02*
X4322891Y-20211936D01*
X4322891Y-20211936D02*
X4313367Y-20192889D01*
X4313367Y-20192889D02*
X4303844Y-20154793D01*
X4303844Y-20154793D02*
X4303844Y-20107174D01*
X4303844Y-20107174D02*
X4313367Y-20069079D01*
X4313367Y-20069079D02*
X4322891Y-20050031D01*
X4322891Y-20050031D02*
X4332415Y-20040508D01*
X4332415Y-20040508D02*
X4351463Y-20030984D01*
X4541939Y-20030984D02*
X4560986Y-20030984D01*
X4560986Y-20030984D02*
X4580034Y-20040508D01*
X4580034Y-20040508D02*
X4589558Y-20050031D01*
X4589558Y-20050031D02*
X4599082Y-20069079D01*
X4599082Y-20069079D02*
X4608605Y-20107174D01*
X4608605Y-20107174D02*
X4608605Y-20154793D01*
X4608605Y-20154793D02*
X4599082Y-20192889D01*
X4599082Y-20192889D02*
X4589558Y-20211936D01*
X4589558Y-20211936D02*
X4580034Y-20221460D01*
X4580034Y-20221460D02*
X4560986Y-20230984D01*
X4560986Y-20230984D02*
X4541939Y-20230984D01*
X4541939Y-20230984D02*
X4522891Y-20221460D01*
X4522891Y-20221460D02*
X4513367Y-20211936D01*
X4513367Y-20211936D02*
X4503844Y-20192889D01*
X4503844Y-20192889D02*
X4494320Y-20154793D01*
X4494320Y-20154793D02*
X4494320Y-20107174D01*
X4494320Y-20107174D02*
X4503844Y-20069079D01*
X4503844Y-20069079D02*
X4513367Y-20050031D01*
X4513367Y-20050031D02*
X4522891Y-20040508D01*
X4522891Y-20040508D02*
X4541939Y-20030984D01*
X4694320Y-20230984D02*
X4694320Y-20097650D01*
X4694320Y-20116698D02*
X4703844Y-20107174D01*
X4703844Y-20107174D02*
X4722891Y-20097650D01*
X4722891Y-20097650D02*
X4751463Y-20097650D01*
X4751463Y-20097650D02*
X4770510Y-20107174D01*
X4770510Y-20107174D02*
X4780034Y-20126222D01*
X4780034Y-20126222D02*
X4780034Y-20230984D01*
X4780034Y-20126222D02*
X4789558Y-20107174D01*
X4789558Y-20107174D02*
X4808605Y-20097650D01*
X4808605Y-20097650D02*
X4837177Y-20097650D01*
X4837177Y-20097650D02*
X4856225Y-20107174D01*
X4856225Y-20107174D02*
X4865748Y-20126222D01*
X4865748Y-20126222D02*
X4865748Y-20230984D01*
X4960986Y-20230984D02*
X4960986Y-20097650D01*
X4960986Y-20116698D02*
X4970510Y-20107174D01*
X4970510Y-20107174D02*
X4989558Y-20097650D01*
X4989558Y-20097650D02*
X5018129Y-20097650D01*
X5018129Y-20097650D02*
X5037177Y-20107174D01*
X5037177Y-20107174D02*
X5046701Y-20126222D01*
X5046701Y-20126222D02*
X5046701Y-20230984D01*
X5046701Y-20126222D02*
X5056225Y-20107174D01*
X5056225Y-20107174D02*
X5075272Y-20097650D01*
X5075272Y-20097650D02*
X5103844Y-20097650D01*
X5103844Y-20097650D02*
X5122891Y-20107174D01*
X5122891Y-20107174D02*
X5132415Y-20126222D01*
X5132415Y-20126222D02*
X5132415Y-20230984D01*
X5522891Y-20021460D02*
X5351463Y-20278603D01*
X5780034Y-20030984D02*
X5799082Y-20030984D01*
X5799082Y-20030984D02*
X5818129Y-20040508D01*
X5818129Y-20040508D02*
X5827653Y-20050031D01*
X5827653Y-20050031D02*
X5837177Y-20069079D01*
X5837177Y-20069079D02*
X5846701Y-20107174D01*
X5846701Y-20107174D02*
X5846701Y-20154793D01*
X5846701Y-20154793D02*
X5837177Y-20192889D01*
X5837177Y-20192889D02*
X5827653Y-20211936D01*
X5827653Y-20211936D02*
X5818129Y-20221460D01*
X5818129Y-20221460D02*
X5799082Y-20230984D01*
X5799082Y-20230984D02*
X5780034Y-20230984D01*
X5780034Y-20230984D02*
X5760986Y-20221460D01*
X5760986Y-20221460D02*
X5751463Y-20211936D01*
X5751463Y-20211936D02*
X5741939Y-20192889D01*
X5741939Y-20192889D02*
X5732415Y-20154793D01*
X5732415Y-20154793D02*
X5732415Y-20107174D01*
X5732415Y-20107174D02*
X5741939Y-20069079D01*
X5741939Y-20069079D02*
X5751463Y-20050031D01*
X5751463Y-20050031D02*
X5760986Y-20040508D01*
X5760986Y-20040508D02*
X5780034Y-20030984D01*
X5932415Y-20211936D02*
X5941939Y-20221460D01*
X5941939Y-20221460D02*
X5932415Y-20230984D01*
X5932415Y-20230984D02*
X5922891Y-20221460D01*
X5922891Y-20221460D02*
X5932415Y-20211936D01*
X5932415Y-20211936D02*
X5932415Y-20230984D01*
X6065748Y-20030984D02*
X6084796Y-20030984D01*
X6084796Y-20030984D02*
X6103844Y-20040508D01*
X6103844Y-20040508D02*
X6113367Y-20050031D01*
X6113367Y-20050031D02*
X6122891Y-20069079D01*
X6122891Y-20069079D02*
X6132415Y-20107174D01*
X6132415Y-20107174D02*
X6132415Y-20154793D01*
X6132415Y-20154793D02*
X6122891Y-20192889D01*
X6122891Y-20192889D02*
X6113367Y-20211936D01*
X6113367Y-20211936D02*
X6103844Y-20221460D01*
X6103844Y-20221460D02*
X6084796Y-20230984D01*
X6084796Y-20230984D02*
X6065748Y-20230984D01*
X6065748Y-20230984D02*
X6046701Y-20221460D01*
X6046701Y-20221460D02*
X6037177Y-20211936D01*
X6037177Y-20211936D02*
X6027653Y-20192889D01*
X6027653Y-20192889D02*
X6018129Y-20154793D01*
X6018129Y-20154793D02*
X6018129Y-20107174D01*
X6018129Y-20107174D02*
X6027653Y-20069079D01*
X6027653Y-20069079D02*
X6037177Y-20050031D01*
X6037177Y-20050031D02*
X6046701Y-20040508D01*
X6046701Y-20040508D02*
X6065748Y-20030984D01*
X6322891Y-20230984D02*
X6208606Y-20230984D01*
X6265748Y-20230984D02*
X6265748Y-20030984D01*
X6265748Y-20030984D02*
X6246701Y-20059555D01*
X6246701Y-20059555D02*
X6227653Y-20078603D01*
X6227653Y-20078603D02*
X6208606Y-20088127D01*
X6503844Y-20030984D02*
X6408606Y-20030984D01*
X6408606Y-20030984D02*
X6399082Y-20126222D01*
X6399082Y-20126222D02*
X6408606Y-20116698D01*
X6408606Y-20116698D02*
X6427653Y-20107174D01*
X6427653Y-20107174D02*
X6475272Y-20107174D01*
X6475272Y-20107174D02*
X6494320Y-20116698D01*
X6494320Y-20116698D02*
X6503844Y-20126222D01*
X6503844Y-20126222D02*
X6513367Y-20145270D01*
X6513367Y-20145270D02*
X6513367Y-20192889D01*
X6513367Y-20192889D02*
X6503844Y-20211936D01*
X6503844Y-20211936D02*
X6494320Y-20221460D01*
X6494320Y-20221460D02*
X6475272Y-20230984D01*
X6475272Y-20230984D02*
X6427653Y-20230984D01*
X6427653Y-20230984D02*
X6408606Y-20221460D01*
X6408606Y-20221460D02*
X6399082Y-20211936D01*
X6580034Y-20030984D02*
X6713367Y-20030984D01*
X6713367Y-20030984D02*
X6627653Y-20230984D01*
X6780034Y-20030984D02*
X6780034Y-20069079D01*
X6856225Y-20030984D02*
X6856225Y-20069079D01*
X7151463Y-20307174D02*
X7141939Y-20297650D01*
X7141939Y-20297650D02*
X7122891Y-20269079D01*
X7122891Y-20269079D02*
X7113368Y-20250031D01*
X7113368Y-20250031D02*
X7103844Y-20221460D01*
X7103844Y-20221460D02*
X7094320Y-20173841D01*
X7094320Y-20173841D02*
X7094320Y-20135746D01*
X7094320Y-20135746D02*
X7103844Y-20088127D01*
X7103844Y-20088127D02*
X7113368Y-20059555D01*
X7113368Y-20059555D02*
X7122891Y-20040508D01*
X7122891Y-20040508D02*
X7141939Y-20011936D01*
X7141939Y-20011936D02*
X7151463Y-20002412D01*
X7332415Y-20230984D02*
X7218129Y-20230984D01*
X7275272Y-20230984D02*
X7275272Y-20030984D01*
X7275272Y-20030984D02*
X7256225Y-20059555D01*
X7256225Y-20059555D02*
X7237177Y-20078603D01*
X7237177Y-20078603D02*
X7218129Y-20088127D01*
X7399082Y-20030984D02*
X7522891Y-20030984D01*
X7522891Y-20030984D02*
X7456225Y-20107174D01*
X7456225Y-20107174D02*
X7484796Y-20107174D01*
X7484796Y-20107174D02*
X7503844Y-20116698D01*
X7503844Y-20116698D02*
X7513368Y-20126222D01*
X7513368Y-20126222D02*
X7522891Y-20145270D01*
X7522891Y-20145270D02*
X7522891Y-20192889D01*
X7522891Y-20192889D02*
X7513368Y-20211936D01*
X7513368Y-20211936D02*
X7503844Y-20221460D01*
X7503844Y-20221460D02*
X7484796Y-20230984D01*
X7484796Y-20230984D02*
X7427653Y-20230984D01*
X7427653Y-20230984D02*
X7408606Y-20221460D01*
X7408606Y-20221460D02*
X7399082Y-20211936D01*
X7703844Y-20030984D02*
X7608606Y-20030984D01*
X7608606Y-20030984D02*
X7599082Y-20126222D01*
X7599082Y-20126222D02*
X7608606Y-20116698D01*
X7608606Y-20116698D02*
X7627653Y-20107174D01*
X7627653Y-20107174D02*
X7675272Y-20107174D01*
X7675272Y-20107174D02*
X7694320Y-20116698D01*
X7694320Y-20116698D02*
X7703844Y-20126222D01*
X7703844Y-20126222D02*
X7713368Y-20145270D01*
X7713368Y-20145270D02*
X7713368Y-20192889D01*
X7713368Y-20192889D02*
X7703844Y-20211936D01*
X7703844Y-20211936D02*
X7694320Y-20221460D01*
X7694320Y-20221460D02*
X7675272Y-20230984D01*
X7675272Y-20230984D02*
X7627653Y-20230984D01*
X7627653Y-20230984D02*
X7608606Y-20221460D01*
X7608606Y-20221460D02*
X7599082Y-20211936D01*
X7951463Y-20230984D02*
X7951463Y-20030984D01*
X8037177Y-20230984D02*
X8037177Y-20126222D01*
X8037177Y-20126222D02*
X8027653Y-20107174D01*
X8027653Y-20107174D02*
X8008606Y-20097650D01*
X8008606Y-20097650D02*
X7980034Y-20097650D01*
X7980034Y-20097650D02*
X7960987Y-20107174D01*
X7960987Y-20107174D02*
X7951463Y-20116698D01*
X8160987Y-20230984D02*
X8141939Y-20221460D01*
X8141939Y-20221460D02*
X8132415Y-20211936D01*
X8132415Y-20211936D02*
X8122891Y-20192889D01*
X8122891Y-20192889D02*
X8122891Y-20135746D01*
X8122891Y-20135746D02*
X8132415Y-20116698D01*
X8132415Y-20116698D02*
X8141939Y-20107174D01*
X8141939Y-20107174D02*
X8160987Y-20097650D01*
X8160987Y-20097650D02*
X8189558Y-20097650D01*
X8189558Y-20097650D02*
X8208606Y-20107174D01*
X8208606Y-20107174D02*
X8218130Y-20116698D01*
X8218130Y-20116698D02*
X8227653Y-20135746D01*
X8227653Y-20135746D02*
X8227653Y-20192889D01*
X8227653Y-20192889D02*
X8218130Y-20211936D01*
X8218130Y-20211936D02*
X8208606Y-20221460D01*
X8208606Y-20221460D02*
X8189558Y-20230984D01*
X8189558Y-20230984D02*
X8160987Y-20230984D01*
X8341939Y-20230984D02*
X8322891Y-20221460D01*
X8322891Y-20221460D02*
X8313368Y-20202412D01*
X8313368Y-20202412D02*
X8313368Y-20030984D01*
X8494320Y-20221460D02*
X8475273Y-20230984D01*
X8475273Y-20230984D02*
X8437177Y-20230984D01*
X8437177Y-20230984D02*
X8418130Y-20221460D01*
X8418130Y-20221460D02*
X8408606Y-20202412D01*
X8408606Y-20202412D02*
X8408606Y-20126222D01*
X8408606Y-20126222D02*
X8418130Y-20107174D01*
X8418130Y-20107174D02*
X8437177Y-20097650D01*
X8437177Y-20097650D02*
X8475273Y-20097650D01*
X8475273Y-20097650D02*
X8494320Y-20107174D01*
X8494320Y-20107174D02*
X8503844Y-20126222D01*
X8503844Y-20126222D02*
X8503844Y-20145270D01*
X8503844Y-20145270D02*
X8408606Y-20164317D01*
X8580034Y-20221460D02*
X8599082Y-20230984D01*
X8599082Y-20230984D02*
X8637177Y-20230984D01*
X8637177Y-20230984D02*
X8656225Y-20221460D01*
X8656225Y-20221460D02*
X8665749Y-20202412D01*
X8665749Y-20202412D02*
X8665749Y-20192889D01*
X8665749Y-20192889D02*
X8656225Y-20173841D01*
X8656225Y-20173841D02*
X8637177Y-20164317D01*
X8637177Y-20164317D02*
X8608606Y-20164317D01*
X8608606Y-20164317D02*
X8589558Y-20154793D01*
X8589558Y-20154793D02*
X8580034Y-20135746D01*
X8580034Y-20135746D02*
X8580034Y-20126222D01*
X8580034Y-20126222D02*
X8589558Y-20107174D01*
X8589558Y-20107174D02*
X8608606Y-20097650D01*
X8608606Y-20097650D02*
X8637177Y-20097650D01*
X8637177Y-20097650D02*
X8656225Y-20107174D01*
X8732415Y-20307174D02*
X8741939Y-20297650D01*
X8741939Y-20297650D02*
X8760987Y-20269079D01*
X8760987Y-20269079D02*
X8770511Y-20250031D01*
X8770511Y-20250031D02*
X8780034Y-20221460D01*
X8780034Y-20221460D02*
X8789558Y-20173841D01*
X8789558Y-20173841D02*
X8789558Y-20135746D01*
X8789558Y-20135746D02*
X8780034Y-20088127D01*
X8780034Y-20088127D02*
X8770511Y-20059555D01*
X8770511Y-20059555D02*
X8760987Y-20040508D01*
X8760987Y-20040508D02*
X8741939Y-20011936D01*
X8741939Y-20011936D02*
X8732415Y-20002412D01*
D13*
X3576400Y-20403500D02*
G75*
G03*
X3576400Y-20403500I-30000J0D01*
G01*
D11*
X3875272Y-20294984D02*
X3894320Y-20294984D01*
X3894320Y-20294984D02*
X3913367Y-20304508D01*
X3913367Y-20304508D02*
X3922891Y-20314031D01*
X3922891Y-20314031D02*
X3932415Y-20333079D01*
X3932415Y-20333079D02*
X3941939Y-20371174D01*
X3941939Y-20371174D02*
X3941939Y-20418793D01*
X3941939Y-20418793D02*
X3932415Y-20456889D01*
X3932415Y-20456889D02*
X3922891Y-20475936D01*
X3922891Y-20475936D02*
X3913367Y-20485460D01*
X3913367Y-20485460D02*
X3894320Y-20494984D01*
X3894320Y-20494984D02*
X3875272Y-20494984D01*
X3875272Y-20494984D02*
X3856224Y-20485460D01*
X3856224Y-20485460D02*
X3846701Y-20475936D01*
X3846701Y-20475936D02*
X3837177Y-20456889D01*
X3837177Y-20456889D02*
X3827653Y-20418793D01*
X3827653Y-20418793D02*
X3827653Y-20371174D01*
X3827653Y-20371174D02*
X3837177Y-20333079D01*
X3837177Y-20333079D02*
X3846701Y-20314031D01*
X3846701Y-20314031D02*
X3856224Y-20304508D01*
X3856224Y-20304508D02*
X3875272Y-20294984D01*
X4027653Y-20475936D02*
X4037177Y-20485460D01*
X4037177Y-20485460D02*
X4027653Y-20494984D01*
X4027653Y-20494984D02*
X4018129Y-20485460D01*
X4018129Y-20485460D02*
X4027653Y-20475936D01*
X4027653Y-20475936D02*
X4027653Y-20494984D01*
X4208605Y-20294984D02*
X4170510Y-20294984D01*
X4170510Y-20294984D02*
X4151462Y-20304508D01*
X4151462Y-20304508D02*
X4141939Y-20314031D01*
X4141939Y-20314031D02*
X4122891Y-20342603D01*
X4122891Y-20342603D02*
X4113367Y-20380698D01*
X4113367Y-20380698D02*
X4113367Y-20456889D01*
X4113367Y-20456889D02*
X4122891Y-20475936D01*
X4122891Y-20475936D02*
X4132415Y-20485460D01*
X4132415Y-20485460D02*
X4151462Y-20494984D01*
X4151462Y-20494984D02*
X4189558Y-20494984D01*
X4189558Y-20494984D02*
X4208605Y-20485460D01*
X4208605Y-20485460D02*
X4218129Y-20475936D01*
X4218129Y-20475936D02*
X4227653Y-20456889D01*
X4227653Y-20456889D02*
X4227653Y-20409270D01*
X4227653Y-20409270D02*
X4218129Y-20390222D01*
X4218129Y-20390222D02*
X4208605Y-20380698D01*
X4208605Y-20380698D02*
X4189558Y-20371174D01*
X4189558Y-20371174D02*
X4151462Y-20371174D01*
X4151462Y-20371174D02*
X4132415Y-20380698D01*
X4132415Y-20380698D02*
X4122891Y-20390222D01*
X4122891Y-20390222D02*
X4113367Y-20409270D01*
X4351463Y-20294984D02*
X4370510Y-20294984D01*
X4370510Y-20294984D02*
X4389558Y-20304508D01*
X4389558Y-20304508D02*
X4399082Y-20314031D01*
X4399082Y-20314031D02*
X4408605Y-20333079D01*
X4408605Y-20333079D02*
X4418129Y-20371174D01*
X4418129Y-20371174D02*
X4418129Y-20418793D01*
X4418129Y-20418793D02*
X4408605Y-20456889D01*
X4408605Y-20456889D02*
X4399082Y-20475936D01*
X4399082Y-20475936D02*
X4389558Y-20485460D01*
X4389558Y-20485460D02*
X4370510Y-20494984D01*
X4370510Y-20494984D02*
X4351463Y-20494984D01*
X4351463Y-20494984D02*
X4332415Y-20485460D01*
X4332415Y-20485460D02*
X4322891Y-20475936D01*
X4322891Y-20475936D02*
X4313367Y-20456889D01*
X4313367Y-20456889D02*
X4303844Y-20418793D01*
X4303844Y-20418793D02*
X4303844Y-20371174D01*
X4303844Y-20371174D02*
X4313367Y-20333079D01*
X4313367Y-20333079D02*
X4322891Y-20314031D01*
X4322891Y-20314031D02*
X4332415Y-20304508D01*
X4332415Y-20304508D02*
X4351463Y-20294984D01*
X4541939Y-20294984D02*
X4560986Y-20294984D01*
X4560986Y-20294984D02*
X4580034Y-20304508D01*
X4580034Y-20304508D02*
X4589558Y-20314031D01*
X4589558Y-20314031D02*
X4599082Y-20333079D01*
X4599082Y-20333079D02*
X4608605Y-20371174D01*
X4608605Y-20371174D02*
X4608605Y-20418793D01*
X4608605Y-20418793D02*
X4599082Y-20456889D01*
X4599082Y-20456889D02*
X4589558Y-20475936D01*
X4589558Y-20475936D02*
X4580034Y-20485460D01*
X4580034Y-20485460D02*
X4560986Y-20494984D01*
X4560986Y-20494984D02*
X4541939Y-20494984D01*
X4541939Y-20494984D02*
X4522891Y-20485460D01*
X4522891Y-20485460D02*
X4513367Y-20475936D01*
X4513367Y-20475936D02*
X4503844Y-20456889D01*
X4503844Y-20456889D02*
X4494320Y-20418793D01*
X4494320Y-20418793D02*
X4494320Y-20371174D01*
X4494320Y-20371174D02*
X4503844Y-20333079D01*
X4503844Y-20333079D02*
X4513367Y-20314031D01*
X4513367Y-20314031D02*
X4522891Y-20304508D01*
X4522891Y-20304508D02*
X4541939Y-20294984D01*
X4694320Y-20494984D02*
X4694320Y-20361650D01*
X4694320Y-20380698D02*
X4703844Y-20371174D01*
X4703844Y-20371174D02*
X4722891Y-20361650D01*
X4722891Y-20361650D02*
X4751463Y-20361650D01*
X4751463Y-20361650D02*
X4770510Y-20371174D01*
X4770510Y-20371174D02*
X4780034Y-20390222D01*
X4780034Y-20390222D02*
X4780034Y-20494984D01*
X4780034Y-20390222D02*
X4789558Y-20371174D01*
X4789558Y-20371174D02*
X4808605Y-20361650D01*
X4808605Y-20361650D02*
X4837177Y-20361650D01*
X4837177Y-20361650D02*
X4856225Y-20371174D01*
X4856225Y-20371174D02*
X4865748Y-20390222D01*
X4865748Y-20390222D02*
X4865748Y-20494984D01*
X4960986Y-20494984D02*
X4960986Y-20361650D01*
X4960986Y-20380698D02*
X4970510Y-20371174D01*
X4970510Y-20371174D02*
X4989558Y-20361650D01*
X4989558Y-20361650D02*
X5018129Y-20361650D01*
X5018129Y-20361650D02*
X5037177Y-20371174D01*
X5037177Y-20371174D02*
X5046701Y-20390222D01*
X5046701Y-20390222D02*
X5046701Y-20494984D01*
X5046701Y-20390222D02*
X5056225Y-20371174D01*
X5056225Y-20371174D02*
X5075272Y-20361650D01*
X5075272Y-20361650D02*
X5103844Y-20361650D01*
X5103844Y-20361650D02*
X5122891Y-20371174D01*
X5122891Y-20371174D02*
X5132415Y-20390222D01*
X5132415Y-20390222D02*
X5132415Y-20494984D01*
X5522891Y-20285460D02*
X5351463Y-20542603D01*
X5780034Y-20294984D02*
X5799082Y-20294984D01*
X5799082Y-20294984D02*
X5818129Y-20304508D01*
X5818129Y-20304508D02*
X5827653Y-20314031D01*
X5827653Y-20314031D02*
X5837177Y-20333079D01*
X5837177Y-20333079D02*
X5846701Y-20371174D01*
X5846701Y-20371174D02*
X5846701Y-20418793D01*
X5846701Y-20418793D02*
X5837177Y-20456889D01*
X5837177Y-20456889D02*
X5827653Y-20475936D01*
X5827653Y-20475936D02*
X5818129Y-20485460D01*
X5818129Y-20485460D02*
X5799082Y-20494984D01*
X5799082Y-20494984D02*
X5780034Y-20494984D01*
X5780034Y-20494984D02*
X5760986Y-20485460D01*
X5760986Y-20485460D02*
X5751463Y-20475936D01*
X5751463Y-20475936D02*
X5741939Y-20456889D01*
X5741939Y-20456889D02*
X5732415Y-20418793D01*
X5732415Y-20418793D02*
X5732415Y-20371174D01*
X5732415Y-20371174D02*
X5741939Y-20333079D01*
X5741939Y-20333079D02*
X5751463Y-20314031D01*
X5751463Y-20314031D02*
X5760986Y-20304508D01*
X5760986Y-20304508D02*
X5780034Y-20294984D01*
X5932415Y-20475936D02*
X5941939Y-20485460D01*
X5941939Y-20485460D02*
X5932415Y-20494984D01*
X5932415Y-20494984D02*
X5922891Y-20485460D01*
X5922891Y-20485460D02*
X5932415Y-20475936D01*
X5932415Y-20475936D02*
X5932415Y-20494984D01*
X6065748Y-20294984D02*
X6084796Y-20294984D01*
X6084796Y-20294984D02*
X6103844Y-20304508D01*
X6103844Y-20304508D02*
X6113367Y-20314031D01*
X6113367Y-20314031D02*
X6122891Y-20333079D01*
X6122891Y-20333079D02*
X6132415Y-20371174D01*
X6132415Y-20371174D02*
X6132415Y-20418793D01*
X6132415Y-20418793D02*
X6122891Y-20456889D01*
X6122891Y-20456889D02*
X6113367Y-20475936D01*
X6113367Y-20475936D02*
X6103844Y-20485460D01*
X6103844Y-20485460D02*
X6084796Y-20494984D01*
X6084796Y-20494984D02*
X6065748Y-20494984D01*
X6065748Y-20494984D02*
X6046701Y-20485460D01*
X6046701Y-20485460D02*
X6037177Y-20475936D01*
X6037177Y-20475936D02*
X6027653Y-20456889D01*
X6027653Y-20456889D02*
X6018129Y-20418793D01*
X6018129Y-20418793D02*
X6018129Y-20371174D01*
X6018129Y-20371174D02*
X6027653Y-20333079D01*
X6027653Y-20333079D02*
X6037177Y-20314031D01*
X6037177Y-20314031D02*
X6046701Y-20304508D01*
X6046701Y-20304508D02*
X6065748Y-20294984D01*
X6208606Y-20314031D02*
X6218129Y-20304508D01*
X6218129Y-20304508D02*
X6237177Y-20294984D01*
X6237177Y-20294984D02*
X6284796Y-20294984D01*
X6284796Y-20294984D02*
X6303844Y-20304508D01*
X6303844Y-20304508D02*
X6313367Y-20314031D01*
X6313367Y-20314031D02*
X6322891Y-20333079D01*
X6322891Y-20333079D02*
X6322891Y-20352127D01*
X6322891Y-20352127D02*
X6313367Y-20380698D01*
X6313367Y-20380698D02*
X6199082Y-20494984D01*
X6199082Y-20494984D02*
X6322891Y-20494984D01*
X6389558Y-20294984D02*
X6513367Y-20294984D01*
X6513367Y-20294984D02*
X6446701Y-20371174D01*
X6446701Y-20371174D02*
X6475272Y-20371174D01*
X6475272Y-20371174D02*
X6494320Y-20380698D01*
X6494320Y-20380698D02*
X6503844Y-20390222D01*
X6503844Y-20390222D02*
X6513367Y-20409270D01*
X6513367Y-20409270D02*
X6513367Y-20456889D01*
X6513367Y-20456889D02*
X6503844Y-20475936D01*
X6503844Y-20475936D02*
X6494320Y-20485460D01*
X6494320Y-20485460D02*
X6475272Y-20494984D01*
X6475272Y-20494984D02*
X6418129Y-20494984D01*
X6418129Y-20494984D02*
X6399082Y-20485460D01*
X6399082Y-20485460D02*
X6389558Y-20475936D01*
X6684796Y-20294984D02*
X6646701Y-20294984D01*
X6646701Y-20294984D02*
X6627653Y-20304508D01*
X6627653Y-20304508D02*
X6618129Y-20314031D01*
X6618129Y-20314031D02*
X6599082Y-20342603D01*
X6599082Y-20342603D02*
X6589558Y-20380698D01*
X6589558Y-20380698D02*
X6589558Y-20456889D01*
X6589558Y-20456889D02*
X6599082Y-20475936D01*
X6599082Y-20475936D02*
X6608606Y-20485460D01*
X6608606Y-20485460D02*
X6627653Y-20494984D01*
X6627653Y-20494984D02*
X6665748Y-20494984D01*
X6665748Y-20494984D02*
X6684796Y-20485460D01*
X6684796Y-20485460D02*
X6694320Y-20475936D01*
X6694320Y-20475936D02*
X6703844Y-20456889D01*
X6703844Y-20456889D02*
X6703844Y-20409270D01*
X6703844Y-20409270D02*
X6694320Y-20390222D01*
X6694320Y-20390222D02*
X6684796Y-20380698D01*
X6684796Y-20380698D02*
X6665748Y-20371174D01*
X6665748Y-20371174D02*
X6627653Y-20371174D01*
X6627653Y-20371174D02*
X6608606Y-20380698D01*
X6608606Y-20380698D02*
X6599082Y-20390222D01*
X6599082Y-20390222D02*
X6589558Y-20409270D01*
X6780034Y-20294984D02*
X6780034Y-20333079D01*
X6856225Y-20294984D02*
X6856225Y-20333079D01*
X7151463Y-20571174D02*
X7141939Y-20561650D01*
X7141939Y-20561650D02*
X7122891Y-20533079D01*
X7122891Y-20533079D02*
X7113368Y-20514031D01*
X7113368Y-20514031D02*
X7103844Y-20485460D01*
X7103844Y-20485460D02*
X7094320Y-20437841D01*
X7094320Y-20437841D02*
X7094320Y-20399746D01*
X7094320Y-20399746D02*
X7103844Y-20352127D01*
X7103844Y-20352127D02*
X7113368Y-20323555D01*
X7113368Y-20323555D02*
X7122891Y-20304508D01*
X7122891Y-20304508D02*
X7141939Y-20275936D01*
X7141939Y-20275936D02*
X7151463Y-20266412D01*
X7218129Y-20314031D02*
X7227653Y-20304508D01*
X7227653Y-20304508D02*
X7246701Y-20294984D01*
X7246701Y-20294984D02*
X7294320Y-20294984D01*
X7294320Y-20294984D02*
X7313368Y-20304508D01*
X7313368Y-20304508D02*
X7322891Y-20314031D01*
X7322891Y-20314031D02*
X7332415Y-20333079D01*
X7332415Y-20333079D02*
X7332415Y-20352127D01*
X7332415Y-20352127D02*
X7322891Y-20380698D01*
X7322891Y-20380698D02*
X7208606Y-20494984D01*
X7208606Y-20494984D02*
X7332415Y-20494984D01*
X7570510Y-20494984D02*
X7570510Y-20294984D01*
X7656225Y-20494984D02*
X7656225Y-20390222D01*
X7656225Y-20390222D02*
X7646701Y-20371174D01*
X7646701Y-20371174D02*
X7627653Y-20361650D01*
X7627653Y-20361650D02*
X7599082Y-20361650D01*
X7599082Y-20361650D02*
X7580034Y-20371174D01*
X7580034Y-20371174D02*
X7570510Y-20380698D01*
X7780034Y-20494984D02*
X7760987Y-20485460D01*
X7760987Y-20485460D02*
X7751463Y-20475936D01*
X7751463Y-20475936D02*
X7741939Y-20456889D01*
X7741939Y-20456889D02*
X7741939Y-20399746D01*
X7741939Y-20399746D02*
X7751463Y-20380698D01*
X7751463Y-20380698D02*
X7760987Y-20371174D01*
X7760987Y-20371174D02*
X7780034Y-20361650D01*
X7780034Y-20361650D02*
X7808606Y-20361650D01*
X7808606Y-20361650D02*
X7827653Y-20371174D01*
X7827653Y-20371174D02*
X7837177Y-20380698D01*
X7837177Y-20380698D02*
X7846701Y-20399746D01*
X7846701Y-20399746D02*
X7846701Y-20456889D01*
X7846701Y-20456889D02*
X7837177Y-20475936D01*
X7837177Y-20475936D02*
X7827653Y-20485460D01*
X7827653Y-20485460D02*
X7808606Y-20494984D01*
X7808606Y-20494984D02*
X7780034Y-20494984D01*
X7960987Y-20494984D02*
X7941939Y-20485460D01*
X7941939Y-20485460D02*
X7932415Y-20466412D01*
X7932415Y-20466412D02*
X7932415Y-20294984D01*
X8113368Y-20485460D02*
X8094320Y-20494984D01*
X8094320Y-20494984D02*
X8056225Y-20494984D01*
X8056225Y-20494984D02*
X8037177Y-20485460D01*
X8037177Y-20485460D02*
X8027653Y-20466412D01*
X8027653Y-20466412D02*
X8027653Y-20390222D01*
X8027653Y-20390222D02*
X8037177Y-20371174D01*
X8037177Y-20371174D02*
X8056225Y-20361650D01*
X8056225Y-20361650D02*
X8094320Y-20361650D01*
X8094320Y-20361650D02*
X8113368Y-20371174D01*
X8113368Y-20371174D02*
X8122891Y-20390222D01*
X8122891Y-20390222D02*
X8122891Y-20409270D01*
X8122891Y-20409270D02*
X8027653Y-20428317D01*
X8199082Y-20485460D02*
X8218130Y-20494984D01*
X8218130Y-20494984D02*
X8256225Y-20494984D01*
X8256225Y-20494984D02*
X8275272Y-20485460D01*
X8275272Y-20485460D02*
X8284796Y-20466412D01*
X8284796Y-20466412D02*
X8284796Y-20456889D01*
X8284796Y-20456889D02*
X8275272Y-20437841D01*
X8275272Y-20437841D02*
X8256225Y-20428317D01*
X8256225Y-20428317D02*
X8227653Y-20428317D01*
X8227653Y-20428317D02*
X8208606Y-20418793D01*
X8208606Y-20418793D02*
X8199082Y-20399746D01*
X8199082Y-20399746D02*
X8199082Y-20390222D01*
X8199082Y-20390222D02*
X8208606Y-20371174D01*
X8208606Y-20371174D02*
X8227653Y-20361650D01*
X8227653Y-20361650D02*
X8256225Y-20361650D01*
X8256225Y-20361650D02*
X8275272Y-20371174D01*
X8351463Y-20571174D02*
X8360987Y-20561650D01*
X8360987Y-20561650D02*
X8380034Y-20533079D01*
X8380034Y-20533079D02*
X8389558Y-20514031D01*
X8389558Y-20514031D02*
X8399082Y-20485460D01*
X8399082Y-20485460D02*
X8408606Y-20437841D01*
X8408606Y-20437841D02*
X8408606Y-20399746D01*
X8408606Y-20399746D02*
X8399082Y-20352127D01*
X8399082Y-20352127D02*
X8389558Y-20323555D01*
X8389558Y-20323555D02*
X8380034Y-20304508D01*
X8380034Y-20304508D02*
X8360987Y-20275936D01*
X8360987Y-20275936D02*
X8351463Y-20266412D01*
D14*
X3537030Y-20628130D02*
X3537030Y-20706870D01*
X3497660Y-20667500D02*
X3576400Y-20667500D01*
D11*
X3875272Y-20558984D02*
X3894320Y-20558984D01*
X3894320Y-20558984D02*
X3913367Y-20568508D01*
X3913367Y-20568508D02*
X3922891Y-20578031D01*
X3922891Y-20578031D02*
X3932415Y-20597079D01*
X3932415Y-20597079D02*
X3941939Y-20635174D01*
X3941939Y-20635174D02*
X3941939Y-20682793D01*
X3941939Y-20682793D02*
X3932415Y-20720889D01*
X3932415Y-20720889D02*
X3922891Y-20739936D01*
X3922891Y-20739936D02*
X3913367Y-20749460D01*
X3913367Y-20749460D02*
X3894320Y-20758984D01*
X3894320Y-20758984D02*
X3875272Y-20758984D01*
X3875272Y-20758984D02*
X3856224Y-20749460D01*
X3856224Y-20749460D02*
X3846701Y-20739936D01*
X3846701Y-20739936D02*
X3837177Y-20720889D01*
X3837177Y-20720889D02*
X3827653Y-20682793D01*
X3827653Y-20682793D02*
X3827653Y-20635174D01*
X3827653Y-20635174D02*
X3837177Y-20597079D01*
X3837177Y-20597079D02*
X3846701Y-20578031D01*
X3846701Y-20578031D02*
X3856224Y-20568508D01*
X3856224Y-20568508D02*
X3875272Y-20558984D01*
X4027653Y-20739936D02*
X4037177Y-20749460D01*
X4037177Y-20749460D02*
X4027653Y-20758984D01*
X4027653Y-20758984D02*
X4018129Y-20749460D01*
X4018129Y-20749460D02*
X4027653Y-20739936D01*
X4027653Y-20739936D02*
X4027653Y-20758984D01*
X4103843Y-20558984D02*
X4237177Y-20558984D01*
X4237177Y-20558984D02*
X4151462Y-20758984D01*
X4341939Y-20644698D02*
X4322891Y-20635174D01*
X4322891Y-20635174D02*
X4313367Y-20625650D01*
X4313367Y-20625650D02*
X4303844Y-20606603D01*
X4303844Y-20606603D02*
X4303844Y-20597079D01*
X4303844Y-20597079D02*
X4313367Y-20578031D01*
X4313367Y-20578031D02*
X4322891Y-20568508D01*
X4322891Y-20568508D02*
X4341939Y-20558984D01*
X4341939Y-20558984D02*
X4380034Y-20558984D01*
X4380034Y-20558984D02*
X4399082Y-20568508D01*
X4399082Y-20568508D02*
X4408605Y-20578031D01*
X4408605Y-20578031D02*
X4418129Y-20597079D01*
X4418129Y-20597079D02*
X4418129Y-20606603D01*
X4418129Y-20606603D02*
X4408605Y-20625650D01*
X4408605Y-20625650D02*
X4399082Y-20635174D01*
X4399082Y-20635174D02*
X4380034Y-20644698D01*
X4380034Y-20644698D02*
X4341939Y-20644698D01*
X4341939Y-20644698D02*
X4322891Y-20654222D01*
X4322891Y-20654222D02*
X4313367Y-20663746D01*
X4313367Y-20663746D02*
X4303844Y-20682793D01*
X4303844Y-20682793D02*
X4303844Y-20720889D01*
X4303844Y-20720889D02*
X4313367Y-20739936D01*
X4313367Y-20739936D02*
X4322891Y-20749460D01*
X4322891Y-20749460D02*
X4341939Y-20758984D01*
X4341939Y-20758984D02*
X4380034Y-20758984D01*
X4380034Y-20758984D02*
X4399082Y-20749460D01*
X4399082Y-20749460D02*
X4408605Y-20739936D01*
X4408605Y-20739936D02*
X4418129Y-20720889D01*
X4418129Y-20720889D02*
X4418129Y-20682793D01*
X4418129Y-20682793D02*
X4408605Y-20663746D01*
X4408605Y-20663746D02*
X4399082Y-20654222D01*
X4399082Y-20654222D02*
X4380034Y-20644698D01*
X4484796Y-20558984D02*
X4618129Y-20558984D01*
X4618129Y-20558984D02*
X4532415Y-20758984D01*
X4694320Y-20758984D02*
X4694320Y-20625650D01*
X4694320Y-20644698D02*
X4703844Y-20635174D01*
X4703844Y-20635174D02*
X4722891Y-20625650D01*
X4722891Y-20625650D02*
X4751463Y-20625650D01*
X4751463Y-20625650D02*
X4770510Y-20635174D01*
X4770510Y-20635174D02*
X4780034Y-20654222D01*
X4780034Y-20654222D02*
X4780034Y-20758984D01*
X4780034Y-20654222D02*
X4789558Y-20635174D01*
X4789558Y-20635174D02*
X4808605Y-20625650D01*
X4808605Y-20625650D02*
X4837177Y-20625650D01*
X4837177Y-20625650D02*
X4856225Y-20635174D01*
X4856225Y-20635174D02*
X4865748Y-20654222D01*
X4865748Y-20654222D02*
X4865748Y-20758984D01*
X4960986Y-20758984D02*
X4960986Y-20625650D01*
X4960986Y-20644698D02*
X4970510Y-20635174D01*
X4970510Y-20635174D02*
X4989558Y-20625650D01*
X4989558Y-20625650D02*
X5018129Y-20625650D01*
X5018129Y-20625650D02*
X5037177Y-20635174D01*
X5037177Y-20635174D02*
X5046701Y-20654222D01*
X5046701Y-20654222D02*
X5046701Y-20758984D01*
X5046701Y-20654222D02*
X5056225Y-20635174D01*
X5056225Y-20635174D02*
X5075272Y-20625650D01*
X5075272Y-20625650D02*
X5103844Y-20625650D01*
X5103844Y-20625650D02*
X5122891Y-20635174D01*
X5122891Y-20635174D02*
X5132415Y-20654222D01*
X5132415Y-20654222D02*
X5132415Y-20758984D01*
X5522891Y-20549460D02*
X5351463Y-20806603D01*
X5780034Y-20558984D02*
X5799082Y-20558984D01*
X5799082Y-20558984D02*
X5818129Y-20568508D01*
X5818129Y-20568508D02*
X5827653Y-20578031D01*
X5827653Y-20578031D02*
X5837177Y-20597079D01*
X5837177Y-20597079D02*
X5846701Y-20635174D01*
X5846701Y-20635174D02*
X5846701Y-20682793D01*
X5846701Y-20682793D02*
X5837177Y-20720889D01*
X5837177Y-20720889D02*
X5827653Y-20739936D01*
X5827653Y-20739936D02*
X5818129Y-20749460D01*
X5818129Y-20749460D02*
X5799082Y-20758984D01*
X5799082Y-20758984D02*
X5780034Y-20758984D01*
X5780034Y-20758984D02*
X5760986Y-20749460D01*
X5760986Y-20749460D02*
X5751463Y-20739936D01*
X5751463Y-20739936D02*
X5741939Y-20720889D01*
X5741939Y-20720889D02*
X5732415Y-20682793D01*
X5732415Y-20682793D02*
X5732415Y-20635174D01*
X5732415Y-20635174D02*
X5741939Y-20597079D01*
X5741939Y-20597079D02*
X5751463Y-20578031D01*
X5751463Y-20578031D02*
X5760986Y-20568508D01*
X5760986Y-20568508D02*
X5780034Y-20558984D01*
X5932415Y-20739936D02*
X5941939Y-20749460D01*
X5941939Y-20749460D02*
X5932415Y-20758984D01*
X5932415Y-20758984D02*
X5922891Y-20749460D01*
X5922891Y-20749460D02*
X5932415Y-20739936D01*
X5932415Y-20739936D02*
X5932415Y-20758984D01*
X6065748Y-20558984D02*
X6084796Y-20558984D01*
X6084796Y-20558984D02*
X6103844Y-20568508D01*
X6103844Y-20568508D02*
X6113367Y-20578031D01*
X6113367Y-20578031D02*
X6122891Y-20597079D01*
X6122891Y-20597079D02*
X6132415Y-20635174D01*
X6132415Y-20635174D02*
X6132415Y-20682793D01*
X6132415Y-20682793D02*
X6122891Y-20720889D01*
X6122891Y-20720889D02*
X6113367Y-20739936D01*
X6113367Y-20739936D02*
X6103844Y-20749460D01*
X6103844Y-20749460D02*
X6084796Y-20758984D01*
X6084796Y-20758984D02*
X6065748Y-20758984D01*
X6065748Y-20758984D02*
X6046701Y-20749460D01*
X6046701Y-20749460D02*
X6037177Y-20739936D01*
X6037177Y-20739936D02*
X6027653Y-20720889D01*
X6027653Y-20720889D02*
X6018129Y-20682793D01*
X6018129Y-20682793D02*
X6018129Y-20635174D01*
X6018129Y-20635174D02*
X6027653Y-20597079D01*
X6027653Y-20597079D02*
X6037177Y-20578031D01*
X6037177Y-20578031D02*
X6046701Y-20568508D01*
X6046701Y-20568508D02*
X6065748Y-20558984D01*
X6199082Y-20558984D02*
X6322891Y-20558984D01*
X6322891Y-20558984D02*
X6256225Y-20635174D01*
X6256225Y-20635174D02*
X6284796Y-20635174D01*
X6284796Y-20635174D02*
X6303844Y-20644698D01*
X6303844Y-20644698D02*
X6313367Y-20654222D01*
X6313367Y-20654222D02*
X6322891Y-20673270D01*
X6322891Y-20673270D02*
X6322891Y-20720889D01*
X6322891Y-20720889D02*
X6313367Y-20739936D01*
X6313367Y-20739936D02*
X6303844Y-20749460D01*
X6303844Y-20749460D02*
X6284796Y-20758984D01*
X6284796Y-20758984D02*
X6227653Y-20758984D01*
X6227653Y-20758984D02*
X6208606Y-20749460D01*
X6208606Y-20749460D02*
X6199082Y-20739936D01*
X6513367Y-20758984D02*
X6399082Y-20758984D01*
X6456225Y-20758984D02*
X6456225Y-20558984D01*
X6456225Y-20558984D02*
X6437177Y-20587555D01*
X6437177Y-20587555D02*
X6418129Y-20606603D01*
X6418129Y-20606603D02*
X6399082Y-20616127D01*
X6637177Y-20558984D02*
X6656225Y-20558984D01*
X6656225Y-20558984D02*
X6675272Y-20568508D01*
X6675272Y-20568508D02*
X6684796Y-20578031D01*
X6684796Y-20578031D02*
X6694320Y-20597079D01*
X6694320Y-20597079D02*
X6703844Y-20635174D01*
X6703844Y-20635174D02*
X6703844Y-20682793D01*
X6703844Y-20682793D02*
X6694320Y-20720889D01*
X6694320Y-20720889D02*
X6684796Y-20739936D01*
X6684796Y-20739936D02*
X6675272Y-20749460D01*
X6675272Y-20749460D02*
X6656225Y-20758984D01*
X6656225Y-20758984D02*
X6637177Y-20758984D01*
X6637177Y-20758984D02*
X6618129Y-20749460D01*
X6618129Y-20749460D02*
X6608606Y-20739936D01*
X6608606Y-20739936D02*
X6599082Y-20720889D01*
X6599082Y-20720889D02*
X6589558Y-20682793D01*
X6589558Y-20682793D02*
X6589558Y-20635174D01*
X6589558Y-20635174D02*
X6599082Y-20597079D01*
X6599082Y-20597079D02*
X6608606Y-20578031D01*
X6608606Y-20578031D02*
X6618129Y-20568508D01*
X6618129Y-20568508D02*
X6637177Y-20558984D01*
X6780034Y-20558984D02*
X6780034Y-20597079D01*
X6856225Y-20558984D02*
X6856225Y-20597079D01*
X7151463Y-20835174D02*
X7141939Y-20825650D01*
X7141939Y-20825650D02*
X7122891Y-20797079D01*
X7122891Y-20797079D02*
X7113368Y-20778031D01*
X7113368Y-20778031D02*
X7103844Y-20749460D01*
X7103844Y-20749460D02*
X7094320Y-20701841D01*
X7094320Y-20701841D02*
X7094320Y-20663746D01*
X7094320Y-20663746D02*
X7103844Y-20616127D01*
X7103844Y-20616127D02*
X7113368Y-20587555D01*
X7113368Y-20587555D02*
X7122891Y-20568508D01*
X7122891Y-20568508D02*
X7141939Y-20539936D01*
X7141939Y-20539936D02*
X7151463Y-20530412D01*
X7332415Y-20758984D02*
X7218129Y-20758984D01*
X7275272Y-20758984D02*
X7275272Y-20558984D01*
X7275272Y-20558984D02*
X7256225Y-20587555D01*
X7256225Y-20587555D02*
X7237177Y-20606603D01*
X7237177Y-20606603D02*
X7218129Y-20616127D01*
X7503844Y-20625650D02*
X7503844Y-20758984D01*
X7456225Y-20549460D02*
X7408606Y-20692317D01*
X7408606Y-20692317D02*
X7532415Y-20692317D01*
X7760987Y-20758984D02*
X7760987Y-20558984D01*
X7846701Y-20758984D02*
X7846701Y-20654222D01*
X7846701Y-20654222D02*
X7837177Y-20635174D01*
X7837177Y-20635174D02*
X7818130Y-20625650D01*
X7818130Y-20625650D02*
X7789558Y-20625650D01*
X7789558Y-20625650D02*
X7770510Y-20635174D01*
X7770510Y-20635174D02*
X7760987Y-20644698D01*
X7970510Y-20758984D02*
X7951463Y-20749460D01*
X7951463Y-20749460D02*
X7941939Y-20739936D01*
X7941939Y-20739936D02*
X7932415Y-20720889D01*
X7932415Y-20720889D02*
X7932415Y-20663746D01*
X7932415Y-20663746D02*
X7941939Y-20644698D01*
X7941939Y-20644698D02*
X7951463Y-20635174D01*
X7951463Y-20635174D02*
X7970510Y-20625650D01*
X7970510Y-20625650D02*
X7999082Y-20625650D01*
X7999082Y-20625650D02*
X8018130Y-20635174D01*
X8018130Y-20635174D02*
X8027653Y-20644698D01*
X8027653Y-20644698D02*
X8037177Y-20663746D01*
X8037177Y-20663746D02*
X8037177Y-20720889D01*
X8037177Y-20720889D02*
X8027653Y-20739936D01*
X8027653Y-20739936D02*
X8018130Y-20749460D01*
X8018130Y-20749460D02*
X7999082Y-20758984D01*
X7999082Y-20758984D02*
X7970510Y-20758984D01*
X8151463Y-20758984D02*
X8132415Y-20749460D01*
X8132415Y-20749460D02*
X8122891Y-20730412D01*
X8122891Y-20730412D02*
X8122891Y-20558984D01*
X8303844Y-20749460D02*
X8284796Y-20758984D01*
X8284796Y-20758984D02*
X8246701Y-20758984D01*
X8246701Y-20758984D02*
X8227653Y-20749460D01*
X8227653Y-20749460D02*
X8218130Y-20730412D01*
X8218130Y-20730412D02*
X8218130Y-20654222D01*
X8218130Y-20654222D02*
X8227653Y-20635174D01*
X8227653Y-20635174D02*
X8246701Y-20625650D01*
X8246701Y-20625650D02*
X8284796Y-20625650D01*
X8284796Y-20625650D02*
X8303844Y-20635174D01*
X8303844Y-20635174D02*
X8313368Y-20654222D01*
X8313368Y-20654222D02*
X8313368Y-20673270D01*
X8313368Y-20673270D02*
X8218130Y-20692317D01*
X8389558Y-20749460D02*
X8408606Y-20758984D01*
X8408606Y-20758984D02*
X8446701Y-20758984D01*
X8446701Y-20758984D02*
X8465749Y-20749460D01*
X8465749Y-20749460D02*
X8475273Y-20730412D01*
X8475273Y-20730412D02*
X8475273Y-20720889D01*
X8475273Y-20720889D02*
X8465749Y-20701841D01*
X8465749Y-20701841D02*
X8446701Y-20692317D01*
X8446701Y-20692317D02*
X8418130Y-20692317D01*
X8418130Y-20692317D02*
X8399082Y-20682793D01*
X8399082Y-20682793D02*
X8389558Y-20663746D01*
X8389558Y-20663746D02*
X8389558Y-20654222D01*
X8389558Y-20654222D02*
X8399082Y-20635174D01*
X8399082Y-20635174D02*
X8418130Y-20625650D01*
X8418130Y-20625650D02*
X8446701Y-20625650D01*
X8446701Y-20625650D02*
X8465749Y-20635174D01*
X8541939Y-20835174D02*
X8551463Y-20825650D01*
X8551463Y-20825650D02*
X8570511Y-20797079D01*
X8570511Y-20797079D02*
X8580034Y-20778031D01*
X8580034Y-20778031D02*
X8589558Y-20749460D01*
X8589558Y-20749460D02*
X8599082Y-20701841D01*
X8599082Y-20701841D02*
X8599082Y-20663746D01*
X8599082Y-20663746D02*
X8589558Y-20616127D01*
X8589558Y-20616127D02*
X8580034Y-20587555D01*
X8580034Y-20587555D02*
X8570511Y-20568508D01*
X8570511Y-20568508D02*
X8551463Y-20539936D01*
X8551463Y-20539936D02*
X8541939Y-20530412D01*
D15*
X3564684Y-20959785D02*
X3564684Y-20903216D01*
X3508115Y-20903216D01*
X3508115Y-20959785D01*
X3564684Y-20959785D01*
D11*
X3875272Y-20822984D02*
X3894320Y-20822984D01*
X3894320Y-20822984D02*
X3913367Y-20832508D01*
X3913367Y-20832508D02*
X3922891Y-20842031D01*
X3922891Y-20842031D02*
X3932415Y-20861079D01*
X3932415Y-20861079D02*
X3941939Y-20899174D01*
X3941939Y-20899174D02*
X3941939Y-20946793D01*
X3941939Y-20946793D02*
X3932415Y-20984889D01*
X3932415Y-20984889D02*
X3922891Y-21003936D01*
X3922891Y-21003936D02*
X3913367Y-21013460D01*
X3913367Y-21013460D02*
X3894320Y-21022984D01*
X3894320Y-21022984D02*
X3875272Y-21022984D01*
X3875272Y-21022984D02*
X3856224Y-21013460D01*
X3856224Y-21013460D02*
X3846701Y-21003936D01*
X3846701Y-21003936D02*
X3837177Y-20984889D01*
X3837177Y-20984889D02*
X3827653Y-20946793D01*
X3827653Y-20946793D02*
X3827653Y-20899174D01*
X3827653Y-20899174D02*
X3837177Y-20861079D01*
X3837177Y-20861079D02*
X3846701Y-20842031D01*
X3846701Y-20842031D02*
X3856224Y-20832508D01*
X3856224Y-20832508D02*
X3875272Y-20822984D01*
X4027653Y-21003936D02*
X4037177Y-21013460D01*
X4037177Y-21013460D02*
X4027653Y-21022984D01*
X4027653Y-21022984D02*
X4018129Y-21013460D01*
X4018129Y-21013460D02*
X4027653Y-21003936D01*
X4027653Y-21003936D02*
X4027653Y-21022984D01*
X4151462Y-20908698D02*
X4132415Y-20899174D01*
X4132415Y-20899174D02*
X4122891Y-20889650D01*
X4122891Y-20889650D02*
X4113367Y-20870603D01*
X4113367Y-20870603D02*
X4113367Y-20861079D01*
X4113367Y-20861079D02*
X4122891Y-20842031D01*
X4122891Y-20842031D02*
X4132415Y-20832508D01*
X4132415Y-20832508D02*
X4151462Y-20822984D01*
X4151462Y-20822984D02*
X4189558Y-20822984D01*
X4189558Y-20822984D02*
X4208605Y-20832508D01*
X4208605Y-20832508D02*
X4218129Y-20842031D01*
X4218129Y-20842031D02*
X4227653Y-20861079D01*
X4227653Y-20861079D02*
X4227653Y-20870603D01*
X4227653Y-20870603D02*
X4218129Y-20889650D01*
X4218129Y-20889650D02*
X4208605Y-20899174D01*
X4208605Y-20899174D02*
X4189558Y-20908698D01*
X4189558Y-20908698D02*
X4151462Y-20908698D01*
X4151462Y-20908698D02*
X4132415Y-20918222D01*
X4132415Y-20918222D02*
X4122891Y-20927746D01*
X4122891Y-20927746D02*
X4113367Y-20946793D01*
X4113367Y-20946793D02*
X4113367Y-20984889D01*
X4113367Y-20984889D02*
X4122891Y-21003936D01*
X4122891Y-21003936D02*
X4132415Y-21013460D01*
X4132415Y-21013460D02*
X4151462Y-21022984D01*
X4151462Y-21022984D02*
X4189558Y-21022984D01*
X4189558Y-21022984D02*
X4208605Y-21013460D01*
X4208605Y-21013460D02*
X4218129Y-21003936D01*
X4218129Y-21003936D02*
X4227653Y-20984889D01*
X4227653Y-20984889D02*
X4227653Y-20946793D01*
X4227653Y-20946793D02*
X4218129Y-20927746D01*
X4218129Y-20927746D02*
X4208605Y-20918222D01*
X4208605Y-20918222D02*
X4189558Y-20908698D01*
X4351463Y-20822984D02*
X4370510Y-20822984D01*
X4370510Y-20822984D02*
X4389558Y-20832508D01*
X4389558Y-20832508D02*
X4399082Y-20842031D01*
X4399082Y-20842031D02*
X4408605Y-20861079D01*
X4408605Y-20861079D02*
X4418129Y-20899174D01*
X4418129Y-20899174D02*
X4418129Y-20946793D01*
X4418129Y-20946793D02*
X4408605Y-20984889D01*
X4408605Y-20984889D02*
X4399082Y-21003936D01*
X4399082Y-21003936D02*
X4389558Y-21013460D01*
X4389558Y-21013460D02*
X4370510Y-21022984D01*
X4370510Y-21022984D02*
X4351463Y-21022984D01*
X4351463Y-21022984D02*
X4332415Y-21013460D01*
X4332415Y-21013460D02*
X4322891Y-21003936D01*
X4322891Y-21003936D02*
X4313367Y-20984889D01*
X4313367Y-20984889D02*
X4303844Y-20946793D01*
X4303844Y-20946793D02*
X4303844Y-20899174D01*
X4303844Y-20899174D02*
X4313367Y-20861079D01*
X4313367Y-20861079D02*
X4322891Y-20842031D01*
X4322891Y-20842031D02*
X4332415Y-20832508D01*
X4332415Y-20832508D02*
X4351463Y-20822984D01*
X4541939Y-20822984D02*
X4560986Y-20822984D01*
X4560986Y-20822984D02*
X4580034Y-20832508D01*
X4580034Y-20832508D02*
X4589558Y-20842031D01*
X4589558Y-20842031D02*
X4599082Y-20861079D01*
X4599082Y-20861079D02*
X4608605Y-20899174D01*
X4608605Y-20899174D02*
X4608605Y-20946793D01*
X4608605Y-20946793D02*
X4599082Y-20984889D01*
X4599082Y-20984889D02*
X4589558Y-21003936D01*
X4589558Y-21003936D02*
X4580034Y-21013460D01*
X4580034Y-21013460D02*
X4560986Y-21022984D01*
X4560986Y-21022984D02*
X4541939Y-21022984D01*
X4541939Y-21022984D02*
X4522891Y-21013460D01*
X4522891Y-21013460D02*
X4513367Y-21003936D01*
X4513367Y-21003936D02*
X4503844Y-20984889D01*
X4503844Y-20984889D02*
X4494320Y-20946793D01*
X4494320Y-20946793D02*
X4494320Y-20899174D01*
X4494320Y-20899174D02*
X4503844Y-20861079D01*
X4503844Y-20861079D02*
X4513367Y-20842031D01*
X4513367Y-20842031D02*
X4522891Y-20832508D01*
X4522891Y-20832508D02*
X4541939Y-20822984D01*
X4694320Y-21022984D02*
X4694320Y-20889650D01*
X4694320Y-20908698D02*
X4703844Y-20899174D01*
X4703844Y-20899174D02*
X4722891Y-20889650D01*
X4722891Y-20889650D02*
X4751463Y-20889650D01*
X4751463Y-20889650D02*
X4770510Y-20899174D01*
X4770510Y-20899174D02*
X4780034Y-20918222D01*
X4780034Y-20918222D02*
X4780034Y-21022984D01*
X4780034Y-20918222D02*
X4789558Y-20899174D01*
X4789558Y-20899174D02*
X4808605Y-20889650D01*
X4808605Y-20889650D02*
X4837177Y-20889650D01*
X4837177Y-20889650D02*
X4856225Y-20899174D01*
X4856225Y-20899174D02*
X4865748Y-20918222D01*
X4865748Y-20918222D02*
X4865748Y-21022984D01*
X4960986Y-21022984D02*
X4960986Y-20889650D01*
X4960986Y-20908698D02*
X4970510Y-20899174D01*
X4970510Y-20899174D02*
X4989558Y-20889650D01*
X4989558Y-20889650D02*
X5018129Y-20889650D01*
X5018129Y-20889650D02*
X5037177Y-20899174D01*
X5037177Y-20899174D02*
X5046701Y-20918222D01*
X5046701Y-20918222D02*
X5046701Y-21022984D01*
X5046701Y-20918222D02*
X5056225Y-20899174D01*
X5056225Y-20899174D02*
X5075272Y-20889650D01*
X5075272Y-20889650D02*
X5103844Y-20889650D01*
X5103844Y-20889650D02*
X5122891Y-20899174D01*
X5122891Y-20899174D02*
X5132415Y-20918222D01*
X5132415Y-20918222D02*
X5132415Y-21022984D01*
X5522891Y-20813460D02*
X5351463Y-21070603D01*
X5780034Y-20822984D02*
X5799082Y-20822984D01*
X5799082Y-20822984D02*
X5818129Y-20832508D01*
X5818129Y-20832508D02*
X5827653Y-20842031D01*
X5827653Y-20842031D02*
X5837177Y-20861079D01*
X5837177Y-20861079D02*
X5846701Y-20899174D01*
X5846701Y-20899174D02*
X5846701Y-20946793D01*
X5846701Y-20946793D02*
X5837177Y-20984889D01*
X5837177Y-20984889D02*
X5827653Y-21003936D01*
X5827653Y-21003936D02*
X5818129Y-21013460D01*
X5818129Y-21013460D02*
X5799082Y-21022984D01*
X5799082Y-21022984D02*
X5780034Y-21022984D01*
X5780034Y-21022984D02*
X5760986Y-21013460D01*
X5760986Y-21013460D02*
X5751463Y-21003936D01*
X5751463Y-21003936D02*
X5741939Y-20984889D01*
X5741939Y-20984889D02*
X5732415Y-20946793D01*
X5732415Y-20946793D02*
X5732415Y-20899174D01*
X5732415Y-20899174D02*
X5741939Y-20861079D01*
X5741939Y-20861079D02*
X5751463Y-20842031D01*
X5751463Y-20842031D02*
X5760986Y-20832508D01*
X5760986Y-20832508D02*
X5780034Y-20822984D01*
X5932415Y-21003936D02*
X5941939Y-21013460D01*
X5941939Y-21013460D02*
X5932415Y-21022984D01*
X5932415Y-21022984D02*
X5922891Y-21013460D01*
X5922891Y-21013460D02*
X5932415Y-21003936D01*
X5932415Y-21003936D02*
X5932415Y-21022984D01*
X6065748Y-20822984D02*
X6084796Y-20822984D01*
X6084796Y-20822984D02*
X6103844Y-20832508D01*
X6103844Y-20832508D02*
X6113367Y-20842031D01*
X6113367Y-20842031D02*
X6122891Y-20861079D01*
X6122891Y-20861079D02*
X6132415Y-20899174D01*
X6132415Y-20899174D02*
X6132415Y-20946793D01*
X6132415Y-20946793D02*
X6122891Y-20984889D01*
X6122891Y-20984889D02*
X6113367Y-21003936D01*
X6113367Y-21003936D02*
X6103844Y-21013460D01*
X6103844Y-21013460D02*
X6084796Y-21022984D01*
X6084796Y-21022984D02*
X6065748Y-21022984D01*
X6065748Y-21022984D02*
X6046701Y-21013460D01*
X6046701Y-21013460D02*
X6037177Y-21003936D01*
X6037177Y-21003936D02*
X6027653Y-20984889D01*
X6027653Y-20984889D02*
X6018129Y-20946793D01*
X6018129Y-20946793D02*
X6018129Y-20899174D01*
X6018129Y-20899174D02*
X6027653Y-20861079D01*
X6027653Y-20861079D02*
X6037177Y-20842031D01*
X6037177Y-20842031D02*
X6046701Y-20832508D01*
X6046701Y-20832508D02*
X6065748Y-20822984D01*
X6199082Y-20822984D02*
X6322891Y-20822984D01*
X6322891Y-20822984D02*
X6256225Y-20899174D01*
X6256225Y-20899174D02*
X6284796Y-20899174D01*
X6284796Y-20899174D02*
X6303844Y-20908698D01*
X6303844Y-20908698D02*
X6313367Y-20918222D01*
X6313367Y-20918222D02*
X6322891Y-20937270D01*
X6322891Y-20937270D02*
X6322891Y-20984889D01*
X6322891Y-20984889D02*
X6313367Y-21003936D01*
X6313367Y-21003936D02*
X6303844Y-21013460D01*
X6303844Y-21013460D02*
X6284796Y-21022984D01*
X6284796Y-21022984D02*
X6227653Y-21022984D01*
X6227653Y-21022984D02*
X6208606Y-21013460D01*
X6208606Y-21013460D02*
X6199082Y-21003936D01*
X6513367Y-21022984D02*
X6399082Y-21022984D01*
X6456225Y-21022984D02*
X6456225Y-20822984D01*
X6456225Y-20822984D02*
X6437177Y-20851555D01*
X6437177Y-20851555D02*
X6418129Y-20870603D01*
X6418129Y-20870603D02*
X6399082Y-20880127D01*
X6694320Y-20822984D02*
X6599082Y-20822984D01*
X6599082Y-20822984D02*
X6589558Y-20918222D01*
X6589558Y-20918222D02*
X6599082Y-20908698D01*
X6599082Y-20908698D02*
X6618129Y-20899174D01*
X6618129Y-20899174D02*
X6665748Y-20899174D01*
X6665748Y-20899174D02*
X6684796Y-20908698D01*
X6684796Y-20908698D02*
X6694320Y-20918222D01*
X6694320Y-20918222D02*
X6703844Y-20937270D01*
X6703844Y-20937270D02*
X6703844Y-20984889D01*
X6703844Y-20984889D02*
X6694320Y-21003936D01*
X6694320Y-21003936D02*
X6684796Y-21013460D01*
X6684796Y-21013460D02*
X6665748Y-21022984D01*
X6665748Y-21022984D02*
X6618129Y-21022984D01*
X6618129Y-21022984D02*
X6599082Y-21013460D01*
X6599082Y-21013460D02*
X6589558Y-21003936D01*
X6780034Y-20822984D02*
X6780034Y-20861079D01*
X6856225Y-20822984D02*
X6856225Y-20861079D01*
X7151463Y-21099174D02*
X7141939Y-21089650D01*
X7141939Y-21089650D02*
X7122891Y-21061079D01*
X7122891Y-21061079D02*
X7113368Y-21042031D01*
X7113368Y-21042031D02*
X7103844Y-21013460D01*
X7103844Y-21013460D02*
X7094320Y-20965841D01*
X7094320Y-20965841D02*
X7094320Y-20927746D01*
X7094320Y-20927746D02*
X7103844Y-20880127D01*
X7103844Y-20880127D02*
X7113368Y-20851555D01*
X7113368Y-20851555D02*
X7122891Y-20832508D01*
X7122891Y-20832508D02*
X7141939Y-20803936D01*
X7141939Y-20803936D02*
X7151463Y-20794412D01*
X7332415Y-21022984D02*
X7218129Y-21022984D01*
X7275272Y-21022984D02*
X7275272Y-20822984D01*
X7275272Y-20822984D02*
X7256225Y-20851555D01*
X7256225Y-20851555D02*
X7237177Y-20870603D01*
X7237177Y-20870603D02*
X7218129Y-20880127D01*
X7570510Y-21022984D02*
X7570510Y-20822984D01*
X7656225Y-21022984D02*
X7656225Y-20918222D01*
X7656225Y-20918222D02*
X7646701Y-20899174D01*
X7646701Y-20899174D02*
X7627653Y-20889650D01*
X7627653Y-20889650D02*
X7599082Y-20889650D01*
X7599082Y-20889650D02*
X7580034Y-20899174D01*
X7580034Y-20899174D02*
X7570510Y-20908698D01*
X7780034Y-21022984D02*
X7760987Y-21013460D01*
X7760987Y-21013460D02*
X7751463Y-21003936D01*
X7751463Y-21003936D02*
X7741939Y-20984889D01*
X7741939Y-20984889D02*
X7741939Y-20927746D01*
X7741939Y-20927746D02*
X7751463Y-20908698D01*
X7751463Y-20908698D02*
X7760987Y-20899174D01*
X7760987Y-20899174D02*
X7780034Y-20889650D01*
X7780034Y-20889650D02*
X7808606Y-20889650D01*
X7808606Y-20889650D02*
X7827653Y-20899174D01*
X7827653Y-20899174D02*
X7837177Y-20908698D01*
X7837177Y-20908698D02*
X7846701Y-20927746D01*
X7846701Y-20927746D02*
X7846701Y-20984889D01*
X7846701Y-20984889D02*
X7837177Y-21003936D01*
X7837177Y-21003936D02*
X7827653Y-21013460D01*
X7827653Y-21013460D02*
X7808606Y-21022984D01*
X7808606Y-21022984D02*
X7780034Y-21022984D01*
X7960987Y-21022984D02*
X7941939Y-21013460D01*
X7941939Y-21013460D02*
X7932415Y-20994412D01*
X7932415Y-20994412D02*
X7932415Y-20822984D01*
X8113368Y-21013460D02*
X8094320Y-21022984D01*
X8094320Y-21022984D02*
X8056225Y-21022984D01*
X8056225Y-21022984D02*
X8037177Y-21013460D01*
X8037177Y-21013460D02*
X8027653Y-20994412D01*
X8027653Y-20994412D02*
X8027653Y-20918222D01*
X8027653Y-20918222D02*
X8037177Y-20899174D01*
X8037177Y-20899174D02*
X8056225Y-20889650D01*
X8056225Y-20889650D02*
X8094320Y-20889650D01*
X8094320Y-20889650D02*
X8113368Y-20899174D01*
X8113368Y-20899174D02*
X8122891Y-20918222D01*
X8122891Y-20918222D02*
X8122891Y-20937270D01*
X8122891Y-20937270D02*
X8027653Y-20956317D01*
X8189558Y-21099174D02*
X8199082Y-21089650D01*
X8199082Y-21089650D02*
X8218130Y-21061079D01*
X8218130Y-21061079D02*
X8227653Y-21042031D01*
X8227653Y-21042031D02*
X8237177Y-21013460D01*
X8237177Y-21013460D02*
X8246701Y-20965841D01*
X8246701Y-20965841D02*
X8246701Y-20927746D01*
X8246701Y-20927746D02*
X8237177Y-20880127D01*
X8237177Y-20880127D02*
X8227653Y-20851555D01*
X8227653Y-20851555D02*
X8218130Y-20832508D01*
X8218130Y-20832508D02*
X8199082Y-20803936D01*
X8199082Y-20803936D02*
X8189558Y-20794412D01*
D15*
X3536400Y-21235500D02*
X3576400Y-21195500D01*
X3536400Y-21155500D01*
X3496400Y-21195500D01*
X3536400Y-21235500D01*
D11*
X3875272Y-21086984D02*
X3894320Y-21086984D01*
X3894320Y-21086984D02*
X3913367Y-21096508D01*
X3913367Y-21096508D02*
X3922891Y-21106031D01*
X3922891Y-21106031D02*
X3932415Y-21125079D01*
X3932415Y-21125079D02*
X3941939Y-21163174D01*
X3941939Y-21163174D02*
X3941939Y-21210793D01*
X3941939Y-21210793D02*
X3932415Y-21248889D01*
X3932415Y-21248889D02*
X3922891Y-21267936D01*
X3922891Y-21267936D02*
X3913367Y-21277460D01*
X3913367Y-21277460D02*
X3894320Y-21286984D01*
X3894320Y-21286984D02*
X3875272Y-21286984D01*
X3875272Y-21286984D02*
X3856224Y-21277460D01*
X3856224Y-21277460D02*
X3846701Y-21267936D01*
X3846701Y-21267936D02*
X3837177Y-21248889D01*
X3837177Y-21248889D02*
X3827653Y-21210793D01*
X3827653Y-21210793D02*
X3827653Y-21163174D01*
X3827653Y-21163174D02*
X3837177Y-21125079D01*
X3837177Y-21125079D02*
X3846701Y-21106031D01*
X3846701Y-21106031D02*
X3856224Y-21096508D01*
X3856224Y-21096508D02*
X3875272Y-21086984D01*
X4027653Y-21267936D02*
X4037177Y-21277460D01*
X4037177Y-21277460D02*
X4027653Y-21286984D01*
X4027653Y-21286984D02*
X4018129Y-21277460D01*
X4018129Y-21277460D02*
X4027653Y-21267936D01*
X4027653Y-21267936D02*
X4027653Y-21286984D01*
X4151462Y-21172698D02*
X4132415Y-21163174D01*
X4132415Y-21163174D02*
X4122891Y-21153650D01*
X4122891Y-21153650D02*
X4113367Y-21134603D01*
X4113367Y-21134603D02*
X4113367Y-21125079D01*
X4113367Y-21125079D02*
X4122891Y-21106031D01*
X4122891Y-21106031D02*
X4132415Y-21096508D01*
X4132415Y-21096508D02*
X4151462Y-21086984D01*
X4151462Y-21086984D02*
X4189558Y-21086984D01*
X4189558Y-21086984D02*
X4208605Y-21096508D01*
X4208605Y-21096508D02*
X4218129Y-21106031D01*
X4218129Y-21106031D02*
X4227653Y-21125079D01*
X4227653Y-21125079D02*
X4227653Y-21134603D01*
X4227653Y-21134603D02*
X4218129Y-21153650D01*
X4218129Y-21153650D02*
X4208605Y-21163174D01*
X4208605Y-21163174D02*
X4189558Y-21172698D01*
X4189558Y-21172698D02*
X4151462Y-21172698D01*
X4151462Y-21172698D02*
X4132415Y-21182222D01*
X4132415Y-21182222D02*
X4122891Y-21191746D01*
X4122891Y-21191746D02*
X4113367Y-21210793D01*
X4113367Y-21210793D02*
X4113367Y-21248889D01*
X4113367Y-21248889D02*
X4122891Y-21267936D01*
X4122891Y-21267936D02*
X4132415Y-21277460D01*
X4132415Y-21277460D02*
X4151462Y-21286984D01*
X4151462Y-21286984D02*
X4189558Y-21286984D01*
X4189558Y-21286984D02*
X4208605Y-21277460D01*
X4208605Y-21277460D02*
X4218129Y-21267936D01*
X4218129Y-21267936D02*
X4227653Y-21248889D01*
X4227653Y-21248889D02*
X4227653Y-21210793D01*
X4227653Y-21210793D02*
X4218129Y-21191746D01*
X4218129Y-21191746D02*
X4208605Y-21182222D01*
X4208605Y-21182222D02*
X4189558Y-21172698D01*
X4351463Y-21086984D02*
X4370510Y-21086984D01*
X4370510Y-21086984D02*
X4389558Y-21096508D01*
X4389558Y-21096508D02*
X4399082Y-21106031D01*
X4399082Y-21106031D02*
X4408605Y-21125079D01*
X4408605Y-21125079D02*
X4418129Y-21163174D01*
X4418129Y-21163174D02*
X4418129Y-21210793D01*
X4418129Y-21210793D02*
X4408605Y-21248889D01*
X4408605Y-21248889D02*
X4399082Y-21267936D01*
X4399082Y-21267936D02*
X4389558Y-21277460D01*
X4389558Y-21277460D02*
X4370510Y-21286984D01*
X4370510Y-21286984D02*
X4351463Y-21286984D01*
X4351463Y-21286984D02*
X4332415Y-21277460D01*
X4332415Y-21277460D02*
X4322891Y-21267936D01*
X4322891Y-21267936D02*
X4313367Y-21248889D01*
X4313367Y-21248889D02*
X4303844Y-21210793D01*
X4303844Y-21210793D02*
X4303844Y-21163174D01*
X4303844Y-21163174D02*
X4313367Y-21125079D01*
X4313367Y-21125079D02*
X4322891Y-21106031D01*
X4322891Y-21106031D02*
X4332415Y-21096508D01*
X4332415Y-21096508D02*
X4351463Y-21086984D01*
X4541939Y-21086984D02*
X4560986Y-21086984D01*
X4560986Y-21086984D02*
X4580034Y-21096508D01*
X4580034Y-21096508D02*
X4589558Y-21106031D01*
X4589558Y-21106031D02*
X4599082Y-21125079D01*
X4599082Y-21125079D02*
X4608605Y-21163174D01*
X4608605Y-21163174D02*
X4608605Y-21210793D01*
X4608605Y-21210793D02*
X4599082Y-21248889D01*
X4599082Y-21248889D02*
X4589558Y-21267936D01*
X4589558Y-21267936D02*
X4580034Y-21277460D01*
X4580034Y-21277460D02*
X4560986Y-21286984D01*
X4560986Y-21286984D02*
X4541939Y-21286984D01*
X4541939Y-21286984D02*
X4522891Y-21277460D01*
X4522891Y-21277460D02*
X4513367Y-21267936D01*
X4513367Y-21267936D02*
X4503844Y-21248889D01*
X4503844Y-21248889D02*
X4494320Y-21210793D01*
X4494320Y-21210793D02*
X4494320Y-21163174D01*
X4494320Y-21163174D02*
X4503844Y-21125079D01*
X4503844Y-21125079D02*
X4513367Y-21106031D01*
X4513367Y-21106031D02*
X4522891Y-21096508D01*
X4522891Y-21096508D02*
X4541939Y-21086984D01*
X4694320Y-21286984D02*
X4694320Y-21153650D01*
X4694320Y-21172698D02*
X4703844Y-21163174D01*
X4703844Y-21163174D02*
X4722891Y-21153650D01*
X4722891Y-21153650D02*
X4751463Y-21153650D01*
X4751463Y-21153650D02*
X4770510Y-21163174D01*
X4770510Y-21163174D02*
X4780034Y-21182222D01*
X4780034Y-21182222D02*
X4780034Y-21286984D01*
X4780034Y-21182222D02*
X4789558Y-21163174D01*
X4789558Y-21163174D02*
X4808605Y-21153650D01*
X4808605Y-21153650D02*
X4837177Y-21153650D01*
X4837177Y-21153650D02*
X4856225Y-21163174D01*
X4856225Y-21163174D02*
X4865748Y-21182222D01*
X4865748Y-21182222D02*
X4865748Y-21286984D01*
X4960986Y-21286984D02*
X4960986Y-21153650D01*
X4960986Y-21172698D02*
X4970510Y-21163174D01*
X4970510Y-21163174D02*
X4989558Y-21153650D01*
X4989558Y-21153650D02*
X5018129Y-21153650D01*
X5018129Y-21153650D02*
X5037177Y-21163174D01*
X5037177Y-21163174D02*
X5046701Y-21182222D01*
X5046701Y-21182222D02*
X5046701Y-21286984D01*
X5046701Y-21182222D02*
X5056225Y-21163174D01*
X5056225Y-21163174D02*
X5075272Y-21153650D01*
X5075272Y-21153650D02*
X5103844Y-21153650D01*
X5103844Y-21153650D02*
X5122891Y-21163174D01*
X5122891Y-21163174D02*
X5132415Y-21182222D01*
X5132415Y-21182222D02*
X5132415Y-21286984D01*
X5522891Y-21077460D02*
X5351463Y-21334603D01*
X5780034Y-21086984D02*
X5799082Y-21086984D01*
X5799082Y-21086984D02*
X5818129Y-21096508D01*
X5818129Y-21096508D02*
X5827653Y-21106031D01*
X5827653Y-21106031D02*
X5837177Y-21125079D01*
X5837177Y-21125079D02*
X5846701Y-21163174D01*
X5846701Y-21163174D02*
X5846701Y-21210793D01*
X5846701Y-21210793D02*
X5837177Y-21248889D01*
X5837177Y-21248889D02*
X5827653Y-21267936D01*
X5827653Y-21267936D02*
X5818129Y-21277460D01*
X5818129Y-21277460D02*
X5799082Y-21286984D01*
X5799082Y-21286984D02*
X5780034Y-21286984D01*
X5780034Y-21286984D02*
X5760986Y-21277460D01*
X5760986Y-21277460D02*
X5751463Y-21267936D01*
X5751463Y-21267936D02*
X5741939Y-21248889D01*
X5741939Y-21248889D02*
X5732415Y-21210793D01*
X5732415Y-21210793D02*
X5732415Y-21163174D01*
X5732415Y-21163174D02*
X5741939Y-21125079D01*
X5741939Y-21125079D02*
X5751463Y-21106031D01*
X5751463Y-21106031D02*
X5760986Y-21096508D01*
X5760986Y-21096508D02*
X5780034Y-21086984D01*
X5932415Y-21267936D02*
X5941939Y-21277460D01*
X5941939Y-21277460D02*
X5932415Y-21286984D01*
X5932415Y-21286984D02*
X5922891Y-21277460D01*
X5922891Y-21277460D02*
X5932415Y-21267936D01*
X5932415Y-21267936D02*
X5932415Y-21286984D01*
X6065748Y-21086984D02*
X6084796Y-21086984D01*
X6084796Y-21086984D02*
X6103844Y-21096508D01*
X6103844Y-21096508D02*
X6113367Y-21106031D01*
X6113367Y-21106031D02*
X6122891Y-21125079D01*
X6122891Y-21125079D02*
X6132415Y-21163174D01*
X6132415Y-21163174D02*
X6132415Y-21210793D01*
X6132415Y-21210793D02*
X6122891Y-21248889D01*
X6122891Y-21248889D02*
X6113367Y-21267936D01*
X6113367Y-21267936D02*
X6103844Y-21277460D01*
X6103844Y-21277460D02*
X6084796Y-21286984D01*
X6084796Y-21286984D02*
X6065748Y-21286984D01*
X6065748Y-21286984D02*
X6046701Y-21277460D01*
X6046701Y-21277460D02*
X6037177Y-21267936D01*
X6037177Y-21267936D02*
X6027653Y-21248889D01*
X6027653Y-21248889D02*
X6018129Y-21210793D01*
X6018129Y-21210793D02*
X6018129Y-21163174D01*
X6018129Y-21163174D02*
X6027653Y-21125079D01*
X6027653Y-21125079D02*
X6037177Y-21106031D01*
X6037177Y-21106031D02*
X6046701Y-21096508D01*
X6046701Y-21096508D02*
X6065748Y-21086984D01*
X6199082Y-21086984D02*
X6322891Y-21086984D01*
X6322891Y-21086984D02*
X6256225Y-21163174D01*
X6256225Y-21163174D02*
X6284796Y-21163174D01*
X6284796Y-21163174D02*
X6303844Y-21172698D01*
X6303844Y-21172698D02*
X6313367Y-21182222D01*
X6313367Y-21182222D02*
X6322891Y-21201270D01*
X6322891Y-21201270D02*
X6322891Y-21248889D01*
X6322891Y-21248889D02*
X6313367Y-21267936D01*
X6313367Y-21267936D02*
X6303844Y-21277460D01*
X6303844Y-21277460D02*
X6284796Y-21286984D01*
X6284796Y-21286984D02*
X6227653Y-21286984D01*
X6227653Y-21286984D02*
X6208606Y-21277460D01*
X6208606Y-21277460D02*
X6199082Y-21267936D01*
X6513367Y-21286984D02*
X6399082Y-21286984D01*
X6456225Y-21286984D02*
X6456225Y-21086984D01*
X6456225Y-21086984D02*
X6437177Y-21115555D01*
X6437177Y-21115555D02*
X6418129Y-21134603D01*
X6418129Y-21134603D02*
X6399082Y-21144127D01*
X6694320Y-21086984D02*
X6599082Y-21086984D01*
X6599082Y-21086984D02*
X6589558Y-21182222D01*
X6589558Y-21182222D02*
X6599082Y-21172698D01*
X6599082Y-21172698D02*
X6618129Y-21163174D01*
X6618129Y-21163174D02*
X6665748Y-21163174D01*
X6665748Y-21163174D02*
X6684796Y-21172698D01*
X6684796Y-21172698D02*
X6694320Y-21182222D01*
X6694320Y-21182222D02*
X6703844Y-21201270D01*
X6703844Y-21201270D02*
X6703844Y-21248889D01*
X6703844Y-21248889D02*
X6694320Y-21267936D01*
X6694320Y-21267936D02*
X6684796Y-21277460D01*
X6684796Y-21277460D02*
X6665748Y-21286984D01*
X6665748Y-21286984D02*
X6618129Y-21286984D01*
X6618129Y-21286984D02*
X6599082Y-21277460D01*
X6599082Y-21277460D02*
X6589558Y-21267936D01*
X6780034Y-21086984D02*
X6780034Y-21125079D01*
X6856225Y-21086984D02*
X6856225Y-21125079D01*
X7151463Y-21363174D02*
X7141939Y-21353650D01*
X7141939Y-21353650D02*
X7122891Y-21325079D01*
X7122891Y-21325079D02*
X7113368Y-21306031D01*
X7113368Y-21306031D02*
X7103844Y-21277460D01*
X7103844Y-21277460D02*
X7094320Y-21229841D01*
X7094320Y-21229841D02*
X7094320Y-21191746D01*
X7094320Y-21191746D02*
X7103844Y-21144127D01*
X7103844Y-21144127D02*
X7113368Y-21115555D01*
X7113368Y-21115555D02*
X7122891Y-21096508D01*
X7122891Y-21096508D02*
X7141939Y-21067936D01*
X7141939Y-21067936D02*
X7151463Y-21058412D01*
X7208606Y-21086984D02*
X7332415Y-21086984D01*
X7332415Y-21086984D02*
X7265748Y-21163174D01*
X7265748Y-21163174D02*
X7294320Y-21163174D01*
X7294320Y-21163174D02*
X7313368Y-21172698D01*
X7313368Y-21172698D02*
X7322891Y-21182222D01*
X7322891Y-21182222D02*
X7332415Y-21201270D01*
X7332415Y-21201270D02*
X7332415Y-21248889D01*
X7332415Y-21248889D02*
X7322891Y-21267936D01*
X7322891Y-21267936D02*
X7313368Y-21277460D01*
X7313368Y-21277460D02*
X7294320Y-21286984D01*
X7294320Y-21286984D02*
X7237177Y-21286984D01*
X7237177Y-21286984D02*
X7218129Y-21277460D01*
X7218129Y-21277460D02*
X7208606Y-21267936D01*
X7456225Y-21086984D02*
X7475272Y-21086984D01*
X7475272Y-21086984D02*
X7494320Y-21096508D01*
X7494320Y-21096508D02*
X7503844Y-21106031D01*
X7503844Y-21106031D02*
X7513368Y-21125079D01*
X7513368Y-21125079D02*
X7522891Y-21163174D01*
X7522891Y-21163174D02*
X7522891Y-21210793D01*
X7522891Y-21210793D02*
X7513368Y-21248889D01*
X7513368Y-21248889D02*
X7503844Y-21267936D01*
X7503844Y-21267936D02*
X7494320Y-21277460D01*
X7494320Y-21277460D02*
X7475272Y-21286984D01*
X7475272Y-21286984D02*
X7456225Y-21286984D01*
X7456225Y-21286984D02*
X7437177Y-21277460D01*
X7437177Y-21277460D02*
X7427653Y-21267936D01*
X7427653Y-21267936D02*
X7418129Y-21248889D01*
X7418129Y-21248889D02*
X7408606Y-21210793D01*
X7408606Y-21210793D02*
X7408606Y-21163174D01*
X7408606Y-21163174D02*
X7418129Y-21125079D01*
X7418129Y-21125079D02*
X7427653Y-21106031D01*
X7427653Y-21106031D02*
X7437177Y-21096508D01*
X7437177Y-21096508D02*
X7456225Y-21086984D01*
X7760987Y-21286984D02*
X7760987Y-21086984D01*
X7846701Y-21286984D02*
X7846701Y-21182222D01*
X7846701Y-21182222D02*
X7837177Y-21163174D01*
X7837177Y-21163174D02*
X7818130Y-21153650D01*
X7818130Y-21153650D02*
X7789558Y-21153650D01*
X7789558Y-21153650D02*
X7770510Y-21163174D01*
X7770510Y-21163174D02*
X7760987Y-21172698D01*
X7970510Y-21286984D02*
X7951463Y-21277460D01*
X7951463Y-21277460D02*
X7941939Y-21267936D01*
X7941939Y-21267936D02*
X7932415Y-21248889D01*
X7932415Y-21248889D02*
X7932415Y-21191746D01*
X7932415Y-21191746D02*
X7941939Y-21172698D01*
X7941939Y-21172698D02*
X7951463Y-21163174D01*
X7951463Y-21163174D02*
X7970510Y-21153650D01*
X7970510Y-21153650D02*
X7999082Y-21153650D01*
X7999082Y-21153650D02*
X8018130Y-21163174D01*
X8018130Y-21163174D02*
X8027653Y-21172698D01*
X8027653Y-21172698D02*
X8037177Y-21191746D01*
X8037177Y-21191746D02*
X8037177Y-21248889D01*
X8037177Y-21248889D02*
X8027653Y-21267936D01*
X8027653Y-21267936D02*
X8018130Y-21277460D01*
X8018130Y-21277460D02*
X7999082Y-21286984D01*
X7999082Y-21286984D02*
X7970510Y-21286984D01*
X8151463Y-21286984D02*
X8132415Y-21277460D01*
X8132415Y-21277460D02*
X8122891Y-21258412D01*
X8122891Y-21258412D02*
X8122891Y-21086984D01*
X8303844Y-21277460D02*
X8284796Y-21286984D01*
X8284796Y-21286984D02*
X8246701Y-21286984D01*
X8246701Y-21286984D02*
X8227653Y-21277460D01*
X8227653Y-21277460D02*
X8218130Y-21258412D01*
X8218130Y-21258412D02*
X8218130Y-21182222D01*
X8218130Y-21182222D02*
X8227653Y-21163174D01*
X8227653Y-21163174D02*
X8246701Y-21153650D01*
X8246701Y-21153650D02*
X8284796Y-21153650D01*
X8284796Y-21153650D02*
X8303844Y-21163174D01*
X8303844Y-21163174D02*
X8313368Y-21182222D01*
X8313368Y-21182222D02*
X8313368Y-21201270D01*
X8313368Y-21201270D02*
X8218130Y-21220317D01*
X8389558Y-21277460D02*
X8408606Y-21286984D01*
X8408606Y-21286984D02*
X8446701Y-21286984D01*
X8446701Y-21286984D02*
X8465749Y-21277460D01*
X8465749Y-21277460D02*
X8475273Y-21258412D01*
X8475273Y-21258412D02*
X8475273Y-21248889D01*
X8475273Y-21248889D02*
X8465749Y-21229841D01*
X8465749Y-21229841D02*
X8446701Y-21220317D01*
X8446701Y-21220317D02*
X8418130Y-21220317D01*
X8418130Y-21220317D02*
X8399082Y-21210793D01*
X8399082Y-21210793D02*
X8389558Y-21191746D01*
X8389558Y-21191746D02*
X8389558Y-21182222D01*
X8389558Y-21182222D02*
X8399082Y-21163174D01*
X8399082Y-21163174D02*
X8418130Y-21153650D01*
X8418130Y-21153650D02*
X8446701Y-21153650D01*
X8446701Y-21153650D02*
X8465749Y-21163174D01*
X8541939Y-21363174D02*
X8551463Y-21353650D01*
X8551463Y-21353650D02*
X8570511Y-21325079D01*
X8570511Y-21325079D02*
X8580034Y-21306031D01*
X8580034Y-21306031D02*
X8589558Y-21277460D01*
X8589558Y-21277460D02*
X8599082Y-21229841D01*
X8599082Y-21229841D02*
X8599082Y-21191746D01*
X8599082Y-21191746D02*
X8589558Y-21144127D01*
X8589558Y-21144127D02*
X8580034Y-21115555D01*
X8580034Y-21115555D02*
X8570511Y-21096508D01*
X8570511Y-21096508D02*
X8551463Y-21067936D01*
X8551463Y-21067936D02*
X8541939Y-21058412D01*
D16*
X3486400Y-21414500D02*
X3576400Y-21504500D01*
X3576400Y-21414500D02*
X3486400Y-21504500D01*
X3576400Y-21459500D02*
G75*
G03*
X3576400Y-21459500I-45000J0D01*
G01*
D11*
X3875272Y-21350984D02*
X3894320Y-21350984D01*
X3894320Y-21350984D02*
X3913367Y-21360508D01*
X3913367Y-21360508D02*
X3922891Y-21370031D01*
X3922891Y-21370031D02*
X3932415Y-21389079D01*
X3932415Y-21389079D02*
X3941939Y-21427174D01*
X3941939Y-21427174D02*
X3941939Y-21474793D01*
X3941939Y-21474793D02*
X3932415Y-21512889D01*
X3932415Y-21512889D02*
X3922891Y-21531936D01*
X3922891Y-21531936D02*
X3913367Y-21541460D01*
X3913367Y-21541460D02*
X3894320Y-21550984D01*
X3894320Y-21550984D02*
X3875272Y-21550984D01*
X3875272Y-21550984D02*
X3856224Y-21541460D01*
X3856224Y-21541460D02*
X3846701Y-21531936D01*
X3846701Y-21531936D02*
X3837177Y-21512889D01*
X3837177Y-21512889D02*
X3827653Y-21474793D01*
X3827653Y-21474793D02*
X3827653Y-21427174D01*
X3827653Y-21427174D02*
X3837177Y-21389079D01*
X3837177Y-21389079D02*
X3846701Y-21370031D01*
X3846701Y-21370031D02*
X3856224Y-21360508D01*
X3856224Y-21360508D02*
X3875272Y-21350984D01*
X4027653Y-21531936D02*
X4037177Y-21541460D01*
X4037177Y-21541460D02*
X4027653Y-21550984D01*
X4027653Y-21550984D02*
X4018129Y-21541460D01*
X4018129Y-21541460D02*
X4027653Y-21531936D01*
X4027653Y-21531936D02*
X4027653Y-21550984D01*
X4132415Y-21550984D02*
X4170510Y-21550984D01*
X4170510Y-21550984D02*
X4189558Y-21541460D01*
X4189558Y-21541460D02*
X4199082Y-21531936D01*
X4199082Y-21531936D02*
X4218129Y-21503365D01*
X4218129Y-21503365D02*
X4227653Y-21465270D01*
X4227653Y-21465270D02*
X4227653Y-21389079D01*
X4227653Y-21389079D02*
X4218129Y-21370031D01*
X4218129Y-21370031D02*
X4208605Y-21360508D01*
X4208605Y-21360508D02*
X4189558Y-21350984D01*
X4189558Y-21350984D02*
X4151462Y-21350984D01*
X4151462Y-21350984D02*
X4132415Y-21360508D01*
X4132415Y-21360508D02*
X4122891Y-21370031D01*
X4122891Y-21370031D02*
X4113367Y-21389079D01*
X4113367Y-21389079D02*
X4113367Y-21436698D01*
X4113367Y-21436698D02*
X4122891Y-21455746D01*
X4122891Y-21455746D02*
X4132415Y-21465270D01*
X4132415Y-21465270D02*
X4151462Y-21474793D01*
X4151462Y-21474793D02*
X4189558Y-21474793D01*
X4189558Y-21474793D02*
X4208605Y-21465270D01*
X4208605Y-21465270D02*
X4218129Y-21455746D01*
X4218129Y-21455746D02*
X4227653Y-21436698D01*
X4351463Y-21350984D02*
X4370510Y-21350984D01*
X4370510Y-21350984D02*
X4389558Y-21360508D01*
X4389558Y-21360508D02*
X4399082Y-21370031D01*
X4399082Y-21370031D02*
X4408605Y-21389079D01*
X4408605Y-21389079D02*
X4418129Y-21427174D01*
X4418129Y-21427174D02*
X4418129Y-21474793D01*
X4418129Y-21474793D02*
X4408605Y-21512889D01*
X4408605Y-21512889D02*
X4399082Y-21531936D01*
X4399082Y-21531936D02*
X4389558Y-21541460D01*
X4389558Y-21541460D02*
X4370510Y-21550984D01*
X4370510Y-21550984D02*
X4351463Y-21550984D01*
X4351463Y-21550984D02*
X4332415Y-21541460D01*
X4332415Y-21541460D02*
X4322891Y-21531936D01*
X4322891Y-21531936D02*
X4313367Y-21512889D01*
X4313367Y-21512889D02*
X4303844Y-21474793D01*
X4303844Y-21474793D02*
X4303844Y-21427174D01*
X4303844Y-21427174D02*
X4313367Y-21389079D01*
X4313367Y-21389079D02*
X4322891Y-21370031D01*
X4322891Y-21370031D02*
X4332415Y-21360508D01*
X4332415Y-21360508D02*
X4351463Y-21350984D01*
X4541939Y-21350984D02*
X4560986Y-21350984D01*
X4560986Y-21350984D02*
X4580034Y-21360508D01*
X4580034Y-21360508D02*
X4589558Y-21370031D01*
X4589558Y-21370031D02*
X4599082Y-21389079D01*
X4599082Y-21389079D02*
X4608605Y-21427174D01*
X4608605Y-21427174D02*
X4608605Y-21474793D01*
X4608605Y-21474793D02*
X4599082Y-21512889D01*
X4599082Y-21512889D02*
X4589558Y-21531936D01*
X4589558Y-21531936D02*
X4580034Y-21541460D01*
X4580034Y-21541460D02*
X4560986Y-21550984D01*
X4560986Y-21550984D02*
X4541939Y-21550984D01*
X4541939Y-21550984D02*
X4522891Y-21541460D01*
X4522891Y-21541460D02*
X4513367Y-21531936D01*
X4513367Y-21531936D02*
X4503844Y-21512889D01*
X4503844Y-21512889D02*
X4494320Y-21474793D01*
X4494320Y-21474793D02*
X4494320Y-21427174D01*
X4494320Y-21427174D02*
X4503844Y-21389079D01*
X4503844Y-21389079D02*
X4513367Y-21370031D01*
X4513367Y-21370031D02*
X4522891Y-21360508D01*
X4522891Y-21360508D02*
X4541939Y-21350984D01*
X4694320Y-21550984D02*
X4694320Y-21417650D01*
X4694320Y-21436698D02*
X4703844Y-21427174D01*
X4703844Y-21427174D02*
X4722891Y-21417650D01*
X4722891Y-21417650D02*
X4751463Y-21417650D01*
X4751463Y-21417650D02*
X4770510Y-21427174D01*
X4770510Y-21427174D02*
X4780034Y-21446222D01*
X4780034Y-21446222D02*
X4780034Y-21550984D01*
X4780034Y-21446222D02*
X4789558Y-21427174D01*
X4789558Y-21427174D02*
X4808605Y-21417650D01*
X4808605Y-21417650D02*
X4837177Y-21417650D01*
X4837177Y-21417650D02*
X4856225Y-21427174D01*
X4856225Y-21427174D02*
X4865748Y-21446222D01*
X4865748Y-21446222D02*
X4865748Y-21550984D01*
X4960986Y-21550984D02*
X4960986Y-21417650D01*
X4960986Y-21436698D02*
X4970510Y-21427174D01*
X4970510Y-21427174D02*
X4989558Y-21417650D01*
X4989558Y-21417650D02*
X5018129Y-21417650D01*
X5018129Y-21417650D02*
X5037177Y-21427174D01*
X5037177Y-21427174D02*
X5046701Y-21446222D01*
X5046701Y-21446222D02*
X5046701Y-21550984D01*
X5046701Y-21446222D02*
X5056225Y-21427174D01*
X5056225Y-21427174D02*
X5075272Y-21417650D01*
X5075272Y-21417650D02*
X5103844Y-21417650D01*
X5103844Y-21417650D02*
X5122891Y-21427174D01*
X5122891Y-21427174D02*
X5132415Y-21446222D01*
X5132415Y-21446222D02*
X5132415Y-21550984D01*
X5522891Y-21341460D02*
X5351463Y-21598603D01*
X5780034Y-21350984D02*
X5799082Y-21350984D01*
X5799082Y-21350984D02*
X5818129Y-21360508D01*
X5818129Y-21360508D02*
X5827653Y-21370031D01*
X5827653Y-21370031D02*
X5837177Y-21389079D01*
X5837177Y-21389079D02*
X5846701Y-21427174D01*
X5846701Y-21427174D02*
X5846701Y-21474793D01*
X5846701Y-21474793D02*
X5837177Y-21512889D01*
X5837177Y-21512889D02*
X5827653Y-21531936D01*
X5827653Y-21531936D02*
X5818129Y-21541460D01*
X5818129Y-21541460D02*
X5799082Y-21550984D01*
X5799082Y-21550984D02*
X5780034Y-21550984D01*
X5780034Y-21550984D02*
X5760986Y-21541460D01*
X5760986Y-21541460D02*
X5751463Y-21531936D01*
X5751463Y-21531936D02*
X5741939Y-21512889D01*
X5741939Y-21512889D02*
X5732415Y-21474793D01*
X5732415Y-21474793D02*
X5732415Y-21427174D01*
X5732415Y-21427174D02*
X5741939Y-21389079D01*
X5741939Y-21389079D02*
X5751463Y-21370031D01*
X5751463Y-21370031D02*
X5760986Y-21360508D01*
X5760986Y-21360508D02*
X5780034Y-21350984D01*
X5932415Y-21531936D02*
X5941939Y-21541460D01*
X5941939Y-21541460D02*
X5932415Y-21550984D01*
X5932415Y-21550984D02*
X5922891Y-21541460D01*
X5922891Y-21541460D02*
X5932415Y-21531936D01*
X5932415Y-21531936D02*
X5932415Y-21550984D01*
X6065748Y-21350984D02*
X6084796Y-21350984D01*
X6084796Y-21350984D02*
X6103844Y-21360508D01*
X6103844Y-21360508D02*
X6113367Y-21370031D01*
X6113367Y-21370031D02*
X6122891Y-21389079D01*
X6122891Y-21389079D02*
X6132415Y-21427174D01*
X6132415Y-21427174D02*
X6132415Y-21474793D01*
X6132415Y-21474793D02*
X6122891Y-21512889D01*
X6122891Y-21512889D02*
X6113367Y-21531936D01*
X6113367Y-21531936D02*
X6103844Y-21541460D01*
X6103844Y-21541460D02*
X6084796Y-21550984D01*
X6084796Y-21550984D02*
X6065748Y-21550984D01*
X6065748Y-21550984D02*
X6046701Y-21541460D01*
X6046701Y-21541460D02*
X6037177Y-21531936D01*
X6037177Y-21531936D02*
X6027653Y-21512889D01*
X6027653Y-21512889D02*
X6018129Y-21474793D01*
X6018129Y-21474793D02*
X6018129Y-21427174D01*
X6018129Y-21427174D02*
X6027653Y-21389079D01*
X6027653Y-21389079D02*
X6037177Y-21370031D01*
X6037177Y-21370031D02*
X6046701Y-21360508D01*
X6046701Y-21360508D02*
X6065748Y-21350984D01*
X6199082Y-21350984D02*
X6322891Y-21350984D01*
X6322891Y-21350984D02*
X6256225Y-21427174D01*
X6256225Y-21427174D02*
X6284796Y-21427174D01*
X6284796Y-21427174D02*
X6303844Y-21436698D01*
X6303844Y-21436698D02*
X6313367Y-21446222D01*
X6313367Y-21446222D02*
X6322891Y-21465270D01*
X6322891Y-21465270D02*
X6322891Y-21512889D01*
X6322891Y-21512889D02*
X6313367Y-21531936D01*
X6313367Y-21531936D02*
X6303844Y-21541460D01*
X6303844Y-21541460D02*
X6284796Y-21550984D01*
X6284796Y-21550984D02*
X6227653Y-21550984D01*
X6227653Y-21550984D02*
X6208606Y-21541460D01*
X6208606Y-21541460D02*
X6199082Y-21531936D01*
X6503844Y-21350984D02*
X6408606Y-21350984D01*
X6408606Y-21350984D02*
X6399082Y-21446222D01*
X6399082Y-21446222D02*
X6408606Y-21436698D01*
X6408606Y-21436698D02*
X6427653Y-21427174D01*
X6427653Y-21427174D02*
X6475272Y-21427174D01*
X6475272Y-21427174D02*
X6494320Y-21436698D01*
X6494320Y-21436698D02*
X6503844Y-21446222D01*
X6503844Y-21446222D02*
X6513367Y-21465270D01*
X6513367Y-21465270D02*
X6513367Y-21512889D01*
X6513367Y-21512889D02*
X6503844Y-21531936D01*
X6503844Y-21531936D02*
X6494320Y-21541460D01*
X6494320Y-21541460D02*
X6475272Y-21550984D01*
X6475272Y-21550984D02*
X6427653Y-21550984D01*
X6427653Y-21550984D02*
X6408606Y-21541460D01*
X6408606Y-21541460D02*
X6399082Y-21531936D01*
X6684796Y-21417650D02*
X6684796Y-21550984D01*
X6637177Y-21341460D02*
X6589558Y-21484317D01*
X6589558Y-21484317D02*
X6713367Y-21484317D01*
X6780034Y-21350984D02*
X6780034Y-21389079D01*
X6856225Y-21350984D02*
X6856225Y-21389079D01*
X7151463Y-21627174D02*
X7141939Y-21617650D01*
X7141939Y-21617650D02*
X7122891Y-21589079D01*
X7122891Y-21589079D02*
X7113368Y-21570031D01*
X7113368Y-21570031D02*
X7103844Y-21541460D01*
X7103844Y-21541460D02*
X7094320Y-21493841D01*
X7094320Y-21493841D02*
X7094320Y-21455746D01*
X7094320Y-21455746D02*
X7103844Y-21408127D01*
X7103844Y-21408127D02*
X7113368Y-21379555D01*
X7113368Y-21379555D02*
X7122891Y-21360508D01*
X7122891Y-21360508D02*
X7141939Y-21331936D01*
X7141939Y-21331936D02*
X7151463Y-21322412D01*
X7332415Y-21550984D02*
X7218129Y-21550984D01*
X7275272Y-21550984D02*
X7275272Y-21350984D01*
X7275272Y-21350984D02*
X7256225Y-21379555D01*
X7256225Y-21379555D02*
X7237177Y-21398603D01*
X7237177Y-21398603D02*
X7218129Y-21408127D01*
X7456225Y-21350984D02*
X7475272Y-21350984D01*
X7475272Y-21350984D02*
X7494320Y-21360508D01*
X7494320Y-21360508D02*
X7503844Y-21370031D01*
X7503844Y-21370031D02*
X7513368Y-21389079D01*
X7513368Y-21389079D02*
X7522891Y-21427174D01*
X7522891Y-21427174D02*
X7522891Y-21474793D01*
X7522891Y-21474793D02*
X7513368Y-21512889D01*
X7513368Y-21512889D02*
X7503844Y-21531936D01*
X7503844Y-21531936D02*
X7494320Y-21541460D01*
X7494320Y-21541460D02*
X7475272Y-21550984D01*
X7475272Y-21550984D02*
X7456225Y-21550984D01*
X7456225Y-21550984D02*
X7437177Y-21541460D01*
X7437177Y-21541460D02*
X7427653Y-21531936D01*
X7427653Y-21531936D02*
X7418129Y-21512889D01*
X7418129Y-21512889D02*
X7408606Y-21474793D01*
X7408606Y-21474793D02*
X7408606Y-21427174D01*
X7408606Y-21427174D02*
X7418129Y-21389079D01*
X7418129Y-21389079D02*
X7427653Y-21370031D01*
X7427653Y-21370031D02*
X7437177Y-21360508D01*
X7437177Y-21360508D02*
X7456225Y-21350984D01*
X7760987Y-21550984D02*
X7760987Y-21350984D01*
X7846701Y-21550984D02*
X7846701Y-21446222D01*
X7846701Y-21446222D02*
X7837177Y-21427174D01*
X7837177Y-21427174D02*
X7818130Y-21417650D01*
X7818130Y-21417650D02*
X7789558Y-21417650D01*
X7789558Y-21417650D02*
X7770510Y-21427174D01*
X7770510Y-21427174D02*
X7760987Y-21436698D01*
X7970510Y-21550984D02*
X7951463Y-21541460D01*
X7951463Y-21541460D02*
X7941939Y-21531936D01*
X7941939Y-21531936D02*
X7932415Y-21512889D01*
X7932415Y-21512889D02*
X7932415Y-21455746D01*
X7932415Y-21455746D02*
X7941939Y-21436698D01*
X7941939Y-21436698D02*
X7951463Y-21427174D01*
X7951463Y-21427174D02*
X7970510Y-21417650D01*
X7970510Y-21417650D02*
X7999082Y-21417650D01*
X7999082Y-21417650D02*
X8018130Y-21427174D01*
X8018130Y-21427174D02*
X8027653Y-21436698D01*
X8027653Y-21436698D02*
X8037177Y-21455746D01*
X8037177Y-21455746D02*
X8037177Y-21512889D01*
X8037177Y-21512889D02*
X8027653Y-21531936D01*
X8027653Y-21531936D02*
X8018130Y-21541460D01*
X8018130Y-21541460D02*
X7999082Y-21550984D01*
X7999082Y-21550984D02*
X7970510Y-21550984D01*
X8151463Y-21550984D02*
X8132415Y-21541460D01*
X8132415Y-21541460D02*
X8122891Y-21522412D01*
X8122891Y-21522412D02*
X8122891Y-21350984D01*
X8303844Y-21541460D02*
X8284796Y-21550984D01*
X8284796Y-21550984D02*
X8246701Y-21550984D01*
X8246701Y-21550984D02*
X8227653Y-21541460D01*
X8227653Y-21541460D02*
X8218130Y-21522412D01*
X8218130Y-21522412D02*
X8218130Y-21446222D01*
X8218130Y-21446222D02*
X8227653Y-21427174D01*
X8227653Y-21427174D02*
X8246701Y-21417650D01*
X8246701Y-21417650D02*
X8284796Y-21417650D01*
X8284796Y-21417650D02*
X8303844Y-21427174D01*
X8303844Y-21427174D02*
X8313368Y-21446222D01*
X8313368Y-21446222D02*
X8313368Y-21465270D01*
X8313368Y-21465270D02*
X8218130Y-21484317D01*
X8389558Y-21541460D02*
X8408606Y-21550984D01*
X8408606Y-21550984D02*
X8446701Y-21550984D01*
X8446701Y-21550984D02*
X8465749Y-21541460D01*
X8465749Y-21541460D02*
X8475273Y-21522412D01*
X8475273Y-21522412D02*
X8475273Y-21512889D01*
X8475273Y-21512889D02*
X8465749Y-21493841D01*
X8465749Y-21493841D02*
X8446701Y-21484317D01*
X8446701Y-21484317D02*
X8418130Y-21484317D01*
X8418130Y-21484317D02*
X8399082Y-21474793D01*
X8399082Y-21474793D02*
X8389558Y-21455746D01*
X8389558Y-21455746D02*
X8389558Y-21446222D01*
X8389558Y-21446222D02*
X8399082Y-21427174D01*
X8399082Y-21427174D02*
X8418130Y-21417650D01*
X8418130Y-21417650D02*
X8446701Y-21417650D01*
X8446701Y-21417650D02*
X8465749Y-21427174D01*
X8541939Y-21627174D02*
X8551463Y-21617650D01*
X8551463Y-21617650D02*
X8570511Y-21589079D01*
X8570511Y-21589079D02*
X8580034Y-21570031D01*
X8580034Y-21570031D02*
X8589558Y-21541460D01*
X8589558Y-21541460D02*
X8599082Y-21493841D01*
X8599082Y-21493841D02*
X8599082Y-21455746D01*
X8599082Y-21455746D02*
X8589558Y-21408127D01*
X8589558Y-21408127D02*
X8580034Y-21379555D01*
X8580034Y-21379555D02*
X8570511Y-21360508D01*
X8570511Y-21360508D02*
X8551463Y-21331936D01*
X8551463Y-21331936D02*
X8541939Y-21322412D01*
D10*
X3476400Y-21673500D02*
X3576400Y-21773500D01*
X3576400Y-21673500D02*
X3476400Y-21773500D01*
X3526400Y-21673500D02*
X3526400Y-21773500D01*
X3476400Y-21723500D02*
X3576400Y-21723500D01*
D11*
X3941939Y-21814984D02*
X3827653Y-21814984D01*
X3884796Y-21814984D02*
X3884796Y-21614984D01*
X3884796Y-21614984D02*
X3865748Y-21643555D01*
X3865748Y-21643555D02*
X3846701Y-21662603D01*
X3846701Y-21662603D02*
X3827653Y-21672127D01*
X4027653Y-21795936D02*
X4037177Y-21805460D01*
X4037177Y-21805460D02*
X4027653Y-21814984D01*
X4027653Y-21814984D02*
X4018129Y-21805460D01*
X4018129Y-21805460D02*
X4027653Y-21795936D01*
X4027653Y-21795936D02*
X4027653Y-21814984D01*
X4160986Y-21614984D02*
X4180034Y-21614984D01*
X4180034Y-21614984D02*
X4199082Y-21624508D01*
X4199082Y-21624508D02*
X4208605Y-21634031D01*
X4208605Y-21634031D02*
X4218129Y-21653079D01*
X4218129Y-21653079D02*
X4227653Y-21691174D01*
X4227653Y-21691174D02*
X4227653Y-21738793D01*
X4227653Y-21738793D02*
X4218129Y-21776889D01*
X4218129Y-21776889D02*
X4208605Y-21795936D01*
X4208605Y-21795936D02*
X4199082Y-21805460D01*
X4199082Y-21805460D02*
X4180034Y-21814984D01*
X4180034Y-21814984D02*
X4160986Y-21814984D01*
X4160986Y-21814984D02*
X4141939Y-21805460D01*
X4141939Y-21805460D02*
X4132415Y-21795936D01*
X4132415Y-21795936D02*
X4122891Y-21776889D01*
X4122891Y-21776889D02*
X4113367Y-21738793D01*
X4113367Y-21738793D02*
X4113367Y-21691174D01*
X4113367Y-21691174D02*
X4122891Y-21653079D01*
X4122891Y-21653079D02*
X4132415Y-21634031D01*
X4132415Y-21634031D02*
X4141939Y-21624508D01*
X4141939Y-21624508D02*
X4160986Y-21614984D01*
X4351463Y-21614984D02*
X4370510Y-21614984D01*
X4370510Y-21614984D02*
X4389558Y-21624508D01*
X4389558Y-21624508D02*
X4399082Y-21634031D01*
X4399082Y-21634031D02*
X4408605Y-21653079D01*
X4408605Y-21653079D02*
X4418129Y-21691174D01*
X4418129Y-21691174D02*
X4418129Y-21738793D01*
X4418129Y-21738793D02*
X4408605Y-21776889D01*
X4408605Y-21776889D02*
X4399082Y-21795936D01*
X4399082Y-21795936D02*
X4389558Y-21805460D01*
X4389558Y-21805460D02*
X4370510Y-21814984D01*
X4370510Y-21814984D02*
X4351463Y-21814984D01*
X4351463Y-21814984D02*
X4332415Y-21805460D01*
X4332415Y-21805460D02*
X4322891Y-21795936D01*
X4322891Y-21795936D02*
X4313367Y-21776889D01*
X4313367Y-21776889D02*
X4303844Y-21738793D01*
X4303844Y-21738793D02*
X4303844Y-21691174D01*
X4303844Y-21691174D02*
X4313367Y-21653079D01*
X4313367Y-21653079D02*
X4322891Y-21634031D01*
X4322891Y-21634031D02*
X4332415Y-21624508D01*
X4332415Y-21624508D02*
X4351463Y-21614984D01*
X4541939Y-21614984D02*
X4560986Y-21614984D01*
X4560986Y-21614984D02*
X4580034Y-21624508D01*
X4580034Y-21624508D02*
X4589558Y-21634031D01*
X4589558Y-21634031D02*
X4599082Y-21653079D01*
X4599082Y-21653079D02*
X4608605Y-21691174D01*
X4608605Y-21691174D02*
X4608605Y-21738793D01*
X4608605Y-21738793D02*
X4599082Y-21776889D01*
X4599082Y-21776889D02*
X4589558Y-21795936D01*
X4589558Y-21795936D02*
X4580034Y-21805460D01*
X4580034Y-21805460D02*
X4560986Y-21814984D01*
X4560986Y-21814984D02*
X4541939Y-21814984D01*
X4541939Y-21814984D02*
X4522891Y-21805460D01*
X4522891Y-21805460D02*
X4513367Y-21795936D01*
X4513367Y-21795936D02*
X4503844Y-21776889D01*
X4503844Y-21776889D02*
X4494320Y-21738793D01*
X4494320Y-21738793D02*
X4494320Y-21691174D01*
X4494320Y-21691174D02*
X4503844Y-21653079D01*
X4503844Y-21653079D02*
X4513367Y-21634031D01*
X4513367Y-21634031D02*
X4522891Y-21624508D01*
X4522891Y-21624508D02*
X4541939Y-21614984D01*
X4694320Y-21814984D02*
X4694320Y-21681650D01*
X4694320Y-21700698D02*
X4703844Y-21691174D01*
X4703844Y-21691174D02*
X4722891Y-21681650D01*
X4722891Y-21681650D02*
X4751463Y-21681650D01*
X4751463Y-21681650D02*
X4770510Y-21691174D01*
X4770510Y-21691174D02*
X4780034Y-21710222D01*
X4780034Y-21710222D02*
X4780034Y-21814984D01*
X4780034Y-21710222D02*
X4789558Y-21691174D01*
X4789558Y-21691174D02*
X4808605Y-21681650D01*
X4808605Y-21681650D02*
X4837177Y-21681650D01*
X4837177Y-21681650D02*
X4856225Y-21691174D01*
X4856225Y-21691174D02*
X4865748Y-21710222D01*
X4865748Y-21710222D02*
X4865748Y-21814984D01*
X4960986Y-21814984D02*
X4960986Y-21681650D01*
X4960986Y-21700698D02*
X4970510Y-21691174D01*
X4970510Y-21691174D02*
X4989558Y-21681650D01*
X4989558Y-21681650D02*
X5018129Y-21681650D01*
X5018129Y-21681650D02*
X5037177Y-21691174D01*
X5037177Y-21691174D02*
X5046701Y-21710222D01*
X5046701Y-21710222D02*
X5046701Y-21814984D01*
X5046701Y-21710222D02*
X5056225Y-21691174D01*
X5056225Y-21691174D02*
X5075272Y-21681650D01*
X5075272Y-21681650D02*
X5103844Y-21681650D01*
X5103844Y-21681650D02*
X5122891Y-21691174D01*
X5122891Y-21691174D02*
X5132415Y-21710222D01*
X5132415Y-21710222D02*
X5132415Y-21814984D01*
X5522891Y-21605460D02*
X5351463Y-21862603D01*
X5780034Y-21614984D02*
X5799082Y-21614984D01*
X5799082Y-21614984D02*
X5818129Y-21624508D01*
X5818129Y-21624508D02*
X5827653Y-21634031D01*
X5827653Y-21634031D02*
X5837177Y-21653079D01*
X5837177Y-21653079D02*
X5846701Y-21691174D01*
X5846701Y-21691174D02*
X5846701Y-21738793D01*
X5846701Y-21738793D02*
X5837177Y-21776889D01*
X5837177Y-21776889D02*
X5827653Y-21795936D01*
X5827653Y-21795936D02*
X5818129Y-21805460D01*
X5818129Y-21805460D02*
X5799082Y-21814984D01*
X5799082Y-21814984D02*
X5780034Y-21814984D01*
X5780034Y-21814984D02*
X5760986Y-21805460D01*
X5760986Y-21805460D02*
X5751463Y-21795936D01*
X5751463Y-21795936D02*
X5741939Y-21776889D01*
X5741939Y-21776889D02*
X5732415Y-21738793D01*
X5732415Y-21738793D02*
X5732415Y-21691174D01*
X5732415Y-21691174D02*
X5741939Y-21653079D01*
X5741939Y-21653079D02*
X5751463Y-21634031D01*
X5751463Y-21634031D02*
X5760986Y-21624508D01*
X5760986Y-21624508D02*
X5780034Y-21614984D01*
X5932415Y-21795936D02*
X5941939Y-21805460D01*
X5941939Y-21805460D02*
X5932415Y-21814984D01*
X5932415Y-21814984D02*
X5922891Y-21805460D01*
X5922891Y-21805460D02*
X5932415Y-21795936D01*
X5932415Y-21795936D02*
X5932415Y-21814984D01*
X6065748Y-21614984D02*
X6084796Y-21614984D01*
X6084796Y-21614984D02*
X6103844Y-21624508D01*
X6103844Y-21624508D02*
X6113367Y-21634031D01*
X6113367Y-21634031D02*
X6122891Y-21653079D01*
X6122891Y-21653079D02*
X6132415Y-21691174D01*
X6132415Y-21691174D02*
X6132415Y-21738793D01*
X6132415Y-21738793D02*
X6122891Y-21776889D01*
X6122891Y-21776889D02*
X6113367Y-21795936D01*
X6113367Y-21795936D02*
X6103844Y-21805460D01*
X6103844Y-21805460D02*
X6084796Y-21814984D01*
X6084796Y-21814984D02*
X6065748Y-21814984D01*
X6065748Y-21814984D02*
X6046701Y-21805460D01*
X6046701Y-21805460D02*
X6037177Y-21795936D01*
X6037177Y-21795936D02*
X6027653Y-21776889D01*
X6027653Y-21776889D02*
X6018129Y-21738793D01*
X6018129Y-21738793D02*
X6018129Y-21691174D01*
X6018129Y-21691174D02*
X6027653Y-21653079D01*
X6027653Y-21653079D02*
X6037177Y-21634031D01*
X6037177Y-21634031D02*
X6046701Y-21624508D01*
X6046701Y-21624508D02*
X6065748Y-21614984D01*
X6199082Y-21614984D02*
X6322891Y-21614984D01*
X6322891Y-21614984D02*
X6256225Y-21691174D01*
X6256225Y-21691174D02*
X6284796Y-21691174D01*
X6284796Y-21691174D02*
X6303844Y-21700698D01*
X6303844Y-21700698D02*
X6313367Y-21710222D01*
X6313367Y-21710222D02*
X6322891Y-21729270D01*
X6322891Y-21729270D02*
X6322891Y-21776889D01*
X6322891Y-21776889D02*
X6313367Y-21795936D01*
X6313367Y-21795936D02*
X6303844Y-21805460D01*
X6303844Y-21805460D02*
X6284796Y-21814984D01*
X6284796Y-21814984D02*
X6227653Y-21814984D01*
X6227653Y-21814984D02*
X6208606Y-21805460D01*
X6208606Y-21805460D02*
X6199082Y-21795936D01*
X6418129Y-21814984D02*
X6456225Y-21814984D01*
X6456225Y-21814984D02*
X6475272Y-21805460D01*
X6475272Y-21805460D02*
X6484796Y-21795936D01*
X6484796Y-21795936D02*
X6503844Y-21767365D01*
X6503844Y-21767365D02*
X6513367Y-21729270D01*
X6513367Y-21729270D02*
X6513367Y-21653079D01*
X6513367Y-21653079D02*
X6503844Y-21634031D01*
X6503844Y-21634031D02*
X6494320Y-21624508D01*
X6494320Y-21624508D02*
X6475272Y-21614984D01*
X6475272Y-21614984D02*
X6437177Y-21614984D01*
X6437177Y-21614984D02*
X6418129Y-21624508D01*
X6418129Y-21624508D02*
X6408606Y-21634031D01*
X6408606Y-21634031D02*
X6399082Y-21653079D01*
X6399082Y-21653079D02*
X6399082Y-21700698D01*
X6399082Y-21700698D02*
X6408606Y-21719746D01*
X6408606Y-21719746D02*
X6418129Y-21729270D01*
X6418129Y-21729270D02*
X6437177Y-21738793D01*
X6437177Y-21738793D02*
X6475272Y-21738793D01*
X6475272Y-21738793D02*
X6494320Y-21729270D01*
X6494320Y-21729270D02*
X6503844Y-21719746D01*
X6503844Y-21719746D02*
X6513367Y-21700698D01*
X6684796Y-21681650D02*
X6684796Y-21814984D01*
X6637177Y-21605460D02*
X6589558Y-21748317D01*
X6589558Y-21748317D02*
X6713367Y-21748317D01*
X6780034Y-21614984D02*
X6780034Y-21653079D01*
X6856225Y-21614984D02*
X6856225Y-21653079D01*
X7151463Y-21891174D02*
X7141939Y-21881650D01*
X7141939Y-21881650D02*
X7122891Y-21853079D01*
X7122891Y-21853079D02*
X7113368Y-21834031D01*
X7113368Y-21834031D02*
X7103844Y-21805460D01*
X7103844Y-21805460D02*
X7094320Y-21757841D01*
X7094320Y-21757841D02*
X7094320Y-21719746D01*
X7094320Y-21719746D02*
X7103844Y-21672127D01*
X7103844Y-21672127D02*
X7113368Y-21643555D01*
X7113368Y-21643555D02*
X7122891Y-21624508D01*
X7122891Y-21624508D02*
X7141939Y-21595936D01*
X7141939Y-21595936D02*
X7151463Y-21586412D01*
X7322891Y-21614984D02*
X7227653Y-21614984D01*
X7227653Y-21614984D02*
X7218129Y-21710222D01*
X7218129Y-21710222D02*
X7227653Y-21700698D01*
X7227653Y-21700698D02*
X7246701Y-21691174D01*
X7246701Y-21691174D02*
X7294320Y-21691174D01*
X7294320Y-21691174D02*
X7313368Y-21700698D01*
X7313368Y-21700698D02*
X7322891Y-21710222D01*
X7322891Y-21710222D02*
X7332415Y-21729270D01*
X7332415Y-21729270D02*
X7332415Y-21776889D01*
X7332415Y-21776889D02*
X7322891Y-21795936D01*
X7322891Y-21795936D02*
X7313368Y-21805460D01*
X7313368Y-21805460D02*
X7294320Y-21814984D01*
X7294320Y-21814984D02*
X7246701Y-21814984D01*
X7246701Y-21814984D02*
X7227653Y-21805460D01*
X7227653Y-21805460D02*
X7218129Y-21795936D01*
X7399082Y-21614984D02*
X7532415Y-21614984D01*
X7532415Y-21614984D02*
X7446701Y-21814984D01*
X7760987Y-21814984D02*
X7760987Y-21614984D01*
X7846701Y-21814984D02*
X7846701Y-21710222D01*
X7846701Y-21710222D02*
X7837177Y-21691174D01*
X7837177Y-21691174D02*
X7818130Y-21681650D01*
X7818130Y-21681650D02*
X7789558Y-21681650D01*
X7789558Y-21681650D02*
X7770510Y-21691174D01*
X7770510Y-21691174D02*
X7760987Y-21700698D01*
X7970510Y-21814984D02*
X7951463Y-21805460D01*
X7951463Y-21805460D02*
X7941939Y-21795936D01*
X7941939Y-21795936D02*
X7932415Y-21776889D01*
X7932415Y-21776889D02*
X7932415Y-21719746D01*
X7932415Y-21719746D02*
X7941939Y-21700698D01*
X7941939Y-21700698D02*
X7951463Y-21691174D01*
X7951463Y-21691174D02*
X7970510Y-21681650D01*
X7970510Y-21681650D02*
X7999082Y-21681650D01*
X7999082Y-21681650D02*
X8018130Y-21691174D01*
X8018130Y-21691174D02*
X8027653Y-21700698D01*
X8027653Y-21700698D02*
X8037177Y-21719746D01*
X8037177Y-21719746D02*
X8037177Y-21776889D01*
X8037177Y-21776889D02*
X8027653Y-21795936D01*
X8027653Y-21795936D02*
X8018130Y-21805460D01*
X8018130Y-21805460D02*
X7999082Y-21814984D01*
X7999082Y-21814984D02*
X7970510Y-21814984D01*
X8151463Y-21814984D02*
X8132415Y-21805460D01*
X8132415Y-21805460D02*
X8122891Y-21786412D01*
X8122891Y-21786412D02*
X8122891Y-21614984D01*
X8303844Y-21805460D02*
X8284796Y-21814984D01*
X8284796Y-21814984D02*
X8246701Y-21814984D01*
X8246701Y-21814984D02*
X8227653Y-21805460D01*
X8227653Y-21805460D02*
X8218130Y-21786412D01*
X8218130Y-21786412D02*
X8218130Y-21710222D01*
X8218130Y-21710222D02*
X8227653Y-21691174D01*
X8227653Y-21691174D02*
X8246701Y-21681650D01*
X8246701Y-21681650D02*
X8284796Y-21681650D01*
X8284796Y-21681650D02*
X8303844Y-21691174D01*
X8303844Y-21691174D02*
X8313368Y-21710222D01*
X8313368Y-21710222D02*
X8313368Y-21729270D01*
X8313368Y-21729270D02*
X8218130Y-21748317D01*
X8389558Y-21805460D02*
X8408606Y-21814984D01*
X8408606Y-21814984D02*
X8446701Y-21814984D01*
X8446701Y-21814984D02*
X8465749Y-21805460D01*
X8465749Y-21805460D02*
X8475273Y-21786412D01*
X8475273Y-21786412D02*
X8475273Y-21776889D01*
X8475273Y-21776889D02*
X8465749Y-21757841D01*
X8465749Y-21757841D02*
X8446701Y-21748317D01*
X8446701Y-21748317D02*
X8418130Y-21748317D01*
X8418130Y-21748317D02*
X8399082Y-21738793D01*
X8399082Y-21738793D02*
X8389558Y-21719746D01*
X8389558Y-21719746D02*
X8389558Y-21710222D01*
X8389558Y-21710222D02*
X8399082Y-21691174D01*
X8399082Y-21691174D02*
X8418130Y-21681650D01*
X8418130Y-21681650D02*
X8446701Y-21681650D01*
X8446701Y-21681650D02*
X8465749Y-21691174D01*
X8541939Y-21891174D02*
X8551463Y-21881650D01*
X8551463Y-21881650D02*
X8570511Y-21853079D01*
X8570511Y-21853079D02*
X8580034Y-21834031D01*
X8580034Y-21834031D02*
X8589558Y-21805460D01*
X8589558Y-21805460D02*
X8599082Y-21757841D01*
X8599082Y-21757841D02*
X8599082Y-21719746D01*
X8599082Y-21719746D02*
X8589558Y-21672127D01*
X8589558Y-21672127D02*
X8580034Y-21643555D01*
X8580034Y-21643555D02*
X8570511Y-21624508D01*
X8570511Y-21624508D02*
X8551463Y-21595936D01*
X8551463Y-21595936D02*
X8541939Y-21586412D01*
D17*
X3466400Y-21932500D02*
X3576400Y-22042500D01*
X3576400Y-21932500D02*
X3466400Y-22042500D01*
X3560291Y-22026391D02*
X3560291Y-21948609D01*
X3482509Y-21948609D01*
X3482509Y-22026391D01*
X3560291Y-22026391D01*
D11*
X3941939Y-22078984D02*
X3827653Y-22078984D01*
X3884796Y-22078984D02*
X3884796Y-21878984D01*
X3884796Y-21878984D02*
X3865748Y-21907555D01*
X3865748Y-21907555D02*
X3846701Y-21926603D01*
X3846701Y-21926603D02*
X3827653Y-21936127D01*
X4027653Y-22059936D02*
X4037177Y-22069460D01*
X4037177Y-22069460D02*
X4027653Y-22078984D01*
X4027653Y-22078984D02*
X4018129Y-22069460D01*
X4018129Y-22069460D02*
X4027653Y-22059936D01*
X4027653Y-22059936D02*
X4027653Y-22078984D01*
X4227653Y-22078984D02*
X4113367Y-22078984D01*
X4170510Y-22078984D02*
X4170510Y-21878984D01*
X4170510Y-21878984D02*
X4151462Y-21907555D01*
X4151462Y-21907555D02*
X4132415Y-21926603D01*
X4132415Y-21926603D02*
X4113367Y-21936127D01*
X4351463Y-21878984D02*
X4370510Y-21878984D01*
X4370510Y-21878984D02*
X4389558Y-21888508D01*
X4389558Y-21888508D02*
X4399082Y-21898031D01*
X4399082Y-21898031D02*
X4408605Y-21917079D01*
X4408605Y-21917079D02*
X4418129Y-21955174D01*
X4418129Y-21955174D02*
X4418129Y-22002793D01*
X4418129Y-22002793D02*
X4408605Y-22040889D01*
X4408605Y-22040889D02*
X4399082Y-22059936D01*
X4399082Y-22059936D02*
X4389558Y-22069460D01*
X4389558Y-22069460D02*
X4370510Y-22078984D01*
X4370510Y-22078984D02*
X4351463Y-22078984D01*
X4351463Y-22078984D02*
X4332415Y-22069460D01*
X4332415Y-22069460D02*
X4322891Y-22059936D01*
X4322891Y-22059936D02*
X4313367Y-22040889D01*
X4313367Y-22040889D02*
X4303844Y-22002793D01*
X4303844Y-22002793D02*
X4303844Y-21955174D01*
X4303844Y-21955174D02*
X4313367Y-21917079D01*
X4313367Y-21917079D02*
X4322891Y-21898031D01*
X4322891Y-21898031D02*
X4332415Y-21888508D01*
X4332415Y-21888508D02*
X4351463Y-21878984D01*
X4541939Y-21878984D02*
X4560986Y-21878984D01*
X4560986Y-21878984D02*
X4580034Y-21888508D01*
X4580034Y-21888508D02*
X4589558Y-21898031D01*
X4589558Y-21898031D02*
X4599082Y-21917079D01*
X4599082Y-21917079D02*
X4608605Y-21955174D01*
X4608605Y-21955174D02*
X4608605Y-22002793D01*
X4608605Y-22002793D02*
X4599082Y-22040889D01*
X4599082Y-22040889D02*
X4589558Y-22059936D01*
X4589558Y-22059936D02*
X4580034Y-22069460D01*
X4580034Y-22069460D02*
X4560986Y-22078984D01*
X4560986Y-22078984D02*
X4541939Y-22078984D01*
X4541939Y-22078984D02*
X4522891Y-22069460D01*
X4522891Y-22069460D02*
X4513367Y-22059936D01*
X4513367Y-22059936D02*
X4503844Y-22040889D01*
X4503844Y-22040889D02*
X4494320Y-22002793D01*
X4494320Y-22002793D02*
X4494320Y-21955174D01*
X4494320Y-21955174D02*
X4503844Y-21917079D01*
X4503844Y-21917079D02*
X4513367Y-21898031D01*
X4513367Y-21898031D02*
X4522891Y-21888508D01*
X4522891Y-21888508D02*
X4541939Y-21878984D01*
X4694320Y-22078984D02*
X4694320Y-21945650D01*
X4694320Y-21964698D02*
X4703844Y-21955174D01*
X4703844Y-21955174D02*
X4722891Y-21945650D01*
X4722891Y-21945650D02*
X4751463Y-21945650D01*
X4751463Y-21945650D02*
X4770510Y-21955174D01*
X4770510Y-21955174D02*
X4780034Y-21974222D01*
X4780034Y-21974222D02*
X4780034Y-22078984D01*
X4780034Y-21974222D02*
X4789558Y-21955174D01*
X4789558Y-21955174D02*
X4808605Y-21945650D01*
X4808605Y-21945650D02*
X4837177Y-21945650D01*
X4837177Y-21945650D02*
X4856225Y-21955174D01*
X4856225Y-21955174D02*
X4865748Y-21974222D01*
X4865748Y-21974222D02*
X4865748Y-22078984D01*
X4960986Y-22078984D02*
X4960986Y-21945650D01*
X4960986Y-21964698D02*
X4970510Y-21955174D01*
X4970510Y-21955174D02*
X4989558Y-21945650D01*
X4989558Y-21945650D02*
X5018129Y-21945650D01*
X5018129Y-21945650D02*
X5037177Y-21955174D01*
X5037177Y-21955174D02*
X5046701Y-21974222D01*
X5046701Y-21974222D02*
X5046701Y-22078984D01*
X5046701Y-21974222D02*
X5056225Y-21955174D01*
X5056225Y-21955174D02*
X5075272Y-21945650D01*
X5075272Y-21945650D02*
X5103844Y-21945650D01*
X5103844Y-21945650D02*
X5122891Y-21955174D01*
X5122891Y-21955174D02*
X5132415Y-21974222D01*
X5132415Y-21974222D02*
X5132415Y-22078984D01*
X5522891Y-21869460D02*
X5351463Y-22126603D01*
X5780034Y-21878984D02*
X5799082Y-21878984D01*
X5799082Y-21878984D02*
X5818129Y-21888508D01*
X5818129Y-21888508D02*
X5827653Y-21898031D01*
X5827653Y-21898031D02*
X5837177Y-21917079D01*
X5837177Y-21917079D02*
X5846701Y-21955174D01*
X5846701Y-21955174D02*
X5846701Y-22002793D01*
X5846701Y-22002793D02*
X5837177Y-22040889D01*
X5837177Y-22040889D02*
X5827653Y-22059936D01*
X5827653Y-22059936D02*
X5818129Y-22069460D01*
X5818129Y-22069460D02*
X5799082Y-22078984D01*
X5799082Y-22078984D02*
X5780034Y-22078984D01*
X5780034Y-22078984D02*
X5760986Y-22069460D01*
X5760986Y-22069460D02*
X5751463Y-22059936D01*
X5751463Y-22059936D02*
X5741939Y-22040889D01*
X5741939Y-22040889D02*
X5732415Y-22002793D01*
X5732415Y-22002793D02*
X5732415Y-21955174D01*
X5732415Y-21955174D02*
X5741939Y-21917079D01*
X5741939Y-21917079D02*
X5751463Y-21898031D01*
X5751463Y-21898031D02*
X5760986Y-21888508D01*
X5760986Y-21888508D02*
X5780034Y-21878984D01*
X5932415Y-22059936D02*
X5941939Y-22069460D01*
X5941939Y-22069460D02*
X5932415Y-22078984D01*
X5932415Y-22078984D02*
X5922891Y-22069460D01*
X5922891Y-22069460D02*
X5932415Y-22059936D01*
X5932415Y-22059936D02*
X5932415Y-22078984D01*
X6065748Y-21878984D02*
X6084796Y-21878984D01*
X6084796Y-21878984D02*
X6103844Y-21888508D01*
X6103844Y-21888508D02*
X6113367Y-21898031D01*
X6113367Y-21898031D02*
X6122891Y-21917079D01*
X6122891Y-21917079D02*
X6132415Y-21955174D01*
X6132415Y-21955174D02*
X6132415Y-22002793D01*
X6132415Y-22002793D02*
X6122891Y-22040889D01*
X6122891Y-22040889D02*
X6113367Y-22059936D01*
X6113367Y-22059936D02*
X6103844Y-22069460D01*
X6103844Y-22069460D02*
X6084796Y-22078984D01*
X6084796Y-22078984D02*
X6065748Y-22078984D01*
X6065748Y-22078984D02*
X6046701Y-22069460D01*
X6046701Y-22069460D02*
X6037177Y-22059936D01*
X6037177Y-22059936D02*
X6027653Y-22040889D01*
X6027653Y-22040889D02*
X6018129Y-22002793D01*
X6018129Y-22002793D02*
X6018129Y-21955174D01*
X6018129Y-21955174D02*
X6027653Y-21917079D01*
X6027653Y-21917079D02*
X6037177Y-21898031D01*
X6037177Y-21898031D02*
X6046701Y-21888508D01*
X6046701Y-21888508D02*
X6065748Y-21878984D01*
X6303844Y-21945650D02*
X6303844Y-22078984D01*
X6256225Y-21869460D02*
X6208606Y-22012317D01*
X6208606Y-22012317D02*
X6332415Y-22012317D01*
X6389558Y-21878984D02*
X6513367Y-21878984D01*
X6513367Y-21878984D02*
X6446701Y-21955174D01*
X6446701Y-21955174D02*
X6475272Y-21955174D01*
X6475272Y-21955174D02*
X6494320Y-21964698D01*
X6494320Y-21964698D02*
X6503844Y-21974222D01*
X6503844Y-21974222D02*
X6513367Y-21993270D01*
X6513367Y-21993270D02*
X6513367Y-22040889D01*
X6513367Y-22040889D02*
X6503844Y-22059936D01*
X6503844Y-22059936D02*
X6494320Y-22069460D01*
X6494320Y-22069460D02*
X6475272Y-22078984D01*
X6475272Y-22078984D02*
X6418129Y-22078984D01*
X6418129Y-22078984D02*
X6399082Y-22069460D01*
X6399082Y-22069460D02*
X6389558Y-22059936D01*
X6580034Y-21878984D02*
X6703844Y-21878984D01*
X6703844Y-21878984D02*
X6637177Y-21955174D01*
X6637177Y-21955174D02*
X6665748Y-21955174D01*
X6665748Y-21955174D02*
X6684796Y-21964698D01*
X6684796Y-21964698D02*
X6694320Y-21974222D01*
X6694320Y-21974222D02*
X6703844Y-21993270D01*
X6703844Y-21993270D02*
X6703844Y-22040889D01*
X6703844Y-22040889D02*
X6694320Y-22059936D01*
X6694320Y-22059936D02*
X6684796Y-22069460D01*
X6684796Y-22069460D02*
X6665748Y-22078984D01*
X6665748Y-22078984D02*
X6608606Y-22078984D01*
X6608606Y-22078984D02*
X6589558Y-22069460D01*
X6589558Y-22069460D02*
X6580034Y-22059936D01*
X6780034Y-21878984D02*
X6780034Y-21917079D01*
X6856225Y-21878984D02*
X6856225Y-21917079D01*
X7151463Y-22155174D02*
X7141939Y-22145650D01*
X7141939Y-22145650D02*
X7122891Y-22117079D01*
X7122891Y-22117079D02*
X7113368Y-22098031D01*
X7113368Y-22098031D02*
X7103844Y-22069460D01*
X7103844Y-22069460D02*
X7094320Y-22021841D01*
X7094320Y-22021841D02*
X7094320Y-21983746D01*
X7094320Y-21983746D02*
X7103844Y-21936127D01*
X7103844Y-21936127D02*
X7113368Y-21907555D01*
X7113368Y-21907555D02*
X7122891Y-21888508D01*
X7122891Y-21888508D02*
X7141939Y-21859936D01*
X7141939Y-21859936D02*
X7151463Y-21850412D01*
X7208606Y-21878984D02*
X7332415Y-21878984D01*
X7332415Y-21878984D02*
X7265748Y-21955174D01*
X7265748Y-21955174D02*
X7294320Y-21955174D01*
X7294320Y-21955174D02*
X7313368Y-21964698D01*
X7313368Y-21964698D02*
X7322891Y-21974222D01*
X7322891Y-21974222D02*
X7332415Y-21993270D01*
X7332415Y-21993270D02*
X7332415Y-22040889D01*
X7332415Y-22040889D02*
X7322891Y-22059936D01*
X7322891Y-22059936D02*
X7313368Y-22069460D01*
X7313368Y-22069460D02*
X7294320Y-22078984D01*
X7294320Y-22078984D02*
X7237177Y-22078984D01*
X7237177Y-22078984D02*
X7218129Y-22069460D01*
X7218129Y-22069460D02*
X7208606Y-22059936D01*
X7570510Y-22078984D02*
X7570510Y-21878984D01*
X7656225Y-22078984D02*
X7656225Y-21974222D01*
X7656225Y-21974222D02*
X7646701Y-21955174D01*
X7646701Y-21955174D02*
X7627653Y-21945650D01*
X7627653Y-21945650D02*
X7599082Y-21945650D01*
X7599082Y-21945650D02*
X7580034Y-21955174D01*
X7580034Y-21955174D02*
X7570510Y-21964698D01*
X7780034Y-22078984D02*
X7760987Y-22069460D01*
X7760987Y-22069460D02*
X7751463Y-22059936D01*
X7751463Y-22059936D02*
X7741939Y-22040889D01*
X7741939Y-22040889D02*
X7741939Y-21983746D01*
X7741939Y-21983746D02*
X7751463Y-21964698D01*
X7751463Y-21964698D02*
X7760987Y-21955174D01*
X7760987Y-21955174D02*
X7780034Y-21945650D01*
X7780034Y-21945650D02*
X7808606Y-21945650D01*
X7808606Y-21945650D02*
X7827653Y-21955174D01*
X7827653Y-21955174D02*
X7837177Y-21964698D01*
X7837177Y-21964698D02*
X7846701Y-21983746D01*
X7846701Y-21983746D02*
X7846701Y-22040889D01*
X7846701Y-22040889D02*
X7837177Y-22059936D01*
X7837177Y-22059936D02*
X7827653Y-22069460D01*
X7827653Y-22069460D02*
X7808606Y-22078984D01*
X7808606Y-22078984D02*
X7780034Y-22078984D01*
X7960987Y-22078984D02*
X7941939Y-22069460D01*
X7941939Y-22069460D02*
X7932415Y-22050412D01*
X7932415Y-22050412D02*
X7932415Y-21878984D01*
X8113368Y-22069460D02*
X8094320Y-22078984D01*
X8094320Y-22078984D02*
X8056225Y-22078984D01*
X8056225Y-22078984D02*
X8037177Y-22069460D01*
X8037177Y-22069460D02*
X8027653Y-22050412D01*
X8027653Y-22050412D02*
X8027653Y-21974222D01*
X8027653Y-21974222D02*
X8037177Y-21955174D01*
X8037177Y-21955174D02*
X8056225Y-21945650D01*
X8056225Y-21945650D02*
X8094320Y-21945650D01*
X8094320Y-21945650D02*
X8113368Y-21955174D01*
X8113368Y-21955174D02*
X8122891Y-21974222D01*
X8122891Y-21974222D02*
X8122891Y-21993270D01*
X8122891Y-21993270D02*
X8027653Y-22012317D01*
X8199082Y-22069460D02*
X8218130Y-22078984D01*
X8218130Y-22078984D02*
X8256225Y-22078984D01*
X8256225Y-22078984D02*
X8275272Y-22069460D01*
X8275272Y-22069460D02*
X8284796Y-22050412D01*
X8284796Y-22050412D02*
X8284796Y-22040889D01*
X8284796Y-22040889D02*
X8275272Y-22021841D01*
X8275272Y-22021841D02*
X8256225Y-22012317D01*
X8256225Y-22012317D02*
X8227653Y-22012317D01*
X8227653Y-22012317D02*
X8208606Y-22002793D01*
X8208606Y-22002793D02*
X8199082Y-21983746D01*
X8199082Y-21983746D02*
X8199082Y-21974222D01*
X8199082Y-21974222D02*
X8208606Y-21955174D01*
X8208606Y-21955174D02*
X8227653Y-21945650D01*
X8227653Y-21945650D02*
X8256225Y-21945650D01*
X8256225Y-21945650D02*
X8275272Y-21955174D01*
X8351463Y-22155174D02*
X8360987Y-22145650D01*
X8360987Y-22145650D02*
X8380034Y-22117079D01*
X8380034Y-22117079D02*
X8389558Y-22098031D01*
X8389558Y-22098031D02*
X8399082Y-22069460D01*
X8399082Y-22069460D02*
X8408606Y-22021841D01*
X8408606Y-22021841D02*
X8408606Y-21983746D01*
X8408606Y-21983746D02*
X8399082Y-21936127D01*
X8399082Y-21936127D02*
X8389558Y-21907555D01*
X8389558Y-21907555D02*
X8380034Y-21888508D01*
X8380034Y-21888508D02*
X8360987Y-21859936D01*
X8360987Y-21859936D02*
X8351463Y-21850412D01*
D18*
X3456400Y-22191500D02*
X3576400Y-22311500D01*
X3576400Y-22191500D02*
X3456400Y-22311500D01*
X3516400Y-22311500D02*
X3576400Y-22251500D01*
X3516400Y-22191500D01*
X3456400Y-22251500D01*
X3516400Y-22311500D01*
D11*
X3941939Y-22342984D02*
X3827653Y-22342984D01*
X3884796Y-22342984D02*
X3884796Y-22142984D01*
X3884796Y-22142984D02*
X3865748Y-22171555D01*
X3865748Y-22171555D02*
X3846701Y-22190603D01*
X3846701Y-22190603D02*
X3827653Y-22200127D01*
X4027653Y-22323936D02*
X4037177Y-22333460D01*
X4037177Y-22333460D02*
X4027653Y-22342984D01*
X4027653Y-22342984D02*
X4018129Y-22333460D01*
X4018129Y-22333460D02*
X4027653Y-22323936D01*
X4027653Y-22323936D02*
X4027653Y-22342984D01*
X4113367Y-22162031D02*
X4122891Y-22152508D01*
X4122891Y-22152508D02*
X4141939Y-22142984D01*
X4141939Y-22142984D02*
X4189558Y-22142984D01*
X4189558Y-22142984D02*
X4208605Y-22152508D01*
X4208605Y-22152508D02*
X4218129Y-22162031D01*
X4218129Y-22162031D02*
X4227653Y-22181079D01*
X4227653Y-22181079D02*
X4227653Y-22200127D01*
X4227653Y-22200127D02*
X4218129Y-22228698D01*
X4218129Y-22228698D02*
X4103843Y-22342984D01*
X4103843Y-22342984D02*
X4227653Y-22342984D01*
X4351463Y-22142984D02*
X4370510Y-22142984D01*
X4370510Y-22142984D02*
X4389558Y-22152508D01*
X4389558Y-22152508D02*
X4399082Y-22162031D01*
X4399082Y-22162031D02*
X4408605Y-22181079D01*
X4408605Y-22181079D02*
X4418129Y-22219174D01*
X4418129Y-22219174D02*
X4418129Y-22266793D01*
X4418129Y-22266793D02*
X4408605Y-22304889D01*
X4408605Y-22304889D02*
X4399082Y-22323936D01*
X4399082Y-22323936D02*
X4389558Y-22333460D01*
X4389558Y-22333460D02*
X4370510Y-22342984D01*
X4370510Y-22342984D02*
X4351463Y-22342984D01*
X4351463Y-22342984D02*
X4332415Y-22333460D01*
X4332415Y-22333460D02*
X4322891Y-22323936D01*
X4322891Y-22323936D02*
X4313367Y-22304889D01*
X4313367Y-22304889D02*
X4303844Y-22266793D01*
X4303844Y-22266793D02*
X4303844Y-22219174D01*
X4303844Y-22219174D02*
X4313367Y-22181079D01*
X4313367Y-22181079D02*
X4322891Y-22162031D01*
X4322891Y-22162031D02*
X4332415Y-22152508D01*
X4332415Y-22152508D02*
X4351463Y-22142984D01*
X4541939Y-22142984D02*
X4560986Y-22142984D01*
X4560986Y-22142984D02*
X4580034Y-22152508D01*
X4580034Y-22152508D02*
X4589558Y-22162031D01*
X4589558Y-22162031D02*
X4599082Y-22181079D01*
X4599082Y-22181079D02*
X4608605Y-22219174D01*
X4608605Y-22219174D02*
X4608605Y-22266793D01*
X4608605Y-22266793D02*
X4599082Y-22304889D01*
X4599082Y-22304889D02*
X4589558Y-22323936D01*
X4589558Y-22323936D02*
X4580034Y-22333460D01*
X4580034Y-22333460D02*
X4560986Y-22342984D01*
X4560986Y-22342984D02*
X4541939Y-22342984D01*
X4541939Y-22342984D02*
X4522891Y-22333460D01*
X4522891Y-22333460D02*
X4513367Y-22323936D01*
X4513367Y-22323936D02*
X4503844Y-22304889D01*
X4503844Y-22304889D02*
X4494320Y-22266793D01*
X4494320Y-22266793D02*
X4494320Y-22219174D01*
X4494320Y-22219174D02*
X4503844Y-22181079D01*
X4503844Y-22181079D02*
X4513367Y-22162031D01*
X4513367Y-22162031D02*
X4522891Y-22152508D01*
X4522891Y-22152508D02*
X4541939Y-22142984D01*
X4694320Y-22342984D02*
X4694320Y-22209650D01*
X4694320Y-22228698D02*
X4703844Y-22219174D01*
X4703844Y-22219174D02*
X4722891Y-22209650D01*
X4722891Y-22209650D02*
X4751463Y-22209650D01*
X4751463Y-22209650D02*
X4770510Y-22219174D01*
X4770510Y-22219174D02*
X4780034Y-22238222D01*
X4780034Y-22238222D02*
X4780034Y-22342984D01*
X4780034Y-22238222D02*
X4789558Y-22219174D01*
X4789558Y-22219174D02*
X4808605Y-22209650D01*
X4808605Y-22209650D02*
X4837177Y-22209650D01*
X4837177Y-22209650D02*
X4856225Y-22219174D01*
X4856225Y-22219174D02*
X4865748Y-22238222D01*
X4865748Y-22238222D02*
X4865748Y-22342984D01*
X4960986Y-22342984D02*
X4960986Y-22209650D01*
X4960986Y-22228698D02*
X4970510Y-22219174D01*
X4970510Y-22219174D02*
X4989558Y-22209650D01*
X4989558Y-22209650D02*
X5018129Y-22209650D01*
X5018129Y-22209650D02*
X5037177Y-22219174D01*
X5037177Y-22219174D02*
X5046701Y-22238222D01*
X5046701Y-22238222D02*
X5046701Y-22342984D01*
X5046701Y-22238222D02*
X5056225Y-22219174D01*
X5056225Y-22219174D02*
X5075272Y-22209650D01*
X5075272Y-22209650D02*
X5103844Y-22209650D01*
X5103844Y-22209650D02*
X5122891Y-22219174D01*
X5122891Y-22219174D02*
X5132415Y-22238222D01*
X5132415Y-22238222D02*
X5132415Y-22342984D01*
X5522891Y-22133460D02*
X5351463Y-22390603D01*
X5780034Y-22142984D02*
X5799082Y-22142984D01*
X5799082Y-22142984D02*
X5818129Y-22152508D01*
X5818129Y-22152508D02*
X5827653Y-22162031D01*
X5827653Y-22162031D02*
X5837177Y-22181079D01*
X5837177Y-22181079D02*
X5846701Y-22219174D01*
X5846701Y-22219174D02*
X5846701Y-22266793D01*
X5846701Y-22266793D02*
X5837177Y-22304889D01*
X5837177Y-22304889D02*
X5827653Y-22323936D01*
X5827653Y-22323936D02*
X5818129Y-22333460D01*
X5818129Y-22333460D02*
X5799082Y-22342984D01*
X5799082Y-22342984D02*
X5780034Y-22342984D01*
X5780034Y-22342984D02*
X5760986Y-22333460D01*
X5760986Y-22333460D02*
X5751463Y-22323936D01*
X5751463Y-22323936D02*
X5741939Y-22304889D01*
X5741939Y-22304889D02*
X5732415Y-22266793D01*
X5732415Y-22266793D02*
X5732415Y-22219174D01*
X5732415Y-22219174D02*
X5741939Y-22181079D01*
X5741939Y-22181079D02*
X5751463Y-22162031D01*
X5751463Y-22162031D02*
X5760986Y-22152508D01*
X5760986Y-22152508D02*
X5780034Y-22142984D01*
X5932415Y-22323936D02*
X5941939Y-22333460D01*
X5941939Y-22333460D02*
X5932415Y-22342984D01*
X5932415Y-22342984D02*
X5922891Y-22333460D01*
X5922891Y-22333460D02*
X5932415Y-22323936D01*
X5932415Y-22323936D02*
X5932415Y-22342984D01*
X6065748Y-22142984D02*
X6084796Y-22142984D01*
X6084796Y-22142984D02*
X6103844Y-22152508D01*
X6103844Y-22152508D02*
X6113367Y-22162031D01*
X6113367Y-22162031D02*
X6122891Y-22181079D01*
X6122891Y-22181079D02*
X6132415Y-22219174D01*
X6132415Y-22219174D02*
X6132415Y-22266793D01*
X6132415Y-22266793D02*
X6122891Y-22304889D01*
X6122891Y-22304889D02*
X6113367Y-22323936D01*
X6113367Y-22323936D02*
X6103844Y-22333460D01*
X6103844Y-22333460D02*
X6084796Y-22342984D01*
X6084796Y-22342984D02*
X6065748Y-22342984D01*
X6065748Y-22342984D02*
X6046701Y-22333460D01*
X6046701Y-22333460D02*
X6037177Y-22323936D01*
X6037177Y-22323936D02*
X6027653Y-22304889D01*
X6027653Y-22304889D02*
X6018129Y-22266793D01*
X6018129Y-22266793D02*
X6018129Y-22219174D01*
X6018129Y-22219174D02*
X6027653Y-22181079D01*
X6027653Y-22181079D02*
X6037177Y-22162031D01*
X6037177Y-22162031D02*
X6046701Y-22152508D01*
X6046701Y-22152508D02*
X6065748Y-22142984D01*
X6303844Y-22209650D02*
X6303844Y-22342984D01*
X6256225Y-22133460D02*
X6208606Y-22276317D01*
X6208606Y-22276317D02*
X6332415Y-22276317D01*
X6389558Y-22142984D02*
X6522891Y-22142984D01*
X6522891Y-22142984D02*
X6437177Y-22342984D01*
X6589558Y-22162031D02*
X6599082Y-22152508D01*
X6599082Y-22152508D02*
X6618129Y-22142984D01*
X6618129Y-22142984D02*
X6665748Y-22142984D01*
X6665748Y-22142984D02*
X6684796Y-22152508D01*
X6684796Y-22152508D02*
X6694320Y-22162031D01*
X6694320Y-22162031D02*
X6703844Y-22181079D01*
X6703844Y-22181079D02*
X6703844Y-22200127D01*
X6703844Y-22200127D02*
X6694320Y-22228698D01*
X6694320Y-22228698D02*
X6580034Y-22342984D01*
X6580034Y-22342984D02*
X6703844Y-22342984D01*
X6780034Y-22142984D02*
X6780034Y-22181079D01*
X6856225Y-22142984D02*
X6856225Y-22181079D01*
X7151463Y-22419174D02*
X7141939Y-22409650D01*
X7141939Y-22409650D02*
X7122891Y-22381079D01*
X7122891Y-22381079D02*
X7113368Y-22362031D01*
X7113368Y-22362031D02*
X7103844Y-22333460D01*
X7103844Y-22333460D02*
X7094320Y-22285841D01*
X7094320Y-22285841D02*
X7094320Y-22247746D01*
X7094320Y-22247746D02*
X7103844Y-22200127D01*
X7103844Y-22200127D02*
X7113368Y-22171555D01*
X7113368Y-22171555D02*
X7122891Y-22152508D01*
X7122891Y-22152508D02*
X7141939Y-22123936D01*
X7141939Y-22123936D02*
X7151463Y-22114412D01*
X7218129Y-22162031D02*
X7227653Y-22152508D01*
X7227653Y-22152508D02*
X7246701Y-22142984D01*
X7246701Y-22142984D02*
X7294320Y-22142984D01*
X7294320Y-22142984D02*
X7313368Y-22152508D01*
X7313368Y-22152508D02*
X7322891Y-22162031D01*
X7322891Y-22162031D02*
X7332415Y-22181079D01*
X7332415Y-22181079D02*
X7332415Y-22200127D01*
X7332415Y-22200127D02*
X7322891Y-22228698D01*
X7322891Y-22228698D02*
X7208606Y-22342984D01*
X7208606Y-22342984D02*
X7332415Y-22342984D01*
X7570510Y-22342984D02*
X7570510Y-22142984D01*
X7656225Y-22342984D02*
X7656225Y-22238222D01*
X7656225Y-22238222D02*
X7646701Y-22219174D01*
X7646701Y-22219174D02*
X7627653Y-22209650D01*
X7627653Y-22209650D02*
X7599082Y-22209650D01*
X7599082Y-22209650D02*
X7580034Y-22219174D01*
X7580034Y-22219174D02*
X7570510Y-22228698D01*
X7780034Y-22342984D02*
X7760987Y-22333460D01*
X7760987Y-22333460D02*
X7751463Y-22323936D01*
X7751463Y-22323936D02*
X7741939Y-22304889D01*
X7741939Y-22304889D02*
X7741939Y-22247746D01*
X7741939Y-22247746D02*
X7751463Y-22228698D01*
X7751463Y-22228698D02*
X7760987Y-22219174D01*
X7760987Y-22219174D02*
X7780034Y-22209650D01*
X7780034Y-22209650D02*
X7808606Y-22209650D01*
X7808606Y-22209650D02*
X7827653Y-22219174D01*
X7827653Y-22219174D02*
X7837177Y-22228698D01*
X7837177Y-22228698D02*
X7846701Y-22247746D01*
X7846701Y-22247746D02*
X7846701Y-22304889D01*
X7846701Y-22304889D02*
X7837177Y-22323936D01*
X7837177Y-22323936D02*
X7827653Y-22333460D01*
X7827653Y-22333460D02*
X7808606Y-22342984D01*
X7808606Y-22342984D02*
X7780034Y-22342984D01*
X7960987Y-22342984D02*
X7941939Y-22333460D01*
X7941939Y-22333460D02*
X7932415Y-22314412D01*
X7932415Y-22314412D02*
X7932415Y-22142984D01*
X8113368Y-22333460D02*
X8094320Y-22342984D01*
X8094320Y-22342984D02*
X8056225Y-22342984D01*
X8056225Y-22342984D02*
X8037177Y-22333460D01*
X8037177Y-22333460D02*
X8027653Y-22314412D01*
X8027653Y-22314412D02*
X8027653Y-22238222D01*
X8027653Y-22238222D02*
X8037177Y-22219174D01*
X8037177Y-22219174D02*
X8056225Y-22209650D01*
X8056225Y-22209650D02*
X8094320Y-22209650D01*
X8094320Y-22209650D02*
X8113368Y-22219174D01*
X8113368Y-22219174D02*
X8122891Y-22238222D01*
X8122891Y-22238222D02*
X8122891Y-22257270D01*
X8122891Y-22257270D02*
X8027653Y-22276317D01*
X8199082Y-22333460D02*
X8218130Y-22342984D01*
X8218130Y-22342984D02*
X8256225Y-22342984D01*
X8256225Y-22342984D02*
X8275272Y-22333460D01*
X8275272Y-22333460D02*
X8284796Y-22314412D01*
X8284796Y-22314412D02*
X8284796Y-22304889D01*
X8284796Y-22304889D02*
X8275272Y-22285841D01*
X8275272Y-22285841D02*
X8256225Y-22276317D01*
X8256225Y-22276317D02*
X8227653Y-22276317D01*
X8227653Y-22276317D02*
X8208606Y-22266793D01*
X8208606Y-22266793D02*
X8199082Y-22247746D01*
X8199082Y-22247746D02*
X8199082Y-22238222D01*
X8199082Y-22238222D02*
X8208606Y-22219174D01*
X8208606Y-22219174D02*
X8227653Y-22209650D01*
X8227653Y-22209650D02*
X8256225Y-22209650D01*
X8256225Y-22209650D02*
X8275272Y-22219174D01*
X8351463Y-22419174D02*
X8360987Y-22409650D01*
X8360987Y-22409650D02*
X8380034Y-22381079D01*
X8380034Y-22381079D02*
X8389558Y-22362031D01*
X8389558Y-22362031D02*
X8399082Y-22333460D01*
X8399082Y-22333460D02*
X8408606Y-22285841D01*
X8408606Y-22285841D02*
X8408606Y-22247746D01*
X8408606Y-22247746D02*
X8399082Y-22200127D01*
X8399082Y-22200127D02*
X8389558Y-22171555D01*
X8389558Y-22171555D02*
X8380034Y-22152508D01*
X8380034Y-22152508D02*
X8360987Y-22123936D01*
X8360987Y-22123936D02*
X8351463Y-22114412D01*
D19*
X3501400Y-22440500D02*
X3501400Y-22590500D01*
X3426400Y-22515500D02*
X3576400Y-22515500D01*
X3576400Y-22515500D02*
G75*
G03*
X3576400Y-22515500I-75000J0D01*
G01*
D11*
X3941939Y-22606984D02*
X3827653Y-22606984D01*
X3884796Y-22606984D02*
X3884796Y-22406984D01*
X3884796Y-22406984D02*
X3865748Y-22435555D01*
X3865748Y-22435555D02*
X3846701Y-22454603D01*
X3846701Y-22454603D02*
X3827653Y-22464127D01*
X4027653Y-22587936D02*
X4037177Y-22597460D01*
X4037177Y-22597460D02*
X4027653Y-22606984D01*
X4027653Y-22606984D02*
X4018129Y-22597460D01*
X4018129Y-22597460D02*
X4027653Y-22587936D01*
X4027653Y-22587936D02*
X4027653Y-22606984D01*
X4218129Y-22406984D02*
X4122891Y-22406984D01*
X4122891Y-22406984D02*
X4113367Y-22502222D01*
X4113367Y-22502222D02*
X4122891Y-22492698D01*
X4122891Y-22492698D02*
X4141939Y-22483174D01*
X4141939Y-22483174D02*
X4189558Y-22483174D01*
X4189558Y-22483174D02*
X4208605Y-22492698D01*
X4208605Y-22492698D02*
X4218129Y-22502222D01*
X4218129Y-22502222D02*
X4227653Y-22521269D01*
X4227653Y-22521269D02*
X4227653Y-22568888D01*
X4227653Y-22568888D02*
X4218129Y-22587936D01*
X4218129Y-22587936D02*
X4208605Y-22597460D01*
X4208605Y-22597460D02*
X4189558Y-22606984D01*
X4189558Y-22606984D02*
X4141939Y-22606984D01*
X4141939Y-22606984D02*
X4122891Y-22597460D01*
X4122891Y-22597460D02*
X4113367Y-22587936D01*
X4351463Y-22406984D02*
X4370510Y-22406984D01*
X4370510Y-22406984D02*
X4389558Y-22416508D01*
X4389558Y-22416508D02*
X4399082Y-22426031D01*
X4399082Y-22426031D02*
X4408605Y-22445079D01*
X4408605Y-22445079D02*
X4418129Y-22483174D01*
X4418129Y-22483174D02*
X4418129Y-22530793D01*
X4418129Y-22530793D02*
X4408605Y-22568888D01*
X4408605Y-22568888D02*
X4399082Y-22587936D01*
X4399082Y-22587936D02*
X4389558Y-22597460D01*
X4389558Y-22597460D02*
X4370510Y-22606984D01*
X4370510Y-22606984D02*
X4351463Y-22606984D01*
X4351463Y-22606984D02*
X4332415Y-22597460D01*
X4332415Y-22597460D02*
X4322891Y-22587936D01*
X4322891Y-22587936D02*
X4313367Y-22568888D01*
X4313367Y-22568888D02*
X4303844Y-22530793D01*
X4303844Y-22530793D02*
X4303844Y-22483174D01*
X4303844Y-22483174D02*
X4313367Y-22445079D01*
X4313367Y-22445079D02*
X4322891Y-22426031D01*
X4322891Y-22426031D02*
X4332415Y-22416508D01*
X4332415Y-22416508D02*
X4351463Y-22406984D01*
X4541939Y-22406984D02*
X4560986Y-22406984D01*
X4560986Y-22406984D02*
X4580034Y-22416508D01*
X4580034Y-22416508D02*
X4589558Y-22426031D01*
X4589558Y-22426031D02*
X4599082Y-22445079D01*
X4599082Y-22445079D02*
X4608605Y-22483174D01*
X4608605Y-22483174D02*
X4608605Y-22530793D01*
X4608605Y-22530793D02*
X4599082Y-22568888D01*
X4599082Y-22568888D02*
X4589558Y-22587936D01*
X4589558Y-22587936D02*
X4580034Y-22597460D01*
X4580034Y-22597460D02*
X4560986Y-22606984D01*
X4560986Y-22606984D02*
X4541939Y-22606984D01*
X4541939Y-22606984D02*
X4522891Y-22597460D01*
X4522891Y-22597460D02*
X4513367Y-22587936D01*
X4513367Y-22587936D02*
X4503844Y-22568888D01*
X4503844Y-22568888D02*
X4494320Y-22530793D01*
X4494320Y-22530793D02*
X4494320Y-22483174D01*
X4494320Y-22483174D02*
X4503844Y-22445079D01*
X4503844Y-22445079D02*
X4513367Y-22426031D01*
X4513367Y-22426031D02*
X4522891Y-22416508D01*
X4522891Y-22416508D02*
X4541939Y-22406984D01*
X4694320Y-22606984D02*
X4694320Y-22473650D01*
X4694320Y-22492698D02*
X4703844Y-22483174D01*
X4703844Y-22483174D02*
X4722891Y-22473650D01*
X4722891Y-22473650D02*
X4751463Y-22473650D01*
X4751463Y-22473650D02*
X4770510Y-22483174D01*
X4770510Y-22483174D02*
X4780034Y-22502222D01*
X4780034Y-22502222D02*
X4780034Y-22606984D01*
X4780034Y-22502222D02*
X4789558Y-22483174D01*
X4789558Y-22483174D02*
X4808605Y-22473650D01*
X4808605Y-22473650D02*
X4837177Y-22473650D01*
X4837177Y-22473650D02*
X4856225Y-22483174D01*
X4856225Y-22483174D02*
X4865748Y-22502222D01*
X4865748Y-22502222D02*
X4865748Y-22606984D01*
X4960986Y-22606984D02*
X4960986Y-22473650D01*
X4960986Y-22492698D02*
X4970510Y-22483174D01*
X4970510Y-22483174D02*
X4989558Y-22473650D01*
X4989558Y-22473650D02*
X5018129Y-22473650D01*
X5018129Y-22473650D02*
X5037177Y-22483174D01*
X5037177Y-22483174D02*
X5046701Y-22502222D01*
X5046701Y-22502222D02*
X5046701Y-22606984D01*
X5046701Y-22502222D02*
X5056225Y-22483174D01*
X5056225Y-22483174D02*
X5075272Y-22473650D01*
X5075272Y-22473650D02*
X5103844Y-22473650D01*
X5103844Y-22473650D02*
X5122891Y-22483174D01*
X5122891Y-22483174D02*
X5132415Y-22502222D01*
X5132415Y-22502222D02*
X5132415Y-22606984D01*
X5522891Y-22397460D02*
X5351463Y-22654603D01*
X5780034Y-22406984D02*
X5799082Y-22406984D01*
X5799082Y-22406984D02*
X5818129Y-22416508D01*
X5818129Y-22416508D02*
X5827653Y-22426031D01*
X5827653Y-22426031D02*
X5837177Y-22445079D01*
X5837177Y-22445079D02*
X5846701Y-22483174D01*
X5846701Y-22483174D02*
X5846701Y-22530793D01*
X5846701Y-22530793D02*
X5837177Y-22568888D01*
X5837177Y-22568888D02*
X5827653Y-22587936D01*
X5827653Y-22587936D02*
X5818129Y-22597460D01*
X5818129Y-22597460D02*
X5799082Y-22606984D01*
X5799082Y-22606984D02*
X5780034Y-22606984D01*
X5780034Y-22606984D02*
X5760986Y-22597460D01*
X5760986Y-22597460D02*
X5751463Y-22587936D01*
X5751463Y-22587936D02*
X5741939Y-22568888D01*
X5741939Y-22568888D02*
X5732415Y-22530793D01*
X5732415Y-22530793D02*
X5732415Y-22483174D01*
X5732415Y-22483174D02*
X5741939Y-22445079D01*
X5741939Y-22445079D02*
X5751463Y-22426031D01*
X5751463Y-22426031D02*
X5760986Y-22416508D01*
X5760986Y-22416508D02*
X5780034Y-22406984D01*
X5932415Y-22587936D02*
X5941939Y-22597460D01*
X5941939Y-22597460D02*
X5932415Y-22606984D01*
X5932415Y-22606984D02*
X5922891Y-22597460D01*
X5922891Y-22597460D02*
X5932415Y-22587936D01*
X5932415Y-22587936D02*
X5932415Y-22606984D01*
X6065748Y-22406984D02*
X6084796Y-22406984D01*
X6084796Y-22406984D02*
X6103844Y-22416508D01*
X6103844Y-22416508D02*
X6113367Y-22426031D01*
X6113367Y-22426031D02*
X6122891Y-22445079D01*
X6122891Y-22445079D02*
X6132415Y-22483174D01*
X6132415Y-22483174D02*
X6132415Y-22530793D01*
X6132415Y-22530793D02*
X6122891Y-22568888D01*
X6122891Y-22568888D02*
X6113367Y-22587936D01*
X6113367Y-22587936D02*
X6103844Y-22597460D01*
X6103844Y-22597460D02*
X6084796Y-22606984D01*
X6084796Y-22606984D02*
X6065748Y-22606984D01*
X6065748Y-22606984D02*
X6046701Y-22597460D01*
X6046701Y-22597460D02*
X6037177Y-22587936D01*
X6037177Y-22587936D02*
X6027653Y-22568888D01*
X6027653Y-22568888D02*
X6018129Y-22530793D01*
X6018129Y-22530793D02*
X6018129Y-22483174D01*
X6018129Y-22483174D02*
X6027653Y-22445079D01*
X6027653Y-22445079D02*
X6037177Y-22426031D01*
X6037177Y-22426031D02*
X6046701Y-22416508D01*
X6046701Y-22416508D02*
X6065748Y-22406984D01*
X6313367Y-22406984D02*
X6218129Y-22406984D01*
X6218129Y-22406984D02*
X6208606Y-22502222D01*
X6208606Y-22502222D02*
X6218129Y-22492698D01*
X6218129Y-22492698D02*
X6237177Y-22483174D01*
X6237177Y-22483174D02*
X6284796Y-22483174D01*
X6284796Y-22483174D02*
X6303844Y-22492698D01*
X6303844Y-22492698D02*
X6313367Y-22502222D01*
X6313367Y-22502222D02*
X6322891Y-22521269D01*
X6322891Y-22521269D02*
X6322891Y-22568888D01*
X6322891Y-22568888D02*
X6313367Y-22587936D01*
X6313367Y-22587936D02*
X6303844Y-22597460D01*
X6303844Y-22597460D02*
X6284796Y-22606984D01*
X6284796Y-22606984D02*
X6237177Y-22606984D01*
X6237177Y-22606984D02*
X6218129Y-22597460D01*
X6218129Y-22597460D02*
X6208606Y-22587936D01*
X6418129Y-22606984D02*
X6456225Y-22606984D01*
X6456225Y-22606984D02*
X6475272Y-22597460D01*
X6475272Y-22597460D02*
X6484796Y-22587936D01*
X6484796Y-22587936D02*
X6503844Y-22559365D01*
X6503844Y-22559365D02*
X6513367Y-22521269D01*
X6513367Y-22521269D02*
X6513367Y-22445079D01*
X6513367Y-22445079D02*
X6503844Y-22426031D01*
X6503844Y-22426031D02*
X6494320Y-22416508D01*
X6494320Y-22416508D02*
X6475272Y-22406984D01*
X6475272Y-22406984D02*
X6437177Y-22406984D01*
X6437177Y-22406984D02*
X6418129Y-22416508D01*
X6418129Y-22416508D02*
X6408606Y-22426031D01*
X6408606Y-22426031D02*
X6399082Y-22445079D01*
X6399082Y-22445079D02*
X6399082Y-22492698D01*
X6399082Y-22492698D02*
X6408606Y-22511746D01*
X6408606Y-22511746D02*
X6418129Y-22521269D01*
X6418129Y-22521269D02*
X6437177Y-22530793D01*
X6437177Y-22530793D02*
X6475272Y-22530793D01*
X6475272Y-22530793D02*
X6494320Y-22521269D01*
X6494320Y-22521269D02*
X6503844Y-22511746D01*
X6503844Y-22511746D02*
X6513367Y-22492698D01*
X6703844Y-22606984D02*
X6589558Y-22606984D01*
X6646701Y-22606984D02*
X6646701Y-22406984D01*
X6646701Y-22406984D02*
X6627653Y-22435555D01*
X6627653Y-22435555D02*
X6608606Y-22454603D01*
X6608606Y-22454603D02*
X6589558Y-22464127D01*
X6780034Y-22406984D02*
X6780034Y-22445079D01*
X6856225Y-22406984D02*
X6856225Y-22445079D01*
X7151463Y-22683174D02*
X7141939Y-22673650D01*
X7141939Y-22673650D02*
X7122891Y-22645079D01*
X7122891Y-22645079D02*
X7113368Y-22626031D01*
X7113368Y-22626031D02*
X7103844Y-22597460D01*
X7103844Y-22597460D02*
X7094320Y-22549841D01*
X7094320Y-22549841D02*
X7094320Y-22511746D01*
X7094320Y-22511746D02*
X7103844Y-22464127D01*
X7103844Y-22464127D02*
X7113368Y-22435555D01*
X7113368Y-22435555D02*
X7122891Y-22416508D01*
X7122891Y-22416508D02*
X7141939Y-22387936D01*
X7141939Y-22387936D02*
X7151463Y-22378412D01*
X7332415Y-22606984D02*
X7218129Y-22606984D01*
X7275272Y-22606984D02*
X7275272Y-22406984D01*
X7275272Y-22406984D02*
X7256225Y-22435555D01*
X7256225Y-22435555D02*
X7237177Y-22454603D01*
X7237177Y-22454603D02*
X7218129Y-22464127D01*
X7570510Y-22606984D02*
X7570510Y-22406984D01*
X7656225Y-22606984D02*
X7656225Y-22502222D01*
X7656225Y-22502222D02*
X7646701Y-22483174D01*
X7646701Y-22483174D02*
X7627653Y-22473650D01*
X7627653Y-22473650D02*
X7599082Y-22473650D01*
X7599082Y-22473650D02*
X7580034Y-22483174D01*
X7580034Y-22483174D02*
X7570510Y-22492698D01*
X7780034Y-22606984D02*
X7760987Y-22597460D01*
X7760987Y-22597460D02*
X7751463Y-22587936D01*
X7751463Y-22587936D02*
X7741939Y-22568888D01*
X7741939Y-22568888D02*
X7741939Y-22511746D01*
X7741939Y-22511746D02*
X7751463Y-22492698D01*
X7751463Y-22492698D02*
X7760987Y-22483174D01*
X7760987Y-22483174D02*
X7780034Y-22473650D01*
X7780034Y-22473650D02*
X7808606Y-22473650D01*
X7808606Y-22473650D02*
X7827653Y-22483174D01*
X7827653Y-22483174D02*
X7837177Y-22492698D01*
X7837177Y-22492698D02*
X7846701Y-22511746D01*
X7846701Y-22511746D02*
X7846701Y-22568888D01*
X7846701Y-22568888D02*
X7837177Y-22587936D01*
X7837177Y-22587936D02*
X7827653Y-22597460D01*
X7827653Y-22597460D02*
X7808606Y-22606984D01*
X7808606Y-22606984D02*
X7780034Y-22606984D01*
X7960987Y-22606984D02*
X7941939Y-22597460D01*
X7941939Y-22597460D02*
X7932415Y-22578412D01*
X7932415Y-22578412D02*
X7932415Y-22406984D01*
X8113368Y-22597460D02*
X8094320Y-22606984D01*
X8094320Y-22606984D02*
X8056225Y-22606984D01*
X8056225Y-22606984D02*
X8037177Y-22597460D01*
X8037177Y-22597460D02*
X8027653Y-22578412D01*
X8027653Y-22578412D02*
X8027653Y-22502222D01*
X8027653Y-22502222D02*
X8037177Y-22483174D01*
X8037177Y-22483174D02*
X8056225Y-22473650D01*
X8056225Y-22473650D02*
X8094320Y-22473650D01*
X8094320Y-22473650D02*
X8113368Y-22483174D01*
X8113368Y-22483174D02*
X8122891Y-22502222D01*
X8122891Y-22502222D02*
X8122891Y-22521269D01*
X8122891Y-22521269D02*
X8027653Y-22540317D01*
X8189558Y-22683174D02*
X8199082Y-22673650D01*
X8199082Y-22673650D02*
X8218130Y-22645079D01*
X8218130Y-22645079D02*
X8227653Y-22626031D01*
X8227653Y-22626031D02*
X8237177Y-22597460D01*
X8237177Y-22597460D02*
X8246701Y-22549841D01*
X8246701Y-22549841D02*
X8246701Y-22511746D01*
X8246701Y-22511746D02*
X8237177Y-22464127D01*
X8237177Y-22464127D02*
X8227653Y-22435555D01*
X8227653Y-22435555D02*
X8218130Y-22416508D01*
X8218130Y-22416508D02*
X8199082Y-22387936D01*
X8199082Y-22387936D02*
X8189558Y-22378412D01*
D20*
X3551505Y-22845605D02*
X3551505Y-22725395D01*
X3431295Y-22725395D01*
X3431295Y-22845605D01*
X3551505Y-22845605D01*
X3576400Y-22785500D02*
G75*
G03*
X3576400Y-22785500I-85000J0D01*
G01*
D11*
X3941939Y-22876984D02*
X3827653Y-22876984D01*
X3884796Y-22876984D02*
X3884796Y-22676984D01*
X3884796Y-22676984D02*
X3865748Y-22705555D01*
X3865748Y-22705555D02*
X3846701Y-22724603D01*
X3846701Y-22724603D02*
X3827653Y-22734127D01*
X4027653Y-22857936D02*
X4037177Y-22867460D01*
X4037177Y-22867460D02*
X4027653Y-22876984D01*
X4027653Y-22876984D02*
X4018129Y-22867460D01*
X4018129Y-22867460D02*
X4027653Y-22857936D01*
X4027653Y-22857936D02*
X4027653Y-22876984D01*
X4103843Y-22676984D02*
X4237177Y-22676984D01*
X4237177Y-22676984D02*
X4151462Y-22876984D01*
X4351463Y-22676984D02*
X4370510Y-22676984D01*
X4370510Y-22676984D02*
X4389558Y-22686508D01*
X4389558Y-22686508D02*
X4399082Y-22696031D01*
X4399082Y-22696031D02*
X4408605Y-22715079D01*
X4408605Y-22715079D02*
X4418129Y-22753174D01*
X4418129Y-22753174D02*
X4418129Y-22800793D01*
X4418129Y-22800793D02*
X4408605Y-22838888D01*
X4408605Y-22838888D02*
X4399082Y-22857936D01*
X4399082Y-22857936D02*
X4389558Y-22867460D01*
X4389558Y-22867460D02*
X4370510Y-22876984D01*
X4370510Y-22876984D02*
X4351463Y-22876984D01*
X4351463Y-22876984D02*
X4332415Y-22867460D01*
X4332415Y-22867460D02*
X4322891Y-22857936D01*
X4322891Y-22857936D02*
X4313367Y-22838888D01*
X4313367Y-22838888D02*
X4303844Y-22800793D01*
X4303844Y-22800793D02*
X4303844Y-22753174D01*
X4303844Y-22753174D02*
X4313367Y-22715079D01*
X4313367Y-22715079D02*
X4322891Y-22696031D01*
X4322891Y-22696031D02*
X4332415Y-22686508D01*
X4332415Y-22686508D02*
X4351463Y-22676984D01*
X4541939Y-22676984D02*
X4560986Y-22676984D01*
X4560986Y-22676984D02*
X4580034Y-22686508D01*
X4580034Y-22686508D02*
X4589558Y-22696031D01*
X4589558Y-22696031D02*
X4599082Y-22715079D01*
X4599082Y-22715079D02*
X4608605Y-22753174D01*
X4608605Y-22753174D02*
X4608605Y-22800793D01*
X4608605Y-22800793D02*
X4599082Y-22838888D01*
X4599082Y-22838888D02*
X4589558Y-22857936D01*
X4589558Y-22857936D02*
X4580034Y-22867460D01*
X4580034Y-22867460D02*
X4560986Y-22876984D01*
X4560986Y-22876984D02*
X4541939Y-22876984D01*
X4541939Y-22876984D02*
X4522891Y-22867460D01*
X4522891Y-22867460D02*
X4513367Y-22857936D01*
X4513367Y-22857936D02*
X4503844Y-22838888D01*
X4503844Y-22838888D02*
X4494320Y-22800793D01*
X4494320Y-22800793D02*
X4494320Y-22753174D01*
X4494320Y-22753174D02*
X4503844Y-22715079D01*
X4503844Y-22715079D02*
X4513367Y-22696031D01*
X4513367Y-22696031D02*
X4522891Y-22686508D01*
X4522891Y-22686508D02*
X4541939Y-22676984D01*
X4694320Y-22876984D02*
X4694320Y-22743650D01*
X4694320Y-22762698D02*
X4703844Y-22753174D01*
X4703844Y-22753174D02*
X4722891Y-22743650D01*
X4722891Y-22743650D02*
X4751463Y-22743650D01*
X4751463Y-22743650D02*
X4770510Y-22753174D01*
X4770510Y-22753174D02*
X4780034Y-22772222D01*
X4780034Y-22772222D02*
X4780034Y-22876984D01*
X4780034Y-22772222D02*
X4789558Y-22753174D01*
X4789558Y-22753174D02*
X4808605Y-22743650D01*
X4808605Y-22743650D02*
X4837177Y-22743650D01*
X4837177Y-22743650D02*
X4856225Y-22753174D01*
X4856225Y-22753174D02*
X4865748Y-22772222D01*
X4865748Y-22772222D02*
X4865748Y-22876984D01*
X4960986Y-22876984D02*
X4960986Y-22743650D01*
X4960986Y-22762698D02*
X4970510Y-22753174D01*
X4970510Y-22753174D02*
X4989558Y-22743650D01*
X4989558Y-22743650D02*
X5018129Y-22743650D01*
X5018129Y-22743650D02*
X5037177Y-22753174D01*
X5037177Y-22753174D02*
X5046701Y-22772222D01*
X5046701Y-22772222D02*
X5046701Y-22876984D01*
X5046701Y-22772222D02*
X5056225Y-22753174D01*
X5056225Y-22753174D02*
X5075272Y-22743650D01*
X5075272Y-22743650D02*
X5103844Y-22743650D01*
X5103844Y-22743650D02*
X5122891Y-22753174D01*
X5122891Y-22753174D02*
X5132415Y-22772222D01*
X5132415Y-22772222D02*
X5132415Y-22876984D01*
X5522891Y-22667460D02*
X5351463Y-22924603D01*
X5780034Y-22676984D02*
X5799082Y-22676984D01*
X5799082Y-22676984D02*
X5818129Y-22686508D01*
X5818129Y-22686508D02*
X5827653Y-22696031D01*
X5827653Y-22696031D02*
X5837177Y-22715079D01*
X5837177Y-22715079D02*
X5846701Y-22753174D01*
X5846701Y-22753174D02*
X5846701Y-22800793D01*
X5846701Y-22800793D02*
X5837177Y-22838888D01*
X5837177Y-22838888D02*
X5827653Y-22857936D01*
X5827653Y-22857936D02*
X5818129Y-22867460D01*
X5818129Y-22867460D02*
X5799082Y-22876984D01*
X5799082Y-22876984D02*
X5780034Y-22876984D01*
X5780034Y-22876984D02*
X5760986Y-22867460D01*
X5760986Y-22867460D02*
X5751463Y-22857936D01*
X5751463Y-22857936D02*
X5741939Y-22838888D01*
X5741939Y-22838888D02*
X5732415Y-22800793D01*
X5732415Y-22800793D02*
X5732415Y-22753174D01*
X5732415Y-22753174D02*
X5741939Y-22715079D01*
X5741939Y-22715079D02*
X5751463Y-22696031D01*
X5751463Y-22696031D02*
X5760986Y-22686508D01*
X5760986Y-22686508D02*
X5780034Y-22676984D01*
X5932415Y-22857936D02*
X5941939Y-22867460D01*
X5941939Y-22867460D02*
X5932415Y-22876984D01*
X5932415Y-22876984D02*
X5922891Y-22867460D01*
X5922891Y-22867460D02*
X5932415Y-22857936D01*
X5932415Y-22857936D02*
X5932415Y-22876984D01*
X6065748Y-22676984D02*
X6084796Y-22676984D01*
X6084796Y-22676984D02*
X6103844Y-22686508D01*
X6103844Y-22686508D02*
X6113367Y-22696031D01*
X6113367Y-22696031D02*
X6122891Y-22715079D01*
X6122891Y-22715079D02*
X6132415Y-22753174D01*
X6132415Y-22753174D02*
X6132415Y-22800793D01*
X6132415Y-22800793D02*
X6122891Y-22838888D01*
X6122891Y-22838888D02*
X6113367Y-22857936D01*
X6113367Y-22857936D02*
X6103844Y-22867460D01*
X6103844Y-22867460D02*
X6084796Y-22876984D01*
X6084796Y-22876984D02*
X6065748Y-22876984D01*
X6065748Y-22876984D02*
X6046701Y-22867460D01*
X6046701Y-22867460D02*
X6037177Y-22857936D01*
X6037177Y-22857936D02*
X6027653Y-22838888D01*
X6027653Y-22838888D02*
X6018129Y-22800793D01*
X6018129Y-22800793D02*
X6018129Y-22753174D01*
X6018129Y-22753174D02*
X6027653Y-22715079D01*
X6027653Y-22715079D02*
X6037177Y-22696031D01*
X6037177Y-22696031D02*
X6046701Y-22686508D01*
X6046701Y-22686508D02*
X6065748Y-22676984D01*
X6303844Y-22676984D02*
X6265748Y-22676984D01*
X6265748Y-22676984D02*
X6246701Y-22686508D01*
X6246701Y-22686508D02*
X6237177Y-22696031D01*
X6237177Y-22696031D02*
X6218129Y-22724603D01*
X6218129Y-22724603D02*
X6208606Y-22762698D01*
X6208606Y-22762698D02*
X6208606Y-22838888D01*
X6208606Y-22838888D02*
X6218129Y-22857936D01*
X6218129Y-22857936D02*
X6227653Y-22867460D01*
X6227653Y-22867460D02*
X6246701Y-22876984D01*
X6246701Y-22876984D02*
X6284796Y-22876984D01*
X6284796Y-22876984D02*
X6303844Y-22867460D01*
X6303844Y-22867460D02*
X6313367Y-22857936D01*
X6313367Y-22857936D02*
X6322891Y-22838888D01*
X6322891Y-22838888D02*
X6322891Y-22791269D01*
X6322891Y-22791269D02*
X6313367Y-22772222D01*
X6313367Y-22772222D02*
X6303844Y-22762698D01*
X6303844Y-22762698D02*
X6284796Y-22753174D01*
X6284796Y-22753174D02*
X6246701Y-22753174D01*
X6246701Y-22753174D02*
X6227653Y-22762698D01*
X6227653Y-22762698D02*
X6218129Y-22772222D01*
X6218129Y-22772222D02*
X6208606Y-22791269D01*
X6494320Y-22676984D02*
X6456225Y-22676984D01*
X6456225Y-22676984D02*
X6437177Y-22686508D01*
X6437177Y-22686508D02*
X6427653Y-22696031D01*
X6427653Y-22696031D02*
X6408606Y-22724603D01*
X6408606Y-22724603D02*
X6399082Y-22762698D01*
X6399082Y-22762698D02*
X6399082Y-22838888D01*
X6399082Y-22838888D02*
X6408606Y-22857936D01*
X6408606Y-22857936D02*
X6418129Y-22867460D01*
X6418129Y-22867460D02*
X6437177Y-22876984D01*
X6437177Y-22876984D02*
X6475272Y-22876984D01*
X6475272Y-22876984D02*
X6494320Y-22867460D01*
X6494320Y-22867460D02*
X6503844Y-22857936D01*
X6503844Y-22857936D02*
X6513367Y-22838888D01*
X6513367Y-22838888D02*
X6513367Y-22791269D01*
X6513367Y-22791269D02*
X6503844Y-22772222D01*
X6503844Y-22772222D02*
X6494320Y-22762698D01*
X6494320Y-22762698D02*
X6475272Y-22753174D01*
X6475272Y-22753174D02*
X6437177Y-22753174D01*
X6437177Y-22753174D02*
X6418129Y-22762698D01*
X6418129Y-22762698D02*
X6408606Y-22772222D01*
X6408606Y-22772222D02*
X6399082Y-22791269D01*
X6608606Y-22876984D02*
X6646701Y-22876984D01*
X6646701Y-22876984D02*
X6665748Y-22867460D01*
X6665748Y-22867460D02*
X6675272Y-22857936D01*
X6675272Y-22857936D02*
X6694320Y-22829365D01*
X6694320Y-22829365D02*
X6703844Y-22791269D01*
X6703844Y-22791269D02*
X6703844Y-22715079D01*
X6703844Y-22715079D02*
X6694320Y-22696031D01*
X6694320Y-22696031D02*
X6684796Y-22686508D01*
X6684796Y-22686508D02*
X6665748Y-22676984D01*
X6665748Y-22676984D02*
X6627653Y-22676984D01*
X6627653Y-22676984D02*
X6608606Y-22686508D01*
X6608606Y-22686508D02*
X6599082Y-22696031D01*
X6599082Y-22696031D02*
X6589558Y-22715079D01*
X6589558Y-22715079D02*
X6589558Y-22762698D01*
X6589558Y-22762698D02*
X6599082Y-22781746D01*
X6599082Y-22781746D02*
X6608606Y-22791269D01*
X6608606Y-22791269D02*
X6627653Y-22800793D01*
X6627653Y-22800793D02*
X6665748Y-22800793D01*
X6665748Y-22800793D02*
X6684796Y-22791269D01*
X6684796Y-22791269D02*
X6694320Y-22781746D01*
X6694320Y-22781746D02*
X6703844Y-22762698D01*
X6780034Y-22676984D02*
X6780034Y-22715079D01*
X6856225Y-22676984D02*
X6856225Y-22715079D01*
X7151463Y-22953174D02*
X7141939Y-22943650D01*
X7141939Y-22943650D02*
X7122891Y-22915079D01*
X7122891Y-22915079D02*
X7113368Y-22896031D01*
X7113368Y-22896031D02*
X7103844Y-22867460D01*
X7103844Y-22867460D02*
X7094320Y-22819841D01*
X7094320Y-22819841D02*
X7094320Y-22781746D01*
X7094320Y-22781746D02*
X7103844Y-22734127D01*
X7103844Y-22734127D02*
X7113368Y-22705555D01*
X7113368Y-22705555D02*
X7122891Y-22686508D01*
X7122891Y-22686508D02*
X7141939Y-22657936D01*
X7141939Y-22657936D02*
X7151463Y-22648412D01*
X7208606Y-22676984D02*
X7332415Y-22676984D01*
X7332415Y-22676984D02*
X7265748Y-22753174D01*
X7265748Y-22753174D02*
X7294320Y-22753174D01*
X7294320Y-22753174D02*
X7313368Y-22762698D01*
X7313368Y-22762698D02*
X7322891Y-22772222D01*
X7322891Y-22772222D02*
X7332415Y-22791269D01*
X7332415Y-22791269D02*
X7332415Y-22838888D01*
X7332415Y-22838888D02*
X7322891Y-22857936D01*
X7322891Y-22857936D02*
X7313368Y-22867460D01*
X7313368Y-22867460D02*
X7294320Y-22876984D01*
X7294320Y-22876984D02*
X7237177Y-22876984D01*
X7237177Y-22876984D02*
X7218129Y-22867460D01*
X7218129Y-22867460D02*
X7208606Y-22857936D01*
X7408606Y-22696031D02*
X7418129Y-22686508D01*
X7418129Y-22686508D02*
X7437177Y-22676984D01*
X7437177Y-22676984D02*
X7484796Y-22676984D01*
X7484796Y-22676984D02*
X7503844Y-22686508D01*
X7503844Y-22686508D02*
X7513368Y-22696031D01*
X7513368Y-22696031D02*
X7522891Y-22715079D01*
X7522891Y-22715079D02*
X7522891Y-22734127D01*
X7522891Y-22734127D02*
X7513368Y-22762698D01*
X7513368Y-22762698D02*
X7399082Y-22876984D01*
X7399082Y-22876984D02*
X7522891Y-22876984D01*
X7760987Y-22876984D02*
X7760987Y-22676984D01*
X7846701Y-22876984D02*
X7846701Y-22772222D01*
X7846701Y-22772222D02*
X7837177Y-22753174D01*
X7837177Y-22753174D02*
X7818130Y-22743650D01*
X7818130Y-22743650D02*
X7789558Y-22743650D01*
X7789558Y-22743650D02*
X7770510Y-22753174D01*
X7770510Y-22753174D02*
X7760987Y-22762698D01*
X7970510Y-22876984D02*
X7951463Y-22867460D01*
X7951463Y-22867460D02*
X7941939Y-22857936D01*
X7941939Y-22857936D02*
X7932415Y-22838888D01*
X7932415Y-22838888D02*
X7932415Y-22781746D01*
X7932415Y-22781746D02*
X7941939Y-22762698D01*
X7941939Y-22762698D02*
X7951463Y-22753174D01*
X7951463Y-22753174D02*
X7970510Y-22743650D01*
X7970510Y-22743650D02*
X7999082Y-22743650D01*
X7999082Y-22743650D02*
X8018130Y-22753174D01*
X8018130Y-22753174D02*
X8027653Y-22762698D01*
X8027653Y-22762698D02*
X8037177Y-22781746D01*
X8037177Y-22781746D02*
X8037177Y-22838888D01*
X8037177Y-22838888D02*
X8027653Y-22857936D01*
X8027653Y-22857936D02*
X8018130Y-22867460D01*
X8018130Y-22867460D02*
X7999082Y-22876984D01*
X7999082Y-22876984D02*
X7970510Y-22876984D01*
X8151463Y-22876984D02*
X8132415Y-22867460D01*
X8132415Y-22867460D02*
X8122891Y-22848412D01*
X8122891Y-22848412D02*
X8122891Y-22676984D01*
X8303844Y-22867460D02*
X8284796Y-22876984D01*
X8284796Y-22876984D02*
X8246701Y-22876984D01*
X8246701Y-22876984D02*
X8227653Y-22867460D01*
X8227653Y-22867460D02*
X8218130Y-22848412D01*
X8218130Y-22848412D02*
X8218130Y-22772222D01*
X8218130Y-22772222D02*
X8227653Y-22753174D01*
X8227653Y-22753174D02*
X8246701Y-22743650D01*
X8246701Y-22743650D02*
X8284796Y-22743650D01*
X8284796Y-22743650D02*
X8303844Y-22753174D01*
X8303844Y-22753174D02*
X8313368Y-22772222D01*
X8313368Y-22772222D02*
X8313368Y-22791269D01*
X8313368Y-22791269D02*
X8218130Y-22810317D01*
X8389558Y-22867460D02*
X8408606Y-22876984D01*
X8408606Y-22876984D02*
X8446701Y-22876984D01*
X8446701Y-22876984D02*
X8465749Y-22867460D01*
X8465749Y-22867460D02*
X8475273Y-22848412D01*
X8475273Y-22848412D02*
X8475273Y-22838888D01*
X8475273Y-22838888D02*
X8465749Y-22819841D01*
X8465749Y-22819841D02*
X8446701Y-22810317D01*
X8446701Y-22810317D02*
X8418130Y-22810317D01*
X8418130Y-22810317D02*
X8399082Y-22800793D01*
X8399082Y-22800793D02*
X8389558Y-22781746D01*
X8389558Y-22781746D02*
X8389558Y-22772222D01*
X8389558Y-22772222D02*
X8399082Y-22753174D01*
X8399082Y-22753174D02*
X8418130Y-22743650D01*
X8418130Y-22743650D02*
X8446701Y-22743650D01*
X8446701Y-22743650D02*
X8465749Y-22753174D01*
X8541939Y-22953174D02*
X8551463Y-22943650D01*
X8551463Y-22943650D02*
X8570511Y-22915079D01*
X8570511Y-22915079D02*
X8580034Y-22896031D01*
X8580034Y-22896031D02*
X8589558Y-22867460D01*
X8589558Y-22867460D02*
X8599082Y-22819841D01*
X8599082Y-22819841D02*
X8599082Y-22781746D01*
X8599082Y-22781746D02*
X8589558Y-22734127D01*
X8589558Y-22734127D02*
X8580034Y-22705555D01*
X8580034Y-22705555D02*
X8570511Y-22686508D01*
X8570511Y-22686508D02*
X8551463Y-22657936D01*
X8551463Y-22657936D02*
X8541939Y-22648412D01*
X3476400Y-23175500D02*
X3576400Y-23075500D01*
X3476400Y-22975500D01*
X3376400Y-23075500D01*
X3476400Y-23175500D01*
X3576400Y-23075500D02*
G75*
G03*
X3576400Y-23075500I-100000J0D01*
G01*
X3827653Y-22986031D02*
X3837177Y-22976508D01*
X3837177Y-22976508D02*
X3856224Y-22966984D01*
X3856224Y-22966984D02*
X3903843Y-22966984D01*
X3903843Y-22966984D02*
X3922891Y-22976508D01*
X3922891Y-22976508D02*
X3932415Y-22986031D01*
X3932415Y-22986031D02*
X3941939Y-23005079D01*
X3941939Y-23005079D02*
X3941939Y-23024127D01*
X3941939Y-23024127D02*
X3932415Y-23052698D01*
X3932415Y-23052698D02*
X3818129Y-23166984D01*
X3818129Y-23166984D02*
X3941939Y-23166984D01*
X4027653Y-23147936D02*
X4037177Y-23157460D01*
X4037177Y-23157460D02*
X4027653Y-23166984D01*
X4027653Y-23166984D02*
X4018129Y-23157460D01*
X4018129Y-23157460D02*
X4027653Y-23147936D01*
X4027653Y-23147936D02*
X4027653Y-23166984D01*
X4160986Y-22966984D02*
X4180034Y-22966984D01*
X4180034Y-22966984D02*
X4199082Y-22976508D01*
X4199082Y-22976508D02*
X4208605Y-22986031D01*
X4208605Y-22986031D02*
X4218129Y-23005079D01*
X4218129Y-23005079D02*
X4227653Y-23043174D01*
X4227653Y-23043174D02*
X4227653Y-23090793D01*
X4227653Y-23090793D02*
X4218129Y-23128888D01*
X4218129Y-23128888D02*
X4208605Y-23147936D01*
X4208605Y-23147936D02*
X4199082Y-23157460D01*
X4199082Y-23157460D02*
X4180034Y-23166984D01*
X4180034Y-23166984D02*
X4160986Y-23166984D01*
X4160986Y-23166984D02*
X4141939Y-23157460D01*
X4141939Y-23157460D02*
X4132415Y-23147936D01*
X4132415Y-23147936D02*
X4122891Y-23128888D01*
X4122891Y-23128888D02*
X4113367Y-23090793D01*
X4113367Y-23090793D02*
X4113367Y-23043174D01*
X4113367Y-23043174D02*
X4122891Y-23005079D01*
X4122891Y-23005079D02*
X4132415Y-22986031D01*
X4132415Y-22986031D02*
X4141939Y-22976508D01*
X4141939Y-22976508D02*
X4160986Y-22966984D01*
X4351463Y-22966984D02*
X4370510Y-22966984D01*
X4370510Y-22966984D02*
X4389558Y-22976508D01*
X4389558Y-22976508D02*
X4399082Y-22986031D01*
X4399082Y-22986031D02*
X4408605Y-23005079D01*
X4408605Y-23005079D02*
X4418129Y-23043174D01*
X4418129Y-23043174D02*
X4418129Y-23090793D01*
X4418129Y-23090793D02*
X4408605Y-23128888D01*
X4408605Y-23128888D02*
X4399082Y-23147936D01*
X4399082Y-23147936D02*
X4389558Y-23157460D01*
X4389558Y-23157460D02*
X4370510Y-23166984D01*
X4370510Y-23166984D02*
X4351463Y-23166984D01*
X4351463Y-23166984D02*
X4332415Y-23157460D01*
X4332415Y-23157460D02*
X4322891Y-23147936D01*
X4322891Y-23147936D02*
X4313367Y-23128888D01*
X4313367Y-23128888D02*
X4303844Y-23090793D01*
X4303844Y-23090793D02*
X4303844Y-23043174D01*
X4303844Y-23043174D02*
X4313367Y-23005079D01*
X4313367Y-23005079D02*
X4322891Y-22986031D01*
X4322891Y-22986031D02*
X4332415Y-22976508D01*
X4332415Y-22976508D02*
X4351463Y-22966984D01*
X4541939Y-22966984D02*
X4560986Y-22966984D01*
X4560986Y-22966984D02*
X4580034Y-22976508D01*
X4580034Y-22976508D02*
X4589558Y-22986031D01*
X4589558Y-22986031D02*
X4599082Y-23005079D01*
X4599082Y-23005079D02*
X4608605Y-23043174D01*
X4608605Y-23043174D02*
X4608605Y-23090793D01*
X4608605Y-23090793D02*
X4599082Y-23128888D01*
X4599082Y-23128888D02*
X4589558Y-23147936D01*
X4589558Y-23147936D02*
X4580034Y-23157460D01*
X4580034Y-23157460D02*
X4560986Y-23166984D01*
X4560986Y-23166984D02*
X4541939Y-23166984D01*
X4541939Y-23166984D02*
X4522891Y-23157460D01*
X4522891Y-23157460D02*
X4513367Y-23147936D01*
X4513367Y-23147936D02*
X4503844Y-23128888D01*
X4503844Y-23128888D02*
X4494320Y-23090793D01*
X4494320Y-23090793D02*
X4494320Y-23043174D01*
X4494320Y-23043174D02*
X4503844Y-23005079D01*
X4503844Y-23005079D02*
X4513367Y-22986031D01*
X4513367Y-22986031D02*
X4522891Y-22976508D01*
X4522891Y-22976508D02*
X4541939Y-22966984D01*
X4694320Y-23166984D02*
X4694320Y-23033650D01*
X4694320Y-23052698D02*
X4703844Y-23043174D01*
X4703844Y-23043174D02*
X4722891Y-23033650D01*
X4722891Y-23033650D02*
X4751463Y-23033650D01*
X4751463Y-23033650D02*
X4770510Y-23043174D01*
X4770510Y-23043174D02*
X4780034Y-23062222D01*
X4780034Y-23062222D02*
X4780034Y-23166984D01*
X4780034Y-23062222D02*
X4789558Y-23043174D01*
X4789558Y-23043174D02*
X4808605Y-23033650D01*
X4808605Y-23033650D02*
X4837177Y-23033650D01*
X4837177Y-23033650D02*
X4856225Y-23043174D01*
X4856225Y-23043174D02*
X4865748Y-23062222D01*
X4865748Y-23062222D02*
X4865748Y-23166984D01*
X4960986Y-23166984D02*
X4960986Y-23033650D01*
X4960986Y-23052698D02*
X4970510Y-23043174D01*
X4970510Y-23043174D02*
X4989558Y-23033650D01*
X4989558Y-23033650D02*
X5018129Y-23033650D01*
X5018129Y-23033650D02*
X5037177Y-23043174D01*
X5037177Y-23043174D02*
X5046701Y-23062222D01*
X5046701Y-23062222D02*
X5046701Y-23166984D01*
X5046701Y-23062222D02*
X5056225Y-23043174D01*
X5056225Y-23043174D02*
X5075272Y-23033650D01*
X5075272Y-23033650D02*
X5103844Y-23033650D01*
X5103844Y-23033650D02*
X5122891Y-23043174D01*
X5122891Y-23043174D02*
X5132415Y-23062222D01*
X5132415Y-23062222D02*
X5132415Y-23166984D01*
X5522891Y-22957460D02*
X5351463Y-23214603D01*
X5780034Y-22966984D02*
X5799082Y-22966984D01*
X5799082Y-22966984D02*
X5818129Y-22976508D01*
X5818129Y-22976508D02*
X5827653Y-22986031D01*
X5827653Y-22986031D02*
X5837177Y-23005079D01*
X5837177Y-23005079D02*
X5846701Y-23043174D01*
X5846701Y-23043174D02*
X5846701Y-23090793D01*
X5846701Y-23090793D02*
X5837177Y-23128888D01*
X5837177Y-23128888D02*
X5827653Y-23147936D01*
X5827653Y-23147936D02*
X5818129Y-23157460D01*
X5818129Y-23157460D02*
X5799082Y-23166984D01*
X5799082Y-23166984D02*
X5780034Y-23166984D01*
X5780034Y-23166984D02*
X5760986Y-23157460D01*
X5760986Y-23157460D02*
X5751463Y-23147936D01*
X5751463Y-23147936D02*
X5741939Y-23128888D01*
X5741939Y-23128888D02*
X5732415Y-23090793D01*
X5732415Y-23090793D02*
X5732415Y-23043174D01*
X5732415Y-23043174D02*
X5741939Y-23005079D01*
X5741939Y-23005079D02*
X5751463Y-22986031D01*
X5751463Y-22986031D02*
X5760986Y-22976508D01*
X5760986Y-22976508D02*
X5780034Y-22966984D01*
X5932415Y-23147936D02*
X5941939Y-23157460D01*
X5941939Y-23157460D02*
X5932415Y-23166984D01*
X5932415Y-23166984D02*
X5922891Y-23157460D01*
X5922891Y-23157460D02*
X5932415Y-23147936D01*
X5932415Y-23147936D02*
X5932415Y-23166984D01*
X6065748Y-22966984D02*
X6084796Y-22966984D01*
X6084796Y-22966984D02*
X6103844Y-22976508D01*
X6103844Y-22976508D02*
X6113367Y-22986031D01*
X6113367Y-22986031D02*
X6122891Y-23005079D01*
X6122891Y-23005079D02*
X6132415Y-23043174D01*
X6132415Y-23043174D02*
X6132415Y-23090793D01*
X6132415Y-23090793D02*
X6122891Y-23128888D01*
X6122891Y-23128888D02*
X6113367Y-23147936D01*
X6113367Y-23147936D02*
X6103844Y-23157460D01*
X6103844Y-23157460D02*
X6084796Y-23166984D01*
X6084796Y-23166984D02*
X6065748Y-23166984D01*
X6065748Y-23166984D02*
X6046701Y-23157460D01*
X6046701Y-23157460D02*
X6037177Y-23147936D01*
X6037177Y-23147936D02*
X6027653Y-23128888D01*
X6027653Y-23128888D02*
X6018129Y-23090793D01*
X6018129Y-23090793D02*
X6018129Y-23043174D01*
X6018129Y-23043174D02*
X6027653Y-23005079D01*
X6027653Y-23005079D02*
X6037177Y-22986031D01*
X6037177Y-22986031D02*
X6046701Y-22976508D01*
X6046701Y-22976508D02*
X6065748Y-22966984D01*
X6199082Y-22966984D02*
X6332415Y-22966984D01*
X6332415Y-22966984D02*
X6246701Y-23166984D01*
X6437177Y-23052698D02*
X6418129Y-23043174D01*
X6418129Y-23043174D02*
X6408606Y-23033650D01*
X6408606Y-23033650D02*
X6399082Y-23014603D01*
X6399082Y-23014603D02*
X6399082Y-23005079D01*
X6399082Y-23005079D02*
X6408606Y-22986031D01*
X6408606Y-22986031D02*
X6418129Y-22976508D01*
X6418129Y-22976508D02*
X6437177Y-22966984D01*
X6437177Y-22966984D02*
X6475272Y-22966984D01*
X6475272Y-22966984D02*
X6494320Y-22976508D01*
X6494320Y-22976508D02*
X6503844Y-22986031D01*
X6503844Y-22986031D02*
X6513367Y-23005079D01*
X6513367Y-23005079D02*
X6513367Y-23014603D01*
X6513367Y-23014603D02*
X6503844Y-23033650D01*
X6503844Y-23033650D02*
X6494320Y-23043174D01*
X6494320Y-23043174D02*
X6475272Y-23052698D01*
X6475272Y-23052698D02*
X6437177Y-23052698D01*
X6437177Y-23052698D02*
X6418129Y-23062222D01*
X6418129Y-23062222D02*
X6408606Y-23071746D01*
X6408606Y-23071746D02*
X6399082Y-23090793D01*
X6399082Y-23090793D02*
X6399082Y-23128888D01*
X6399082Y-23128888D02*
X6408606Y-23147936D01*
X6408606Y-23147936D02*
X6418129Y-23157460D01*
X6418129Y-23157460D02*
X6437177Y-23166984D01*
X6437177Y-23166984D02*
X6475272Y-23166984D01*
X6475272Y-23166984D02*
X6494320Y-23157460D01*
X6494320Y-23157460D02*
X6503844Y-23147936D01*
X6503844Y-23147936D02*
X6513367Y-23128888D01*
X6513367Y-23128888D02*
X6513367Y-23090793D01*
X6513367Y-23090793D02*
X6503844Y-23071746D01*
X6503844Y-23071746D02*
X6494320Y-23062222D01*
X6494320Y-23062222D02*
X6475272Y-23052698D01*
X6580034Y-22966984D02*
X6713367Y-22966984D01*
X6713367Y-22966984D02*
X6627653Y-23166984D01*
X6780034Y-22966984D02*
X6780034Y-23005079D01*
X6856225Y-22966984D02*
X6856225Y-23005079D01*
X7151463Y-23243174D02*
X7141939Y-23233650D01*
X7141939Y-23233650D02*
X7122891Y-23205079D01*
X7122891Y-23205079D02*
X7113368Y-23186031D01*
X7113368Y-23186031D02*
X7103844Y-23157460D01*
X7103844Y-23157460D02*
X7094320Y-23109841D01*
X7094320Y-23109841D02*
X7094320Y-23071746D01*
X7094320Y-23071746D02*
X7103844Y-23024127D01*
X7103844Y-23024127D02*
X7113368Y-22995555D01*
X7113368Y-22995555D02*
X7122891Y-22976508D01*
X7122891Y-22976508D02*
X7141939Y-22947936D01*
X7141939Y-22947936D02*
X7151463Y-22938412D01*
X7332415Y-23166984D02*
X7218129Y-23166984D01*
X7275272Y-23166984D02*
X7275272Y-22966984D01*
X7275272Y-22966984D02*
X7256225Y-22995555D01*
X7256225Y-22995555D02*
X7237177Y-23014603D01*
X7237177Y-23014603D02*
X7218129Y-23024127D01*
X7570510Y-23166984D02*
X7570510Y-22966984D01*
X7656225Y-23166984D02*
X7656225Y-23062222D01*
X7656225Y-23062222D02*
X7646701Y-23043174D01*
X7646701Y-23043174D02*
X7627653Y-23033650D01*
X7627653Y-23033650D02*
X7599082Y-23033650D01*
X7599082Y-23033650D02*
X7580034Y-23043174D01*
X7580034Y-23043174D02*
X7570510Y-23052698D01*
X7780034Y-23166984D02*
X7760987Y-23157460D01*
X7760987Y-23157460D02*
X7751463Y-23147936D01*
X7751463Y-23147936D02*
X7741939Y-23128888D01*
X7741939Y-23128888D02*
X7741939Y-23071746D01*
X7741939Y-23071746D02*
X7751463Y-23052698D01*
X7751463Y-23052698D02*
X7760987Y-23043174D01*
X7760987Y-23043174D02*
X7780034Y-23033650D01*
X7780034Y-23033650D02*
X7808606Y-23033650D01*
X7808606Y-23033650D02*
X7827653Y-23043174D01*
X7827653Y-23043174D02*
X7837177Y-23052698D01*
X7837177Y-23052698D02*
X7846701Y-23071746D01*
X7846701Y-23071746D02*
X7846701Y-23128888D01*
X7846701Y-23128888D02*
X7837177Y-23147936D01*
X7837177Y-23147936D02*
X7827653Y-23157460D01*
X7827653Y-23157460D02*
X7808606Y-23166984D01*
X7808606Y-23166984D02*
X7780034Y-23166984D01*
X7960987Y-23166984D02*
X7941939Y-23157460D01*
X7941939Y-23157460D02*
X7932415Y-23138412D01*
X7932415Y-23138412D02*
X7932415Y-22966984D01*
X8113368Y-23157460D02*
X8094320Y-23166984D01*
X8094320Y-23166984D02*
X8056225Y-23166984D01*
X8056225Y-23166984D02*
X8037177Y-23157460D01*
X8037177Y-23157460D02*
X8027653Y-23138412D01*
X8027653Y-23138412D02*
X8027653Y-23062222D01*
X8027653Y-23062222D02*
X8037177Y-23043174D01*
X8037177Y-23043174D02*
X8056225Y-23033650D01*
X8056225Y-23033650D02*
X8094320Y-23033650D01*
X8094320Y-23033650D02*
X8113368Y-23043174D01*
X8113368Y-23043174D02*
X8122891Y-23062222D01*
X8122891Y-23062222D02*
X8122891Y-23081269D01*
X8122891Y-23081269D02*
X8027653Y-23100317D01*
X8189558Y-23243174D02*
X8199082Y-23233650D01*
X8199082Y-23233650D02*
X8218130Y-23205079D01*
X8218130Y-23205079D02*
X8227653Y-23186031D01*
X8227653Y-23186031D02*
X8237177Y-23157460D01*
X8237177Y-23157460D02*
X8246701Y-23109841D01*
X8246701Y-23109841D02*
X8246701Y-23071746D01*
X8246701Y-23071746D02*
X8237177Y-23024127D01*
X8237177Y-23024127D02*
X8227653Y-22995555D01*
X8227653Y-22995555D02*
X8218130Y-22976508D01*
X8218130Y-22976508D02*
X8199082Y-22947936D01*
X8199082Y-22947936D02*
X8189558Y-22938412D01*
M02*
