%TF.GenerationSoftware,KiCad,Pcbnew,7.0.7*%
%TF.CreationDate,2023-10-20T13:38:14-04:00*%
%TF.ProjectId,Schematic,53636865-6d61-4746-9963-2e6b69636164,rev?*%
%TF.SameCoordinates,Original*%
%TF.FileFunction,Drillmap*%
%TF.FilePolarity,Positive*%
%FSLAX45Y45*%
G04 Gerber Fmt 4.5, Leading zero omitted, Abs format (unit mm)*
G04 Created by KiCad (PCBNEW 7.0.7) date 2023-10-20 13:38:14*
%MOMM*%
%LPD*%
G01*
G04 APERTURE LIST*
%ADD10C,0.100000*%
%ADD11C,0.200000*%
%ADD12C,0.500000*%
G04 APERTURE END LIST*
D10*
X3581400Y-2349500D02*
X15113000Y-2349500D01*
X15113000Y-19494500D01*
X3581400Y-19494500D01*
X3581400Y-2349500D01*
D11*
D12*
X3944100Y-2712200D02*
X4444100Y-3212200D01*
X4444100Y-2712200D02*
X3944100Y-3212200D01*
X3944100Y-18631800D02*
X4444100Y-19131800D01*
X4444100Y-18631800D02*
X3944100Y-19131800D01*
X14250300Y-2712200D02*
X14750300Y-3212200D01*
X14750300Y-2712200D02*
X14250300Y-3212200D01*
X14250300Y-18631800D02*
X14750300Y-19131800D01*
X14750300Y-18631800D02*
X14250300Y-19131800D01*
D11*
X3837177Y-19810984D02*
X3837177Y-19610984D01*
X3837177Y-19610984D02*
X3884796Y-19610984D01*
X3884796Y-19610984D02*
X3913367Y-19620508D01*
X3913367Y-19620508D02*
X3932415Y-19639555D01*
X3932415Y-19639555D02*
X3941939Y-19658603D01*
X3941939Y-19658603D02*
X3951462Y-19696698D01*
X3951462Y-19696698D02*
X3951462Y-19725270D01*
X3951462Y-19725270D02*
X3941939Y-19763365D01*
X3941939Y-19763365D02*
X3932415Y-19782412D01*
X3932415Y-19782412D02*
X3913367Y-19801460D01*
X3913367Y-19801460D02*
X3884796Y-19810984D01*
X3884796Y-19810984D02*
X3837177Y-19810984D01*
X4037177Y-19810984D02*
X4037177Y-19677650D01*
X4037177Y-19715746D02*
X4046701Y-19696698D01*
X4046701Y-19696698D02*
X4056224Y-19687174D01*
X4056224Y-19687174D02*
X4075272Y-19677650D01*
X4075272Y-19677650D02*
X4094320Y-19677650D01*
X4160986Y-19810984D02*
X4160986Y-19677650D01*
X4160986Y-19610984D02*
X4151462Y-19620508D01*
X4151462Y-19620508D02*
X4160986Y-19630031D01*
X4160986Y-19630031D02*
X4170510Y-19620508D01*
X4170510Y-19620508D02*
X4160986Y-19610984D01*
X4160986Y-19610984D02*
X4160986Y-19630031D01*
X4284796Y-19810984D02*
X4265748Y-19801460D01*
X4265748Y-19801460D02*
X4256224Y-19782412D01*
X4256224Y-19782412D02*
X4256224Y-19610984D01*
X4389558Y-19810984D02*
X4370510Y-19801460D01*
X4370510Y-19801460D02*
X4360986Y-19782412D01*
X4360986Y-19782412D02*
X4360986Y-19610984D01*
X4618129Y-19810984D02*
X4618129Y-19610984D01*
X4618129Y-19610984D02*
X4684796Y-19753841D01*
X4684796Y-19753841D02*
X4751463Y-19610984D01*
X4751463Y-19610984D02*
X4751463Y-19810984D01*
X4932415Y-19810984D02*
X4932415Y-19706222D01*
X4932415Y-19706222D02*
X4922891Y-19687174D01*
X4922891Y-19687174D02*
X4903844Y-19677650D01*
X4903844Y-19677650D02*
X4865748Y-19677650D01*
X4865748Y-19677650D02*
X4846701Y-19687174D01*
X4932415Y-19801460D02*
X4913367Y-19810984D01*
X4913367Y-19810984D02*
X4865748Y-19810984D01*
X4865748Y-19810984D02*
X4846701Y-19801460D01*
X4846701Y-19801460D02*
X4837177Y-19782412D01*
X4837177Y-19782412D02*
X4837177Y-19763365D01*
X4837177Y-19763365D02*
X4846701Y-19744317D01*
X4846701Y-19744317D02*
X4865748Y-19734793D01*
X4865748Y-19734793D02*
X4913367Y-19734793D01*
X4913367Y-19734793D02*
X4932415Y-19725270D01*
X5027653Y-19677650D02*
X5027653Y-19877650D01*
X5027653Y-19687174D02*
X5046701Y-19677650D01*
X5046701Y-19677650D02*
X5084796Y-19677650D01*
X5084796Y-19677650D02*
X5103844Y-19687174D01*
X5103844Y-19687174D02*
X5113367Y-19696698D01*
X5113367Y-19696698D02*
X5122891Y-19715746D01*
X5122891Y-19715746D02*
X5122891Y-19772889D01*
X5122891Y-19772889D02*
X5113367Y-19791936D01*
X5113367Y-19791936D02*
X5103844Y-19801460D01*
X5103844Y-19801460D02*
X5084796Y-19810984D01*
X5084796Y-19810984D02*
X5046701Y-19810984D01*
X5046701Y-19810984D02*
X5027653Y-19801460D01*
X5208605Y-19791936D02*
X5218129Y-19801460D01*
X5218129Y-19801460D02*
X5208605Y-19810984D01*
X5208605Y-19810984D02*
X5199082Y-19801460D01*
X5199082Y-19801460D02*
X5208605Y-19791936D01*
X5208605Y-19791936D02*
X5208605Y-19810984D01*
X5208605Y-19687174D02*
X5218129Y-19696698D01*
X5218129Y-19696698D02*
X5208605Y-19706222D01*
X5208605Y-19706222D02*
X5199082Y-19696698D01*
X5199082Y-19696698D02*
X5208605Y-19687174D01*
X5208605Y-19687174D02*
X5208605Y-19706222D01*
X3376400Y-20039500D02*
X3576400Y-20239500D01*
X3576400Y-20039500D02*
X3376400Y-20239500D01*
X3932415Y-20030984D02*
X3837177Y-20030984D01*
X3837177Y-20030984D02*
X3827653Y-20126222D01*
X3827653Y-20126222D02*
X3837177Y-20116698D01*
X3837177Y-20116698D02*
X3856224Y-20107174D01*
X3856224Y-20107174D02*
X3903843Y-20107174D01*
X3903843Y-20107174D02*
X3922891Y-20116698D01*
X3922891Y-20116698D02*
X3932415Y-20126222D01*
X3932415Y-20126222D02*
X3941939Y-20145270D01*
X3941939Y-20145270D02*
X3941939Y-20192889D01*
X3941939Y-20192889D02*
X3932415Y-20211936D01*
X3932415Y-20211936D02*
X3922891Y-20221460D01*
X3922891Y-20221460D02*
X3903843Y-20230984D01*
X3903843Y-20230984D02*
X3856224Y-20230984D01*
X3856224Y-20230984D02*
X3837177Y-20221460D01*
X3837177Y-20221460D02*
X3827653Y-20211936D01*
X4027653Y-20211936D02*
X4037177Y-20221460D01*
X4037177Y-20221460D02*
X4027653Y-20230984D01*
X4027653Y-20230984D02*
X4018129Y-20221460D01*
X4018129Y-20221460D02*
X4027653Y-20211936D01*
X4027653Y-20211936D02*
X4027653Y-20230984D01*
X4160986Y-20030984D02*
X4180034Y-20030984D01*
X4180034Y-20030984D02*
X4199082Y-20040508D01*
X4199082Y-20040508D02*
X4208605Y-20050031D01*
X4208605Y-20050031D02*
X4218129Y-20069079D01*
X4218129Y-20069079D02*
X4227653Y-20107174D01*
X4227653Y-20107174D02*
X4227653Y-20154793D01*
X4227653Y-20154793D02*
X4218129Y-20192889D01*
X4218129Y-20192889D02*
X4208605Y-20211936D01*
X4208605Y-20211936D02*
X4199082Y-20221460D01*
X4199082Y-20221460D02*
X4180034Y-20230984D01*
X4180034Y-20230984D02*
X4160986Y-20230984D01*
X4160986Y-20230984D02*
X4141939Y-20221460D01*
X4141939Y-20221460D02*
X4132415Y-20211936D01*
X4132415Y-20211936D02*
X4122891Y-20192889D01*
X4122891Y-20192889D02*
X4113367Y-20154793D01*
X4113367Y-20154793D02*
X4113367Y-20107174D01*
X4113367Y-20107174D02*
X4122891Y-20069079D01*
X4122891Y-20069079D02*
X4132415Y-20050031D01*
X4132415Y-20050031D02*
X4141939Y-20040508D01*
X4141939Y-20040508D02*
X4160986Y-20030984D01*
X4351463Y-20030984D02*
X4370510Y-20030984D01*
X4370510Y-20030984D02*
X4389558Y-20040508D01*
X4389558Y-20040508D02*
X4399082Y-20050031D01*
X4399082Y-20050031D02*
X4408605Y-20069079D01*
X4408605Y-20069079D02*
X4418129Y-20107174D01*
X4418129Y-20107174D02*
X4418129Y-20154793D01*
X4418129Y-20154793D02*
X4408605Y-20192889D01*
X4408605Y-20192889D02*
X4399082Y-20211936D01*
X4399082Y-20211936D02*
X4389558Y-20221460D01*
X4389558Y-20221460D02*
X4370510Y-20230984D01*
X4370510Y-20230984D02*
X4351463Y-20230984D01*
X4351463Y-20230984D02*
X4332415Y-20221460D01*
X4332415Y-20221460D02*
X4322891Y-20211936D01*
X4322891Y-20211936D02*
X4313367Y-20192889D01*
X4313367Y-20192889D02*
X4303844Y-20154793D01*
X4303844Y-20154793D02*
X4303844Y-20107174D01*
X4303844Y-20107174D02*
X4313367Y-20069079D01*
X4313367Y-20069079D02*
X4322891Y-20050031D01*
X4322891Y-20050031D02*
X4332415Y-20040508D01*
X4332415Y-20040508D02*
X4351463Y-20030984D01*
X4541939Y-20030984D02*
X4560986Y-20030984D01*
X4560986Y-20030984D02*
X4580034Y-20040508D01*
X4580034Y-20040508D02*
X4589558Y-20050031D01*
X4589558Y-20050031D02*
X4599082Y-20069079D01*
X4599082Y-20069079D02*
X4608605Y-20107174D01*
X4608605Y-20107174D02*
X4608605Y-20154793D01*
X4608605Y-20154793D02*
X4599082Y-20192889D01*
X4599082Y-20192889D02*
X4589558Y-20211936D01*
X4589558Y-20211936D02*
X4580034Y-20221460D01*
X4580034Y-20221460D02*
X4560986Y-20230984D01*
X4560986Y-20230984D02*
X4541939Y-20230984D01*
X4541939Y-20230984D02*
X4522891Y-20221460D01*
X4522891Y-20221460D02*
X4513367Y-20211936D01*
X4513367Y-20211936D02*
X4503844Y-20192889D01*
X4503844Y-20192889D02*
X4494320Y-20154793D01*
X4494320Y-20154793D02*
X4494320Y-20107174D01*
X4494320Y-20107174D02*
X4503844Y-20069079D01*
X4503844Y-20069079D02*
X4513367Y-20050031D01*
X4513367Y-20050031D02*
X4522891Y-20040508D01*
X4522891Y-20040508D02*
X4541939Y-20030984D01*
X4694320Y-20230984D02*
X4694320Y-20097650D01*
X4694320Y-20116698D02*
X4703844Y-20107174D01*
X4703844Y-20107174D02*
X4722891Y-20097650D01*
X4722891Y-20097650D02*
X4751463Y-20097650D01*
X4751463Y-20097650D02*
X4770510Y-20107174D01*
X4770510Y-20107174D02*
X4780034Y-20126222D01*
X4780034Y-20126222D02*
X4780034Y-20230984D01*
X4780034Y-20126222D02*
X4789558Y-20107174D01*
X4789558Y-20107174D02*
X4808605Y-20097650D01*
X4808605Y-20097650D02*
X4837177Y-20097650D01*
X4837177Y-20097650D02*
X4856225Y-20107174D01*
X4856225Y-20107174D02*
X4865748Y-20126222D01*
X4865748Y-20126222D02*
X4865748Y-20230984D01*
X4960986Y-20230984D02*
X4960986Y-20097650D01*
X4960986Y-20116698D02*
X4970510Y-20107174D01*
X4970510Y-20107174D02*
X4989558Y-20097650D01*
X4989558Y-20097650D02*
X5018129Y-20097650D01*
X5018129Y-20097650D02*
X5037177Y-20107174D01*
X5037177Y-20107174D02*
X5046701Y-20126222D01*
X5046701Y-20126222D02*
X5046701Y-20230984D01*
X5046701Y-20126222D02*
X5056225Y-20107174D01*
X5056225Y-20107174D02*
X5075272Y-20097650D01*
X5075272Y-20097650D02*
X5103844Y-20097650D01*
X5103844Y-20097650D02*
X5122891Y-20107174D01*
X5122891Y-20107174D02*
X5132415Y-20126222D01*
X5132415Y-20126222D02*
X5132415Y-20230984D01*
X5522891Y-20021460D02*
X5351463Y-20278603D01*
X5780034Y-20030984D02*
X5799082Y-20030984D01*
X5799082Y-20030984D02*
X5818129Y-20040508D01*
X5818129Y-20040508D02*
X5827653Y-20050031D01*
X5827653Y-20050031D02*
X5837177Y-20069079D01*
X5837177Y-20069079D02*
X5846701Y-20107174D01*
X5846701Y-20107174D02*
X5846701Y-20154793D01*
X5846701Y-20154793D02*
X5837177Y-20192889D01*
X5837177Y-20192889D02*
X5827653Y-20211936D01*
X5827653Y-20211936D02*
X5818129Y-20221460D01*
X5818129Y-20221460D02*
X5799082Y-20230984D01*
X5799082Y-20230984D02*
X5780034Y-20230984D01*
X5780034Y-20230984D02*
X5760986Y-20221460D01*
X5760986Y-20221460D02*
X5751463Y-20211936D01*
X5751463Y-20211936D02*
X5741939Y-20192889D01*
X5741939Y-20192889D02*
X5732415Y-20154793D01*
X5732415Y-20154793D02*
X5732415Y-20107174D01*
X5732415Y-20107174D02*
X5741939Y-20069079D01*
X5741939Y-20069079D02*
X5751463Y-20050031D01*
X5751463Y-20050031D02*
X5760986Y-20040508D01*
X5760986Y-20040508D02*
X5780034Y-20030984D01*
X5932415Y-20211936D02*
X5941939Y-20221460D01*
X5941939Y-20221460D02*
X5932415Y-20230984D01*
X5932415Y-20230984D02*
X5922891Y-20221460D01*
X5922891Y-20221460D02*
X5932415Y-20211936D01*
X5932415Y-20211936D02*
X5932415Y-20230984D01*
X6132415Y-20230984D02*
X6018129Y-20230984D01*
X6075272Y-20230984D02*
X6075272Y-20030984D01*
X6075272Y-20030984D02*
X6056225Y-20059555D01*
X6056225Y-20059555D02*
X6037177Y-20078603D01*
X6037177Y-20078603D02*
X6018129Y-20088127D01*
X6227653Y-20230984D02*
X6265748Y-20230984D01*
X6265748Y-20230984D02*
X6284796Y-20221460D01*
X6284796Y-20221460D02*
X6294320Y-20211936D01*
X6294320Y-20211936D02*
X6313367Y-20183365D01*
X6313367Y-20183365D02*
X6322891Y-20145270D01*
X6322891Y-20145270D02*
X6322891Y-20069079D01*
X6322891Y-20069079D02*
X6313367Y-20050031D01*
X6313367Y-20050031D02*
X6303844Y-20040508D01*
X6303844Y-20040508D02*
X6284796Y-20030984D01*
X6284796Y-20030984D02*
X6246701Y-20030984D01*
X6246701Y-20030984D02*
X6227653Y-20040508D01*
X6227653Y-20040508D02*
X6218129Y-20050031D01*
X6218129Y-20050031D02*
X6208606Y-20069079D01*
X6208606Y-20069079D02*
X6208606Y-20116698D01*
X6208606Y-20116698D02*
X6218129Y-20135746D01*
X6218129Y-20135746D02*
X6227653Y-20145270D01*
X6227653Y-20145270D02*
X6246701Y-20154793D01*
X6246701Y-20154793D02*
X6284796Y-20154793D01*
X6284796Y-20154793D02*
X6303844Y-20145270D01*
X6303844Y-20145270D02*
X6313367Y-20135746D01*
X6313367Y-20135746D02*
X6322891Y-20116698D01*
X6494320Y-20030984D02*
X6456225Y-20030984D01*
X6456225Y-20030984D02*
X6437177Y-20040508D01*
X6437177Y-20040508D02*
X6427653Y-20050031D01*
X6427653Y-20050031D02*
X6408606Y-20078603D01*
X6408606Y-20078603D02*
X6399082Y-20116698D01*
X6399082Y-20116698D02*
X6399082Y-20192889D01*
X6399082Y-20192889D02*
X6408606Y-20211936D01*
X6408606Y-20211936D02*
X6418129Y-20221460D01*
X6418129Y-20221460D02*
X6437177Y-20230984D01*
X6437177Y-20230984D02*
X6475272Y-20230984D01*
X6475272Y-20230984D02*
X6494320Y-20221460D01*
X6494320Y-20221460D02*
X6503844Y-20211936D01*
X6503844Y-20211936D02*
X6513367Y-20192889D01*
X6513367Y-20192889D02*
X6513367Y-20145270D01*
X6513367Y-20145270D02*
X6503844Y-20126222D01*
X6503844Y-20126222D02*
X6494320Y-20116698D01*
X6494320Y-20116698D02*
X6475272Y-20107174D01*
X6475272Y-20107174D02*
X6437177Y-20107174D01*
X6437177Y-20107174D02*
X6418129Y-20116698D01*
X6418129Y-20116698D02*
X6408606Y-20126222D01*
X6408606Y-20126222D02*
X6399082Y-20145270D01*
X6608606Y-20230984D02*
X6646701Y-20230984D01*
X6646701Y-20230984D02*
X6665748Y-20221460D01*
X6665748Y-20221460D02*
X6675272Y-20211936D01*
X6675272Y-20211936D02*
X6694320Y-20183365D01*
X6694320Y-20183365D02*
X6703844Y-20145270D01*
X6703844Y-20145270D02*
X6703844Y-20069079D01*
X6703844Y-20069079D02*
X6694320Y-20050031D01*
X6694320Y-20050031D02*
X6684796Y-20040508D01*
X6684796Y-20040508D02*
X6665748Y-20030984D01*
X6665748Y-20030984D02*
X6627653Y-20030984D01*
X6627653Y-20030984D02*
X6608606Y-20040508D01*
X6608606Y-20040508D02*
X6599082Y-20050031D01*
X6599082Y-20050031D02*
X6589558Y-20069079D01*
X6589558Y-20069079D02*
X6589558Y-20116698D01*
X6589558Y-20116698D02*
X6599082Y-20135746D01*
X6599082Y-20135746D02*
X6608606Y-20145270D01*
X6608606Y-20145270D02*
X6627653Y-20154793D01*
X6627653Y-20154793D02*
X6665748Y-20154793D01*
X6665748Y-20154793D02*
X6684796Y-20145270D01*
X6684796Y-20145270D02*
X6694320Y-20135746D01*
X6694320Y-20135746D02*
X6703844Y-20116698D01*
X6780034Y-20030984D02*
X6780034Y-20069079D01*
X6856225Y-20030984D02*
X6856225Y-20069079D01*
X7151463Y-20307174D02*
X7141939Y-20297650D01*
X7141939Y-20297650D02*
X7122891Y-20269079D01*
X7122891Y-20269079D02*
X7113368Y-20250031D01*
X7113368Y-20250031D02*
X7103844Y-20221460D01*
X7103844Y-20221460D02*
X7094320Y-20173841D01*
X7094320Y-20173841D02*
X7094320Y-20135746D01*
X7094320Y-20135746D02*
X7103844Y-20088127D01*
X7103844Y-20088127D02*
X7113368Y-20059555D01*
X7113368Y-20059555D02*
X7122891Y-20040508D01*
X7122891Y-20040508D02*
X7141939Y-20011936D01*
X7141939Y-20011936D02*
X7151463Y-20002412D01*
X7313368Y-20097650D02*
X7313368Y-20230984D01*
X7265748Y-20021460D02*
X7218129Y-20164317D01*
X7218129Y-20164317D02*
X7341939Y-20164317D01*
X7570510Y-20230984D02*
X7570510Y-20030984D01*
X7656225Y-20230984D02*
X7656225Y-20126222D01*
X7656225Y-20126222D02*
X7646701Y-20107174D01*
X7646701Y-20107174D02*
X7627653Y-20097650D01*
X7627653Y-20097650D02*
X7599082Y-20097650D01*
X7599082Y-20097650D02*
X7580034Y-20107174D01*
X7580034Y-20107174D02*
X7570510Y-20116698D01*
X7780034Y-20230984D02*
X7760987Y-20221460D01*
X7760987Y-20221460D02*
X7751463Y-20211936D01*
X7751463Y-20211936D02*
X7741939Y-20192889D01*
X7741939Y-20192889D02*
X7741939Y-20135746D01*
X7741939Y-20135746D02*
X7751463Y-20116698D01*
X7751463Y-20116698D02*
X7760987Y-20107174D01*
X7760987Y-20107174D02*
X7780034Y-20097650D01*
X7780034Y-20097650D02*
X7808606Y-20097650D01*
X7808606Y-20097650D02*
X7827653Y-20107174D01*
X7827653Y-20107174D02*
X7837177Y-20116698D01*
X7837177Y-20116698D02*
X7846701Y-20135746D01*
X7846701Y-20135746D02*
X7846701Y-20192889D01*
X7846701Y-20192889D02*
X7837177Y-20211936D01*
X7837177Y-20211936D02*
X7827653Y-20221460D01*
X7827653Y-20221460D02*
X7808606Y-20230984D01*
X7808606Y-20230984D02*
X7780034Y-20230984D01*
X7960987Y-20230984D02*
X7941939Y-20221460D01*
X7941939Y-20221460D02*
X7932415Y-20202412D01*
X7932415Y-20202412D02*
X7932415Y-20030984D01*
X8113368Y-20221460D02*
X8094320Y-20230984D01*
X8094320Y-20230984D02*
X8056225Y-20230984D01*
X8056225Y-20230984D02*
X8037177Y-20221460D01*
X8037177Y-20221460D02*
X8027653Y-20202412D01*
X8027653Y-20202412D02*
X8027653Y-20126222D01*
X8027653Y-20126222D02*
X8037177Y-20107174D01*
X8037177Y-20107174D02*
X8056225Y-20097650D01*
X8056225Y-20097650D02*
X8094320Y-20097650D01*
X8094320Y-20097650D02*
X8113368Y-20107174D01*
X8113368Y-20107174D02*
X8122891Y-20126222D01*
X8122891Y-20126222D02*
X8122891Y-20145270D01*
X8122891Y-20145270D02*
X8027653Y-20164317D01*
X8199082Y-20221460D02*
X8218130Y-20230984D01*
X8218130Y-20230984D02*
X8256225Y-20230984D01*
X8256225Y-20230984D02*
X8275272Y-20221460D01*
X8275272Y-20221460D02*
X8284796Y-20202412D01*
X8284796Y-20202412D02*
X8284796Y-20192889D01*
X8284796Y-20192889D02*
X8275272Y-20173841D01*
X8275272Y-20173841D02*
X8256225Y-20164317D01*
X8256225Y-20164317D02*
X8227653Y-20164317D01*
X8227653Y-20164317D02*
X8208606Y-20154793D01*
X8208606Y-20154793D02*
X8199082Y-20135746D01*
X8199082Y-20135746D02*
X8199082Y-20126222D01*
X8199082Y-20126222D02*
X8208606Y-20107174D01*
X8208606Y-20107174D02*
X8227653Y-20097650D01*
X8227653Y-20097650D02*
X8256225Y-20097650D01*
X8256225Y-20097650D02*
X8275272Y-20107174D01*
X8351463Y-20307174D02*
X8360987Y-20297650D01*
X8360987Y-20297650D02*
X8380034Y-20269079D01*
X8380034Y-20269079D02*
X8389558Y-20250031D01*
X8389558Y-20250031D02*
X8399082Y-20221460D01*
X8399082Y-20221460D02*
X8408606Y-20173841D01*
X8408606Y-20173841D02*
X8408606Y-20135746D01*
X8408606Y-20135746D02*
X8399082Y-20088127D01*
X8399082Y-20088127D02*
X8389558Y-20059555D01*
X8389558Y-20059555D02*
X8380034Y-20040508D01*
X8380034Y-20040508D02*
X8360987Y-20011936D01*
X8360987Y-20011936D02*
X8351463Y-20002412D01*
X8713368Y-20307174D02*
X8703844Y-20297650D01*
X8703844Y-20297650D02*
X8684796Y-20269079D01*
X8684796Y-20269079D02*
X8675273Y-20250031D01*
X8675273Y-20250031D02*
X8665749Y-20221460D01*
X8665749Y-20221460D02*
X8656225Y-20173841D01*
X8656225Y-20173841D02*
X8656225Y-20135746D01*
X8656225Y-20135746D02*
X8665749Y-20088127D01*
X8665749Y-20088127D02*
X8675273Y-20059555D01*
X8675273Y-20059555D02*
X8684796Y-20040508D01*
X8684796Y-20040508D02*
X8703844Y-20011936D01*
X8703844Y-20011936D02*
X8713368Y-20002412D01*
X8789558Y-20097650D02*
X8789558Y-20230984D01*
X8789558Y-20116698D02*
X8799082Y-20107174D01*
X8799082Y-20107174D02*
X8818130Y-20097650D01*
X8818130Y-20097650D02*
X8846701Y-20097650D01*
X8846701Y-20097650D02*
X8865749Y-20107174D01*
X8865749Y-20107174D02*
X8875273Y-20126222D01*
X8875273Y-20126222D02*
X8875273Y-20230984D01*
X8999082Y-20230984D02*
X8980034Y-20221460D01*
X8980034Y-20221460D02*
X8970511Y-20211936D01*
X8970511Y-20211936D02*
X8960987Y-20192889D01*
X8960987Y-20192889D02*
X8960987Y-20135746D01*
X8960987Y-20135746D02*
X8970511Y-20116698D01*
X8970511Y-20116698D02*
X8980034Y-20107174D01*
X8980034Y-20107174D02*
X8999082Y-20097650D01*
X8999082Y-20097650D02*
X9027654Y-20097650D01*
X9027654Y-20097650D02*
X9046701Y-20107174D01*
X9046701Y-20107174D02*
X9056225Y-20116698D01*
X9056225Y-20116698D02*
X9065749Y-20135746D01*
X9065749Y-20135746D02*
X9065749Y-20192889D01*
X9065749Y-20192889D02*
X9056225Y-20211936D01*
X9056225Y-20211936D02*
X9046701Y-20221460D01*
X9046701Y-20221460D02*
X9027654Y-20230984D01*
X9027654Y-20230984D02*
X8999082Y-20230984D01*
X9122892Y-20097650D02*
X9199082Y-20097650D01*
X9151463Y-20030984D02*
X9151463Y-20202412D01*
X9151463Y-20202412D02*
X9160987Y-20221460D01*
X9160987Y-20221460D02*
X9180034Y-20230984D01*
X9180034Y-20230984D02*
X9199082Y-20230984D01*
X9418130Y-20097650D02*
X9418130Y-20297650D01*
X9418130Y-20107174D02*
X9437177Y-20097650D01*
X9437177Y-20097650D02*
X9475273Y-20097650D01*
X9475273Y-20097650D02*
X9494320Y-20107174D01*
X9494320Y-20107174D02*
X9503844Y-20116698D01*
X9503844Y-20116698D02*
X9513368Y-20135746D01*
X9513368Y-20135746D02*
X9513368Y-20192889D01*
X9513368Y-20192889D02*
X9503844Y-20211936D01*
X9503844Y-20211936D02*
X9494320Y-20221460D01*
X9494320Y-20221460D02*
X9475273Y-20230984D01*
X9475273Y-20230984D02*
X9437177Y-20230984D01*
X9437177Y-20230984D02*
X9418130Y-20221460D01*
X9627654Y-20230984D02*
X9608606Y-20221460D01*
X9608606Y-20221460D02*
X9599082Y-20202412D01*
X9599082Y-20202412D02*
X9599082Y-20030984D01*
X9789558Y-20230984D02*
X9789558Y-20126222D01*
X9789558Y-20126222D02*
X9780035Y-20107174D01*
X9780035Y-20107174D02*
X9760987Y-20097650D01*
X9760987Y-20097650D02*
X9722892Y-20097650D01*
X9722892Y-20097650D02*
X9703844Y-20107174D01*
X9789558Y-20221460D02*
X9770511Y-20230984D01*
X9770511Y-20230984D02*
X9722892Y-20230984D01*
X9722892Y-20230984D02*
X9703844Y-20221460D01*
X9703844Y-20221460D02*
X9694320Y-20202412D01*
X9694320Y-20202412D02*
X9694320Y-20183365D01*
X9694320Y-20183365D02*
X9703844Y-20164317D01*
X9703844Y-20164317D02*
X9722892Y-20154793D01*
X9722892Y-20154793D02*
X9770511Y-20154793D01*
X9770511Y-20154793D02*
X9789558Y-20145270D01*
X9856225Y-20097650D02*
X9932415Y-20097650D01*
X9884796Y-20030984D02*
X9884796Y-20202412D01*
X9884796Y-20202412D02*
X9894320Y-20221460D01*
X9894320Y-20221460D02*
X9913368Y-20230984D01*
X9913368Y-20230984D02*
X9932415Y-20230984D01*
X10075273Y-20221460D02*
X10056225Y-20230984D01*
X10056225Y-20230984D02*
X10018130Y-20230984D01*
X10018130Y-20230984D02*
X9999082Y-20221460D01*
X9999082Y-20221460D02*
X9989558Y-20202412D01*
X9989558Y-20202412D02*
X9989558Y-20126222D01*
X9989558Y-20126222D02*
X9999082Y-20107174D01*
X9999082Y-20107174D02*
X10018130Y-20097650D01*
X10018130Y-20097650D02*
X10056225Y-20097650D01*
X10056225Y-20097650D02*
X10075273Y-20107174D01*
X10075273Y-20107174D02*
X10084796Y-20126222D01*
X10084796Y-20126222D02*
X10084796Y-20145270D01*
X10084796Y-20145270D02*
X9989558Y-20164317D01*
X10256225Y-20230984D02*
X10256225Y-20030984D01*
X10256225Y-20221460D02*
X10237177Y-20230984D01*
X10237177Y-20230984D02*
X10199082Y-20230984D01*
X10199082Y-20230984D02*
X10180035Y-20221460D01*
X10180035Y-20221460D02*
X10170511Y-20211936D01*
X10170511Y-20211936D02*
X10160987Y-20192889D01*
X10160987Y-20192889D02*
X10160987Y-20135746D01*
X10160987Y-20135746D02*
X10170511Y-20116698D01*
X10170511Y-20116698D02*
X10180035Y-20107174D01*
X10180035Y-20107174D02*
X10199082Y-20097650D01*
X10199082Y-20097650D02*
X10237177Y-20097650D01*
X10237177Y-20097650D02*
X10256225Y-20107174D01*
X10332416Y-20307174D02*
X10341939Y-20297650D01*
X10341939Y-20297650D02*
X10360987Y-20269079D01*
X10360987Y-20269079D02*
X10370511Y-20250031D01*
X10370511Y-20250031D02*
X10380035Y-20221460D01*
X10380035Y-20221460D02*
X10389558Y-20173841D01*
X10389558Y-20173841D02*
X10389558Y-20135746D01*
X10389558Y-20135746D02*
X10380035Y-20088127D01*
X10380035Y-20088127D02*
X10370511Y-20059555D01*
X10370511Y-20059555D02*
X10360987Y-20040508D01*
X10360987Y-20040508D02*
X10341939Y-20011936D01*
X10341939Y-20011936D02*
X10332416Y-20002412D01*
M02*
