G04 #@! TF.GenerationSoftware,KiCad,Pcbnew,7.0.7*
G04 #@! TF.CreationDate,2023-10-20T13:35:02-04:00*
G04 #@! TF.ProjectId,Schematic,53636865-6d61-4746-9963-2e6b69636164,rev?*
G04 #@! TF.SameCoordinates,Original*
G04 #@! TF.FileFunction,Paste,Top*
G04 #@! TF.FilePolarity,Positive*
%FSLAX46Y46*%
G04 Gerber Fmt 4.6, Leading zero omitted, Abs format (unit mm)*
G04 Created by KiCad (PCBNEW 7.0.7) date 2023-10-20 13:35:02*
%MOMM*%
%LPD*%
G01*
G04 APERTURE LIST*
G04 Aperture macros list*
%AMRoundRect*
0 Rectangle with rounded corners*
0 $1 Rounding radius*
0 $2 $3 $4 $5 $6 $7 $8 $9 X,Y pos of 4 corners*
0 Add a 4 corners polygon primitive as box body*
4,1,4,$2,$3,$4,$5,$6,$7,$8,$9,$2,$3,0*
0 Add four circle primitives for the rounded corners*
1,1,$1+$1,$2,$3*
1,1,$1+$1,$4,$5*
1,1,$1+$1,$6,$7*
1,1,$1+$1,$8,$9*
0 Add four rect primitives between the rounded corners*
20,1,$1+$1,$2,$3,$4,$5,0*
20,1,$1+$1,$4,$5,$6,$7,0*
20,1,$1+$1,$6,$7,$8,$9,0*
20,1,$1+$1,$8,$9,$2,$3,0*%
%AMRotRect*
0 Rectangle, with rotation*
0 The origin of the aperture is its center*
0 $1 length*
0 $2 width*
0 $3 Rotation angle, in degrees counterclockwise*
0 Add horizontal line*
21,1,$1,$2,0,0,$3*%
G04 Aperture macros list end*
%ADD10RoundRect,0.250000X-0.400000X-0.625000X0.400000X-0.625000X0.400000X0.625000X-0.400000X0.625000X0*%
%ADD11RoundRect,0.250000X-0.650000X0.412500X-0.650000X-0.412500X0.650000X-0.412500X0.650000X0.412500X0*%
%ADD12RotRect,0.450000X0.700000X135.000000*%
%ADD13RoundRect,0.250000X0.337500X0.475000X-0.337500X0.475000X-0.337500X-0.475000X0.337500X-0.475000X0*%
%ADD14RoundRect,0.250000X-0.097227X0.574524X-0.574524X0.097227X0.097227X-0.574524X0.574524X-0.097227X0*%
%ADD15R,3.650000X5.100000*%
%ADD16RoundRect,0.250000X0.625000X-0.400000X0.625000X0.400000X-0.625000X0.400000X-0.625000X-0.400000X0*%
%ADD17RoundRect,0.250000X0.400000X0.625000X-0.400000X0.625000X-0.400000X-0.625000X0.400000X-0.625000X0*%
%ADD18R,0.863600X2.692400*%
%ADD19R,10.414000X10.464800*%
%ADD20RoundRect,0.250000X0.700000X-1.825000X0.700000X1.825000X-0.700000X1.825000X-0.700000X-1.825000X0*%
%ADD21RotRect,0.279400X1.473200X225.000000*%
%ADD22RotRect,0.279400X1.473200X135.000000*%
%ADD23RoundRect,0.250001X-0.624999X0.462499X-0.624999X-0.462499X0.624999X-0.462499X0.624999X0.462499X0*%
%ADD24R,1.550000X1.300000*%
%ADD25RoundRect,0.500000X0.500000X0.500000X-0.500000X0.500000X-0.500000X-0.500000X0.500000X-0.500000X0*%
%ADD26RoundRect,0.250000X0.412500X0.650000X-0.412500X0.650000X-0.412500X-0.650000X0.412500X-0.650000X0*%
%ADD27RoundRect,0.250001X-0.462499X-0.624999X0.462499X-0.624999X0.462499X0.624999X-0.462499X0.624999X0*%
%ADD28RoundRect,0.250000X-0.625000X0.400000X-0.625000X-0.400000X0.625000X-0.400000X0.625000X0.400000X0*%
%ADD29RoundRect,0.250000X0.475000X-0.337500X0.475000X0.337500X-0.475000X0.337500X-0.475000X-0.337500X0*%
G04 APERTURE END LIST*
D10*
X85064000Y-167894000D03*
X88164000Y-167894000D03*
D11*
X122555000Y-122643500D03*
X122555000Y-125768500D03*
D10*
X116713000Y-167894000D03*
X119813000Y-167894000D03*
D12*
X90574726Y-141230513D03*
X89655487Y-140311274D03*
X88700893Y-142185107D03*
D13*
X129942500Y-57404000D03*
X127867500Y-57404000D03*
D14*
X92300623Y-142522377D03*
X90833377Y-143989623D03*
D15*
X111530000Y-69215000D03*
X101830000Y-69215000D03*
D16*
X51181000Y-124740000D03*
X51181000Y-121640000D03*
D17*
X68733000Y-138176000D03*
X65633000Y-138176000D03*
D18*
X128143000Y-53136800D03*
X129413000Y-53136800D03*
X130683000Y-53136800D03*
X131953000Y-53136800D03*
X133223000Y-53136800D03*
X134493000Y-53136800D03*
X135763000Y-53136800D03*
D19*
X131953000Y-44704000D03*
D11*
X89027000Y-90131500D03*
X89027000Y-93256500D03*
D16*
X77597000Y-180620000D03*
X77597000Y-177520000D03*
D17*
X45365000Y-129540000D03*
X42265000Y-129540000D03*
D10*
X85191000Y-171577000D03*
X88291000Y-171577000D03*
D17*
X68759000Y-128270000D03*
X65659000Y-128270000D03*
D10*
X116814000Y-160274000D03*
X119914000Y-160274000D03*
X42011000Y-176796000D03*
X45111000Y-176796000D03*
X85445000Y-181737000D03*
X88545000Y-181737000D03*
X42112000Y-171704000D03*
X45212000Y-171704000D03*
X85471000Y-191897000D03*
X88571000Y-191897000D03*
X84784000Y-160528000D03*
X87884000Y-160528000D03*
X85471000Y-176657000D03*
X88571000Y-176657000D03*
X116713000Y-181991000D03*
X119813000Y-181991000D03*
X85064000Y-164338000D03*
X88164000Y-164338000D03*
D17*
X68733000Y-143256000D03*
X65633000Y-143256000D03*
D10*
X116713000Y-171831000D03*
X119813000Y-171831000D03*
D20*
X88773000Y-64689000D03*
X88773000Y-57739000D03*
D17*
X68733000Y-133350000D03*
X65633000Y-133350000D03*
D21*
X87115019Y-139579982D03*
X87468571Y-139226429D03*
X87822126Y-138872875D03*
X88175678Y-138519322D03*
X88529233Y-138165767D03*
X88882786Y-137812215D03*
X89236338Y-137458662D03*
X89589893Y-137105108D03*
X89943446Y-136751555D03*
X90297000Y-136398000D03*
X90650553Y-136044448D03*
X91004105Y-135690895D03*
X91357660Y-135337340D03*
X91711213Y-134983788D03*
X92064767Y-134630233D03*
X92418320Y-134276681D03*
D22*
X92418320Y-131641435D03*
X92064767Y-131287883D03*
X91711213Y-130934328D03*
X91357660Y-130580776D03*
X91004105Y-130227221D03*
X90650553Y-129873668D03*
X90297000Y-129520116D03*
X89943446Y-129166561D03*
X89589893Y-128813008D03*
X89236338Y-128459454D03*
X88882786Y-128105901D03*
X88529233Y-127752349D03*
X88175678Y-127398794D03*
X87822126Y-127045241D03*
X87468571Y-126691687D03*
X87115019Y-126338134D03*
D21*
X84479773Y-126338134D03*
X84126221Y-126691687D03*
X83772666Y-127045241D03*
X83419114Y-127398794D03*
X83065559Y-127752349D03*
X82712006Y-128105901D03*
X82358454Y-128459454D03*
X82004899Y-128813008D03*
X81651346Y-129166561D03*
X81297792Y-129520116D03*
X80944239Y-129873668D03*
X80590687Y-130227221D03*
X80237132Y-130580776D03*
X79883579Y-130934328D03*
X79530025Y-131287883D03*
X79176472Y-131641435D03*
D22*
X79176472Y-134276681D03*
X79530025Y-134630233D03*
X79883579Y-134983788D03*
X80237132Y-135337340D03*
X80590687Y-135690895D03*
X80944239Y-136044448D03*
X81297792Y-136398000D03*
X81651346Y-136751555D03*
X82004899Y-137105108D03*
X82358454Y-137458662D03*
X82712006Y-137812215D03*
X83065559Y-138165767D03*
X83419114Y-138519322D03*
X83772666Y-138872875D03*
X84126221Y-139226429D03*
X84479773Y-139579982D03*
D10*
X116713000Y-187071000D03*
X119813000Y-187071000D03*
D20*
X103759000Y-50973000D03*
X103759000Y-44023000D03*
D10*
X42164000Y-168021000D03*
X45264000Y-168021000D03*
D23*
X133477000Y-148536000D03*
X133477000Y-151511000D03*
D24*
X112014000Y-152582000D03*
X104054000Y-152582000D03*
X112014000Y-148082000D03*
X104054000Y-148082000D03*
D17*
X68225000Y-176276000D03*
X65125000Y-176276000D03*
D11*
X64262000Y-166077500D03*
X64262000Y-169202500D03*
D10*
X42011000Y-180086000D03*
X45111000Y-180086000D03*
D17*
X118035000Y-134366000D03*
X114935000Y-134366000D03*
D10*
X116713000Y-176911000D03*
X119813000Y-176911000D03*
D25*
X40640000Y-146304000D03*
X43180000Y-146304000D03*
X45720000Y-146304000D03*
X48260000Y-146304000D03*
X50800000Y-146304000D03*
X53340000Y-146304000D03*
X55880000Y-146304000D03*
X58420000Y-146304000D03*
X40640000Y-148844000D03*
X43180000Y-148844000D03*
X45720000Y-148844000D03*
X48260000Y-148844000D03*
X50800000Y-148844000D03*
X53340000Y-148844000D03*
X55880000Y-148844000D03*
X58420000Y-148844000D03*
X40640000Y-151384000D03*
X43180000Y-151384000D03*
X45720000Y-151384000D03*
X48260000Y-151384000D03*
X50800000Y-151384000D03*
X53340000Y-151384000D03*
X55880000Y-151384000D03*
X58420000Y-151384000D03*
X40640000Y-153924000D03*
X43180000Y-153924000D03*
X45720000Y-153924000D03*
X48260000Y-153924000D03*
X50800000Y-153924000D03*
X53340000Y-153924000D03*
X55880000Y-153924000D03*
X58420000Y-153924000D03*
X40640000Y-156464000D03*
X43180000Y-156464000D03*
X45720000Y-156464000D03*
X48260000Y-156464000D03*
X50800000Y-156464000D03*
X53340000Y-156464000D03*
X55880000Y-156464000D03*
X58420000Y-156464000D03*
X40640000Y-159004000D03*
X43180000Y-159004000D03*
X45720000Y-159004000D03*
X48260000Y-159004000D03*
X50800000Y-159004000D03*
X53340000Y-159004000D03*
X55880000Y-159004000D03*
X58420000Y-159004000D03*
X40640000Y-161544000D03*
X43180000Y-161544000D03*
X45720000Y-161544000D03*
X48260000Y-161544000D03*
X50800000Y-161544000D03*
X53340000Y-161544000D03*
X55880000Y-161544000D03*
X58420000Y-161544000D03*
X40640000Y-164084000D03*
X43180000Y-164084000D03*
X45720000Y-164084000D03*
X48260000Y-164084000D03*
X50800000Y-164084000D03*
X53340000Y-164084000D03*
X55880000Y-164084000D03*
X58420000Y-164084000D03*
D16*
X41656000Y-82602000D03*
X41656000Y-79502000D03*
D26*
X43180000Y-94133000D03*
X40055000Y-94133000D03*
D16*
X41656000Y-88952000D03*
X41656000Y-85852000D03*
D10*
X116713000Y-192151000D03*
X119813000Y-192151000D03*
D26*
X111671500Y-129286000D03*
X108546500Y-129286000D03*
D17*
X68733000Y-148336000D03*
X65633000Y-148336000D03*
D16*
X97917000Y-124486000D03*
X97917000Y-121386000D03*
D10*
X116713000Y-164084000D03*
X119813000Y-164084000D03*
D27*
X130502000Y-144780000D03*
X133477000Y-144780000D03*
D28*
X128143000Y-101828000D03*
X128143000Y-104928000D03*
D17*
X68225000Y-172732000D03*
X65125000Y-172732000D03*
D29*
X123063000Y-48789500D03*
X123063000Y-46714500D03*
D10*
X108559000Y-134366000D03*
X111659000Y-134366000D03*
D28*
X122555000Y-115036000D03*
X122555000Y-118136000D03*
D17*
X88037000Y-186817000D03*
X84937000Y-186817000D03*
M02*
